<svg xmlns="http://www.w3.org/2000/svg" viewBox="0 0 64 64"><defs><style>.cls-1{fill:#f7ff5f;}.cls-2{fill:#fff;}.cls-3{fill:#00e1ff;}.cls-4{fill:#ff0043;}</style></defs><g id="レイヤー_2" data-name="レイヤー 2"><g id="レイヤー_2-2" data-name="レイヤー 2"><path d="M55.94,48.59v0l.33-.36Z"/><path d="M32,0A32,32,0,1,0,58.43,50.05l0,0,0-.06.24-.36h0A32,32,0,0,0,32,0ZM52.58,11.3H34.14l7-7A29.13,29.13,0,0,1,52.58,11.3ZM34.15,14.09h11.7L40,19.94ZM38,21.92l-10,10,0-14.48,2.78-2.78Zm-8.19-19c.72-.06,1.45-.08,2.17-.08a28.84,28.84,0,0,1,6.06.63L28,13.51V4.74ZM25.19,16.3,19,22.51V13.72l6.2-6.19Zm0-12.7L3.61,25.15A29.15,29.15,0,0,1,25.15,3.6Zm-9,52.94A29.2,29.2,0,0,1,2.8,32c0-.73,0-1.46.08-2.17L16.19,16.52ZM32,61.2a29.09,29.09,0,0,1-13-3.06V26.46l6.22-6.22,0,24.61c.12,5.24,4.68,10.84,10.59,13a16.8,16.8,0,0,0,5.82,1,15.12,15.12,0,0,0,2-.12A29,29,0,0,1,32,61.2ZM56.27,48.26l-.33.36c-8.2,8.87-15.5,8-19.15,6.63-5.38-2-8.68-6.88-8.77-10.43V35.88l12-12L59.08,43A29.41,29.41,0,0,1,56.27,48.26ZM42,21.92l7.83-7.83h5.26a29.31,29.31,0,0,1,5,25.94Z"/><polygon class="cls-1" points="25.19 16.3 18.98 22.51 18.98 13.72 25.18 7.53 25.19 16.3"/><path class="cls-2" d="M52.58,11.3H34.14l7-7A29.13,29.13,0,0,1,52.58,11.3Z"/><path class="cls-1" d="M40,23.9l-12,12v8.94c.09,3.55,3.39,8.44,8.77,10.43,3.65,1.35,11,2.24,19.15-6.63v0l.33-.33A29.41,29.41,0,0,0,59.08,43ZM38.2,46.5a3.15,3.15,0,1,1,3.16-3.15A3.15,3.15,0,0,1,38.2,46.5Zm8.9-2.76A1.77,1.77,0,1,1,48.87,42,1.77,1.77,0,0,1,47.1,43.74Z"/><polygon class="cls-2" points="38.02 21.92 28.01 31.93 27.99 17.45 30.77 14.67 38.02 21.92"/><path class="cls-2" d="M25.15,3.6,3.61,25.15A29.15,29.15,0,0,1,25.15,3.6Z"/><path class="cls-3" d="M61.2,32a29.21,29.21,0,0,1-1.11,8L42,21.92l7.83-7.83h5.26A29.06,29.06,0,0,1,61.2,32Z"/><path class="cls-3" d="M38.06,3.43,28,13.51V4.74l1.86-1.86c.72-.06,1.45-.08,2.17-.08A28.84,28.84,0,0,1,38.06,3.43Z"/><path class="cls-3" d="M43.62,58.79A29.22,29.22,0,0,1,19,58.14V26.46l6.22-6.22,0,24.61c.12,5.24,4.68,10.84,10.59,13a16.8,16.8,0,0,0,5.82,1A15.12,15.12,0,0,0,43.62,58.79Z"/><path class="cls-4" d="M16.19,16.52v40A29.2,29.2,0,0,1,2.8,32c0-.73,0-1.46.08-2.17Z"/><polygon class="cls-4" points="45.85 14.09 40 19.94 34.15 14.09 45.85 14.09"/><path d="M41.36,43.35a3.16,3.16,0,1,1-3.16-3.16A3.15,3.15,0,0,1,41.36,43.35Z"/><path d="M48.87,42a1.77,1.77,0,1,1-1.77-1.77A1.78,1.78,0,0,1,48.87,42Z"/></g></g></svg>