<svg xmlns="http://www.w3.org/2000/svg" viewBox="0 0 64.79 64.79"><defs><style>.cls-1{fill:none;}.cls-1,.cls-10,.cls-2,.cls-3,.cls-4,.cls-5,.cls-6,.cls-7,.cls-8,.cls-9{stroke:#000;}.cls-1,.cls-10,.cls-3,.cls-4,.cls-6,.cls-8,.cls-9{stroke-miterlimit:10;}.cls-1,.cls-3,.cls-4,.cls-6,.cls-8{stroke-width:0.79px;}.cls-2,.cls-3{fill:#fff;}.cls-2,.cls-5,.cls-7{stroke-linejoin:bevel;}.cls-2,.cls-7{stroke-width:0.79px;}.cls-4{fill:#00e1ff;}.cls-5,.cls-6,.cls-9{fill:#ff003d;}.cls-5{stroke-width:0.79px;}.cls-10,.cls-7,.cls-8{fill:#92eadf;}.cls-10,.cls-9{stroke-width:0.84px;}</style></defs><g id="レイヤー_2" data-name="レイヤー 2"><g id="SawadaHaruka"><path class="cls-1" d="M50,40.55a2.55,2.55,0,1,0,2.56,2.55A2.55,2.55,0,0,0,50,40.55Zm-10.77-.3a4.7,4.7,0,1,0,4.7,4.69A4.7,4.7,0,0,0,39.23,40.25Z"/><polygon class="cls-2" points="26.77 0.88 26.77 16.11 17.32 25.57 17.32 10.33 26.77 0.88 26.77 0.88"/><path class="cls-3" d="M57.22,12.2H30.68L41.25,1.64A32,32,0,0,1,57.22,12.2Z"/><path class="cls-3" d="M39.28,20.57,26.77,33.08V45.8c0,9.13,16.33,22.12,32.13,4.54h0a32,32,0,0,0,3.46-6.68Zm-.05,29.07a4.7,4.7,0,1,1,4.7-4.7A4.7,4.7,0,0,1,39.23,49.64Zm10.77-4a2.55,2.55,0,1,1,2.56-2.54A2.54,2.54,0,0,1,50,45.64Z"/><path class="cls-4" d="M41.25,1.64,26.77,16.11V.88A32.57,32.57,0,0,1,32.4.39,31.91,31.91,0,0,1,41.25,1.64Z"/><path class="cls-4" d="M64.39,32.39a31.82,31.82,0,0,1-2,11.26L39.28,20.57l8.36-8.37h9.59A31.9,31.9,0,0,1,64.39,32.39Z"/><path class="cls-4" d="M58.9,50.34A32,32,0,0,1,17.32,60.62v-35l9.45-9.46V45.8C26.77,54.93,43.1,67.92,58.9,50.34Z"/><polygon class="cls-5" points="47.64 12.2 39.28 20.57 30.92 12.2 47.64 12.2"/><path class="cls-6" d="M17.32,10.33V60.62A32,32,0,0,1,.39,32.39a32.45,32.45,0,0,1,.49-5.62Z"/><path class="cls-7" d="M26.77.88l-9.45,9.45L.88,26.77A32.07,32.07,0,0,1,26.77.88Z"/><polygon class="cls-8" points="39.28 20.57 26.77 33.08 26.77 16.11 30.68 12.2 30.92 12.2 39.28 20.57"/><path class="cls-9" d="M43.93,44.94a4.7,4.7,0,1,1-4.7-4.69A4.69,4.69,0,0,1,43.93,44.94Z"/><path class="cls-10" d="M52.56,43.1A2.55,2.55,0,1,1,50,40.55,2.54,2.54,0,0,1,52.56,43.1Z"/></g></g></svg>