<svg xmlns="http://www.w3.org/2000/svg" viewBox="0 0 64.79 64.79"><defs><style>.cls-1,.cls-2{fill:none;}.cls-1,.cls-2,.cls-3,.cls-4,.cls-5,.cls-6,.cls-7,.cls-8,.cls-9{stroke:#000;}.cls-1,.cls-2,.cls-3,.cls-4,.cls-6,.cls-7,.cls-8,.cls-9{stroke-miterlimit:10;}.cls-1,.cls-8,.cls-9{stroke-width:0.84px;}.cls-2,.cls-3,.cls-4,.cls-6,.cls-7{stroke-width:0.79px;}.cls-3{fill:#fff;}.cls-4{fill:#00e1ff;}.cls-5,.cls-6,.cls-8{fill:#ff003d;}.cls-5{stroke-linejoin:bevel;stroke-width:0.79px;}.cls-7,.cls-9{fill:#92eadf;}</style></defs><g id="レイヤー_2" data-name="レイヤー 2"><g id="レイヤー_2-2" data-name="レイヤー 2"><line class="cls-1" x1="0.88" y1="26.77" x2="0.88" y2="26.77"/><line class="cls-1" x1="17.32" y1="10.34" x2="17.32" y2="10.3"/><line class="cls-1" x1="41.25" y1="1.64" x2="41.25" y2="1.64"/><line class="cls-1" x1="26.77" y1="0.89" x2="26.77" y2="0.88"/><line class="cls-1" x1="47.73" y1="12.12" x2="47.64" y2="12.21"/><line class="cls-1" x1="30.92" y1="12.21" x2="30.83" y2="12.12"/><line class="cls-1" x1="62.46" y1="43.75" x2="62.36" y2="43.65"/><path class="cls-2" d="M50,40.55a2.55,2.55,0,1,0,2.55,2.54A2.55,2.55,0,0,0,50,40.55Zm-10.77-.3a4.7,4.7,0,1,0,4.69,4.69A4.69,4.69,0,0,0,39.23,40.25Z"/><polygon class="cls-3" points="26.77 0.88 26.77 16.11 17.31 25.57 17.31 10.33 26.76 0.88 26.77 0.88"/><path class="cls-3" d="M57.21,12.2H30.68L41.24,1.64A32,32,0,0,1,57.21,12.2Z"/><path class="cls-3" d="M39.28,20.56,26.77,33.07V45.79c0,9.14,16.32,22.12,32.11,4.55h0a31.4,31.4,0,0,0,3.46-6.69Zm-.05,29.08a4.7,4.7,0,1,1,4.69-4.7A4.7,4.7,0,0,1,39.23,49.64Zm10.77-4a2.55,2.55,0,1,1,2.55-2.55A2.55,2.55,0,0,1,50,45.64Z"/><path class="cls-4" d="M41.24,1.64,26.77,16.11V.88A32.45,32.45,0,0,1,32.39.39,31.91,31.91,0,0,1,41.24,1.64Z"/><path class="cls-4" d="M64.39,32.39a31.81,31.81,0,0,1-2,11.25L39.28,20.56l8.36-8.36h9.58A31.88,31.88,0,0,1,64.39,32.39Z"/><path class="cls-4" d="M58.88,50.34A32,32,0,0,1,17.31,60.62v-35l9.46-9.46V45.79C26.77,54.93,43.09,67.91,58.88,50.34Z"/><polygon class="cls-5" points="47.64 12.2 39.28 20.56 30.92 12.2 47.64 12.2"/><path class="cls-6" d="M17.31,10.33V60.62A32,32,0,0,1,.39,32.39a32.54,32.54,0,0,1,.49-5.62h0Z"/><path class="cls-7" d="M26.76.88.88,26.76A32,32,0,0,1,26.76.88Z"/><polygon class="cls-7" points="39.28 20.56 26.77 33.07 26.77 16.11 30.67 12.2 30.92 12.2 39.28 20.56"/><path class="cls-8" d="M43.92,44.94a4.7,4.7,0,1,1-4.69-4.69A4.7,4.7,0,0,1,43.92,44.94Z"/><path class="cls-9" d="M52.55,43.09A2.55,2.55,0,1,1,50,40.55,2.55,2.55,0,0,1,52.55,43.09Z"/></g></g></svg>