<svg xmlns="http://www.w3.org/2000/svg" viewBox="0 0 279.51 126.17">
<defs><style>.cls-1{fill:#231815;}</style></defs>
<g id="レイヤー_2" data-name="レイヤー 2">
<g id="レイヤー_25" data-name="レイヤー 25">
<path class="cls-1" d="M277,33.74,243.75.51l-.07,0-.07-.06h-.32s0,0-.07.06l-.07,0L209.92,33.74a.41.41,0,0,0-.09.46.43.43,0,0,0,.39.26h7.09a.35.35,0,0,0,.17,0l.1-.06,0,0L243.45,8.5l25.83,25.83,0,0a.33.33,0,0,0,.1.06.32.32,0,0,0,.16,0h7.1a.44.44,0,0,0,.39-.26A.43.43,0,0,0,277,33.74Z"/>
<line class="cls-1" x1="122.61" y1="0.7" x2="117.26" y2="0.7"/>
<path class="cls-1" d="M56.26,52.1A12.76,12.76,0,1,0,69,64.91,12.73,12.73,0,0,0,56.26,52.1Zm0,19.45A6.7,6.7,0,1,1,63,64.9,6.69,6.69,0,0,1,56.26,71.55Z"/>
<path class="cls-1" d="M133.32,89.48l-.58-2.93c-.33-1.61.47-2.41,1.76-1.76s2.34-.15,2.34-1.76-1.05-2.41-2.34-1.76-2.09-.15-1.76-1.76l.58-2.94L130.39,76c-1.61-.33-2.41.47-1.76,1.76s-.15,2.34-1.76,2.34-2.41-1-1.76-2.34S125,75.66,123.35,76l-2.94.58.59,2.94c.32,1.61-.47,2.4-1.76,1.76s-2.35.14-2.35,1.76,1.06,2.4,2.35,1.76,2.08.15,1.76,1.76l-.59,2.93,2.94.59c1.61.32,2.4-.47,1.76-1.76s.14-2.35,1.76-2.35,2.4,1.06,1.76,2.35.15,2.08,1.76,1.76Z"/>
<path class="cls-1" d="M209.8,40.32H277.1a0,0,0,0,1,0,0v4.61A1.13,1.13,0,0,1,276,46.06H209.8a0,0,0,0,1,0,0V40.32A0,0,0,0,1,209.8,40.32Z"/>
<polygon class="cls-1" points="107.75 59.11 100.25 59.11 110.18 70.94 117.67 70.94 117.67 70.93 107.75 59.11"/>
<polygon class="cls-1" points="87.91 59.11 95.41 59.11 85.48 70.94 78 70.94 77.99 70.93 87.91 59.11"/>
<polygon class="cls-1" points="106.09 0 106.09 10.48 91.42 10.48 91.42 0 85.68 0 85.68 10.48 78.98 10.48 78.98 16.22 85.68 16.22 91.42 16.22 106.09 16.22 111.46 16.22 111.83 16.22 111.83 0 106.09 0"/>
<polygon class="cls-1" points="257.35 27.81 229.54 27.81 223.82 33.55 263.07 33.55 257.35 27.81"/><path class="cls-1" d="M106.09,18.65V49.39H79v5.74H110.7A1.13,1.13,0,0,0,111.83,54V18.65Z"/><path class="cls-1" d="M56.26,80.59a15.3,15.3,0,0,1-3.91-.52l.13,46.1,6.56,0A1.12,1.12,0,0,0,60.16,125L59.9,80.14A15.64,15.64,0,0,1,56.26,80.59Z"/><path class="cls-1" d="M74.11,33.24H10.85V40H73a1.14,1.14,0,0,0,1.14-1.14Z"/><path class="cls-1" d="M203,33.24H149.34V40h52.53A1.14,1.14,0,0,0,203,38.91Z"/><path class="cls-1" d="M195.88,119.21v6.27h-2.33V110h2.64a11.87,11.87,0,0,1,2.93.27,3.88,3.88,0,0,1,1.76,1,4.37,4.37,0,0,1,1.33,3.28,4.23,4.23,0,0,1-1.42,3.36,5.58,5.58,0,0,1-3.83,1.24Zm0-2.16h.87c2.14,0,3.21-.82,3.21-2.47s-1.1-2.39-3.31-2.39h-.77Z"/><path class="cls-1" d="M210.39,118.9l4.78,6.58h-2.85l-4.41-6.32h-.42v6.32h-2.33V110h2.73a6.79,6.79,0,0,1,4.42,1.15,4.22,4.22,0,0,1,1.5,3.38,4.38,4.38,0,0,1-.94,2.82A4.14,4.14,0,0,1,210.39,118.9Zm-2.9-1.77h.74c2.21,0,3.31-.84,3.31-2.53s-1.07-2.37-3.22-2.37h-.83Z"/><path class="cls-1" d="M215.56,117.69a7.56,7.56,0,0,1,2.39-5.6,7.88,7.88,0,0,1,5.72-2.34,8.07,8.07,0,0,1,8,8,7.62,7.62,0,0,1-2.38,5.65,8.17,8.17,0,0,1-11.15.26A7.62,7.62,0,0,1,215.56,117.69Zm2.35,0a5.6,5.6,0,0,0,1.72,4.21,5.71,5.71,0,0,0,8.06,0,6,6,0,0,0,0-8.28,5.77,5.77,0,0,0-8.14,0A5.58,5.58,0,0,0,217.91,117.72Z"/><path class="cls-1" d="M239.34,110v10a10.41,10.41,0,0,1-.25,2.67,4,4,0,0,1-.85,1.69,3.88,3.88,0,0,1-3.1,1.37,5.16,5.16,0,0,1-2.73-.76l1.14-2a2.86,2.86,0,0,0,1.59.57,1.47,1.47,0,0,0,1.44-.79A6.42,6.42,0,0,0,237,120V110Z"/><path class="cls-1" d="M251.56,112.23h-6.19v3.71h6v2.19h-6v5.16h6.19v2.19H243V110h8.52Z"/><path class="cls-1" d="M266,110.87v2.76a6.45,6.45,0,0,0-4.18-1.69,5.31,5.31,0,0,0-4,1.71,5.74,5.74,0,0,0-1.65,4.16,5.6,5.6,0,0,0,1.65,4.1,5.42,5.42,0,0,0,4,1.67,4.9,4.9,0,0,0,2.09-.4,5.42,5.42,0,0,0,1-.54,11.5,11.5,0,0,0,1.09-.82v2.81a8.49,8.49,0,0,1-4.2,1.13,7.78,7.78,0,0,1-5.66-2.31,7.67,7.67,0,0,1-2.33-5.62,7.92,7.92,0,0,1,2-5.26,8,8,0,0,1,10.24-1.7Z"/><path class="cls-1" d="M275,112.22v13.25h-2.33V112.22h-4.55V110h11.42v2.19Z"/><path class="cls-1" d="M136.72,8.17V70.94h4.6a1.14,1.14,0,0,0,1.14-1.13V8.17Z"/><polygon class="cls-1" points="103.82 35.99 91.42 35.99 91.42 28.98 103.66 28.98 103.66 23.24 91.42 23.24 91.42 18.65 85.68 18.65 85.68 46.96 91.42 46.96 91.42 41.74 103.82 41.74 103.82 35.99"/><path class="cls-1" d="M142.46,5.74V0H117.29V70.94h4.6A1.14,1.14,0,0,0,123,69.81V34.51h11.25V28.77H123v-8h11.25V15H123V5.74Z"/><polygon class="cls-1" points="258.81 70.98 255.7 65.24 228.29 65.24 237.11 48.5 230.29 48.5 218.38 70.97 222.68 70.97 222.68 70.98 258.81 70.98"/><polygon class="cls-1" points="252.82 54.83 261.58 70.98 268.11 70.98 259.35 54.83 252.82 54.83"/><path class="cls-1" d="M141.7,80.83v44.69h5.66a1.13,1.13,0,0,0,1.13-1.13V80.83Z"/><rect class="cls-1" x="161.68" y="80.83" width="6.79" height="44.69"/><path class="cls-1" d="M185.55,118.73H161.68v6.79h22.74a1.13,1.13,0,0,0,1.13-1.13Z"/><path class="cls-1" d="M114.29,85.36H79v6.79h28.61L74,125.74h9.61L114,95.42a1.14,1.14,0,0,0,.33-.8Z"/><polygon class="cls-1" points="121.96 125.82 104.48 108.34 99.68 113.14 112.35 125.82 121.96 125.82"/><polygon class="cls-1" points="29.5 66.68 21.64 66.66 0 126.17 8.6 126.17 29.5 66.68"/></g></g></svg>