<svg xmlns="http://www.w3.org/2000/svg" viewBox="0 0 194 116.69"><defs><style>.cls-1{fill:#1b1464;}.cls-2{fill:none;stroke:#000;stroke-miterlimit:10;stroke-width:0.25px;}</style></defs><g id="レイヤー_2" data-name="レイヤー 2"><g id="レイヤー_1-2" data-name="レイヤー 1"><path class="cls-1" d="M45.2,30.79l-.84.94c-5.44,6.2-12.19,9.57-19.22,9.57a14.69,14.69,0,0,1-8.22-2.16,11.49,11.49,0,0,1-4.59-6.31,19.91,19.91,0,0,1-.84-6c0-5.71.41-19.63.72-25.21L12.29.27,18.5.78l1.39.11-.23,1.38a2.14,2.14,0,0,1-.29.81,2.19,2.19,0,0,1-.61.67,2.58,2.58,0,0,1-.54.29c-.34,5.54-.74,16.55-.74,22.8a11,11,0,0,0,1.18,5.45A5.86,5.86,0,0,0,21.84,35a9.77,9.77,0,0,0,3.35.53,16.45,16.45,0,0,0,7.63-2,26.7,26.7,0,0,0,7.59-6.16l1.14-1.29.92,1.46a20.56,20.56,0,0,0,1.44,2,4.58,4.58,0,0,0,.36.4Z"/><path class="cls-1" d="M95.53,25.34c-1.69,6-4.28,12.06-9.68,14.85-5.94,3.07-14.24-.32-13.92-7.64.32-5.7,1-12.71-6.51-6.75-5,4.29-6.3,9.26-8.38,15.6l-5.66-1.83c3.36-9.63,9.19-26.4,11-31.48h0c.85-2.49,2-5.82,2.64-8.09l7.44,1.93c-.36,1.27-1,2.84-2.53,3-1.77,4.44-4.12,10.79-5.9,15.62,10.54-6.63,15.33.69,13.74,11.14-.27,3.41,3.06,4.74,5.7,3.14,3.78-2.47,5.44-7.37,6.77-12.52A27.21,27.21,0,0,0,95.53,25.34Z"/><path class="cls-1" d="M130.72,23.46a36.41,36.41,0,0,1-1.59,10.45s0,0,0,0a11.55,11.55,0,0,1-3.52,5.7,8.73,8.73,0,0,1-5.7,2,9.46,9.46,0,0,1-3.83-.88A23,23,0,0,1,111,37.41l-.87-.71.58-1a15.88,15.88,0,0,0,1.11-2.54l.62-1.62,1.37,1.07a22.33,22.33,0,0,0,4,2.6,4.87,4.87,0,0,0,2.07.54,3,3,0,0,0,2.24-.82,6.28,6.28,0,0,0,1.53-2.77v0h0A32.41,32.41,0,0,0,125,23.39v0a11.74,11.74,0,0,0-.69-4.32,3.73,3.73,0,0,0-1.87-2.1,5.22,5.22,0,0,0-2.26-.43h-.1c-1.08,0-2.59.13-4.46.33-2.21,8.87-4.87,16.61-9.14,23.78l-.61,1-5.31-2.58.76-1.21a69.82,69.82,0,0,0,8.33-20.31c-2,.25-4.3.55-6.09.85l-1.37.23-.49-5.77,1.22-.15,8-.92c.61-3.07,1.25-6.73,1.73-10.3l.18-1.27,6,.8,1.31.18-.22,1.31a2.08,2.08,0,0,1-.4.93,2.27,2.27,0,0,1-.74.59,2.18,2.18,0,0,1-.52.19l-1.33,7c1.33-.12,2.49-.22,3.37-.22h.22a11.31,11.31,0,0,1,4.75.93,8.06,8.06,0,0,1,3.28,2.7C130.14,16.93,130.71,20,130.72,23.46Z"/><path class="cls-1" d="M144.15,23.45l-5.67,2.21a26.28,26.28,0,0,0-11.31-17.1l4.52-3.51C137.69,9.05,142.79,16.13,144.15,23.45Z"/><path class="cls-1" d="M162.78,33.78l0,.17v-.17Z"/><path class="cls-1" d="M172.72,26.8c-2.2,9.62-10.6,19.15-18.14,7.85-5.14-8.54-3.64-21.09-2.74-30.88l7.29,1.42c-.18,1-.47,2.43-1.61,2.76-.44,7.61-3.28,22.37,5.26,25.83l0,.17v-.17c2.75-2.42,3.87-6.93,5.18-10.73A18.13,18.13,0,0,0,172.72,26.8Z"/><path class="cls-1" d="M192.17,27l-5.8,1.8c-.92-8.11-5-14.73-12.27-18.19l3.62-4.44A26.3,26.3,0,0,1,192.17,27Z"/><path class="cls-1" d="M15.51,79.19H10.14Q11.39,68.51,20.83,68.5H31.57A10.79,10.79,0,0,1,42.26,79.19V81.9q0,5.55-10.36,14.38l-.71.63q-10.36,8.86-10.36,13.93v.48H42.26v5.37H10.14v-5.37q0-5.55,10.34-14.41l.73-.63Q31.58,87.46,31.57,81.9V79.19A5.08,5.08,0,0,0,30,75.44a5.23,5.23,0,0,0-3.76-1.57H20.83C17.53,73.87,15.76,75.65,15.51,79.19Z"/><path class="cls-1" d="M67.88,68.5H78.62A10.77,10.77,0,0,1,89.31,79.19V106a10.79,10.79,0,0,1-10.69,10.69H67.88A10.76,10.76,0,0,1,57.19,106V79.19A10.76,10.76,0,0,1,67.88,68.5Zm10.64,9.79c-.73-2.94-2.49-4.42-5.27-4.42a5.23,5.23,0,0,0-3.79,1.57,5.13,5.13,0,0,0-1.58,3.75V97.41ZM68,106.83a5.59,5.59,0,0,0,1.72,3.36,5.67,5.67,0,0,0,7.33-.45A5.16,5.16,0,0,0,78.62,106V87.8Z"/><path class="cls-1" d="M109.62,79.19h-5.37q1.25-10.68,10.69-10.69h10.74a10.79,10.79,0,0,1,10.69,10.69V81.9q0,5.55-10.37,14.38l-.7.63q-10.36,8.86-10.36,13.93v.48h21.43v5.37H104.25v-5.37q0-5.55,10.33-14.41l.73-.63q10.36-8.82,10.37-14.38V79.19a5.08,5.08,0,0,0-1.61-3.75,5.23,5.23,0,0,0-3.76-1.57h-5.37C111.64,73.87,109.87,75.65,109.62,79.19Z"/><path class="cls-1" d="M162,68.5h10.74a10.79,10.79,0,0,1,10.69,10.69V106a10.81,10.81,0,0,1-10.69,10.69H162A10.76,10.76,0,0,1,151.3,106V79.19A10.76,10.76,0,0,1,162,68.5Zm10.64,9.79c-.74-2.94-2.49-4.42-5.27-4.42a5.21,5.21,0,0,0-3.79,1.57A5.13,5.13,0,0,0,162,79.19V97.41Zm-10.51,28.54a5.58,5.58,0,0,0,1.71,3.36,5.27,5.27,0,0,0,3.53,1.13,5.38,5.38,0,0,0,5.37-5.32V87.8Z"/><path d="M42.12,52.54a9.63,9.63,0,0,1,1.61-.13c2.56,0,3.3,1.51,3.3,3.08a3.48,3.48,0,0,1-.87,2.5,3.63,3.63,0,0,1-2.66.9,11.33,11.33,0,0,1-1.38-.07Zm.7,5.75a6.34,6.34,0,0,0,.81,0c1.72,0,2.67-1,2.67-2.81A2.29,2.29,0,0,0,43.75,53a5.07,5.07,0,0,0-.93.08Z"/><path d="M52.51,58.84H49.14V52.46h3.22V53H49.83V55.2h2.38v.58H49.83v2.47h2.68Z"/><path d="M58,58.84H54.59V52.46h3.23V53H55.29V55.2h2.38v.58H55.29v2.47H58Z"/><path d="M60,52.54a7.83,7.83,0,0,1,1.45-.13c2.06,0,2.23,1.33,2.23,1.83a2.06,2.06,0,0,1-2.33,2,2.61,2.61,0,0,1-.65-.06v2.62H60Zm.7,3.1a2.5,2.5,0,0,0,.67.07c1,0,1.61-.51,1.61-1.42S62.37,53,61.5,53a4.09,4.09,0,0,0-.76.06Z"/><path d="M71.73,53.24A2.29,2.29,0,0,0,70.6,53c-.89,0-1.22.54-1.22,1s.39.94,1.24,1.3c1,.44,1.56,1,1.56,1.88s-.74,1.79-2.11,1.79a2.92,2.92,0,0,1-1.53-.4l.19-.58a2.61,2.61,0,0,0,1.38.4c.85,0,1.36-.47,1.36-1.15s-.35-1-1.18-1.35-1.61-.92-1.61-1.8a1.76,1.76,0,0,1,1.95-1.69,2.46,2.46,0,0,1,1.3.31Z"/><path d="M77.71,58.84H74.35V52.46h3.22V53H75V55.2h2.38v.58H75v2.47h2.67Z"/><path d="M84.36,58.84h-.73l-.69-2.07H80.72l-.67,2.07h-.71l2.11-6.38h.8ZM82.8,56.22l-.63-1.9a11.71,11.71,0,0,1-.33-1.21h0c-.09.38-.21.79-.32,1.19l-.64,1.92Z"/><path d="M92.72,58.84H89.35V52.46h3.23V53H90.05V55.2h2.38v.58H90.05v2.47h2.67Z"/><path d="M99,58.84h-.8l-.84-1.47c-.32-.54-.52-.88-.72-1.27h0c-.19.39-.37.72-.69,1.27l-.78,1.47h-.8l1.9-3.23-1.82-3.15h.8L96.07,54c.22.41.4.72.58,1.08h0c.19-.38.35-.67.58-1.08l.88-1.55h.79l-1.87,3.1Z"/><path d="M101,52.54a7.66,7.66,0,0,1,1.45-.13c2.06,0,2.22,1.33,2.22,1.83a2.05,2.05,0,0,1-2.33,2,2.61,2.61,0,0,1-.65-.06v2.62H101Zm.69,3.1a2.55,2.55,0,0,0,.67.07c1,0,1.62-.51,1.62-1.42S103.29,53,102.42,53a4.09,4.09,0,0,0-.76.06Z"/><path d="M110.13,58.84h-3.34V52.46h.7v5.78h2.64Z"/><path d="M117.19,55.59c0,2.24-1.26,3.35-2.77,3.35s-2.7-1.25-2.7-3.24,1.18-3.34,2.78-3.34S117.19,53.66,117.19,55.59Zm-4.74.09c0,1.36.7,2.68,2,2.68s2-1.28,2-2.74c0-1.28-.63-2.69-2-2.69S112.45,54.32,112.45,55.68Z"/><path d="M121.79,55.78a1.6,1.6,0,0,1,.93,1.33,9.5,9.5,0,0,0,.47,1.73h-.72a8.73,8.73,0,0,1-.41-1.54c-.18-.89-.53-1.28-1.29-1.28H120v2.82h-.69V52.55a7,7,0,0,1,1.45-.14,2.44,2.44,0,0,1,1.75.52,1.63,1.63,0,0,1,.48,1.19,1.7,1.7,0,0,1-1.19,1.64Zm-1-.3a1.29,1.29,0,0,0,1.46-1.27c0-1-.71-1.24-1.49-1.24A4.23,4.23,0,0,0,120,53v2.45Z"/><path d="M129.74,58.84H129l-.68-2.07H126.1l-.67,2.07h-.72l2.12-6.38h.8Zm-1.57-2.62-.62-1.9a11.71,11.71,0,0,1-.33-1.21h0c-.08.38-.2.79-.31,1.19l-.64,1.92Z"/><path d="M135.46,53.05h-1.88v5.79h-.7V53.05H131v-.59h4.46Z"/><path d="M137.21,52.46h.69v6.38h-.69Z"/><path d="M145.49,55.59c0,2.24-1.25,3.35-2.76,3.35S140,57.69,140,55.7s1.18-3.34,2.78-3.34S145.49,53.66,145.49,55.59Zm-4.74.09c0,1.36.71,2.68,2,2.68s2-1.28,2-2.74c0-1.28-.62-2.69-2-2.69S140.75,54.32,140.75,55.68Z"/><path d="M152.1,58.84h-.69l-2-3.36a18.51,18.51,0,0,1-1.15-2.13h0c.06.81.06,1.56.06,2.66v2.82h-.65V52.46h.73l2.06,3.36a21.93,21.93,0,0,1,1.12,2.08h0c-.06-.89-.08-1.65-.08-2.65V52.46h.66Z"/><line class="cls-2" x1="156" y1="55.67" x2="194" y2="55.67"/><line class="cls-2" y1="55.67" x2="38" y2="55.67"/></g></g></svg>