<svg xmlns="http://www.w3.org/2000/svg" viewBox="0 0 200 227.59"><defs><style>.cls-1{fill:gray;}</style></defs><g id="w"><path class="cls-1" d="M79.06,94a22,22,0,0,1,0,12.27,1.5,1.5,0,0,0,2.89.8,25,25,0,0,0,0-13.87c-.57-1.83-3.47-1-2.89.8Z"/><path class="cls-1" d="M101.77,94a20.92,20.92,0,0,1,0,11.32,1.5,1.5,0,0,0,2.9.79c1.34-4.09,1-8.79,0-12.91-.46-1.87-3.36-1.08-2.9.8Z"/><path class="cls-1" d="M93.14,110.83c0,.9.15,1.81.22,2.71,0,.54.07,1.08.08,1.62,0,.21,0,.42,0,.64s0,.18,0,.28.08-.48,0-.24c0,0,0,.08,0,.12a1.5,1.5,0,1,0,2.89.79,10.65,10.65,0,0,0,.06-3.14c-.07-.93-.18-1.85-.23-2.78a1.5,1.5,0,0,0-3,0Z"/><path class="cls-1" d="M105.06,160.45a51.29,51.29,0,0,0,18.07-19.71,53,53,0,0,0,5.75-24.62A52.21,52.21,0,0,0,122.77,92,46.57,46.57,0,0,0,105.4,73.89a52.1,52.1,0,0,0-27.52-6.81c-7.16.21-14,3.15-19.73,7.35A57.51,57.51,0,0,0,42.5,92.31,60.35,60.35,0,0,0,34.8,116a46.92,46.92,0,0,0,4,24.59c4.07,8.72,11.08,15.7,19.22,20.68a67.5,67.5,0,0,0,7.43,3.92l-.54-2q-4.8,9.07-8.86,18.54a119,119,0,0,0-6.89,19.28c-.44,1.88,2.45,2.68,2.9.8a115.83,115.83,0,0,1,6.73-18.93q4-9.26,8.71-18.18a1.51,1.51,0,0,0-.53-2.05c-8.82-4-17-9.81-22.45-18a42,42,0,0,1-7-22.59,53.73,53.73,0,0,1,4.82-22.81A58.16,58.16,0,0,1,55.51,80.5c5-4.66,11-8.41,17.74-9.85a37.74,37.74,0,0,1,11.91-.23,49.52,49.52,0,0,1,13.23,3.33,43.09,43.09,0,0,1,18.73,14.84,47.94,47.94,0,0,1,8.37,21.67,50.79,50.79,0,0,1-2.62,23.6A47.85,47.85,0,0,1,108.78,154a50.06,50.06,0,0,1-5.23,3.83c-1.62,1-.12,3.64,1.51,2.59Z"/><path class="cls-1" d="M99.49,77.14l.24-.21c-.14.12-.14.11,0,0a5.84,5.84,0,0,1,.53-.33c.19-.11.39-.21.58-.3l.28-.13c-.32.15.07,0,.11,0a17.79,17.79,0,0,1,2.68-.76c.44-.09.88-.17,1.32-.23l.36-.06c-.19,0-.15,0,0,0l.63-.07c.66-.06,1.33-.11,2-.11a1.5,1.5,0,0,0,0-3,25.68,25.68,0,0,0-5.24.61A12,12,0,0,0,97.37,75a1.51,1.51,0,0,0,0,2.12,1.53,1.53,0,0,0,2.12,0Z"/><path class="cls-1" d="M75.27,75.42l.62-.14.27,0c.25,0-.22,0,0,0,.41,0,.82-.07,1.22-.08s.83,0,1.24,0l.36,0c.12,0,.2,0,0,0,.21,0,.42.06.63.11a9.37,9.37,0,0,1,1.16.29l.52.17.25.1c.39.14-.14-.08.07,0s.64.31.95.5l.4.27c.28.2-.11-.13,0,0l.21.18a1.5,1.5,0,0,0,2.13-2.12c-2.8-2.56-7.33-3.14-10.91-2.25a1.52,1.52,0,0,0-1,1.84,1.54,1.54,0,0,0,1.85,1Z"/><path class="cls-1" d="M128.14,82.8c2.44-1.64,4.82-3.37,7.4-4.79l-2-.54c3,4.16,4.89,9.06,7.4,13.54.94,1.68,3.53.17,2.59-1.52C141,85,139.12,80.12,136.08,76a1.53,1.53,0,0,0-2.05-.54c-2.58,1.42-5,3.15-7.4,4.79-1.6,1.07-.1,3.67,1.51,2.59Z"/><path class="cls-1" d="M170.34,75.36l-4.76,13.91a1.5,1.5,0,1,0,2.9.8l4.75-13.92a1.5,1.5,0,1,0-2.89-.79Z"/><path class="cls-1" d="M166.2,96.58a1.5,1.5,0,0,0,0-3,1.5,1.5,0,0,0,0,3Z"/><path class="cls-1" d="M150.32,88.23l4.47.26a1.51,1.51,0,0,0,1.5-1.5,1.54,1.54,0,0,0-1.5-1.5l-4.47-.26a1.5,1.5,0,0,0-1.5,1.5,1.54,1.54,0,0,0,1.5,1.5Z"/><path class="cls-1" d="M151.17,88.35,151,91a1.5,1.5,0,0,0,1.5,1.5,1.5,1.5,0,0,0,1.06-.44A1.61,1.61,0,0,0,154,91l.14-2.65a1.48,1.48,0,0,0-.44-1.06,1.5,1.5,0,0,0-1.06-.44,1.47,1.47,0,0,0-1.06.44,1.69,1.69,0,0,0-.44,1.06Z"/><path class="cls-1" d="M149.36,92.73l7.12,1.18a1.5,1.5,0,0,0,.8-2.9l-7.12-1.18a1.54,1.54,0,0,0-1.84,1,1.52,1.52,0,0,0,1,1.85Z"/><path class="cls-1" d="M99.07,149.14c3.38-2.06,4.57-6.08,4.92-9.8a16.12,16.12,0,0,0-1.4-9.09c-1.34-2.48-3.88-4.71-6.88-4.14-3.8.71-5.57,5.63-6.21,8.89-1,5.09,0,10.68,3.9,14.35,1.41,1.32,3.53-.79,2.13-2.12a12,12,0,0,1-3.36-10,15.83,15.83,0,0,1,1.51-5.43,8.37,8.37,0,0,1,1.14-1.79,3.15,3.15,0,0,1,.36-.37c0-.05.31-.28.21-.2s.17-.11.23-.14.45-.25.3-.18.15,0,.2-.07l.33-.08c.16,0-.12,0-.13,0l.22,0h.38c.07,0-.26-.08,0,0l.37.1.31.11c-.28-.11,0,0,.11.07a7,7,0,0,1,.64.41c-.21-.16,0,0,.08.08l.36.34a7.31,7.31,0,0,1,.52.59c-.16-.2,0,0,.08.12a4.53,4.53,0,0,1,.3.46c.15.23.28.48.41.73l.21.44c.07.16,0,0,0,0l.11.27a11.22,11.22,0,0,1,.48,1.81l0,.25s0-.29,0-.11,0,.25,0,.38c0,.32.06.64.08,1,0,.69,0,1.37,0,2.06a16.06,16.06,0,0,1-.86,4.92,6.66,6.66,0,0,1-2.65,3.58c-1.65,1-.14,3.6,1.51,2.59Z"/></g></svg>