<svg xmlns="http://www.w3.org/2000/svg" viewBox="0 0 1068.22 419.46"><defs><style>.cls-1{fill:#e6e6e6;}</style></defs><g id="レイヤー_2" data-name="レイヤー 2"><g id="レイヤー_2-2" data-name="レイヤー 2"><path class="cls-1" d="M817.16,130c-2.87,2.14-2.74,5.87-2.22,9.07.81,5,2,10,3.25,14.9q1,3.72,2.1,7.4c.74,2.39,2.14,5.13.87,7.55-2,3.8-6.37,6.47-10.38,7.6a.75.75,0,0,0,.4,1.45,20,20,0,0,0,8.25-4.62c2.36-2.2,4.29-4.8,3.58-8.17-.4-1.89-1.13-3.74-1.69-5.59-.59-2-1.16-4-1.68-6q-1.53-5.82-2.67-11.73c-.6-3.06-2.12-8.26.94-10.55.77-.57,0-1.87-.75-1.29Z"/><path class="cls-1" d="M778.5,131.6a76.38,76.38,0,0,1,10.36-.58c2.81.06,6.42.63,7.53,3.66.33.9,1.78.51,1.45-.4-1.13-3.08-4.23-4.38-7.3-4.67a57.77,57.77,0,0,0-12,.49c-.94.12-1,1.62,0,1.5Z"/><path class="cls-1" d="M794.16,132.3a6.56,6.56,0,0,1,.23.87c0,.09,0,.08,0,0s0,.09,0,.13,0,.13,0,.19,0,.3,0,.45a3.4,3.4,0,0,1,0,.45s0,.23,0,.05a2.21,2.21,0,0,1,0,.25,5,5,0,0,1-.25.86.77.77,0,0,0,.52.93.79.79,0,0,0,.93-.53,6,6,0,0,0,.06-4,.75.75,0,0,0-1.45.4Z"/><path class="cls-1" d="M788.09,131.4a5,5,0,0,0-.44,5,.76.76,0,0,0,1,.27.77.77,0,0,0,.26-1h0s0-.08,0-.12l-.09-.25c0-.17-.08-.34-.11-.51,0,.18,0-.09,0-.13a2.17,2.17,0,0,1,0-.26,4.52,4.52,0,0,1,0-.52h0a.69.69,0,0,1,0-.13,2.21,2.21,0,0,1,0-.25,4.16,4.16,0,0,1,.16-.5h0a.61.61,0,0,1,.05-.12l.12-.24a4,4,0,0,1,.28-.43.74.74,0,0,0-.27-1,.76.76,0,0,0-1,.27Z"/><path class="cls-1" d="M820.81,135.17a5.67,5.67,0,0,1,4.67-1.84A10.76,10.76,0,0,1,831,135.6c.79.56,1.54-.74.76-1.3a12,12,0,0,0-6.47-2.48,7.07,7.07,0,0,0-5.57,2.29c-.62.73.43,1.8,1.06,1.06Z"/><path class="cls-1" d="M824.34,134.54a2.45,2.45,0,0,1,0,.27l0-.2a3,3,0,0,1-.21.78l.08-.18a3.77,3.77,0,0,1-.41.7l.12-.16a2.66,2.66,0,0,1-.32.35.76.76,0,0,0,0,1.06.75.75,0,0,0,1.06,0,3.87,3.87,0,0,0,1.18-2.62.76.76,0,0,0-.75-.75.77.77,0,0,0-.75.75Z"/><path class="cls-1" d="M820.08,136.25a3.1,3.1,0,0,0,3.17,2.37.81.81,0,0,0,.53-.22.79.79,0,0,0,.22-.53.76.76,0,0,0-.75-.75,2.66,2.66,0,0,1-.49,0l.2,0a2.75,2.75,0,0,1-.56-.16l.18.08a3,3,0,0,1-.54-.32l.15.12a2.62,2.62,0,0,1-.44-.44l.12.15a2.29,2.29,0,0,1-.3-.5l.08.18a2,2,0,0,1-.13-.39.75.75,0,0,0-.92-.53.77.77,0,0,0-.52.92Z"/><path class="cls-1" d="M787.51,136.75a3.88,3.88,0,0,0,3.82,1.53,3.83,3.83,0,0,0,2.89-2.67.77.77,0,0,0-.53-.93.76.76,0,0,0-.92.53l-.06.18s-.07.16,0,.07a3.54,3.54,0,0,1-.19.33,1.8,1.8,0,0,1-.39.47,2.3,2.3,0,0,1-1.11.56l-.15,0c.12,0-.05,0-.07,0a2.54,2.54,0,0,1-.39,0h-.08l-.19,0-.33-.1c-.23-.07,0,0-.08,0l-.17-.08a3.87,3.87,0,0,1-.34-.21s-.09-.07,0,0l-.15-.13-.13-.13s-.15-.18-.09-.09a.75.75,0,0,0-1-.27.74.74,0,0,0-.27,1Z"/><path class="cls-1" d="M832,109a48.65,48.65,0,0,1,.12,14c-.12,1,1.38.95,1.5,0a49.64,49.64,0,0,0-.18-14.4c-.15-1-1.59-.55-1.44.4Z"/><path class="cls-1" d="M827.23,144.07c.84,6.31,1.46,13.6-2.89,18.85-.61.74.44,1.81,1.06,1.06,4.75-5.74,4.2-13.39,3.27-20.31-.13-.95-1.57-.55-1.44.4Z"/><path class="cls-1" d="M817.07,177.86l-3.89,11.49c-.31.92,1.14,1.31,1.45.4l3.89-11.49c.31-.92-1.14-1.31-1.45-.4Z"/><path class="cls-1" d="M753.55,210.29c3.89,1.31,7,4.11,10.48,6.18a25,25,0,0,0,11.8,3.16c4.28.19,8.89.34,13.1-.58a19.23,19.23,0,0,0,9.88-6.09,61.71,61.71,0,0,0,8.73-12.08c.47-.85-.82-1.6-1.29-.76a63,63,0,0,1-7.4,10.56c-2.59,3-5.57,5.67-9.47,6.72s-8.51.88-12.65.76a24.38,24.38,0,0,1-12.12-3.09c-3.55-2.13-6.69-4.89-10.66-6.23-.92-.31-1.31,1.14-.4,1.45Z"/><path class="cls-1" d="M788.37,195.72a21.52,21.52,0,0,1,10.92,1.16c.9.34,1.29-1.11.4-1.45A23,23,0,0,0,788,194.27c-1,.15-.55,1.59.4,1.45Z"/><path class="cls-1" d="M803.91,196.77a19.35,19.35,0,0,0,7-2.23c.85-.46.09-1.75-.76-1.29a17.54,17.54,0,0,1-6.23,2,.78.78,0,0,0-.75.75.76.76,0,0,0,.75.75Z"/><path class="cls-1" d="M795.84,204.26a21.26,21.26,0,0,0,9.69-1c.91-.32.52-1.77-.4-1.45a20.09,20.09,0,0,1-9.29,1c-.4-.06-.75.38-.75.75a.78.78,0,0,0,.75.75Z"/><path class="cls-1" d="M799.09,176.67c0-1.69,2.33-2.34,3.63-2.63a13.7,13.7,0,0,1,6.46.13.75.75,0,0,0,.4-1.44,15.25,15.25,0,0,0-7.85,0c-1.89.51-4.14,1.69-4.14,3.93a.75.75,0,0,0,1.5,0Z"/><path class="cls-1" d="M746.44,113.56c-6.06,12.45-13.56,25.25-26,32.2-.84.47-.09,1.77.76,1.3,12.7-7.08,20.39-20.06,26.56-32.75.42-.86-.87-1.62-1.29-.75Z"/><path class="cls-1" d="M706.39,136c-1.18-2.06-3.95-1.8-5.41-.21-1.89,2.08-2.08,5.31-1.53,7.93a19.13,19.13,0,0,0,4.26,8c1.67,2.06,3.6,4.95,6.44,5.31,1,.12,1-1.38,0-1.5-2-.25-3.59-2.74-4.78-4.15a21.84,21.84,0,0,1-3.87-6,10.19,10.19,0,0,1-.47-6.58,4.29,4.29,0,0,1,1.64-2.49,1.7,1.7,0,0,1,2.42.44.75.75,0,0,0,1.3-.76Z"/><path class="cls-1" d="M719.15,135.73c-1.38-1-2.4.58-2.54,1.81a63.27,63.27,0,0,0-.34,7.41,85.12,85.12,0,0,0,1.25,14.43c.16,1,1.61.55,1.45-.4a80.4,80.4,0,0,1-1.15-11.17c-.06-1.76-.07-3.52,0-5.28q0-1.32.12-2.64c0-.17.25-3,.48-2.87.79.56,1.54-.74.75-1.29Z"/><path class="cls-1" d="M719.12,160.1l1.1-.35a.79.79,0,0,0,.45-.35.66.66,0,0,0,.09-.28.51.51,0,0,0,0-.3.72.72,0,0,0-.34-.44.73.73,0,0,0-.58-.08l-1.1.36a.81.81,0,0,0-.45.34.71.71,0,0,0-.09.28.61.61,0,0,0,0,.3.77.77,0,0,0,.34.45.74.74,0,0,0,.58.07Z"/><path class="cls-1" d="M718.67,149.74a25.87,25.87,0,0,1,.22,6.4.75.75,0,0,0,.75.75.77.77,0,0,0,.75-.75,27.65,27.65,0,0,0-.27-6.8.75.75,0,0,0-.92-.52.77.77,0,0,0-.53.92Z"/><path class="cls-1" d="M717.44,164.46A73.81,73.81,0,0,0,716.33,177a33.47,33.47,0,0,0,2.77,12.06c3.27,7.86,6.55,15.62,8.77,23.86a85.69,85.69,0,0,1,3.24,25.17,71.71,71.71,0,0,1-1.69,12.8,103.48,103.48,0,0,0-2.3,12.34c-.66,7.23,1.14,15.49,7.64,19.66.81.52,1.57-.78.76-1.3-5.89-3.78-7.46-11.36-6.94-17.9a94.89,94.89,0,0,1,2.28-12.4,75.08,75.08,0,0,0,1.69-11.83c.87-16.16-4-32.06-10.26-46.76-1.89-4.41-3.91-8.75-4.34-13.6s.25-9.56.94-14.28c.14-.94-1.31-1.35-1.45-.4Z"/><path class="cls-1" d="M776.39,222.38a126.57,126.57,0,0,0-22.87,38.75,124.81,124.81,0,0,0-3.85,12.38.75.75,0,0,0,1.45.4,124.83,124.83,0,0,1,18.49-40.39,123.54,123.54,0,0,1,7.84-10.08c.63-.73-.42-1.8-1.06-1.06Z"/><path class="cls-1" d="M736.38,285l1.13,1.13a.77.77,0,0,0,.53.22.73.73,0,0,0,.53-.22.71.71,0,0,0,.22-.53.77.77,0,0,0-.22-.53l-1.13-1.13a.77.77,0,0,0-.53-.22.73.73,0,0,0-.53.22.75.75,0,0,0-.22.53.77.77,0,0,0,.22.53Z"/><path class="cls-1" d="M739.49,290.33c1.53,6.93,3.16,14.16,7.32,20.06a74.19,74.19,0,0,0,7.61,8.53l8.79,9.11c.67.69,1.73-.37,1.06-1.06L756,318.39a76.79,76.79,0,0,1-7.88-8.75c-4.09-5.82-5.66-12.89-7.18-19.71-.21-.95-1.65-.55-1.44.4Z"/><path class="cls-1" d="M749.44,280a28.13,28.13,0,0,0,.07,11.77c1,4.06,2.88,8,4.37,11.91.34.89,1.79.5,1.45-.4-1.4-3.68-3-7.34-4.15-11.11a25.58,25.58,0,0,1-.29-11.77c.16-.94-1.29-1.35-1.45-.4Z"/><path class="cls-1" d="M754.54,309.39a32.24,32.24,0,0,0,5.82,14.4c.56.77,1.86,0,1.29-.76A31.41,31.41,0,0,1,756,309c-.14-.95-1.58-.55-1.45.4Z"/><path class="cls-1" d="M754.8,307.09a.75.75,0,0,0,0-1.5.75.75,0,0,0,0,1.5Z"/><path class="cls-1" d="M916.27,188.14c-4.27,6.87-6.58,15-8.8,22.73-2.63,9.11-4.84,18.35-7.53,27.45-2.62,8.88-5.58,17.65-8.24,26.52-1.43,4.77-2.77,9.57-4.2,14.34-3.25,10.77-6.6,21.52-10,32.26q-6,19.38-12.13,38.75c-3,9.55-6,19.1-9,28.67l-.63,2.05c-.28.92,1.17,1.32,1.45.4,2.67-8.77,5.44-17.51,8.18-26.26q6-19.12,12-38.26c3.54-11.33,7.09-22.66,10.54-34,1-3.38,2.06-6.77,3-10.18,2.55-9,5.44-17.84,8.22-26.75s5.23-18.19,7.69-27.34c2.27-8.45,4.54-17.08,8.23-25.05a43,43,0,0,1,2.42-4.55c.51-.83-.78-1.58-1.29-.76Z"/><path class="cls-1" d="M925,187.28c11.14.49,22.27,1.65,33.36,2.8q16.14,1.68,32.19,3.93c9.15,1.26,18.32,2.37,27.48,3.61,10.21,1.37,20.42,2.79,30.55,4.71,3.74.7,7.48,1.46,11.14,2.52a28.51,28.51,0,0,1,3.61,1.25,10.39,10.39,0,0,1,1.19.63,3.89,3.89,0,0,1,.57.47c.19.22.09.23.11.17-.21.94,1.23,1.34,1.44.4.4-1.76-1.9-2.7-3.16-3.22a55,55,0,0,0-9.27-2.61c-9.88-2.16-19.93-3.58-29.94-5s-19.87-2.62-29.81-3.94-20.13-2.73-30.23-3.83c-12-1.3-24.1-2.54-36.18-3.26l-3-.16c-1,0-1,1.46,0,1.5Z"/><path class="cls-1" d="M1066.72,208.92c-4.33,11.37-8.42,22.83-12.48,34.3-4.72,13.36-9.38,26.74-14.08,40.1-4.5,12.8-9,25.6-13.74,38.33-3.66,9.9-7.36,19.81-11.62,29.47a99.13,99.13,0,0,1-4.42,9.1,23.27,23.27,0,0,1-1.72,2.68,4.71,4.71,0,0,1-1.31,1.25s-.13,0-.08,0a.75.75,0,0,0-.4,1.44c1.49.39,2.71-1.4,3.42-2.42a49.81,49.81,0,0,0,4.06-7.46c4.22-9,7.74-18.27,11.22-27.53,4.75-12.62,9.28-25.33,13.77-38,4.81-13.63,9.56-27.29,14.37-40.92,4.25-12.09,8.53-24.17,13-36.16.47-1.26.94-2.51,1.42-3.76.34-.91-1.11-1.3-1.45-.4Z"/><path class="cls-1" d="M719.21,375.56c-1.22,2.93,1,4.95,3.63,5.8a35.71,35.71,0,0,0,5,1c2.31.4,4.63.74,7,1.05,9.48,1.24,19,1.87,28.57,2.29,19.33.85,38.65,1.85,58,2.54,10.82.38,21.64.69,32.47.76a.75.75,0,0,0,0-1.5c-18.82-.13-37.62-.9-56.42-1.74-9.22-.41-18.44-.85-27.66-1.27-8.94-.41-17.88-.79-26.8-1.66-5.19-.51-10.36-1.14-15.49-2.05-2.41-.43-8.44-1-6.84-4.85.37-.89-1.08-1.28-1.44-.39Z"/><path class="cls-1" d="M858.24,383.57c.67-.59,1.32-1.19,1.93-1.83a12.94,12.94,0,0,0,2.1-2.68.75.75,0,1,0-1.29-.76,7.14,7.14,0,0,1-.41.65l-.24.35c-.1.12.06-.09-.05.05l-.12.16c-.34.42-.71.83-1.09,1.22-.6.62-1.24,1.21-1.89,1.78a.75.75,0,0,0,0,1.06.77.77,0,0,0,1.06,0Z"/><path class="cls-1" d="M874.24,338.14c-2,7.07-4.23,14.08-6.54,21.06-1.82,5.48-3.63,11-5.78,16.36-.36.89,1.09,1.28,1.45.39,2.14-5.36,4-10.87,5.77-16.35,2.32-7,4.54-14,6.54-21.06a.75.75,0,0,0-1.44-.4Z"/><path class="cls-1" d="M859.18,386.85q25.26-1.11,50.34-4.44c15.43-2,30.78-4.57,46.14-7,9.48-1.52,19-3,28.47-4.38,1-.14.55-1.59-.39-1.45-16.26,2.35-32.45,5.07-48.67,7.62-15.52,2.45-31.08,4.66-46.72,6.16q-14.55,1.41-29.17,2c-1,0-1,1.54,0,1.5Z"/><path class="cls-1" d="M826.85,324.64c4.46-6.21,10.72-12.15,18.18-14.44a36.25,36.25,0,0,1,10.1-1.32,44.4,44.4,0,0,0,9.67-1.17c.94-.22.54-1.67-.4-1.44a49.25,49.25,0,0,1-10.27,1.13,33.78,33.78,0,0,0-10.61,1.72c-7.36,2.69-13.46,8.49-18,14.76-.56.79.74,1.54,1.3.76Z"/><path class="cls-1" d="M813.82,200.19c11.2,11.43,22.87,24,25.39,40.45.15,1,1.6.55,1.45-.4-2.56-16.68-14.42-29.52-25.78-41.11-.67-.69-1.73.37-1.06,1.06Z"/><path class="cls-1" d="M839,246.53a61.74,61.74,0,0,1,6.62,36.8c-.59,4.55-1.61,9-2.24,13.6-.39,2.77-1.59,10,3.47,9.14.95-.17.55-1.62-.4-1.45-3.75.67-1.18-10.23-.87-12,.7-4,1.49-8,1.83-12a63.17,63.17,0,0,0-2.27-22.84,64.15,64.15,0,0,0-4.84-12c-.45-.85-1.75-.09-1.3.76Z"/><path class="cls-1" d="M858,338a18,18,0,0,0,2.33-3c.26-.42.53-.84.83-1.25a16.05,16.05,0,0,1,1.33-1.52c.67-.69-.39-1.75-1.07-1.06a18.53,18.53,0,0,0-2.32,3c-.27.42-.54.84-.83,1.25A17.4,17.4,0,0,1,856.9,337c-.68.69.38,1.75,1.06,1.06Z"/><path class="cls-1" d="M857.6,322a38.12,38.12,0,0,1,3.37,5.13,9.34,9.34,0,0,0,4.52,4,.75.75,0,0,0,.4-1.45A8.13,8.13,0,0,1,862,326a33.42,33.42,0,0,0-3.35-5c-.65-.71-1.71.35-1.06,1.06Z"/><path class="cls-1" d="M852.52,338.15c2,1.48,4.51,2.33,6.76,3.29s4.77,1.82,6.75,3.29c.78.58,1.53-.72.76-1.29-2-1.48-4.51-2.33-6.76-3.29a32.7,32.7,0,0,1-6.75-3.29c-.78-.58-1.53.73-.76,1.29Z"/><path class="cls-1" d="M690,330.93c12.47,1.11,25,1.7,37.52,2.14,5.53.2,11.08.39,16.61.31s11-1.29,16.46-2.5c9.62-2.12,19.17-4.76,28.93-6.21.95-.14.54-1.58-.4-1.44-8.59,1.27-17,3.48-25.46,5.43-6,1.37-12.13,3-18.26,3.19-12,.33-24-.45-36-1.11-6.47-.35-12.94-.74-19.4-1.31-1-.09-1,1.41,0,1.5Z"/><path class="cls-1" d="M813.6,326.3c3.11.53,6.3.79,9.39,1.46a28.28,28.28,0,0,1,3.4,1,55.28,55.28,0,0,1,6.05,2.35c4.22,2.05,7.44,5.64,10.88,8.73,2.95,2.66,6.31,4.68,9.5,7a26.33,26.33,0,0,1,9.1,11.45c.36.89,1.81.5,1.45-.39a27.09,27.09,0,0,0-7.61-10.66c-3.14-2.64-6.79-4.59-9.93-7.22-3.59-3-6.72-6.6-10.69-9.14a32.39,32.39,0,0,0-6.35-2.86c-1.41-.54-2.84-1.07-4.29-1.48-3.4-.93-7-1.14-10.5-1.72-.94-.16-1.35,1.28-.4,1.44Z"/><path class="cls-1" d="M794.55,346.39c2.56-.43,5.16.57,7.71.8,2.14.2,4.3.32,6.42.73A11.52,11.52,0,0,1,814,350.2a14.61,14.61,0,0,1,3.22,4.33c3.49,6.17,7.1,12.7,12.15,17.75,1.91,1.92,4.7,4.27,7.62,3.42a.75.75,0,0,0-.4-1.44c-2.57.74-5.15-1.95-6.72-3.61a60.16,60.16,0,0,1-6.9-9.33c-1.73-2.75-3.33-5.58-4.94-8.41a12.44,12.44,0,0,0-8.65-6.38,60,60,0,0,0-6.94-.82c-2.8-.26-5.46-1.24-8.29-.77-.95.16-.54,1.61.4,1.45Z"/><path class="cls-1" d="M820.51,335.36c4.82,5.76,9.73,11.48,13.3,18.12a84.36,84.36,0,0,1,4.5,10.21c1.09,2.85,2.86,7.11.74,9.87-.58.77.72,1.51,1.3.76,2.1-2.76.93-6.75-.1-9.69a85.77,85.77,0,0,0-4.62-10.91c-3.68-7.16-8.91-13.28-14.06-19.42-.62-.74-1.67.33-1.06,1.06Z"/><path class="cls-1" d="M841.56,367.89a25.06,25.06,0,0,0,5.13,6.32,4.7,4.7,0,0,0,3.41,1.36,9,9,0,0,0,4.2-1.62,5.45,5.45,0,0,0,2.14-4.77c0-1-1.54-1-1.5,0a4.07,4.07,0,0,1-2.32,4.06c-1.17.61-2.73,1.2-4,.52a12.53,12.53,0,0,1-3.47-3.3,33.54,33.54,0,0,1-2.32-3.33c-.51-.82-1.81-.07-1.3.76Z"/><path class="cls-1" d="M850.83,360.2a8.65,8.65,0,0,0-3.51,1.5,5.25,5.25,0,0,0-2,3.19.75.75,0,0,0,1.45.4,5.9,5.9,0,0,1,.23-.85c0-.05.08-.18,0-.06,0-.07.07-.13.1-.2a4,4,0,0,1,.2-.35,1.61,1.61,0,0,1,.21-.3c-.11.14,0,0,0-.07l.14-.15.27-.26.13-.12.1-.07,0,0c.22-.14.43-.29.66-.42l.37-.19.2-.1c.15-.06-.1,0,.07,0a11.06,11.06,0,0,1,1.7-.5.75.75,0,0,0-.4-1.45Z"/><path class="cls-1" d="M840.21,343.28a67.07,67.07,0,0,1,8,9.17,48.65,48.65,0,0,1,6.09,13.36c.28.92,1.73.53,1.45-.4a49.71,49.71,0,0,0-6.24-13.71,68.82,68.82,0,0,0-8.24-9.48c-.68-.69-1.74.37-1.06,1.06Z"/><path class="cls-1" d="M787,344.73a36.6,36.6,0,0,1,10.11,6.6c2.73,2.48,5.2,5.2,8,7.59a82.1,82.1,0,0,1,7.92,7.22c1.82,2,3.87,4.77,2.74,7.6-.36.89,1.09,1.28,1.45.4,1.92-4.81-3.28-9.48-6.43-12.31-2.17-1.95-4.46-3.76-6.62-5.71-2.39-2.16-4.52-4.58-6.95-6.7a37.15,37.15,0,0,0-9.47-6c-.88-.39-1.64.91-.76,1.29Z"/><path class="cls-1" d="M776.44,355.85A90.26,90.26,0,0,1,788.25,363a57.72,57.72,0,0,1,6.65,6.33c4.54,4.67,10.3,8.32,17,8.4a.75.75,0,0,0,0-1.5c-6.61-.08-12.15-3.92-16.51-8.58a48.73,48.73,0,0,0-6.72-6.2,93.73,93.73,0,0,0-11.47-6.9c-.85-.46-1.61.84-.75,1.3Z"/><path class="cls-1" d="M805.2,366.45a7.33,7.33,0,0,0,4.51,6.33.75.75,0,1,0,.4-1.45l-.12-.05-.18-.09-.35-.2a4.91,4.91,0,0,1-.61-.42,7,7,0,0,1-.62-.59,3.86,3.86,0,0,1-.47-.58A6.05,6.05,0,0,1,807,368a8.37,8.37,0,0,1-.23-.82,3.06,3.06,0,0,1-.07-.4c0,.11,0-.13,0-.13s0-.16,0-.24a.75.75,0,0,0-1.5,0Z"/><path class="cls-1" d="M735.78,359.45a21.29,21.29,0,0,0,6.49,9.57,15.23,15.23,0,0,0,8.32,3.07c5.78.41,11.57-1.85,16.55-4.59a46,46,0,0,0,5.22-3.32c.76-.57,0-1.87-.76-1.29a44,44,0,0,1-10.74,5.89c-5.14,1.94-11.23,2.92-16.22,0-3.67-2.12-5.95-5.89-7.41-9.76-.34-.9-1.79-.51-1.45.4Z"/><path class="cls-1" d="M766.2,362.31a24.1,24.1,0,0,0,14.51-2c.87-.41.11-1.71-.76-1.29a22.4,22.4,0,0,1-13.35,1.83c-.94-.16-1.35,1.28-.4,1.45Z"/><path class="cls-1" d="M661.63,376.57a227.15,227.15,0,0,0,60-4.31q8.42-1.75,16.67-4.14a.75.75,0,0,0-.4-1.45,225.29,225.29,0,0,1-59.34,8.81c-5.64.08-11.29-.07-16.93-.41-1-.06-1,1.44,0,1.5Z"/><path class="cls-1" d="M685.13,329.13c-3.57-1-6.92,1.14-8.91,4a32,32,0,0,0-2.9,5.72c-.93,2.13-1.93,4.24-3,6.32-2.06,4.07-4.38,8-6.78,11.86a78,78,0,0,0-6.17,11.32,23.84,23.84,0,0,0-1.79,13.27c.17.95,1.62.55,1.45-.4-1.4-7.9,2.8-15.29,6.78-21.78C666,356,668.1,352.57,670,349s3.67-7.37,5.34-11.14,4.58-8.64,9.36-7.29a.75.75,0,0,0,.4-1.45Z"/><path class="cls-1" d="M666.08,160.58c-14.11,1.72-27.76-3.38-41.65-4.8a53.46,53.46,0,0,0-20.75,1.79,109.93,109.93,0,0,0-18.36,7c-5.42,2.74-10.4,6.59-12.64,12.41-.35.91,1.1,1.3,1.45.4,2-5.32,6.71-8.82,11.62-11.35a108.63,108.63,0,0,1,17.42-6.76,52.24,52.24,0,0,1,20.38-2.1c6.88.63,13.62,2.21,20.4,3.46,7.3,1.34,14.72,2.33,22.13,1.43.95-.12,1-1.62,0-1.5Z"/><path class="cls-1" d="M568.19,183.15c-6.21,13.73-16.2,25.23-23.44,38.37a70.28,70.28,0,0,0-7.93,21.87c-1.53,8.75-2,17.71-2.81,26.55l-2.84,30.94c-.08,1,1.42,1,1.5,0l2.5-27.23c.81-8.92,1.37-17.93,2.62-26.81A69.11,69.11,0,0,1,545,224.22a194,194,0,0,1,11.68-18.69c4.69-6.95,9.34-14,12.81-21.62.39-.87-.9-1.64-1.3-.76Z"/><path class="cls-1" d="M526.9,304.89c-3.29,6.65-4.1,14.08-4.14,21.41,0,7.15,0,14.58,1.36,21.62a30.44,30.44,0,0,0,4.29,11c.53.81,1.83.05,1.3-.75-5-7.53-5.09-16.87-5.35-25.56-.27-9.1-.3-18.64,3.83-27,.43-.86-.86-1.62-1.29-.76Z"/><path class="cls-1" d="M531.23,372.44c1.07,5.39,2.83,11.95,8.68,13.89,3.41,1.13,7.42.75,10.94.5a70.94,70.94,0,0,0,23.91-6c.88-.39.12-1.68-.76-1.3a69.69,69.69,0,0,1-26.82,6c-4.08.08-8.25-.07-10.92-3.6-2.12-2.82-2.91-6.47-3.59-9.86-.18-1-1.63-.55-1.44.4Z"/><path class="cls-1" d="M583.34,380.75a266.48,266.48,0,0,0,59.13,2.1c1-.08,1-1.58,0-1.5a265.29,265.29,0,0,1-58.73-2c-.94-.14-1.35,1.3-.4,1.44Z"/><path class="cls-1" d="M602.22,310.42c-2.27-.88-4.67.1-6.84.85s-4.42,1.63-6.58,2.57a100.44,100.44,0,0,0-12.85,6.8,155.4,155.4,0,0,0-22.88,17.69C549,342.07,545,346,541.14,349.92l1.17.91c4.84-10.68,13-19.27,21-27.65.66-.7-.39-1.76-1.06-1.06-8.08,8.47-16.31,17.16-21.19,27.95-.33.74.54,1.56,1.18.91,13-13.26,27.09-26.1,44-34.28q3.66-1.77,7.46-3.21c2.38-.89,5.68-2.6,8.2-1.62.9.35,1.29-1.1.4-1.45Z"/><path class="cls-1" d="M569.33,297.45a35.66,35.66,0,0,0-8.68,6.14.77.77,0,0,0-.11.91,3.76,3.76,0,0,0,3.6,1.76,40.23,40.23,0,0,0,6.34-1c5.17-.86,10.38-1.44,15.61-1.78,1-.06,1-1.56,0-1.5q-6.6.42-13.15,1.38c-2.23.33-4.44.71-6.66,1.14-1.37.26-3.63.78-4.45-.75l-.12.91a33.85,33.85,0,0,1,8.38-5.9c.86-.44.1-1.73-.76-1.3Z"/><path class="cls-1" d="M605.33,283.61a76.4,76.4,0,0,0-28.28-40.06c-.64-.46-1.37.42-1,1l4.9,8.86c.47.85,1.76.09,1.3-.76l-4.9-8.86-1,1A74.73,74.73,0,0,1,603.88,284a.75.75,0,0,0,1.45-.4Z"/><path class="cls-1" d="M590.93,279.86l-4.54-1.28a.76.76,0,0,0-.95.72,4.12,4.12,0,0,0,1.52,3.09.77.77,0,0,0,1.06,0,.75.75,0,0,0,0-1.06,3.94,3.94,0,0,1-.51-.49s-.06-.08,0,0a.71.71,0,0,1-.1-.14,2.38,2.38,0,0,1-.18-.3l-.08-.16c0-.05,0-.09,0,0l-.11-.33c0-.11,0-.23-.07-.35,0,.08,0,.06,0,0a1.48,1.48,0,0,1,0-.21l-1,.73,4.54,1.28a.75.75,0,0,0,.4-1.45Z"/><path class="cls-1" d="M595.45,211.47q6.85,13.11,13.72,26.22c4.26,8.18,8.38,16.52,10.51,25.55.16.68,1.34.75,1.45,0a232.27,232.27,0,0,0,1.77-48.16c-.07-1-1.57-1-1.5,0a230.48,230.48,0,0,1-1.72,47.76h1.45c-2.12-9-6.21-17.34-10.45-25.5q-6.95-13.34-13.94-26.63c-.45-.85-1.74-.1-1.29.76Z"/><path class="cls-1" d="M683.51,169.9c.3,4.6,1.8,8.94,3.39,13.23a74.29,74.29,0,0,0,5.51,12.36,46.78,46.78,0,0,0,27.91,21.14.75.75,0,0,0,.4-1.44,45.32,45.32,0,0,1-19-10.6c-6-5.6-9.8-12.49-12.68-20.11-1.78-4.71-3.66-9.51-4-14.58-.06-1-1.56-1-1.5,0Z"/><path class="cls-1" d="M735.47,223.56a38.57,38.57,0,0,0,21.34-7.15c.78-.56,0-1.86-.75-1.3a37.2,37.2,0,0,1-20.59,6.95c-1,0-1,1.53,0,1.5Z"/><path class="cls-1" d="M790.93,20.72a63.32,63.32,0,0,0-51,2.74c-.86.44-.1,1.73.76,1.29a61.89,61.89,0,0,1,49.82-2.59c.91.35,1.3-1.1.4-1.44Z"/><path class="cls-1" d="M733.51,31.5c-6.53-.13-13,.41-18.94,3.23a52.51,52.51,0,0,0-14.38,10.74A83.66,83.66,0,0,0,676.58,93.9c-.12.95,1.38.95,1.5,0A82.22,82.22,0,0,1,689.21,62a81.38,81.38,0,0,1,10.36-13.72,58.71,58.71,0,0,1,13.18-10.9c6.44-3.7,13.44-4.52,20.76-4.37a.75.75,0,0,0,0-1.5Z"/><path class="cls-1" d="M714,69.41a109.14,109.14,0,0,1-26.44,34.21,106.12,106.12,0,0,1-10,7.67c-.8.54,0,1.84.75,1.29a110.47,110.47,0,0,0,30.79-31.45,109.44,109.44,0,0,0,6.21-11c.42-.86-.87-1.62-1.3-.76Z"/><path class="cls-1" d="M722.94,56.07C717.61,69,722.45,85,733.92,93c.79.55,1.54-.75.75-1.3-10.95-7.6-15.35-22.9-10.28-35.2.36-.89-1.09-1.28-1.45-.4Z"/><path class="cls-1" d="M724.44,76.07a34,34,0,0,0,9.08,14.05c.71.66,1.77-.4,1.06-1.06a32.27,32.27,0,0,1-8.69-13.39c-.3-.91-1.75-.52-1.45.4Z"/><path class="cls-1" d="M694.51,83.71a80.28,80.28,0,0,1-16.36,18c-.75.61.32,1.66,1.07,1.06A81.56,81.56,0,0,0,695.8,84.47c.54-.81-.76-1.56-1.29-.76Z"/><path class="cls-1" d="M690.22,57.34a82.5,82.5,0,0,0-18.56,36.28c-.21.94,1.23,1.34,1.45.4A80.81,80.81,0,0,1,691.28,58.4c.63-.72-.42-1.78-1.06-1.06Z"/><path class="cls-1" d="M671.21,103.46A34.85,34.85,0,0,0,681,135.84c.7.67,1.77-.39,1.07-1.06a33.33,33.33,0,0,1-9.44-30.92c.21-.94-1.23-1.35-1.44-.4Z"/><path class="cls-1" d="M674.84,123.41l3.7,12c.28.92,1.73.53,1.45-.4l-3.7-12c-.28-.92-1.73-.53-1.45.4Z"/><path class="cls-1" d="M689.26,109.27a45.24,45.24,0,0,0,.25,37,42.78,42.78,0,0,0,5.71,9.19c.6.75,1.66-.32,1.06-1.06A43.46,43.46,0,0,1,690.56,110c.39-.87-.9-1.63-1.3-.76Z"/><path class="cls-1" d="M693.63,139.94l2.27,9a.75.75,0,0,0,1.45-.4l-2.27-9a.75.75,0,0,0-1.45.4Z"/><path class="cls-1" d="M681.77,139.55a23.7,23.7,0,0,0,1.29,20.2c.47.84,1.76.09,1.29-.76a22.27,22.27,0,0,1-1.13-19c.36-.89-1.09-1.28-1.45-.4Z"/><path class="cls-1" d="M691.73,161.83a8.62,8.62,0,0,0,.32,12.68c.74.6,1.81-.45,1.06-1.06a7.12,7.12,0,0,1-.32-10.56c.72-.64-.34-1.7-1.06-1.06Z"/><path class="cls-1" d="M698.32,160.37a6.19,6.19,0,0,0,5.88,3.39.75.75,0,0,0,0-1.5,4.82,4.82,0,0,1-.76,0h-.26l-.37-.08a4.71,4.71,0,0,1-.73-.22l-.07,0h0l-.17-.08-.34-.18-.32-.2-.13-.09-.09-.07a4.1,4.1,0,0,1-.53-.49l-.26-.28,0-.06-.11-.15a4.86,4.86,0,0,1-.4-.7.77.77,0,0,0-1-.27.78.78,0,0,0-.27,1Z"/><path class="cls-1" d="M768.72,53.87c-9.13,11.4-9.85,28.5-1.55,40.56.55.79,1.85,0,1.3-.76-7.9-11.46-7.41-27.85,1.31-38.74.6-.75-.45-1.82-1.06-1.06Z"/><path class="cls-1" d="M810.81,73.18a186.92,186.92,0,0,0-26.61,10c-6.63,3.09-14.39,6.75-16.83,14.24-.29.92,1.15,1.32,1.45.4,2.38-7.32,10.55-10.78,17-13.74a183.45,183.45,0,0,1,25.39-9.45.75.75,0,0,0-.39-1.45Z"/><path class="cls-1" d="M789.56,71.54a48.16,48.16,0,0,0-14.89,16.55c-.46.85.83,1.61,1.3.76a46.43,46.43,0,0,1,14.35-16c.78-.55,0-1.85-.76-1.3Z"/><path class="cls-1" d="M817.69,92.35c.08,6.66-.52,13.75-4.17,19.52-3.17,5-9.08,8.85-15.19,7.91-.94-.14-1.35,1.3-.4,1.45,6.44,1,12.56-2.53,16.25-7.67,4.36-6.06,5.1-14,5-21.21a.75.75,0,0,0-1.5,0Z"/><path class="cls-1" d="M819.33,101.39a31.63,31.63,0,0,0,7.57,19.33c.62.74,1.68-.33,1.06-1.06a30,30,0,0,1-7.13-18.27c0-1-1.54-1-1.5,0Z"/><path class="cls-1" d="M823.73,100.64a38,38,0,0,0,2.09,11.52c.32.91,1.77.52,1.45-.4a36.61,36.61,0,0,1-2-11.12.75.75,0,0,0-1.5,0Z"/><path class="cls-1" d="M832.5,57.14c14.48,12.48,31.11,27.51,29.8,48.47a27.41,27.41,0,0,1-5.08,14.55c-.57.78.73,1.53,1.29.76,5.69-7.81,6.43-18,4.12-27.16C860.13,83.9,854,75.53,847,68.36,842.75,64,838.16,60,833.56,56.08c-.72-.63-1.79.43-1.06,1.06Z"/><path class="cls-1" d="M846.3,85.25a40.13,40.13,0,0,1,.49,36.28c-.43.86.86,1.63,1.29.76a41.74,41.74,0,0,0-.48-37.79c-.46-.86-1.75-.1-1.3.75Z"/><path class="cls-1" d="M801.3,26.09a45.55,45.55,0,0,1,9.81,15.32c.34.89,1.79.5,1.44-.4a47.19,47.19,0,0,0-10.19-16c-.68-.7-1.74.36-1.06,1.06Z"/><path class="cls-1" d="M830.55,50.67l1.5,2.26a.81.81,0,0,0,.45.34.74.74,0,0,0,.58-.08.76.76,0,0,0,.27-1l-1.5-2.26a.81.81,0,0,0-.45-.34.78.78,0,0,0-.58.07.76.76,0,0,0-.27,1Z"/><path class="cls-1" d="M825.49,51.79a45.85,45.85,0,0,1,10.42,10.84c.54.79,1.84,0,1.29-.76a48,48,0,0,0-11-11.38c-.77-.57-1.52.73-.75,1.3Z"/><path class="cls-1" d="M791.73,51.34a106.58,106.58,0,0,0-43.16-4.5c-1,.09-1,1.59,0,1.5a105.49,105.49,0,0,1,42.76,4.44c.92.3,1.31-1.15.4-1.44Z"/><path class="cls-1" d="M771.84,38.42a71.54,71.54,0,0,0-33.53,10.35.75.75,0,0,0,.76,1.3,69.86,69.86,0,0,1,32.77-10.15c1-.05,1-1.55,0-1.5Z"/><path class="cls-1" d="M739.74,106.36a60.77,60.77,0,0,1-35,23.76.75.75,0,0,0,.39,1.45A62.38,62.38,0,0,0,741,107.12c.56-.79-.74-1.54-1.3-.76Z"/><path class="cls-1" d="M727.09,107l-12.94,10.31c-.76.61.31,1.66,1.06,1.06l12.94-10.31c.76-.6-.31-1.65-1.06-1.06Z"/><path class="cls-1" d="M716.23,107.2a19,19,0,0,1-6.33,8.67.77.77,0,0,0-.26,1,.76.76,0,0,0,1,.27,20.82,20.82,0,0,0,7-9.58c.33-.91-1.12-1.3-1.44-.39Z"/><path class="cls-1" d="M723.74,34.46A31.93,31.93,0,0,0,700,43.1c-.7.67.36,1.73,1.06,1.06A30.43,30.43,0,0,1,723.74,36c1,.06,1-1.44,0-1.5Z"/><path class="cls-1" d="M601.47,306.86c2.6.83,5.24.09,7.88,0a25.31,25.31,0,0,1,7.4.89c4.92,1.3,9.45,3.73,13.85,6.21a128.23,128.23,0,0,0,13.76,7.16,65.9,65.9,0,0,0,15.73,4.33,66.87,66.87,0,0,0,18.26.15c.94-.12,1-1.62,0-1.5A65.66,65.66,0,0,1,646,320.16c-9.42-3.68-17.47-10.27-27.13-13.37a29.27,29.27,0,0,0-7.92-1.44c-3-.09-6.17,1-9.07.07-.92-.3-1.32,1.15-.4,1.44Z"/><path class="cls-1" d="M628.11,281.79a85.43,85.43,0,0,1,5.31,28.94.75.75,0,0,0,1.5,0,86.69,86.69,0,0,0-5.36-29.34c-.34-.89-1.79-.51-1.45.4Z"/><path class="cls-1" d="M665.36,172.15c3.72,13.82,11.36,26,21.06,36.43,2.58,2.76,5.28,5.41,8.07,8,.71.65,1.77-.41,1.06-1.06-9.94-9.13-18.83-19.54-24.49-31.89a75.36,75.36,0,0,1-4.25-11.85.75.75,0,0,0-1.45.4Z"/><path class="cls-1" d="M788.2,116.71a66.21,66.21,0,0,1-23.7,13.79c-.91.3-.52,1.75.4,1.44a68,68,0,0,0,24.36-14.17c.71-.64-.35-1.7-1.06-1.06Z"/><path class="cls-1" d="M782.1,118.49a46.09,46.09,0,0,1-27.9,5.18c-1-.12-1,1.38,0,1.5a47.39,47.39,0,0,0,28.65-5.38c.85-.46.1-1.76-.75-1.3Z"/><path class="cls-1" d="M756.26,110.34a29.72,29.72,0,0,0,21.41.31c.9-.34.51-1.79-.4-1.45a28.36,28.36,0,0,1-20.61-.31c-.9-.36-1.29,1.09-.4,1.45Z"/><path class="cls-1" d="M842.27,120.4a40.16,40.16,0,0,1-12,23.09c-.7.66.36,1.72,1.06,1.06a41.33,41.33,0,0,0,12.39-23.75c.14-1-1.3-1.35-1.44-.4Z"/><path class="cls-1" d="M528.17,257.51c-7.28,3.15-12.71,9.46-16,16.55-4,8.5-5,18-5.39,27.27-.9,21-.54,42.12.61,63.1q1,17.82,2.86,35.58c.1.95,1.6,1,1.5,0q-3.25-30.81-3.81-61.83-.25-15.37.14-30.74c.25-9.67.59-19.57,3.83-28.8,3-8.43,8.69-16.21,17.06-19.84.88-.38.12-1.67-.76-1.29Z"/><path class="cls-1" d="M821.63,242.57A209.53,209.53,0,0,1,819.74,299c-.17.94,1.28,1.35,1.44.4a210.47,210.47,0,0,0,2-56.82c-.1-1-1.6-1-1.5,0Z"/><path class="cls-1" d="M723.85,173.7A43.91,43.91,0,0,0,734,192.93c.65.71,1.71-.35,1.06-1.06a42.4,42.4,0,0,1-9.77-18.57c-.22-.93-1.67-.54-1.44.4Z"/><path class="cls-1" d="M816.72,41.82a60,60,0,0,1,14.09,5.54,57.88,57.88,0,0,1,6.2,3.93c2,1.43,3.87,3.15,4.36,5.63.18.95,1.63.55,1.44-.4a9.89,9.89,0,0,0-3.8-5.58,49.72,49.72,0,0,0-6.68-4.45,61.39,61.39,0,0,0-15.22-6.11.75.75,0,0,0-.39,1.44Z"/><path class="cls-1" d="M740.19,134.76l-2.39,4.8a.75.75,0,0,0,1.29.75l2.39-4.79a.75.75,0,1,0-1.29-.76Z"/><path class="cls-1" d="M782.41,122.14a53.79,53.79,0,0,0,15.76,1.91.75.75,0,0,0,0-1.5,52.75,52.75,0,0,1-15.36-1.85.75.75,0,0,0-.4,1.44Z"/><path class="cls-1" d="M587.19,53.12c-3-3.34-1-8.57,1.15-11.81,2.44-3.68,6.52-6.73,11.14-5.44s7.47,5.7,9.1,10,2.61,8.53,4.39,12.64a26.37,26.37,0,0,0,8.45,11.24c.78.57,1.53-.73.75-1.29-4.17-3-6.75-7.63-8.57-12.35s-2.78-9.88-5.26-14.36c-2.2-4-6.1-7.54-10.87-7.67-4.57-.12-8.31,3.17-10.63,6.82-2.44,3.84-4.14,9.53-.71,13.31.65.72,1.71-.35,1.06-1.06Z"/><path class="cls-1" d="M634.12,81.88a1.11,1.11,0,0,0,1.13,0,1.19,1.19,0,0,0,.6-1,1.1,1.1,0,0,0-1.48-1,1.12,1.12,0,0,0-.74.77,2.64,2.64,0,0,0,0,.93,3.62,3.62,0,0,0,.55,1.52,3.74,3.74,0,0,0,1.37,1.28.77.77,0,0,0,1-.27.76.76,0,0,0-.27-1l-.3-.18s-.12-.13,0,0l-.13-.11-.22-.22-.12-.13c-.09-.12.09.13,0,0s-.13-.19-.19-.3-.08-.19-.13-.27c0,.11,0,.13,0,.06l0-.09s0-.08,0-.12-.06-.21-.08-.32,0-.22,0,0c0,0,0-.11,0-.17s0-.21,0-.31,0-.06,0,.08c0-.07,0,0,0,.1.05-.1-.14.15,0,.07-.12.08-.15.11-.08.07l-.1,0c.16,0-.13,0-.07,0s-.19,0-.07,0l-.1,0c.06,0,0,0-.08-.07l-.07-.09,0-.12c0-.14,0-.18,0-.1,0-.15,0-.18,0-.11q.09-.18,0-.09l.06-.07.1-.08-.06,0,.09,0c.14,0,.18,0,.1,0,.14,0,.18,0,.1,0,.13.06.16.07.1,0a.76.76,0,0,0-1,.27.78.78,0,0,0,.27,1Z"/><path class="cls-1" d="M776.92,120.26a27.5,27.5,0,0,0,21,4.82c.95-.17.55-1.62-.4-1.45A26,26,0,0,1,777.68,119c-.78-.57-1.53.73-.76,1.3Z"/><path class="cls-1" d="M820.07,124a8,8,0,0,0,5,2.21,56.18,56.18,0,0,0,7.21.46.75.75,0,0,0,0-1.5,59.35,59.35,0,0,1-6.66-.39,6.93,6.93,0,0,1-4.53-1.84c-.65-.72-1.7.34-1.06,1.06Z"/><path class="cls-1" d="M820.23,125.5a14.9,14.9,0,0,0,10.38,1.3c.94-.22.54-1.67-.4-1.45a13.23,13.23,0,0,1-9.22-1.14c-.85-.45-1.61.85-.76,1.29Z"/><path class="cls-1" d="M881.38,324.46c6.74-18.28,12.58-36.92,18.24-55.56,1.4-4.59,2.77-9.18,4.08-13.8a.75.75,0,0,0-1.45-.39c-5.33,18.76-11.29,37.38-17.57,55.85-1.53,4.52-3.1,9-4.75,13.5-.33.91,1.12,1.3,1.45.4Z"/><path class="cls-1" d="M920.59,192.49c-2.63,4.13-3.84,9.33-5.14,14-1.78,6.45-3.32,13-5,19.45-.84,3.2-1.72,6.41-2.78,9.55-.31.92,1.14,1.31,1.45.4,4-11.75,5.93-24.08,9.86-35.83a30.48,30.48,0,0,1,2.94-6.81c.52-.82-.78-1.57-1.3-.76Z"/><path class="cls-1" d="M725.3,377c13.5,2,27.13,2.37,40.75,2.81l20.66.65c1,0,1-1.47,0-1.5-10.78-.35-21.56-.64-32.33-1.06-6.47-.25-13-.55-19.39-1.19-3.11-.31-6.2-.7-9.29-1.16-.94-.14-1.35,1.3-.4,1.45Z"/><path class="cls-1" d="M906.66,240.24a39.64,39.64,0,0,0-1.36,5.67c-.16.83-.31,1.65-.49,2.47-.07.3-.13.59-.22.88,0,.11-.07.22-.1.32s.07-.14,0,0l-.06.09c-.53.81.77,1.56,1.3.76a4.56,4.56,0,0,0,.49-1.5c.19-.82.34-1.65.5-2.48a39.8,39.8,0,0,1,1.39-5.8c.32-.91-1.13-1.3-1.45-.4Z"/><path class="cls-1" d="M878.09,327.76a4.28,4.28,0,0,0-.74,1.4c-.25.66-.46,1.33-.66,2s-.41,1.37-.63,2.05c-.08.28-.17.55-.27.82l-.12.31c.1-.24,0,0-.06.1a.75.75,0,0,0,1.3.76,7.29,7.29,0,0,0,.55-1.43c.21-.66.41-1.33.61-2s.4-1.34.64-2l.15-.41c.08-.2,0,0,0-.07a.91.91,0,0,0,.07-.14c0-.09.09-.18.14-.27l.08-.12c-.09.17-.09.1,0,0,.68-.7-.38-1.76-1.06-1.07Z"/><path class="cls-1" d="M1004.05,365.91a39,39,0,0,1-7,1.69,72.22,72.22,0,0,1-10,1.13c-1,0-1,1.54,0,1.5a74.41,74.41,0,0,0,10.19-1.14,39.05,39.05,0,0,0,7.25-1.73c.9-.34.51-1.79-.39-1.45Z"/><path class="cls-1" d="M919,187.64c.08-.09.15-.2.22-.29l.1-.14.06-.08,0,0a6.2,6.2,0,0,1,.8-.82c.1-.09-.15.1,0,0l.14-.1a1.92,1.92,0,0,1,.31-.18l.16-.08c.12-.06-.16.06,0,0a1.5,1.5,0,0,1,.36-.11l.2,0c.13,0-.17,0,0,0h.43s.29,0,.08,0l.23,0,.49.14a.75.75,0,0,0,.92-.52.77.77,0,0,0-.52-.93,4,4,0,0,0-3.16.2,4.9,4.9,0,0,0-1.65,1.42l-.31.41-.07.1c-.08.12.13-.15.07-.09a.75.75,0,0,0,1.06,1.06Z"/><path class="cls-1" d="M836.22,361.17a4.22,4.22,0,0,0-3.35.51,6.09,6.09,0,0,0-2.68,3.21.75.75,0,0,0,1.45.4,2.43,2.43,0,0,1,.16-.37l.2-.37.25-.38a.27.27,0,0,1,.07-.08h0a1.83,1.83,0,0,1,.13-.16,7,7,0,0,1,.62-.59c.12-.1-.1.06,0,0l.15-.11.34-.21.35-.18s.21-.08,0,0l.16-.07a5.53,5.53,0,0,1,.7-.18c.18,0-.17,0,0,0h.5a.37.37,0,0,1,.15,0c-.09-.06-.13,0,0,0l.31.09a.76.76,0,0,0,.92-.53.76.76,0,0,0-.53-.92Z"/><path class="cls-1" d="M830.93,367.71a5.5,5.5,0,0,0,.86,1.73,13.35,13.35,0,0,0,1.49,1.79,14.52,14.52,0,0,0,1.72,1.51,6.06,6.06,0,0,0,1.59.89.76.76,0,0,0,.92-.53.77.77,0,0,0-.52-.92l-.16-.06h0l-.31-.17c-.25-.15-.49-.32-.73-.49h0l-.1-.08-.16-.13-.42-.36-.74-.71c-.25-.25-.48-.51-.71-.77l-.18-.22-.09-.12c-.1-.12-.19-.25-.28-.38a6.92,6.92,0,0,1-.48-.79l-.08-.15s-.1-.26,0-.06c0-.12-.09-.24-.12-.37a.75.75,0,0,0-.92-.52.74.74,0,0,0-.52.92Z"/><path class="cls-1" d="M836.24,330.45a12.47,12.47,0,0,0,5.82-1.79c2.14-1.07,4.35-2,6.8-1.69,2.93.36,2.75,3.47,2.08,5.64a19,19,0,0,1-3.39,6.26c-.6.74.45,1.81,1.06,1.06a20.47,20.47,0,0,0,3.81-7.05c.7-2.31.83-5.31-1.47-6.78-2.14-1.36-5.41-.63-7.57.28s-4.52,2.62-7.14,2.57a.75.75,0,0,0,0,1.5Z"/><path class="cls-1" d="M868.64,306.22c1.25-.75,2.81-.13,4,.47a10.07,10.07,0,0,0,4.49,1.53.75.75,0,0,0,0-1.5c-1.67,0-3.06-1.07-4.53-1.7a5.15,5.15,0,0,0-4.71-.09.75.75,0,0,0,.76,1.29Z"/><path class="cls-1" d="M864.94,321.46a12,12,0,0,0,1.4,6c1,1.91,2.21,3.66,3.22,5.54.45.85,1.75.09,1.29-.76-1-1.79-2.12-3.45-3.07-5.24a10.7,10.7,0,0,1-1.34-5.56c0-1-1.46-1-1.5,0Z"/><path class="cls-1" d="M792.58,324l.11-.1-.15.12a1.51,1.51,0,0,1,.35-.2l-.18.07a1.82,1.82,0,0,1,.4-.11l-.2,0a1.34,1.34,0,0,1,.4,0l-.2,0,.2.05a.78.78,0,0,0,.58-.08.77.77,0,0,0,.34-.45.74.74,0,0,0-.07-.58.81.81,0,0,0-.45-.34,2.34,2.34,0,0,0-2.2.56.81.81,0,0,0-.22.53.77.77,0,0,0,.22.53.79.79,0,0,0,.53.22.77.77,0,0,0,.54-.22Z"/><path class="cls-1" d="M796.9,324.4a13.24,13.24,0,0,1,3.61.13,17.15,17.15,0,0,0,3.65.11c2.38-.22,4.72-.7,6.8.78.79.55,1.54-.75.76-1.3-2.23-1.57-4.73-1.27-7.29-1s-5.29-.57-7.93-.15c-1,.15-.55,1.59.4,1.44Z"/><path class="cls-1" d="M796.51,381.13a258.19,258.19,0,0,0,27.07,2.27c8.31.35,16.68.63,25,.22,1.28-.06,2.56-.14,3.82-.32a3.92,3.92,0,0,0,2-.64c.74-.62-.33-1.68-1.06-1.06.14-.12,0,0-.33.07s-.66.13-1,.18c-1.08.15-2.17.21-3.26.26-3.44.18-6.89.19-10.33.17-9.15-.06-18.32-.43-27.45-1.12-4.7-.35-9.4-.78-14.06-1.48-.95-.14-1.36,1.3-.4,1.45Z"/><path class="cls-1" d="M789.25,380.8a28.44,28.44,0,0,0,4.7.35.76.76,0,0,0,.75-.75.77.77,0,0,0-.75-.75c-.82,0-1.64,0-2.45-.09-.35,0-.69,0-1-.08l-.22,0c-.09,0-.08,0,0,0l-.12,0-.48-.09a.75.75,0,0,0-.4,1.45Z"/><path class="cls-1" d="M814.7,353.06a10.61,10.61,0,0,0-6.39,5.27.77.77,0,0,0,.27,1,.75.75,0,0,0,1-.27,9.07,9.07,0,0,1,5.49-4.57.75.75,0,0,0-.4-1.45Z"/><path class="cls-1" d="M768.57,369a94.9,94.9,0,0,0,21.75-1.17c.95-.16.55-1.6-.4-1.45a93.07,93.07,0,0,1-21.35,1.12c-1-.06-1,1.44,0,1.5Z"/><path class="cls-1" d="M815.57,365.22l4.82-.86a.75.75,0,0,0,.53-.92.78.78,0,0,0-.93-.52l-4.82.86a.75.75,0,0,0,.4,1.44Z"/><path class="cls-1" d="M728.59,375.14c5.38-1.38,10.95-1.49,16.44-2.18,1-.12,1-1.62,0-1.5-5.62.71-11.33.82-16.84,2.24a.75.75,0,0,0,.4,1.44Z"/><path class="cls-1" d="M677.24,159c-.53,1.61.46,3.17,1.54,4.3.84.87,2.12,1.82,2.18,3.14,0,1,1.55,1,1.5,0a5.66,5.66,0,0,0-2.06-3.64c-.86-.86-2.15-2-1.72-3.4.3-.92-1.15-1.32-1.44-.4Z"/><path class="cls-1" d="M970.59,280.25c1.31,2.4.1,5-1.18,7.16a43.32,43.32,0,0,0-3.18,6,28.46,28.46,0,0,0-1.77,6.9c-.17,1.3-.62,3.65,1,4.29,1.82.73,2.58-1.75,3-3,.72-2.22,1.25-4.6,2.74-6.47a5.79,5.79,0,0,1,2.38-1.86,37.47,37.47,0,0,1,3.68-.75,10.72,10.72,0,0,0,5-3.37c1.36-1.56,2.43-3.7,1.84-5.81a4.14,4.14,0,0,0-3.85-3.16.75.75,0,0,0,0,1.5c2.09,0,2.83,2.4,2.31,4.1a8.52,8.52,0,0,1-3.68,4.33c-1.77,1.13-3.61,1-5.52,1.62a7.33,7.33,0,0,0-3.45,2.56,14.66,14.66,0,0,0-2.21,4.57c-.3.92-.57,1.85-.88,2.76-.12.36-.27,1.21-.69,1.36s-.18.14-.34-.2a2.1,2.1,0,0,1,0-.9,26.38,26.38,0,0,1,3.58-11.55c1.92-3.28,4.61-7,2.5-10.84-.46-.85-1.76-.09-1.29.76Z"/><path class="cls-1" d="M977.67,294.73c-2,1.15-4.17,2.76-4.63,5.19a4.85,4.85,0,0,0,.42,3.2,4.33,4.33,0,0,0,2.87,2,6.06,6.06,0,0,0,6.53-2.33,4.67,4.67,0,0,0,.71-3.39c-.3-1.36-1.74-1.49-2.73-.76-.26.2-.48.45-.73.67-.09.08-.26.25-.4.23-.44-.05-.32-.77-.2-1a6.66,6.66,0,0,1,1.21-1.44,3.7,3.7,0,0,0,1-1.86.76.76,0,0,0-.92-.92l-1.74.27a.76.76,0,0,0-.52.93.77.77,0,0,0,.92.52l1.74-.28-.92-.92c-.17,1-1.18,1.66-1.78,2.45a2.54,2.54,0,0,0-.34,2.83,1.77,1.77,0,0,0,2.52.63c.4-.25.67-.64,1-.91a.75.75,0,0,1,.38-.15c-.08,0,0-.13,0,0s0,.23,0,.34a3.84,3.84,0,0,1-3.64,3.78,4.55,4.55,0,0,1-3.08-.68,2.6,2.6,0,0,1-1-2.16c0-2.37,2.13-3.87,4-4.93a.75.75,0,0,0-.76-1.3Z"/><path class="cls-1" d="M976.25,288.16a5.34,5.34,0,0,0,2.3-2.11,2.74,2.74,0,0,0-.3-3,2,2,0,0,0-2.82-.41,5.78,5.78,0,0,0-1.16,1.3,5.88,5.88,0,0,0-.82,1.52,2.7,2.7,0,0,0,1,3.26.75.75,0,0,0,.76-1.3s-.23-.16-.13-.07l-.12-.12,0-.05a.41.41,0,0,0-.05-.09l-.06-.12c0,.1,0,0,0,0l-.06-.24c0-.14,0,0,0,0s0-.09,0-.14,0-.16,0-.24,0,.11,0,0a1.77,1.77,0,0,1,0-.2,3.36,3.36,0,0,1,.5-1.05c.12-.18.25-.35.38-.53,0,0,.15-.2.1-.14l.23-.27.19-.19,0,0,.13-.08s.13-.07,0,0l.11,0s.17,0,.06,0h.08c.05,0,.12,0,0,0l.08,0s.15,0,0,0l.05,0,.17.11c-.13-.1.07.08.1.11l.06.07c-.09-.11,0,0,0,0a1.59,1.59,0,0,1,.13.22s.05.11,0,0,0,0,0,.06a2.86,2.86,0,0,1,.07.28c0-.14,0,0,0,.09s0,.24,0,.09a1.34,1.34,0,0,1-.07.27l0,.1,0,.06a2.58,2.58,0,0,1-.71.88l-.12.1-.06.05-.28.19c-.19.13-.39.25-.59.36a.75.75,0,1,0,.76,1.29Z"/><path class="cls-1" d="M704.61,382.1c-28,2.45-55.77,6.52-83.47,11.09-28.23,4.66-56.37,9.86-84.6,14.59-15.85,2.65-31.73,5.16-47.65,7.33-.95.13-.55,1.58.4,1.45,28.35-3.88,56.55-8.79,84.74-13.74,27.85-4.89,55.71-9.82,83.71-13.77,15.58-2.2,31.2-4.08,46.87-5.45.95-.09,1-1.59,0-1.5Z"/><path class="cls-1" d="M279.56,300c-2.58-.19-2.59,3.92-2.37,5.57a32,32,0,0,0,2.95,8.67A73.84,73.84,0,0,0,289.8,330c.55.68,1.52-.29,1-1a72.53,72.53,0,0,1-8.14-12.77,68.56,68.56,0,0,1-3-6.87,19.87,19.87,0,0,1-1.05-3.71c-.13-.75-.47-4.48,1-4.37.88.06.87-1.31,0-1.37Z"/><path class="cls-1" d="M290.21,330.75a19.53,19.53,0,0,0,.44,8,.68.68,0,0,0,1.32-.36,17.93,17.93,0,0,1-.44-7.25.72.72,0,0,0-.48-.85.69.69,0,0,0-.84.48Z"/><path class="cls-1" d="M289.74,340.4a450.08,450.08,0,0,0-29,42.78.68.68,0,0,0,1.18.69,450.08,450.08,0,0,1,29-42.78c.54-.7-.65-1.38-1.18-.69Z"/><path class="cls-1" d="M307.55,348.51c2.09.46,4.18-.71,5.95-1.73,2.1-1.22,4.13-2.71,6.55-3.24a27,27,0,0,0,3.45-.68,18.31,18.31,0,0,0,3.17-1.64,16.88,16.88,0,0,1,8-2.45c.88,0,.88-1.41,0-1.37a17.7,17.7,0,0,0-6.78,1.62c-1.11.51-2.13,1.18-3.19,1.77a10.56,10.56,0,0,1-3.9,1.25,15.58,15.58,0,0,0-5.93,2.32c-1.88,1.13-4.62,3.34-6.95,2.83-.86-.19-1.22,1.13-.36,1.32Z"/><path class="cls-1" d="M337.24,337a5.25,5.25,0,0,0,3-1.09,5.58,5.58,0,0,0,1.66-3c.4-1.26.59-2.57,1-3.82a3.75,3.75,0,0,1,1.89-2.38c.8-.38.1-1.56-.69-1.19a4.62,4.62,0,0,0-2.12,2.2,18.91,18.91,0,0,0-1,3.38c-.16.61-.34,1.21-.53,1.82a4.68,4.68,0,0,1-.65,1.54,3.56,3.56,0,0,1-2.61,1.21c-.87,0-.88,1.41,0,1.37Z"/><path class="cls-1" d="M346.37,326.06l1.26-.64a.67.67,0,0,0,.31-.41.66.66,0,0,0-.07-.53.69.69,0,0,0-.4-.31.75.75,0,0,0-.53.07l-1.26.64a.7.7,0,0,0-.32.41.76.76,0,0,0,.07.53.69.69,0,0,0,.94.24Z"/><path class="cls-1" d="M327.42,270.51c-.9,2.18,0,4.81.82,6.88,1,2.45,2.24,4.78,3.32,7.18a25.37,25.37,0,0,1,1.95,6.06,48,48,0,0,1,.38,8,.69.69,0,0,0,1.37,0c0-4.63-.14-9-1.93-13.34-1-2.35-2.17-4.6-3.21-6.92-1-2.14-2.35-5.11-1.38-7.46.34-.81-1-1.17-1.32-.36Z"/><path class="cls-1" d="M334.89,269.38a10.94,10.94,0,0,1,2.55,3.25c1.13,1.8,2.14,3.67,3.12,5.56,1.77,3.39,3.43,6.85,4.95,10.36.35.81,1.53.11,1.18-.69-1.58-3.66-3.32-7.26-5.17-10.8-1-1.91-2-3.81-3.22-5.62a11.19,11.19,0,0,0-2.72-3.24c-.72-.51-1.4.68-.69,1.18Z"/><path class="cls-1" d="M347.47,293.71c1.44,5.05,1.62,10.15,2.09,15.34.2,2.29.65,4.55.9,6.83s.22,4.73-1.51,6.47c-.62.63.35,1.6,1,1,3.53-3.55,1.52-9.14,1.08-13.46-.56-5.58-.66-11.08-2.21-16.51a.68.68,0,0,0-1.32.36Z"/><path class="cls-1" d="M346.18,290.47v0l-.11-.14a2.61,2.61,0,0,1,.24.43c.12.23.22.47.32.71l-.07-.17c.08.19.16.38.22.57a.71.71,0,0,0,.31.41.69.69,0,0,0,1-.77,8.1,8.1,0,0,0-.48-1.18,2.85,2.85,0,0,0-.49-.84.68.68,0,1,0-1,1Z"/><path class="cls-1" d="M356,269.13c1.28,1.81.67,4,0,5.87a52,52,0,0,0-1.68,5c-.9,3.49-1.9,7.49-4.12,10.4-.54.7.65,1.38,1.18.69a19.37,19.37,0,0,0,2.57-5.22,61.31,61.31,0,0,0,1.81-6c.89-3.56,3.95-7.91,1.46-11.44-.51-.71-1.7,0-1.19.69Z"/><path class="cls-1" d="M332.87,233.52c-9.59,11.92-16.78,25.47-25.54,38-.51.73.68,1.41,1.18.7,8.69-12.39,15.82-25.86,25.33-37.68.55-.68-.42-1.65-1-1Z"/><path class="cls-1" d="M315.78,276.43a14,14,0,0,0-7.58-3.29c-3.54-.18-5,3.66-4.56,6.66a18.55,18.55,0,0,0,1.91,5.52c1,2,1.94,3.95,3.06,5.82,1.34,2.27,2.87,4.42,4.24,6.67,1.23,2,2.29,4.17,3.31,6.32,2.4,5.09,4.45,10.34,6.64,15.53.35.81,1.53.11,1.19-.69-3.37-8-6.34-16.26-11-23.57a106.56,106.56,0,0,1-6.13-10.61,16.73,16.73,0,0,1-1.84-5.26c-.19-1.61.17-4.13,1.89-4.86,1.35-.57,3.18.16,4.42.7a14,14,0,0,1,3.52,2c.67.56,1.64-.4,1-1Z"/><path class="cls-1" d="M316.5,279.4a6.13,6.13,0,0,1,.7.74c.37.43.72.88,1.07,1.33a1.83,1.83,0,0,1,.13.16l.08.1.28.38c.18.23.35.47.52.71a11,11,0,0,1,.77,1.19.68.68,0,0,0,.93.25.71.71,0,0,0,.25-.94,20.44,20.44,0,0,0-2-2.78c-.35-.45-.71-.9-1.09-1.33a5.89,5.89,0,0,0-.72-.78.71.71,0,0,0-1,0,.69.69,0,0,0,0,1Z"/><path class="cls-1" d="M321.05,286.06c3.48,5,7.41,9.6,9.62,15.39,1.87,4.91,3.19,10.28,6.9,14.19.61.64,1.58-.33,1-1-3.81-4-5-9.67-7-14.64-2.22-5.47-6-9.86-9.35-14.66-.5-.72-1.69,0-1.18.69Z"/><path class="cls-1" d="M287.67,285.22c-2.79,2.82-1.15,6.71.59,9.6,2.32,3.85,4.52,7.77,6.67,11.72,4.31,7.9,8.52,15.88,13.6,23.33.5.72,1.68,0,1.19-.69a244.34,244.34,0,0,1-12.51-21.31c-1.93-3.56-3.87-7.12-5.9-10.62-1.7-2.9-5.85-7.85-2.67-11.06.62-.63-.35-1.6-1-1Z"/><path class="cls-1" d="M290.35,285.74c3.39.1,5.94,3.53,7.82,6l7.3,9.48c5.17,6.71,9.9,13.73,15.24,20.31.56.69,1.52-.29,1-1-5.68-7-10.69-14.51-16.26-21.61-2.46-3.14-4.78-6.41-7.32-9.48-2-2.37-4.46-5-7.75-5.07a.69.69,0,0,0,0,1.37Z"/><path class="cls-1" d="M283,301.91c2.73,2.33,4.07,5.79,6.06,8.71,1.78,2.63,3.77,5.13,5.79,7.58,3.51,4.24,7.16,8.37,11,12.3.62.63,1.59-.34,1-1-3.84-3.93-7.5-8.06-11-12.3a94.11,94.11,0,0,1-5.82-7.66c-2-2.92-3.31-6.3-6-8.63-.66-.57-1.64.4-1,1Z"/><path class="cls-1" d="M280.79,308.22a2.51,2.51,0,0,0,2.38-.1,2.41,2.41,0,0,0,1.15-2.09,2.44,2.44,0,0,0-.4-1.32.68.68,0,1,0-1.18.69,2.55,2.55,0,0,1,.14.24l0-.08,0,.07a.57.57,0,0,1,0,.14l0,.11c0,.18,0-.12,0,0a2.17,2.17,0,0,1,0,.26s0,.19,0,.05,0,0,0,.06a1.17,1.17,0,0,1-.07.25c0,.11.08-.16,0,0l-.05.1-.08.13c-.07.11.11-.13,0,0s-.14.12-.19.19l.08-.06-.06,0-.12.08-.1,0c-.17.08.11,0,0,0l-.24.07s-.19,0,0,0,0,0-.06,0h-.25c-.19,0,.12,0,0,0l-.11,0-.14,0c-.17-.06.11,0,0,0A.75.75,0,0,0,281,307a.68.68,0,0,0-.16,1.25Z"/><path class="cls-1" d="M303,279q-2.85,4.17-5.3,8.59c-.42.77.76,1.47,1.19.69q2.43-4.43,5.3-8.59c.5-.73-.69-1.41-1.19-.69Z"/><path class="cls-1" d="M290.5,300.25a22.55,22.55,0,0,0-1.65,2.11l-.33.46-.16.21-.08.12c-.08.1,0,0,0,0-.26.31-.51.61-.8.9a.68.68,0,0,0,1,1,15.5,15.5,0,0,0,1.54-1.89q.33-.48.69-1l0,0a.76.76,0,0,0,.08-.11l.22-.27c.15-.18.31-.37.48-.55a.69.69,0,0,0-1-1Z"/><path class="cls-1" d="M335.5,232.26c2.33-2.79,5.81-3.51,9.25-3.65,2.49-.09,5-.22,7.45-.34,5.75-.27,11.52-.6,17.28-.53,1.07,0,2.14,0,3.2.13a9.32,9.32,0,0,1,1.06.15c.25.06.43.16.38.11a.69.69,0,0,0,1-1c-.87-.88-2.93-.71-4-.75-2.76-.1-5.54,0-8.31.06-5.93.18-11.86.53-17.79.77-3.85.15-7.8.92-10.41,4-.56.67.4,1.64,1,1Z"/><path class="cls-1" d="M374.2,235.45q-14.44,24.41-29.9,48.19c-.48.74.7,1.42,1.18.69q15.47-23.77,29.9-48.19a.68.68,0,0,0-1.18-.69Z"/><path class="cls-1" d="M290.13,292.94a3.27,3.27,0,0,0,3.91-3,.68.68,0,0,0-.68-.68.7.7,0,0,0-.69.68v.15c0,.15,0-.09,0,0s0,.18-.05.26a1.55,1.55,0,0,0-.08.23c0-.1,0-.12,0-.06l0,0-.05.11-.14.22,0,.05c0,.06,0,.05,0,0a.65.65,0,0,0-.08.09l-.17.18-.09.08s-.16.12-.06.05l0,0-.12.08a.94.94,0,0,1-.22.12l-.11,0c-.12.07.14,0,0,0l-.25.08a2.38,2.38,0,0,0-.26,0h-.32a.76.76,0,0,0-.16,0,.69.69,0,0,0-.84.47.7.7,0,0,0,.48.85Z"/><path class="cls-1" d="M308.58,284.52a5.65,5.65,0,0,0,4.5.2,3.91,3.91,0,0,0,1.93-2.67,7.67,7.67,0,0,0,.22-1.91.69.69,0,0,0-1.37,0q0,.36,0,.72c0,.06,0,.11,0,.17s0,.19,0,.05l-.06.37a5,5,0,0,1-.19.69.88.88,0,0,0-.05.15c-.06.15,0-.06,0,0l-.17.31a2.26,2.26,0,0,1-.16.26l-.06.08s.08-.1,0,0l-.11.13-.24.22c-.11.1.06,0,0,0l-.15.1a1.4,1.4,0,0,1-.3.15c.11-.05,0,0,0,0l-.22.07-.17,0-.14,0h-.39a4.12,4.12,0,0,1-1-.11,11.72,11.72,0,0,1-1.39-.43.68.68,0,0,0-.84.47.71.71,0,0,0,.48.85Z"/><path class="cls-1" d="M335.87,273a3.1,3.1,0,0,1-.18,1.94,2.4,2.4,0,0,1-.49.73l-.07.07s.09-.06,0,0l-.16.09c.11-.05-.05,0-.09,0a.71.71,0,0,1-.21,0,2.22,2.22,0,0,1-.9-.08,2.34,2.34,0,0,1-.82-.38,4.4,4.4,0,0,1-1.19-1.24c-.09-.15-.18-.3-.26-.46a1.24,1.24,0,0,1-.1-.2,1.17,1.17,0,0,1-.05-.11c0,.06,0,.06,0,0a3.56,3.56,0,0,1-.22-.79.68.68,0,0,0-.84-.48.72.72,0,0,0-.48.85,5.63,5.63,0,0,0,2.45,3.61,3.88,3.88,0,0,0,2.45.65,2.33,2.33,0,0,0,1.22-.4,3.23,3.23,0,0,0,.88-1.06,4.48,4.48,0,0,0,.4-3.17.69.69,0,0,0-1.32.37Z"/><path class="cls-1" d="M276.76,305.25l-1.2,46.57a.69.69,0,0,0,1.37,0l1.2-46.57a.69.69,0,0,0-1.37,0Z"/><path class="cls-1" d="M227.89,202.58c8.38,5.59,17,10.85,25.84,15.61,4.68,2.51,9.56,4.73,14.09,7.5a18.61,18.61,0,0,1,7,7c2.41,4.45,3.55,9.61,4.77,14.47,2.46,9.78,4.72,19.61,7.19,29.39q.64,2.57,1.31,5.12a.68.68,0,0,0,1.32-.36c-2.75-10.68-5.27-21.4-7.9-32.11-1.32-5.37-2.53-11-4.9-16a19.11,19.11,0,0,0-6.68-7.77c-4.06-2.78-8.66-4.81-13-7.09-8.32-4.37-16.41-9.15-24.29-14.27-1.35-.87-2.69-1.76-4-2.65-.73-.49-1.42.69-.69,1.18Z"/><path class="cls-1" d="M253,302.64A35.79,35.79,0,0,1,264,300.92c3.74,0,7.47.45,11.19.74.88.07.88-1.3,0-1.37-3.84-.3-7.68-.76-11.54-.73a36.5,36.5,0,0,0-11.07,1.76c-.84.27-.48,1.59.36,1.32Z"/><path class="cls-1" d="M243,255.51a179.15,179.15,0,0,1,5.84,52.1c0,.88,1.34.88,1.37,0a180.55,180.55,0,0,0-5.89-52.46.68.68,0,0,0-1.32.36Z"/><path class="cls-1" d="M248.88,313.23c0,18.57-4,36.86-7.39,55-.51,2.7-1.07,5.42-1.31,8.15-.08.88,1.29.88,1.37,0a71.87,71.87,0,0,1,1.14-7.15c.69-3.71,1.43-7.4,2.13-11.1,1.79-9.39,3.41-18.83,4.44-28.34a158.45,158.45,0,0,0,1-16.58.69.69,0,0,0-1.37,0Z"/><path class="cls-1" d="M99.44,297c8.67,12.86,15.4,27.11,21.64,41.28q2.51,5.69,4.85,11.45c.32.8,1.65.45,1.32-.37a365.8,365.8,0,0,0-20.15-42.49c-2-3.6-4.17-7.14-6.48-10.56-.49-.73-1.68,0-1.18.69Z"/><path class="cls-1" d="M167.69,196.36c-2.28,13.64,2.75,27.09,2.27,40.73-.5,14.14-6.6,27.24-11.19,40.38-2.64,7.56-4.66,15.33-7,23a220.86,220.86,0,0,1-10.8,28.74c-4.91,10.41-11.06,20.59-19.75,28.29-.66.58.31,1.55,1,1,7.74-6.85,13.5-15.7,18.15-24.86a197.27,197.27,0,0,0,11.55-29c2.46-7.62,4.52-15.36,7-23,4.1-12.82,10.11-25.13,12-38.58,1.05-7.53.26-14.94-.75-22.43-1.07-7.87-2.35-16-1-23.88.15-.87-1.17-1.24-1.32-.37Z"/><path class="cls-1" d="M117.87,362c-1.51,3.06-2.14,6.66-2.76,10A44.87,44.87,0,0,0,114,382.29c0,.88,1.42.88,1.37,0a42.91,42.91,0,0,1,1.11-10c.6-3.19,1.17-6.71,2.63-9.65.39-.78-.79-1.48-1.19-.69Z"/><path class="cls-1" d="M208.12,208.52c-3.58,5.39-3.78,12.16-3.65,18.4.07,3.3.27,6.59.23,9.88a25.37,25.37,0,0,1-1.25,8.79c-1.45,3.77-3.28,7.41-4.86,11.13A94.15,94.15,0,0,0,194.5,268c-2,7.16-1.74,14.52-2.27,21.87-.66,9.24-1.72,18.45-2.9,27.64-.11.87,1.26.87,1.37,0,1-8.13,2-16.28,2.66-24.45.28-3.51.52-7,.67-10.54a65.28,65.28,0,0,1,1.05-11.16c1.74-8,5.37-15.48,8.63-23a25.31,25.31,0,0,0,2.22-8.27,82.41,82.41,0,0,0,0-9.56c-.24-7.12-.78-15.15,3.35-21.36.49-.74-.7-1.43-1.18-.7Z"/><path class="cls-1" d="M188,325c-1.63,15.76-5.81,31.27-11.38,46.08-4.64,12.34-10.24,24.69-17.87,35.5-2.44,3.47-5.29,7.37-9.07,9.49-.77.43-.08,1.61.69,1.18,3.29-1.84,5.83-5,8.07-7.93a108,108,0,0,0,9.24-14.88,206,206,0,0,0,16.59-42.59,170.43,170.43,0,0,0,5.1-26.85c.09-.88-1.28-.87-1.37,0Z"/><path class="cls-1" d="M53.28,346.17c11.75,21.36,28.08,40,44.18,58.15,4.41,5,8.85,9.93,13.26,14.92.59.66,1.55-.31,1-1-16.08-18.19-32.74-36-46.67-56a188.92,188.92,0,0,1-10.56-16.82c-.42-.77-1.6-.08-1.18.69Z"/><path class="cls-1" d="M210.76,207.76a10.89,10.89,0,0,1,4.06-1.65,3.54,3.54,0,0,1,3.15,1.08.7.7,0,0,0,.93.25.69.69,0,0,0,.25-.94,4.75,4.75,0,0,0-4.09-1.77,11.51,11.51,0,0,0-5,1.85.68.68,0,0,0,.69,1.18Z"/><path class="cls-1" d="M220.2,202.65c2.43,4.24-.75,8.5-3.88,11.28-.66.59.31,1.56,1,1a17.15,17.15,0,0,0,4.27-5.35,8,8,0,0,0-.17-7.59.68.68,0,0,0-1.18.69Z"/><path class="cls-1" d="M210.29,211.37a4.48,4.48,0,0,0,1.24,2.66,6.58,6.58,0,0,0,2.45,1.89,2.32,2.32,0,0,0,1.47.15.68.68,0,1,0-.36-1.32l-.1,0c-.09,0,.19,0,0,0a.81.81,0,0,0-.22,0c.06,0,.15,0,0,0l-.13,0-.25-.08c-.12-.05,0,0,0,0a1,1,0,0,0-.14-.06l-.26-.14a6.18,6.18,0,0,1-.53-.36l0,0-.12-.1-.25-.23c-.17-.16-.33-.32-.48-.49l-.22-.26-.05-.06s.07.09,0,0l-.12-.16a5.35,5.35,0,0,1-.34-.54c-.06-.1-.1-.19-.15-.29s0,.09,0,0a1.42,1.42,0,0,0,0-.16,2.68,2.68,0,0,1-.07-.27s0-.07,0-.07,0,.16,0,.07v-.14a.69.69,0,1,0-1.37,0Z"/><path class="cls-1" d="M207.35,220.18a2.76,2.76,0,0,0,.55-.53c.28-.32.54-.64.8-1a29.51,29.51,0,0,0,1.82-2.5,4.29,4.29,0,0,0,.56-1.11.71.71,0,0,0-.48-.85.7.7,0,0,0-.84.48.75.75,0,0,0,0,.16c0,.09.07-.16,0-.06a1.17,1.17,0,0,0,0,.11c-.08.15-.17.3-.26.45-.24.39-.5.77-.77,1.14-.14.2-.29.4-.44.59l-.11.15s-.13.17-.07.1-.06.08-.08.09a.76.76,0,0,1-.11.14c-.26.34-.53.67-.8,1l-.32.36-.12.11c-.11.12.11-.07.06,0a.69.69,0,0,0,.69,1.19Z"/><path class="cls-1" d="M169.47,189.06a2.38,2.38,0,0,0-.39.8c-.14.39-.27.78-.39,1.18a10.52,10.52,0,0,0-.53,2.78.69.69,0,0,0,1.37,0,2.53,2.53,0,0,1,0-.28.57.57,0,0,0,0-.13c0-.1,0-.1,0,0a1,1,0,0,1,0-.3l.06-.33c.1-.45.21-.89.34-1.32s.23-.76.36-1.13c0-.13.11-.26.15-.39,0,0-.08.18,0,.08a.08.08,0,0,1,0-.05c0-.08.12-.15-.06.06a.69.69,0,0,0-1-1Z"/><path class="cls-1" d="M171.32,186.39a122.14,122.14,0,0,1,6.07-13c1.43-2.65,4-5.73,7.14-6.23a33.93,33.93,0,0,1,8.3.27c3.13.31,6,.71,8.71,2.4,1.79,1.09,4.34,2.66,5.07,4.75.19.56.24,2.08-.69,2.14s-.88,1.43,0,1.37c2.67-.18,2.42-3.58,1.34-5.17a16.61,16.61,0,0,0-5.37-4.48,15.19,15.19,0,0,0-6.12-2.07,79,79,0,0,0-9.33-.68,9,9,0,0,0-4,.76,14.31,14.31,0,0,0-4.79,4,36.87,36.87,0,0,0-3.77,6.86Q171.77,181.6,170,186c-.33.82,1,1.17,1.32.36Z"/><path class="cls-1" d="M190.35,178.87a12.63,12.63,0,0,0,4.58-1.38.71.71,0,0,0,.48-.84.69.69,0,0,0-.84-.48c-.75.3-1.4.61-2.12.88a10.5,10.5,0,0,1-1,.32,3.78,3.78,0,0,1-1.05.13.68.68,0,0,0-.68.68.7.7,0,0,0,.68.69Z"/><path class="cls-1" d="M196.36,176.51a32.21,32.21,0,0,0,4.07,1.72,14.74,14.74,0,0,0,3.78.64c.88,0,.88-1.32,0-1.37a13.78,13.78,0,0,1-3.42-.59,31.5,31.5,0,0,1-3.74-1.58.68.68,0,1,0-.69,1.18Z"/><path class="cls-1" d="M187.81,179.76a7.84,7.84,0,0,1-.23.83c-.05.16-.11.32-.17.48l-.09.23a1.12,1.12,0,0,0,0,.13c0-.08,0,0,0,0q-.22.5-.48,1l-.27.42-.16.23c0-.05.06-.08,0,0l-.1.12a.7.7,0,0,0,0,1,.69.69,0,0,0,1,0,8.34,8.34,0,0,0,1.21-2,11.3,11.3,0,0,0,.69-2,.7.7,0,0,0-.48-.84.68.68,0,0,0-.84.48Z"/><path class="cls-1" d="M178.33,189.17c6.53-3,13.09-5.85,20.06-7.64,1.17-.29,2.33-.61,3.51-.86a7.36,7.36,0,0,1,3.51-.27,7.87,7.87,0,0,1,2.69,1.89c.7.65,1.94,1.71,2,2.75,0,.87,1.42.88,1.37,0-.11-2.24-2.83-4.36-4.57-5.42-2.18-1.33-4.92-.41-7.21.17a130.32,130.32,0,0,0-22,8.2c-.8.37-.11,1.55.69,1.18Z"/><path class="cls-1" d="M189.61,194.41c5.31-3.65,11.32-7,17.91-7.34a6.36,6.36,0,0,1,5.77,2.7,8.13,8.13,0,0,1,1.53,3.83c.07.87,1.44.88,1.37,0-.31-3.84-3.33-7.5-7.24-7.88-3.46-.34-7.22.79-10.37,2.09a52,52,0,0,0-9.66,5.41c-.72.5,0,1.69.69,1.19Z"/><path class="cls-1" d="M200.58,200.37c3.07-2.29,6.72-5.18,10.76-5.11,3.07.05,6.85,1.84,7.82,5,.26.83,1.58.48,1.32-.37-1.09-3.5-4.92-5.58-8.39-5.92-4.59-.45-8.74,2.67-12.21,5.26-.69.52,0,1.71.7,1.18Z"/><path class="cls-1" d="M38.72,219.7c-9.4,5.17-13.85,15.44-17,25.19-1.64,5.15-3.14,10.32-5.11,15.36s-4.17,9.93-6.52,14.77c-2.5,5.14-5.18,10.2-8.07,15.13a.68.68,0,0,0,1.18.69,218.84,218.84,0,0,0,13.52-27.22c1.93-4.65,3.55-9.38,5-14.18,1.7-5.54,3.39-11.14,6.16-16.25s6.44-9.53,11.49-12.31c.77-.42.08-1.6-.7-1.18Z"/><path class="cls-1" d="M0,297.43a11.72,11.72,0,0,0,3.29,5.22,52.5,52.5,0,0,0,6.83,5.89c5.43,4.1,11.22,7.7,17,11.3,2.37,1.48,4.78,2.94,7.07,4.54.72.51,1.41-.68.69-1.18-9.74-6.83-20.78-12.05-29.45-20.34-1.64-1.58-3.6-3.49-4.1-5.8-.19-.86-1.51-.49-1.32.37Z"/><path class="cls-1" d="M6.48,294.93a11.7,11.7,0,0,1,3.9-.57c2.32-.14,4.65-.15,7-.13,5.35,0,10.7.27,16,.49,4.29.18,8.52.34,12.81.18,8-.3,15.94-1,23.92-1.46a173.11,173.11,0,0,1,27.7.49c.88.09.87-1.28,0-1.37a169.9,169.9,0,0,0-25-.64c-8,.38-15.88,1.12-23.83,1.49-10.19.48-20.34-.4-30.54-.53-2.65,0-5.3-.05-7.95.1a13.08,13.08,0,0,0-4.69.77c-.8.36-.1,1.55.69,1.18Z"/><path class="cls-1" d="M27.25,296.83a17.85,17.85,0,0,0,1.94,4.6c1.42,2.87,2.93,5.7,4.44,8.52,3.76,7,7.63,14,11.43,20.95,1.65,3,3.3,6.06,4.85,9.14.4.78,1.58.09,1.19-.69C44.72,326.73,37.38,314.61,31,302c-.85-1.68-2.13-3.63-2.43-5.53-.14-.87-1.46-.5-1.32.37Z"/><path class="cls-1" d="M76.7,236.48a96.18,96.18,0,0,1,15,17.9,38.06,38.06,0,0,1,3.43,7.24,27.32,27.32,0,0,1,2,9.07.69.69,0,0,0,1.37,0,28.5,28.5,0,0,0-2.06-9.44A40.43,40.43,0,0,0,93,253.86a95.38,95.38,0,0,0-15.31-18.35c-.63-.61-1.6.36-1,1Z"/><path class="cls-1" d="M85.88,260.55c3.91,3.18,6.47,8.08,9.05,12.32,1,1.58,2.12,3,2.93,4.71a39.07,39.07,0,0,1,2.73,8.33c.61,2.63,1,5.28,1.53,7.94.15.86,1.47.5,1.32-.37-.94-5.21-1.78-10.52-3.87-15.43a40.28,40.28,0,0,0-3.11-5.31c-1.3-2.11-2.57-4.24-3.95-6.31a30.3,30.3,0,0,0-5.66-6.84c-.68-.56-1.65.41-1,1Z"/><path class="cls-1" d="M48.36,213.88c6.35-5.29,14.65-7.08,21.87-10.81,7-3.62,13.2-8.51,19.52-13.17A125.5,125.5,0,0,1,101,182.37a.68.68,0,0,0-.69-1.18c-6.91,4-13.11,9.07-19.59,13.71a95.76,95.76,0,0,1-10,6.4,117.86,117.86,0,0,1-11.52,5,44.37,44.37,0,0,0-11.74,6.56c-.68.57.29,1.53,1,1Z"/><path class="cls-1" d="M110.84,176a51.11,51.11,0,0,0,5.31,9.17,125.37,125.37,0,0,0,9,11.39c7.39,8.33,15.78,16.06,25.3,21.89a51.75,51.75,0,0,0,16.05,6.77c.86.18,1.23-1.14.36-1.32-10.36-2.19-19.6-8.54-27.54-15.31a129.14,129.14,0,0,1-21.08-22.8,52.63,52.63,0,0,1-6.11-10.15c-.34-.8-1.66-.45-1.32.36Z"/><path class="cls-1" d="M188.47,2.51c22.21-3,41.24,13.6,52.47,31a56.14,56.14,0,0,1,6.6,13.16,75.25,75.25,0,0,1,1.87,7.42,95.85,95.85,0,0,1,2.1,23c-.33,8.53-2.12,18.06-8.65,24.13-.65.6.32,1.57,1,1,5.92-5.5,8.11-13.75,8.83-21.54a90.4,90.4,0,0,0-1.47-24.56,86.65,86.65,0,0,0-2-8.58A50.55,50.55,0,0,0,244,36c-6-10.38-14.19-20-24.27-26.67-9.32-6.17-20.46-9.64-31.67-8.11-.86.12-.49,1.44.37,1.32Z"/><path class="cls-1" d="M218.14,101.42c-5.59,2.57-5.29,9.71-4.79,14.88a69.27,69.27,0,0,0,1.48,9.82c.77,3.19,2.27,7.59-.13,10.44-.57.67.4,1.64,1,1,2.05-2.44,1.81-5.59,1.22-8.53-.35-1.79-.85-3.55-1.22-5.34-.34-1.62-.5-3.27-.69-4.92-.6-5.12-2-13.45,3.85-16.14.8-.36.1-1.55-.69-1.18Z"/><path class="cls-1" d="M203.58,140a1.06,1.06,0,0,1,.39,0,4.66,4.66,0,0,1,.49.16c.16.07.55.29.78.43a14,14,0,0,0,2,1.11c2,.79,3.77-.28,5.11-1.73.6-.65-.37-1.62-1-1a4.51,4.51,0,0,1-2.38,1.6,2.8,2.8,0,0,1-1.66-.35c-1.23-.63-2.32-1.64-3.77-1.66a.69.69,0,0,0,0,1.37Z"/><path class="cls-1" d="M186.79,152.26a2.58,2.58,0,0,0,1.83.58c1,0,2,0,3,0a14.76,14.76,0,0,1,7.64,1.42.69.69,0,0,0,.69-1.19,15.24,15.24,0,0,0-7.52-1.61c-1,0-2.06.06-3.09.07a9.39,9.39,0,0,1-1.07,0,2.62,2.62,0,0,1-.38-.09c-.18-.06.08,0-.07,0,.09.05,0,0,0,0-.59-.66-1.56.31-1,1Z"/><path class="cls-1" d="M192,160.88a7.26,7.26,0,0,0,4.79,2.58,11,11,0,0,0,5.79-.34c.81-.32.46-1.65-.36-1.33a9.53,9.53,0,0,1-4.94.37c-1.42-.24-3.22-.72-4.1-2-.5-.72-1.69,0-1.18.69Z"/><path class="cls-1" d="M241.58,97.92a9.18,9.18,0,0,1-.82,2.45c-.46,1-1,2.08-1.47,3.12a15.53,15.53,0,0,0-1.91,6.31.69.69,0,0,0,1.37,0c0-2.19,1.09-4.31,2-6.25A19.53,19.53,0,0,0,243,97.92c.05-.37-.35-.68-.69-.68a.69.69,0,0,0-.68.68Z"/><path class="cls-1" d="M237.32,113.7c.31,4.58-1.2,9.2-2.68,13.47a73,73,0,0,1-5.11,12.2c-4.42,7.77-10.8,14.31-17.26,20.39-2.83,2.66-5.75,5.22-8.54,7.92-.64.61.33,1.58,1,1,5.71-5.52,11.76-10.64,17.08-16.55A72.68,72.68,0,0,0,230.16,141a68.93,68.93,0,0,0,5.27-12c1.75-4.82,3.61-10.11,3.25-15.32-.06-.87-1.42-.88-1.36,0Z"/><path class="cls-1" d="M123.64,94.17c-1.26,5.33-1.71,14.4,4.63,16.8a9.85,9.85,0,0,0,5.79.07.68.68,0,0,0-.36-1.32,8,8,0,0,1-5.59-.31,6.57,6.57,0,0,1-3-3.56c-1.38-3.54-1.06-7.69-.2-11.31.2-.86-1.12-1.22-1.32-.37Z"/><path class="cls-1" d="M135.78,112.88c.28,4.88-.82,10,.93,14.68.31.82,1.63.47,1.32-.36-1.71-4.59-.6-9.56-.88-14.32-.05-.87-1.42-.88-1.37,0Z"/><path class="cls-1" d="M138.42,138.71C145.29,149,151,160.1,160.78,168.07a46.85,46.85,0,0,0,10,6.31c.79.37,1.49-.81.69-1.18-12.12-5.64-20-16.21-26.86-27.25-1.66-2.65-3.29-5.33-5-7.93-.49-.73-1.67-.05-1.18.69Z"/><path class="cls-1" d="M132.51,123.67A78.26,78.26,0,0,1,131,144.33c-.94,4.27-2.25,9-5.06,12.43-.55.68.42,1.65,1,1,2.89-3.57,4.34-8.28,5.34-12.69a79.85,79.85,0,0,0,1.6-21.37c0-.88-1.41-.88-1.37,0Z"/><path class="cls-1" d="M123.52,160.83c-1.32,2.52-2.6,5.07-4.16,7.45a51.63,51.63,0,0,1-6.29,7.55c-.62.63.35,1.6,1,1a53.2,53.2,0,0,0,6.39-7.66,81,81,0,0,0,4.27-7.61c.4-.78-.78-1.47-1.18-.69Z"/><path class="cls-1" d="M172.24,0a44.43,44.43,0,0,0-27.7,10.74c-8,6.67-14.18,15.38-19.33,24.37-2.92,5.1-5.53,10.36-8,15.7-.37.79.81,1.49,1.18.69a154.9,154.9,0,0,1,14.81-26.35c5.85-8.09,13.11-15.51,22.21-19.86a40.45,40.45,0,0,1,16.81-3.92.69.69,0,0,0,0-1.37Z"/><path class="cls-1" d="M112.15,63a51.65,51.65,0,0,0-4.63,12.21c-1.42,5.27-2.47,10.65-3.39,16-1.8,10.42-3,20.94-4.85,31.34-.57,3.15-1,7-2.7,9.76-.46.75.73,1.44,1.19.69,1.46-2.37,1.93-5.45,2.46-8.13.91-4.6,1.57-9.24,2.25-13.87,1.6-11,3.06-22.17,5.73-33,1.21-4.9,2.61-9.92,5.12-14.33a.68.68,0,0,0-1.18-.69Z"/><path class="cls-1" d="M94.39,137.17C86,153.43,79.91,170.71,72,187.2c-2.24,4.68-4.63,9.3-7.23,13.79a.68.68,0,0,0,1.18.69c9.19-15.82,15.51-33.05,22.91-49.73,2.1-4.75,4.31-9.46,6.68-14.09.4-.78-.78-1.47-1.18-.69Z"/><path class="cls-1" d="M177.93,58.21a84,84,0,0,1-20.12,21.2c-6.31,4.68-14.28,9.63-22.43,9.51a11.53,11.53,0,0,1-9.16-4.38c-.55-.69-1.51.29-1,1,4.73,6,12.74,5.39,19.22,3,9-3.35,17-9.6,23.79-16.36A82.51,82.51,0,0,0,179.11,58.9c.48-.74-.7-1.43-1.18-.69Z"/><path class="cls-1" d="M151.8,36.11c-8.8,4.07-15,12.21-19.51,20.54a110.22,110.22,0,0,0-10.07,27.66A99.84,99.84,0,0,0,120.09,97c-.08.87,1.29.87,1.37,0a110.27,110.27,0,0,1,5.37-24c3.1-9.28,7.3-18.58,13.65-26.12a35.36,35.36,0,0,1,12-9.54c.8-.37.1-1.55-.69-1.18Z"/><path class="cls-1" d="M119,108.22c1,8-.35,16.29-2.15,24.06a99.84,99.84,0,0,1-10.57,27.51,57.33,57.33,0,0,1-9.62,12.6c-.63.62.34,1.58,1,1,7-6.73,11.79-15.46,15.4-24.37a106.61,106.61,0,0,0,7.16-28,56.32,56.32,0,0,0,.18-12.78c-.11-.86-1.48-.87-1.37,0Z"/><path class="cls-1" d="M165,56.27c-9.28,9.81-21.37,17.35-35.11,18.31-.87.06-.88,1.43,0,1.37,14.1-1,26.53-8.62,36.08-18.72.6-.64-.36-1.61-1-1Z"/><path class="cls-1" d="M155.63,57.45A64.89,64.89,0,0,1,148,62.36c-2.89,1.61-6,3.23-9.35,3.7-.87.13-.5,1.44.37,1.32,3.34-.47,6.54-2.11,9.46-3.72a63.79,63.79,0,0,0,7.85-5c.69-.53,0-1.72-.69-1.18Z"/><path class="cls-1" d="M198,26.83a184.94,184.94,0,0,1-12.64,19.05c-.54.7.65,1.39,1.18.69a185,185,0,0,0,12.65-19,.69.69,0,0,0-1.19-.69Z"/><path class="cls-1" d="M178.32,23.86,158.49,37c-.73.49,0,1.67.69,1.19L179,25.05c.73-.49.05-1.68-.69-1.19Z"/><path class="cls-1" d="M183.12,14.55A65.78,65.78,0,0,0,156.55,29.4c-.65.6.32,1.57,1,1a64.12,64.12,0,0,1,26-14.5.68.68,0,0,0-.36-1.32Z"/><path class="cls-1" d="M179.51,3.06c5.06.67,10,2.79,14.59,5,4.29,2.06,8.75,4.41,12.29,7.65.64.59,1.61-.37,1-1-3.71-3.4-8.37-5.87-12.89-8-4.71-2.24-9.74-4.33-15-5-.87-.12-.86,1.25,0,1.37Z"/><path class="cls-1" d="M204.69,41.72a55.61,55.61,0,0,0-3.35,8.68c-1.53,4.41-3.08,8.82-4.94,13.1-3.61,8.35-8.81,18.39-17.88,21.81-5.63,2.13-11.59.81-16.81-1.84-.78-.39-1.48.79-.69,1.19,4.8,2.43,10.21,3.87,15.56,2.67A22.51,22.51,0,0,0,188.14,80c6.72-7.55,10.41-17.46,13.7-26.86,1.24-3.55,2.22-7.4,4-10.71.43-.77-.76-1.46-1.18-.69Z"/><path class="cls-1" d="M231.42,48.65c1.37,10.83,1.4,22.52-3,32.73-2.37,5.53-6.37,11.1-12.13,13.45a9.36,9.36,0,0,1-6.18.61c-.84-.26-1.2,1.06-.36,1.32,4.54,1.4,9.51-1.41,12.76-4.37,6.12-5.57,9.12-13.92,10.33-21.92a79.34,79.34,0,0,0-.06-21.82c-.11-.86-1.48-.87-1.37,0Z"/><path class="cls-1" d="M220.3,58.56c-.54,8.3-2.67,16.83-8.22,23.26a34.18,34.18,0,0,1-14.22,9.37c-2.38.88-4.82,1.59-7.24,2.36-.84.26-.48,1.58.36,1.32,4.91-1.55,9.84-3,14.3-5.66a31.43,31.43,0,0,0,13-15,48.63,48.63,0,0,0,3.35-15.62c.05-.88-1.32-.88-1.37,0Z"/><path class="cls-1" d="M239.72,64.85c1.87,7.18,1.51,14.78-2.36,21.24a27.86,27.86,0,0,1-12.24,10.82,17,17,0,0,1-6.27,1.7c-.87,0-.88,1.4,0,1.37,4.65-.16,9.27-2.7,12.84-5.5a27.08,27.08,0,0,0,10.08-16.2A31.66,31.66,0,0,0,241,64.49a.68.68,0,0,0-1.32.36Z"/><path class="cls-1" d="M201.87,58c-.57,7.12-2.09,14.52-6.37,20.41-3.87,5.3-10.12,9.1-16.83,8.65-.88-.06-.88,1.31,0,1.37,6.92.46,13.42-3.35,17.55-8.72,4.76-6.18,6.41-14.1,7-21.71.07-.88-1.3-.88-1.37,0Z"/><path class="cls-1" d="M174,99.37a106.56,106.56,0,0,0,11.5,2.08c3.7.61,7.55,1.38,10.7,3.51.74.49,1.42-.69.7-1.18-3.16-2.13-7-3-10.7-3.6a109.75,109.75,0,0,1-11.83-2.13.69.69,0,0,0-.37,1.32Z"/><path class="cls-1" d="M184,102.53a4.2,4.2,0,0,0,.32,3.31,4.81,4.81,0,0,0,2.07,1.9,6,6,0,0,0,2.51.52,4.14,4.14,0,0,0,2.47-.68,6,6,0,0,0,2-3.22c.26-.84-1.06-1.2-1.32-.36a4.93,4.93,0,0,1-1.27,2.3,2.56,2.56,0,0,1-1.61.58,3.86,3.86,0,0,1-3.42-1.35,2.78,2.78,0,0,1-.44-2.64.68.68,0,0,0-1.32-.36Z"/><path class="cls-1" d="M220.15,110.9a16.93,16.93,0,0,1,5.31-1,8.14,8.14,0,0,1,2.74.58,17,17,0,0,1,3.56,1.54.69.69,0,0,0,.69-1.19,18.63,18.63,0,0,0-3.78-1.64,9.81,9.81,0,0,0-3.06-.66,17.87,17.87,0,0,0-5.83,1c-.82.29-.46,1.62.37,1.32Z"/><path class="cls-1" d="M232.38,112.76a7.79,7.79,0,0,0,2.42,1.64.71.71,0,0,0,.53.07.67.67,0,0,0,.41-.31.75.75,0,0,0,.07-.53.66.66,0,0,0-.32-.41,6.87,6.87,0,0,1-1.19-.65,1.85,1.85,0,0,1-.27-.19c-.05,0-.2-.15,0,0l-.12-.1c-.18-.14-.35-.3-.52-.46a.68.68,0,0,0-1,1Z"/><path class="cls-1" d="M223.44,110.48a4.87,4.87,0,0,0,.53,2.18,3.4,3.4,0,0,0,1.75,1.46.68.68,0,0,0,.84-.48.7.7,0,0,0-.48-.84c-.14-.06.15.07,0,0l-.11,0-.19-.11-.18-.12c-.12-.08.12.1,0,0l-.09-.07a3.71,3.71,0,0,1-.27-.29c.13.14,0,.07,0,0l-.06-.09-.1-.17-.09-.18c-.06-.12.06.16,0,0a.59.59,0,0,0,0-.08c-.05-.14-.08-.28-.12-.43s0-.14,0-.21a.5.5,0,0,0,0-.12c0-.08,0,.17,0,0s0-.33,0-.5a.7.7,0,0,0-.68-.69.7.7,0,0,0-.69.69Z"/><path class="cls-1" d="M228,111.48a.56.56,0,0,1,0,.13l0-.18a1.21,1.21,0,0,1-.09.31l.07-.16a4.28,4.28,0,0,1-.5.82l.1-.14a2.54,2.54,0,0,1-.47.51l.14-.11-.16.1.16-.07-.07,0a.64.64,0,0,0-.4.32.63.63,0,0,0-.07.52.65.65,0,0,0,.31.41.75.75,0,0,0,.53.07,1.32,1.32,0,0,0,.57-.33,3.15,3.15,0,0,0,.36-.37,4.72,4.72,0,0,0,.75-1.23,1.83,1.83,0,0,0,.08-.25,1.11,1.11,0,0,0,0-.37.74.74,0,0,0-.2-.48.67.67,0,0,0-.48-.2.72.72,0,0,0-.49.2.67.67,0,0,0-.2.48Z"/><path class="cls-1" d="M193.21,104.36a6.85,6.85,0,0,0,1,2.06,3.1,3.1,0,0,0,1.87,1.34.75.75,0,0,0,.53-.07.68.68,0,0,0-.16-1.25l-.21,0-.1,0c-.13,0,.15.08,0,0s-.25-.17-.38-.23l.08.06-.06,0-.09-.08-.15-.15-.16-.18c-.1-.12,0,.06,0,0l-.07-.1a5.61,5.61,0,0,1-.49-.86l-.06-.12v0c0-.06,0,0,0,0a1.6,1.6,0,0,0-.1-.23l-.15-.46a.68.68,0,0,0-.84-.48.69.69,0,0,0-.48.84Z"/><path class="cls-1" d="M183.9,99.56l4.44.68a.7.7,0,0,0,.84-.48.69.69,0,0,0-.48-.84l-4.44-.68a.68.68,0,1,0-.36,1.32Z"/><path class="cls-1" d="M225.09,107.33a18.4,18.4,0,0,1,7.82,1c.83.29,1.19-1,.37-1.32a19.36,19.36,0,0,0-8.19-1.07c-.88.08-.88,1.45,0,1.37Z"/><path class="cls-1" d="M223.37,95.66a8.62,8.62,0,0,1,2.91-.19,24.82,24.82,0,0,1,4.12.61c2.7.62,5.7,1.59,7.61,3.7.59.65,1.56-.32,1-1-2.07-2.27-5.3-3.38-8.21-4a27.17,27.17,0,0,0-4.49-.66,10,10,0,0,0-3.27.24c-.84.26-.48,1.58.36,1.32Z"/><path class="cls-1" d="M174.64,85.71c4.63,0,9.14-1.2,13.75-1.38a17.36,17.36,0,0,1,6.52.88,17.08,17.08,0,0,1,6.72,4.8c.6.66,1.56-.31,1-1a17.48,17.48,0,0,0-13.24-6.11c-4.94,0-9.77,1.37-14.72,1.4a.69.69,0,0,0,0,1.37Z"/><path class="cls-1" d="M324.44,342.93a212.49,212.49,0,0,1-8.74,23.16,113,113,0,0,1-11.24,20.12c-.52.71.67,1.4,1.18.69a113.31,113.31,0,0,0,11.43-20.54,217.72,217.72,0,0,0,8.69-23.06c.26-.84-1.06-1.21-1.32-.37Z"/><path class="cls-1" d="M238.71,385.2c.4,9.46-.58,18.92,0,28.37,0,.87,1.42.88,1.37,0-.58-9.45.4-18.91,0-28.37,0-.87-1.41-.88-1.37,0Z"/><path class="cls-1" d="M278.89,419.1A108.64,108.64,0,0,0,299,395.55c.46-.75-.72-1.44-1.18-.69a107.45,107.45,0,0,1-19.9,23.27c-.66.59.31,1.56,1,1Z"/><path class="cls-1" d="M51.27,349.41c1.9,18,5.53,35.89,6.83,54a105.15,105.15,0,0,1,.26,13.52c0,.88,1.32.87,1.37,0,.48-8.57-.45-17.23-1.45-25.73-1.11-9.41-2.53-18.77-3.87-28.15-.65-4.54-1.29-9.09-1.77-13.65-.09-.86-1.46-.87-1.37,0Z"/><path class="cls-1" d="M225.05,25.9c6,3.8,10.59,9.46,14.17,15.52a61.72,61.72,0,0,1,6.86,16.33c.41,1.65,1,3.65.65,5.37-.16.86,1.16,1.23,1.32.36a12.67,12.67,0,0,0-.36-4.82A50.14,50.14,0,0,0,245.35,51,63.93,63.93,0,0,0,234.9,32.89a39.84,39.84,0,0,0-9.16-8.17c-.75-.47-1.43.71-.69,1.18Z"/><path class="cls-1" d="M245.88,104.18c-.59,12.1-2.82,24-4.15,36.07-.64,5.85-.77,11.67-1,17.55a94.49,94.49,0,0,1-10.87,39.87c-.41.78.77,1.47,1.18.69a96.39,96.39,0,0,0,10.84-37.18c.49-6,.37-12,1-18,.61-6.28,1.5-12.52,2.34-18.76.9-6.72,1.78-13.45,2.11-20.22,0-.88-1.33-.88-1.37,0Z"/><path class="cls-1" d="M222.88,170.73a59.23,59.23,0,0,1-5.5,11.67.68.68,0,0,0,1.18.69,61.11,61.11,0,0,0,5.64-12c.29-.84-1-1.19-1.32-.36Z"/><path class="cls-1" d="M329.79,269.35a3.56,3.56,0,0,1,1.76-1.23,3.63,3.63,0,0,1,2.51.15.69.69,0,0,0,.84-.48.7.7,0,0,0-.48-.84,4.83,4.83,0,0,0-3.31-.13,5.11,5.11,0,0,0-2.5,1.84.69.69,0,0,0,.24.93.69.69,0,0,0,.94-.24Z"/><path class="cls-1" d="M376.14,229.19l.06.07a1,1,0,0,1,.11.17l.09.17c.06.11,0,0,0,.05s.07.23.1.35l0,.19c0-.13,0,.08,0,.09a4.7,4.7,0,0,1,0,.75c0,.21,0-.13,0,.09,0,.07,0,.13,0,.2s-.05.25-.08.37-.14.47-.22.71l-.12.32c-.06.16,0-.07,0,.06l-.07.16a6,6,0,0,1-.46.87c-.47.74.71,1.43,1.18.69a8.58,8.58,0,0,0,1.09-2.64,4,4,0,0,0-.69-3.64.68.68,0,0,0-1,0,.69.69,0,0,0,0,1Z"/><path class="cls-1" d="M142.41,91.49A44.83,44.83,0,0,1,134.1,98a.68.68,0,0,0,.69,1.18,46.25,46.25,0,0,0,8.59-6.74.68.68,0,0,0-1-1Z"/><path class="cls-1" d="M137.9,102l-.2,1a.68.68,0,0,0,.07.52.73.73,0,0,0,.41.32.71.71,0,0,0,.53-.07.67.67,0,0,0,.31-.41l.2-1a.81.81,0,0,0-.07-.53.69.69,0,0,0-.94-.24.65.65,0,0,0-.31.41Z"/><path class="cls-1" d="M211.31,15.94a12.24,12.24,0,0,1,9.46-.55c.84.29,1.2-1,.37-1.32a13.66,13.66,0,0,0-10.53.68c-.78.4-.09,1.58.7,1.19Z"/><path class="cls-1" d="M209.62,21.89a24.27,24.27,0,0,1,0,8.5c-.15.86,1.17,1.23,1.32.36a26,26,0,0,0,0-9.23c-.16-.86-1.48-.5-1.32.37Z"/><path class="cls-1" d="M201.05,154.73a14.74,14.74,0,0,0,3.69-.2,1.83,1.83,0,0,1,1.15.18,13.32,13.32,0,0,1,1.28.83,5.9,5.9,0,0,0,1,.66,2.65,2.65,0,0,0,1.22.14c1,0,2.18-.22,2.48-1.34a.68.68,0,0,0-1.32-.36c-.07.26-.45.28-.68.31a4.79,4.79,0,0,1-.65,0H209s-.32,0-.13,0a4,4,0,0,1-.71-.43c-.36-.25-.72-.52-1.09-.76a3.63,3.63,0,0,0-2.45-.63,12.19,12.19,0,0,1-3.18.24c-.86-.14-1.23,1.18-.37,1.32Z"/><path class="cls-1" d="M303.78,325.78a1.64,1.64,0,0,0,.53.09l.27,0a1.28,1.28,0,0,0,.27-.05,1.72,1.72,0,0,0,.89-.57.44.44,0,0,0,.14-.22.42.42,0,0,0,.06-.27.69.69,0,0,0-.2-.48.69.69,0,0,0-1,0,1.19,1.19,0,0,1-.19.2l.14-.11a1.35,1.35,0,0,1-.26.15l.17-.07a1.92,1.92,0,0,1-.32.09l.18,0h-.3l.19,0-.24-.06a.68.68,0,0,0-.52.07.66.66,0,0,0-.32.41.68.68,0,0,0,.07.52.73.73,0,0,0,.41.32Z"/><path class="cls-1" d="M318.71,316.71a2,2,0,0,0,.59-.09,2,2,0,0,0,.54-.25,1.81,1.81,0,0,0,.44-.39,1.66,1.66,0,0,0,.22-.3c.06-.11.11-.23.16-.34a.7.7,0,0,0-.07-.53.73.73,0,0,0-.41-.32.7.7,0,0,0-.53.07l-.14.11a.69.69,0,0,0-.17.3l0,0,.07-.17a1.05,1.05,0,0,1-.17.29l.11-.14a1.54,1.54,0,0,1-.25.26l.14-.11a2.07,2.07,0,0,1-.32.19l.16-.07a1.31,1.31,0,0,1-.34.09l.18,0h-.19a.72.72,0,0,0-.48.2.67.67,0,0,0-.2.48.68.68,0,0,0,.68.69Z"/><path class="cls-1" d="M334.49,300.14l-1.75,2.64a.68.68,0,0,0,.24.93.69.69,0,0,0,.94-.24l1.76-2.64a.69.69,0,0,0-.25-.94.71.71,0,0,0-.94.25Z"/><path class="cls-1" d="M334.21,301.87l.49,4a.7.7,0,0,0,.68.69c.34,0,.73-.31.69-.69l-.49-4a.71.71,0,0,0-.69-.68c-.33,0-.73.3-.68.68Z"/><path class="cls-1" d="M324.3,306.66a5.65,5.65,0,0,0,3.14-.9.69.69,0,0,0-.69-1.19,4.53,4.53,0,0,1-.64.36.2.2,0,0,0-.08,0h0l-.13.05-.35.11a3.18,3.18,0,0,1-.68.15h-.59a.7.7,0,0,0-.69.68.7.7,0,0,0,.69.69Z"/><path class="cls-1" d="M307.14,316.76a5.08,5.08,0,0,0,3.73-2.21.68.68,0,0,0-.25-.93.7.7,0,0,0-.94.24.86.86,0,0,0-.13.2s.07-.1,0,0l-.07.09c-.1.11-.19.21-.3.31l-.18.16-.07.06c-.06.06.11-.08,0,0l-.38.25-.38.2-.11,0s.12,0,0,0l-.22.08-.42.11-.23.05c-.09,0,0,0,0,0l-.14,0a.7.7,0,0,0-.69.68.7.7,0,0,0,.69.69Z"/><path class="cls-1" d="M292.05,331.29l2.95,6.19a.68.68,0,0,0,.93.24.7.7,0,0,0,.25-.94l-2.95-6.18a.69.69,0,0,0-.93-.25.71.71,0,0,0-.25.94Z"/><path class="cls-1" d="M103.76,181.71a7.39,7.39,0,0,0,6.75-3.28c.48-.74-.7-1.43-1.19-.7a6,6,0,0,1-5.56,2.61.69.69,0,1,0,0,1.37Z"/><path class="cls-1" d="M303.88,285.48l-3.3,5.15a.68.68,0,1,0,1.18.69l3.3-5.14a.7.7,0,0,0-.24-.94.69.69,0,0,0-.94.24Z"/><path class="cls-1" d="M291.85,304.46a21.11,21.11,0,0,0-2.06,3.1.69.69,0,0,0,1.18.7c.28-.52.57-1,.89-1.51l.5-.72c.09-.11.17-.23.26-.35l.07-.08c-.06.06-.06.06,0,0l.13-.17A.73.73,0,0,0,293,305a.71.71,0,0,0-.21-.49.7.7,0,0,0-1,0Z"/><path class="cls-1" d="M341.52,232.7c-2.87.32-4.8,2.52-6.42,4.72a65,65,0,0,0-5.27,8.53c-.4.78.78,1.48,1.19.69a62.53,62.53,0,0,1,4.71-7.75c1.4-2,3.16-4.52,5.79-4.82.86-.1.87-1.47,0-1.37Z"/><path class="cls-1" d="M327.94,248.54l-1,1.38a.63.63,0,0,0-.07.52.65.65,0,0,0,.31.41.66.66,0,0,0,.53.07l.16-.07a.64.64,0,0,0,.25-.24l1-1.38a.7.7,0,0,0,.07-.53.67.67,0,0,0-.31-.41.75.75,0,0,0-.53-.07l-.16.07a.67.67,0,0,0-.25.25Z"/><path class="cls-1" d="M324.77,253.24,313,272.94a.68.68,0,0,0,1.18.69L326,253.94a.69.69,0,0,0-1.18-.7Z"/><path class="cls-1" d="M345.84,232.66q6.51-.61,13-.95c2.13-.1,4.27-.19,6.4-.25a19.91,19.91,0,0,1,6.3.54.68.68,0,0,0,.36-1.32c-4-1.19-8.5-.56-12.57-.36q-6.78.33-13.53,1c-.87.08-.88,1.45,0,1.37Z"/><path class="cls-1" d="M338.68,238.5a23.05,23.05,0,0,0-5.07,8.42,2.26,2.26,0,0,0,0,2,2,2,0,0,0,2.12.5,4.36,4.36,0,0,0,3.14-2.75c.32-.83-1-1.18-1.32-.37a3,3,0,0,1-2.32,1.83c-.1,0-.44.07-.51,0s.07-.52.1-.63a18.9,18.9,0,0,1,.67-1.77,21.58,21.58,0,0,1,4.13-6.28c.6-.65-.37-1.62-1-1Z"/><path class="cls-1" d="M341.57,238.48c-.1.05,0,0,0,0h0s.16,0,0,0l.12,0c.16,0-.05,0,0,0l.14.08s.06,0,0,0l.11.11s.09.13,0,0a.41.41,0,0,0,.07.11c.06.1,0,0,0,0s0,.1,0,.15a1.52,1.52,0,0,1,0,.6,7.12,7.12,0,0,1-.5,1.33,5.48,5.48,0,0,0-.51,1.67.68.68,0,0,0,.68.68.71.71,0,0,0,.69-.68,6,6,0,0,1,.57-1.54,4.15,4.15,0,0,0,.46-2,2.17,2.17,0,0,0-.92-1.61,1.74,1.74,0,0,0-1.77-.15.68.68,0,1,0,.69,1.18Z"/><path class="cls-1" d="M194.85,155.22c.55.38,1.17.91,1.78,1.38a11.66,11.66,0,0,0,2.08,1.47,5.82,5.82,0,0,0,3.36.07,21.29,21.29,0,0,0,2.61-.68c.84-.27.48-1.59-.36-1.32a20.54,20.54,0,0,1-2.42.64,8.62,8.62,0,0,1-1.6.18,3.9,3.9,0,0,1-.76-.06l-.25-.06c.2.06,0,0,0,0-1.32-.82-2.45-1.9-3.72-2.79-.73-.5-1.41.68-.7,1.19Z"/><path class="cls-1" d="M271.46,127.89a17.54,17.54,0,0,0,10.16-1.21.69.69,0,0,0,.24-.94.7.7,0,0,0-.93-.25,15.89,15.89,0,0,1-9.11,1.08c-.86-.15-1.23,1.17-.36,1.32Z"/><path class="cls-1" d="M275.2,121.73A56.08,56.08,0,0,0,274.14,140c.1.87,1.47.88,1.37,0a54.64,54.64,0,0,1,1-17.85c.19-.86-1.13-1.23-1.32-.37Z"/><path class="cls-1" d="M278.19,135.07c-.83,3.07-3.24,6.12-6.48,6.8a2.91,2.91,0,0,1-.58.09h0l-.13-.09a2.34,2.34,0,0,1-.53-.51,1.92,1.92,0,0,1-.39-.9,3.82,3.82,0,0,1,.8-2.48,10,10,0,0,1,5.2-3.86,4.45,4.45,0,0,1,5.2,2.31,6.23,6.23,0,0,1-1.48,7.31c-.66.58.31,1.55,1,1a7.65,7.65,0,0,0,2.07-8.09,5.91,5.91,0,0,0-6.38-4,10.9,10.9,0,0,0-6.52,4.33,5.51,5.51,0,0,0-1.24,3.26,3.55,3.55,0,0,0,1.74,2.92c.79.51,2.17,0,3-.37a9.53,9.53,0,0,0,2.79-1.82,11.73,11.73,0,0,0,3.32-5.52.68.68,0,0,0-1.32-.36Z"/><path class="cls-1" d="M291,137.92c.45-1.06,1.26-2.95,2.66-2.9a7.66,7.66,0,0,1,2.25.91,9.18,9.18,0,0,0,2,.55c2.65.43,5.47-.23,7.08-2.51.51-.72-.68-1.41-1.18-.69-1.63,2.29-4.95,2.32-7.35,1.4-1.41-.54-2.62-1.5-4.14-.7a6.18,6.18,0,0,0-2.49,3.25c-.34.8.84,1.5,1.18.69Z"/><path class="cls-1" d="M315.78,124.29l-.38,10c0,.88,1.33.88,1.37,0l.38-10c0-.88-1.34-.88-1.37,0Z"/><path class="cls-1" d="M316.27,137.7h-.09a2.06,2.06,0,0,0-.26,0,1.73,1.73,0,0,0-.24.1,1.21,1.21,0,0,0-.2.14,1,1,0,0,0-.26.42,1.17,1.17,0,0,0,0,.27.45.45,0,0,0,0,.11,1.88,1.88,0,0,0,.05.33,3.45,3.45,0,0,0,.14.34.41.41,0,0,0,.18.19.41.41,0,0,0,.23.13.81.81,0,0,0,.53-.07.74.74,0,0,0,.31-.41l0-.18a.71.71,0,0,0-.1-.35v0l.07.16a1.71,1.71,0,0,1-.09-.3l0,.18a.61.61,0,0,1,0-.14l0,.19a.19.19,0,0,1,0-.08l-.07.16,0-.06-.1.14,0,0-.14.11.07,0-.16.07a.42.42,0,0,1,.12,0l-.18,0h.11a.4.4,0,0,0,.26-.06.44.44,0,0,0,.22-.14.46.46,0,0,0,.14-.22.58.58,0,0,0,.06-.26l0-.18a.75.75,0,0,0-.18-.31.72.72,0,0,0-.48-.2Z"/><path class="cls-1" d="M293.44,161.3a8.18,8.18,0,0,0,3.95-.84.7.7,0,0,0,.25-.94.7.7,0,0,0-.94-.24l-.24.11-.07,0-.43.16a8.19,8.19,0,0,1-.85.23l-.42.07c-.08,0-.08,0,0,0h-.13l-.19,0a7.06,7.06,0,0,1-.92,0,.69.69,0,0,0,0,1.37Z"/><path class="cls-1" d="M295.32,159a57,57,0,0,0-2.95,9.74c-.18.86,1.14,1.23,1.32.36a57.51,57.51,0,0,1,2.95-9.74.71.71,0,0,0-.48-.84.7.7,0,0,0-.84.48Z"/><path class="cls-1" d="M302.52,159.4l.21.16-.13-.11a8.12,8.12,0,0,1,1.43,1.44l-.1-.14.23.32a.73.73,0,0,0,.41.32.76.76,0,0,0,.53-.07.69.69,0,0,0,.24-.94,8.74,8.74,0,0,0-2.13-2.16.68.68,0,0,0-.52-.07.73.73,0,0,0-.41.32.66.66,0,0,0-.07.53.81.81,0,0,0,.31.4Z"/><path class="cls-1" d="M302.71,164.25c-.12,1.55-.17,3.13-.38,4.67-.14,1-.48,2.25-1.6,2.42a1.59,1.59,0,0,1-1.89-1.4,1.75,1.75,0,0,1,.51-1.28,1.9,1.9,0,0,1,1.57-.45,10.5,10.5,0,0,1,4.69,1.6c.75.47,1.44-.72.69-1.18a12,12,0,0,0-5.32-1.78,3.27,3.27,0,0,0-2.43.68,3.13,3.13,0,0,0-1,1.85,2.86,2.86,0,0,0,2.29,3.28,3,3,0,0,0,2.14-.33,3.49,3.49,0,0,0,1.42-1.87,10.26,10.26,0,0,0,.43-2.64l.28-3.57a.69.69,0,0,0-1.37,0Z"/><path class="cls-1" d="M332.89,160.27a.57.57,0,0,1,.18,0s-.13,0,0,0h.1l.45,0c.31,0,.63,0,.94,0l.46.05.22,0,.12,0h0c.28,0,.57.08.85.14A.71.71,0,0,0,337,160a.68.68,0,0,0-.48-.84,10.94,10.94,0,0,0-4-.21.69.69,0,0,0,.37,1.32Z"/><path class="cls-1" d="M332.46,163.58c1.35.06,2.71.1,4.07.12a.68.68,0,0,0,.68-.68.7.7,0,0,0-.68-.69c-1.36,0-2.72-.06-4.07-.12a.68.68,0,0,0-.69.68.7.7,0,0,0,.69.69Z"/><path class="cls-1" d="M325.23,159.61a30.62,30.62,0,0,0-1,11.15c.08.87,1.45.88,1.37,0a29.76,29.76,0,0,1,.92-10.79.68.68,0,0,0-1.32-.36Z"/><path class="cls-1" d="M334.16,161.42a30.61,30.61,0,0,1,.28,4.69c0,.69.19,3.92-1.17,3.39-.26-.1-1.16-.78-.41-.8a4.32,4.32,0,0,1,1.84.8,17.89,17.89,0,0,1,3.36,2.5c.64.6,1.61-.36,1-1a18.87,18.87,0,0,0-3.8-2.79c-1.08-.61-3-1.61-3.84-.14s1,2.92,2.3,2.84c1.79-.11,2-2.19,2.08-3.56a31.24,31.24,0,0,0-.24-6,.72.72,0,0,0-.68-.69c-.33,0-.74.32-.69.69Z"/><path class="cls-1" d="M342.72,158.85a21.53,21.53,0,0,1,2.68,4.71.72.72,0,0,0,.84.48.69.69,0,0,0,.48-.84,22.45,22.45,0,0,0-2.82-5,.68.68,0,1,0-1.18.69Z"/><path class="cls-1" d="M350.76,158.34A32.15,32.15,0,0,0,347,163a21.89,21.89,0,0,0-2.75,5.19,3.31,3.31,0,0,0,1.35,4,8,8,0,0,0,4.27.85.69.69,0,0,0,0-1.37,7,7,0,0,1-3.44-.58c-1.53-.84-1-2.44-.37-3.73a30.66,30.66,0,0,1,5.67-8.06.68.68,0,0,0-1-1Z"/><path class="cls-1" d="M353.76,158l.35,1a.73.73,0,0,0,.32.41.66.66,0,0,0,.53.07.66.66,0,0,0,.47-.84l-.35-1a.68.68,0,0,0-.84-.48.7.7,0,0,0-.48.85Z"/><path class="cls-1" d="M355.89,157.47l.7,1.39a.65.65,0,0,0,.4.31.69.69,0,0,0,.53-.06.72.72,0,0,0,.32-.41.81.81,0,0,0-.07-.53l-.7-1.39a.65.65,0,0,0-.41-.31.63.63,0,0,0-.52.07.67.67,0,0,0-.32.4.81.81,0,0,0,.07.53Z"/><path class="cls-1" d="M362,166.48c0-1.14,1.28-1.68,2.26-1.68a32.89,32.89,0,0,1,3.9.7,10.55,10.55,0,0,0,7-1.68c.73-.48,0-1.67-.7-1.18a9.23,9.23,0,0,1-3.93,1.49,12.09,12.09,0,0,1-4.31-.42,5.7,5.7,0,0,0-3.76.11,3,3,0,0,0-1.84,2.66.69.69,0,0,0,1.37,0Z"/><path class="cls-1" d="M312.56,160.24a5.49,5.49,0,0,1,1.25-.39,4.6,4.6,0,0,1,.66-.07h.21q.38,0,.09,0l-.2-.48c0,.1-.33.46-.4.57l-.53.78L312.7,162l-2,2.91c-.45.66.53,1.35,1.07.83,1-1,2.36-2,3.88-1.52a3.12,3.12,0,0,1,2,3.39,3,3,0,0,1-2.64,2.83c-.42,0-1.71-.14-1.41-.83s1.21-.17,1.53.24c.55.69,1.51-.29,1-1-1.07-1.36-3.56-1.34-3.89.64s2.38,2.56,3.83,2.12a4.56,4.56,0,0,0,3-4.22,4.47,4.47,0,0,0-2.65-4.37c-2.13-.91-4.09.26-5.61,1.72l1.07.83c1.26-1.84,2.59-3.65,3.79-5.52.55-.86.08-1.6-.9-1.63a6.52,6.52,0,0,0-2.91.65c-.8.36-.1,1.54.69,1.18Z"/></g></g></svg>