<svg xmlns="http://www.w3.org/2000/svg" viewBox="0 0 200 227.59"><defs><style>.cls-1{fill:gray;}</style></defs><g id="w"><path class="cls-1" d="M91.05,132.79a55.45,55.45,0,0,0,9.85,2.13,39.47,39.47,0,0,0,9.65-.36,88.2,88.2,0,0,0,8.69-1.67c1.62-.4,5.28-.91,5.59-3,.21-1.4-1.12-2.26-2.18-2.85a35,35,0,0,1-4.18-2.35c-1.54-1.17-3,1.44-1.52,2.59a31.89,31.89,0,0,0,4.07,2.29,4.18,4.18,0,0,0,.86.5.27.27,0,0,1,.15.13,1.16,1.16,0,0,1,.2-1.41c-.13,0-.7.31-.88.37a55.22,55.22,0,0,1-8.81,2.05,44.63,44.63,0,0,1-9.78.83,46.17,46.17,0,0,1-10.91-2.16,1.51,1.51,0,0,0-.8,2.9Z"/><path class="cls-1" d="M91.62,135.64c1,3.75,3.49,6.8,7.53,7.27,3.38.41,6.87-1,9.75-2.66a24.15,24.15,0,0,0,4.26-3.12c1.42-1.31-.7-3.43-2.12-2.12a19.69,19.69,0,0,1-9.08,4.81,6.71,6.71,0,0,1-4.33-.41,7.08,7.08,0,0,1-3.12-4.57,1.5,1.5,0,0,0-2.89.8Z"/><path class="cls-1" d="M102.28,117.9l.75,3a1.54,1.54,0,0,0,.69.89,1.5,1.5,0,0,0,2.21-1.69l-.76-3a1.55,1.55,0,0,0-.69-.9,1.59,1.59,0,0,0-1.15-.15,1.53,1.53,0,0,0-1,1.85Z"/><path class="cls-1" d="M125.61,149.71c12.79-7.49,15.39-23.7,13.2-37.21C136.4,97.63,128,82.5,114.5,75a36.14,36.14,0,0,0-22.66-4.11,37.19,37.19,0,0,0-19.19,9c-11,9.67-16.85,24.91-16.51,39.42a45.25,45.25,0,0,0,5.66,21.25,40.49,40.49,0,0,0,16.6,15.8,50.67,50.67,0,0,0,6,2.62l-.89-2.2c-6.36,14-6.9,29.69-11.22,44.26-.55,1.86,2.35,2.65,2.9.8,2.13-7.2,3.34-14.65,4.81-22s3-14.74,6.1-21.54a1.53,1.53,0,0,0-.9-2.2A39.37,39.37,0,0,1,67,143.12a39.93,39.93,0,0,1-7.5-18.89C57.76,110.66,62,96,71.12,85.73A36.15,36.15,0,0,1,87.38,75a33.26,33.26,0,0,1,21.14.59c13.63,5,22.6,18.62,26.21,32.18,3.22,12.1,3,27.74-7,36.75a21.51,21.51,0,0,1-3.62,2.62,1.5,1.5,0,0,0,1.51,2.59Z"/><path class="cls-1" d="M80.17,94.23a11.29,11.29,0,0,0,5.3-.69,12,12,0,0,0,4.58-2.62,1.5,1.5,0,1,0-2.12-2.13l-.32.31a1.3,1.3,0,0,0-.18.15c-.14.12.25-.18,0,0s-.59.39-.89.57-.68.36-1,.52c0,0-.34.15-.15.06s-.15.06-.15.07l-.57.21a14.07,14.07,0,0,1-2.23.59.86.86,0,0,1-.27.05c.32,0,.13,0,0,0l-.52,0a4.17,4.17,0,0,1-.5,0c-.12,0-.7-.06-.19,0a1.55,1.55,0,0,0-1.85,1,1.52,1.52,0,0,0,1,1.84Z"/><path class="cls-1" d="M106.23,90.71a11.48,11.48,0,0,0,3.69,1.52,12.31,12.31,0,0,0,4.28.12,1.43,1.43,0,0,0,.89-.69,1.49,1.49,0,0,0-.53-2,1.79,1.79,0,0,0-1.16-.15c.42-.06-.09,0-.17,0l-.46,0a7.09,7.09,0,0,1-.8,0,4.25,4.25,0,0,1-.8-.07c.42.09-.09,0-.17,0l-.4-.08a6.19,6.19,0,0,1-1.58-.5c.35.19-.1,0-.17-.08l-.31-.15c-.27-.14-.53-.3-.79-.46a1.51,1.51,0,0,0-2,.54,1.53,1.53,0,0,0,.53,2Z"/><path class="cls-1" d="M34.4,106a46.58,46.58,0,0,1,10.82-1.7,1.54,1.54,0,0,0,1.5-1.5,1.51,1.51,0,0,0-1.5-1.5,50.16,50.16,0,0,0-11.62,1.81,1.5,1.5,0,0,0,.8,2.89Z"/><path class="cls-1" d="M35.63,92.45c3.54.65,7,1.75,10.43,2.69a1.5,1.5,0,0,0,.8-2.89c-3.47-.94-6.89-2-10.43-2.69a1.53,1.53,0,0,0-1.84,1,1.51,1.51,0,0,0,1,1.84Z"/><path class="cls-1" d="M137.73,83.55v8.86a1.5,1.5,0,0,0,3,0V83.55a1.5,1.5,0,1,0-3,0Z"/><path class="cls-1" d="M146.47,82.54c2.19,2.32,4,5,6.61,6.94a1.52,1.52,0,0,0,2.06-.54,1.55,1.55,0,0,0-.54-2c-.23-.17.26.21.05,0l-.23-.19L154,86.4c-.29-.27-.57-.54-.84-.82-.58-.59-1.14-1.2-1.68-1.82-1-1.11-1.9-2.27-2.92-3.34a1.5,1.5,0,0,0-2.12,0,1.54,1.54,0,0,0,0,2.12Z"/><path class="cls-1" d="M158,77.55c0,1.61,0,3.22-.2,4.82,0,.19,0,.38-.07.58s0,.22,0,.33h0c-.06.38-.12.75-.19,1.12a18.07,18.07,0,0,1-.57,2.16A1.52,1.52,0,0,0,158,88.41a1.54,1.54,0,0,0,1.85-1A31.2,31.2,0,0,0,161,77.55a1.5,1.5,0,1,0-3,0Z"/><path class="cls-1" d="M165,77.44a20.16,20.16,0,0,0,2.37,2.77c.94,1,1.91,1.91,2.91,2.83.39.37.79.73,1.2,1.07A1.5,1.5,0,0,0,173.55,82c-1.11-.94-2.17-2-3.2-3-.6-.6-1.2-1.21-1.77-1.84-.25-.27-.49-.54-.73-.83l-.15-.18c-.22-.27.2.27.06.08l-.22-.31A1.5,1.5,0,0,0,165,77.44Z"/><path class="cls-1" d="M176.82,79.84l1.33,1.33.19.18a1.08,1.08,0,0,0,.48.31,1.36,1.36,0,0,0,1.16,0,1.14,1.14,0,0,0,.48-.31,1.5,1.5,0,0,0,.44-1.06l-.05-.4a1.59,1.59,0,0,0-.39-.66l-1.33-1.32-.18-.19a1.11,1.11,0,0,0-.49-.31,1.06,1.06,0,0,0-.58-.13,1,1,0,0,0-.57.13,1.11,1.11,0,0,0-.49.31,1.54,1.54,0,0,0-.44,1.06l.06.4a1.57,1.57,0,0,0,.38.66Z"/><path class="cls-1" d="M186.53,76.12a25.32,25.32,0,0,1-.77,3.78c-.09.32-.19.63-.3.94l-.16.43a.78.78,0,0,1-.09.21c.07-.17.09-.2,0-.1a1,1,0,0,1,0,.1c-.13.29-.27.56-.42.83s-.15.25-.22.36-.39.54-.13.2a1.68,1.68,0,0,0-.44,1.06,1.59,1.59,0,0,0,.44,1.07,1.52,1.52,0,0,0,2.12,0,16.64,16.64,0,0,0,2.86-8.08,1.67,1.67,0,0,0-.15-1.16,1.5,1.5,0,0,0-2.74.36Z"/><path class="cls-1" d="M84.31,109.63c-.27.12.25-.09.3-.11l.4-.14c.32-.09.64-.18,1-.25l.56-.1c.33-.06-.2,0,.16,0s.66-.06,1-.06a8.19,8.19,0,0,1,1,0l.42,0c-.32,0,.25,0,.3,0a11.27,11.27,0,0,1,1.91.54,1.51,1.51,0,0,0,1.85-1,1.54,1.54,0,0,0-1-1.84,12.35,12.35,0,0,0-9.31.32,1.5,1.5,0,0,0-.54,2,1.55,1.55,0,0,0,2,.54Z"/><path class="cls-1" d="M109.22,107.54a9.49,9.49,0,0,1,.7-.72l.4-.35c.13-.1.07-.06,0,0a1.33,1.33,0,0,1,.19-.14,7.48,7.48,0,0,1,.84-.54l.47-.25.22-.1s.34-.14.14-.07.06,0,.1,0l.22-.08.5-.16c.33-.09.65-.17,1-.23,0,0,.3,0,.09,0s.06,0,.1,0l.53-.05c.35,0,.71,0,1.06,0a1.52,1.52,0,0,0,1.5-1.5,1.54,1.54,0,0,0-1.5-1.5,10.7,10.7,0,0,0-8.64,3.58,1.54,1.54,0,0,0,0,2.12,1.52,1.52,0,0,0,2.12,0Z"/><path class="cls-1" d="M41.8,78.14l6.24,6a1.51,1.51,0,0,0,2.12,0,1.53,1.53,0,0,0,0-2.12l-6.24-6a1.5,1.5,0,0,0-2.12,2.13Z"/><path class="cls-1" d="M107.6,47.91c0,.15.05.3.08.45s0-.31,0,0l0,.22c0,.38.06.76.08,1.14,0,.79,0,1.59,0,2.38,0,1.38-.11,2.76-.26,4.13a1.51,1.51,0,0,0,1.5,1.5,1.53,1.53,0,0,0,1.5-1.5,31.89,31.89,0,0,0-.05-9.1,1.51,1.51,0,0,0-1.84-1,1.54,1.54,0,0,0-1.05,1.85Z"/><path class="cls-1" d="M121.09,47c-2.36,3.21-3.71,6.9-5.36,10.48a1.56,1.56,0,0,0,.54,2.06,1.51,1.51,0,0,0,2-.54c1.65-3.59,3-7.28,5.36-10.48a1.52,1.52,0,0,0-.54-2.06,1.54,1.54,0,0,0-2,.54Z"/><path class="cls-1" d="M130.23,54a33.69,33.69,0,0,0-3.49,3.27c-.91,1-1.79,1.93-2.61,3a1.65,1.65,0,0,0-.43,1.06,1.57,1.57,0,0,0,.43,1.06,1.54,1.54,0,0,0,2.13,0c.81-1,1.7-2,2.6-3a33.69,33.69,0,0,1,3.49-3.27,1.52,1.52,0,0,0,.44-1.06,1.5,1.5,0,0,0-.44-1.06,1.46,1.46,0,0,0-1.06-.44,1.7,1.7,0,0,0-1.06.44Z"/><path class="cls-1" d="M159.35,129.26h6.58a1.5,1.5,0,1,0,0-3h-6.58a1.5,1.5,0,0,0,0,3Z"/><path class="cls-1" d="M156.42,136.61c1.26.74,2.57,1.4,3.85,2.1.66.37,1.31.74,1.95,1.14l.87.57.21.16c.11.07.25.09,0,0a1.79,1.79,0,0,1,.37.31,1.5,1.5,0,1,0,2.12-2.13c-2.33-2-5.22-3.17-7.84-4.71a1.51,1.51,0,0,0-2.05.54,1.53,1.53,0,0,0,.54,2.05Z"/><path class="cls-1" d="M152.29,143.79c.32.38.63.77.94,1.16l.18.22c-.06-.07.16.22.16.22l.41.54c.5.69,1,1.4,1.44,2.13a31.5,31.5,0,0,1,2.17,4.15,1.49,1.49,0,0,0,2,.54,1.54,1.54,0,0,0,.54-2.05,37.83,37.83,0,0,0-5.77-9,1.52,1.52,0,0,0-2.12,0,1.55,1.55,0,0,0,0,2.13Z"/><path class="cls-1" d="M180.57,78.59l.88.89.13.12a1.08,1.08,0,0,0,.48.31,1.36,1.36,0,0,0,1.16,0,1.14,1.14,0,0,0,.48-.31l.23-.3a1.48,1.48,0,0,0,.21-.76l0-.4a1.59,1.59,0,0,0-.39-.66l-.88-.88-.13-.13a1.14,1.14,0,0,0-.48-.31,1.36,1.36,0,0,0-1.16,0,1.14,1.14,0,0,0-.48.31l-.24.3a1.57,1.57,0,0,0-.2.76l.05.4a1.49,1.49,0,0,0,.39.66Z"/></g></svg>