<svg xmlns="http://www.w3.org/2000/svg" viewBox="0 0 200 227.59"><defs><style>.cls-1{fill:gray;}</style></defs><g id="w"><path class="cls-1" d="M110,110.45c.13.57.25,1.15.33,1.74l-.06-.4a13.58,13.58,0,0,1,0,3.37,1.5,1.5,0,0,0,.44,1.06,1.52,1.52,0,0,0,1.06.44,1.5,1.5,0,0,0,1.06-.44,1.71,1.71,0,0,0,.44-1.06,16,16,0,0,0-.42-5.51A1.51,1.51,0,0,0,111,108.6a1.53,1.53,0,0,0-1,1.85Z"/><path class="cls-1" d="M135.25,110.05c0,1.42.06,2.84.06,4.26a1.5,1.5,0,0,0,3,0c0-1.42,0-2.84-.06-4.26a1.5,1.5,0,0,0-3,0Z"/><path class="cls-1" d="M101.45,97.54a15,15,0,0,0,14.63,4.21,1.5,1.5,0,0,0-.8-2.89,12,12,0,0,1-11.7-3.44c-1.32-1.42-3.44.7-2.13,2.12Z"/><path class="cls-1" d="M130.75,100.79c4.76,1.88,10.64-1.25,11.95-6.14a1.5,1.5,0,1,0-2.89-.79c-.07.25-.15.49-.24.74.09-.25,0,0,0,.11l-.15.29a6,6,0,0,1-.37.6c-.05.08-.23.32-.07.11l-.25.3a7,7,0,0,1-.54.55l-.24.22s-.34.27-.2.17-.13.09-.16.11l-.33.22-.68.38-.35.17c.19-.09,0,0-.07,0s-.44.16-.67.22a5.23,5.23,0,0,1-.76.18c-.05,0-.47.06-.11,0l-.39,0a5.58,5.58,0,0,1-.71,0h-.32c-.12,0-.38,0-.11,0a7,7,0,0,1-1.49-.41,1.51,1.51,0,0,0-1.85,1,1.54,1.54,0,0,0,1.05,1.85Z"/><path class="cls-1" d="M124.89,122.3l.75,3a1.59,1.59,0,0,0,.69.9,1.52,1.52,0,0,0,1.16.15,1.54,1.54,0,0,0,1-1.85l-.76-3a1.5,1.5,0,0,0-1.84-1.05,1.52,1.52,0,0,0-1,1.84Z"/><path class="cls-1" d="M121.68,150.54a11.25,11.25,0,0,1,5.83-4.12c1.71-.51,4.89-.88,5.43,1.45a1.21,1.21,0,0,1-.85,1.62,15.82,15.82,0,0,1-4.13.29l-9.79.34c-1.93.07-1.94,3.07,0,3l9.49-.33c2.56-.09,6.19.32,7.75-2.25a5,5,0,0,0-1.64-6.41c-2.19-1.53-5.22-1.27-7.63-.42a14.79,14.79,0,0,0-7.06,5.31,1.51,1.51,0,0,0,.54,2,1.54,1.54,0,0,0,2.06-.53Z"/><path class="cls-1" d="M127.39,164.77a38.39,38.39,0,0,0,21-13.77,44.29,44.29,0,0,0,8.3-22.68,59.67,59.67,0,0,0-3.24-25.13,57.34,57.34,0,0,0-13.61-21.91,45,45,0,0,0-22.61-12.19,38.38,38.38,0,0,0-13-.58,28.46,28.46,0,0,0-10,3.61c-6.93,4-12.41,10.3-16.45,17.12A64.46,64.46,0,0,0,69.34,114a50.6,50.6,0,0,0,3.1,25.83,42.78,42.78,0,0,0,18.31,20.53A54.75,54.75,0,0,0,98,163.78v-2.89a58.42,58.42,0,0,0-21.56,15,60.44,60.44,0,0,0-10.83,17.7,59.13,59.13,0,0,0-2.68,8.44c-.45,1.88,2.44,2.68,2.89.8a54.83,54.83,0,0,1,33-39.08,1.51,1.51,0,0,0,0-2.89c-8.59-3.42-16.22-9.16-21-17.16A44.3,44.3,0,0,1,71.89,120,59.71,59.71,0,0,1,77.61,96,51.4,51.4,0,0,1,91.49,77.61a30.47,30.47,0,0,1,8.71-5,25.93,25.93,0,0,1,10.34-1.36,41.24,41.24,0,0,1,23.09,8.53,51.14,51.14,0,0,1,14.83,18.93,58.38,58.38,0,0,1,5.5,23.49,45.52,45.52,0,0,1-4.88,22.21,34.48,34.48,0,0,1-16.56,15.43,39.71,39.71,0,0,1-5.92,2,1.5,1.5,0,0,0,.79,2.9Z"/><path class="cls-1" d="M124.59,99.73a8.88,8.88,0,0,0,.74,1.87,1.72,1.72,0,0,0,.9.69,1.22,1.22,0,0,0,.6,0,1.16,1.16,0,0,0,.56-.18l.3-.24a1.47,1.47,0,0,0,.39-.66l0-.4a1.42,1.42,0,0,0-.21-.75l-.27-.56.16.36a6.36,6.36,0,0,1-.32-1,1.26,1.26,0,0,0-.27-.51,1.31,1.31,0,0,0-.42-.39,1.26,1.26,0,0,0-.56-.17,1.11,1.11,0,0,0-.6,0l-.36.15a1.74,1.74,0,0,0-.54.54l-.15.36a1.55,1.55,0,0,0,0,.8Z"/><path class="cls-1" d="M118.41,99.83l.19,2a1.06,1.06,0,0,0,.13.58,1.08,1.08,0,0,0,.31.48,1,1,0,0,0,.48.31,1.06,1.06,0,0,0,.58.13,1.5,1.5,0,0,0,1.06-.44,1.52,1.52,0,0,0,.44-1.06l-.19-2a1.15,1.15,0,0,0-.13-.58,1,1,0,0,0-.31-.48,1.14,1.14,0,0,0-.48-.31,1.06,1.06,0,0,0-.58-.13,1.46,1.46,0,0,0-1.06.44,1.42,1.42,0,0,0-.44,1.06Z"/><path class="cls-1" d="M103.7,111.49a39.62,39.62,0,0,1,9.78-.85,1.5,1.5,0,0,0,0-3,43.19,43.19,0,0,0-10.57,1,1.5,1.5,0,1,0,.79,2.89Z"/><path class="cls-1" d="M109.1,118.47h4.67a1.5,1.5,0,1,0,0-3H109.1a1.5,1.5,0,0,0,0,3Z"/><path class="cls-1" d="M132.59,110.83h5.89a1.5,1.5,0,0,0,0-3h-5.89a1.5,1.5,0,0,0,0,3Z"/><path class="cls-1" d="M134.8,118.07l3.9.2a1.5,1.5,0,0,0,0-3l-3.9-.2a1.5,1.5,0,0,0,0,3Z"/><path class="cls-1" d="M19.59,47.33a37.15,37.15,0,0,1-2.7,4.21c-.26.36-.52.72-.79,1.07l-.2.26c.13-.17,0,0,0,.06l-.4.49c-.5.62-1,1.23-1.56,1.81A1.5,1.5,0,1,0,16,57.35a43.68,43.68,0,0,0,3.37-4.18,39.32,39.32,0,0,0,2.78-4.33,1.5,1.5,0,1,0-2.59-1.51Z"/><path class="cls-1" d="M18.36,55,20.5,67.79a1.52,1.52,0,0,0,1.85,1,1.55,1.55,0,0,0,1-1.85L21.26,54.16a1.5,1.5,0,0,0-2.9.79Z"/><path class="cls-1" d="M29.05,47.38c3.14-1.48,6.65-2.17,10-3a1.5,1.5,0,1,0-.8-2.89,59.24,59.24,0,0,0-10.75,3.34,1.5,1.5,0,1,0,1.51,2.59Z"/><path class="cls-1" d="M35.27,47.14C36,50,37,52.76,37.63,55.65a16.62,16.62,0,0,1,.44,4.44,3.63,3.63,0,0,1-1.25,2.83,1.51,1.51,0,0,0,0,2.12,1.53,1.53,0,0,0,2.12,0c2.69-2.21,2.31-6.29,1.75-9.33s-1.78-6.21-2.52-9.36c-.44-1.88-3.34-1.09-2.9.79Z"/><path class="cls-1" d="M27.85,56.54q-.09-.3-.15-.6c0-.06-.06-.37,0-.1s0-.09,0-.16a3.53,3.53,0,0,1,0-.46c0-.25-.08.36,0,.13a2.1,2.1,0,0,0,.06-.24.85.85,0,0,0,.06-.17s-.18.38-.08.2a.25.25,0,0,1,0-.07,1.09,1.09,0,0,1,.08-.15.43.43,0,0,0,0-.07c.1-.18-.2.23-.12.16a2.83,2.83,0,0,0,.24-.25c.19-.18-.12.06-.14.1s.14-.09.18-.12a2.85,2.85,0,0,1,.3-.16c.06,0,.26-.12,0,0s0,0,0,0a5.84,5.84,0,0,1,.69-.18l.15,0c.22,0-.42.05-.2,0l.34,0a5.61,5.61,0,0,1,.58,0c.14,0,.3,0,.44,0s-.46-.09-.25,0-.41-.19-.22-.09-.26-.25-.15-.11l.12.12c.19.18-.19-.29-.08-.12a1.3,1.3,0,0,0,.1.15c.08.12.15.25.22.38s.13.27.19.41-.07-.19,0-.1.07.19.11.28a14,14,0,0,1,.55,1.81c.05.22.09.44.13.66s0-.43,0-.26,0,.06,0,.08,0,.21,0-.12,0-.22,0-.16.19-.41.11-.26.3-.32.1-.14l-.15.14-.06.06c-.11.11.29-.21.15-.12l-.22.16a10.08,10.08,0,0,1-1,.59l-.54.26-.24.12a.75.75,0,0,0-.13.06l.16-.07a4,4,0,0,1-.76.24,1.52,1.52,0,0,0-1,1.85,1.55,1.55,0,0,0,1.85,1.05,7.66,7.66,0,0,0,2.08-.85,7.61,7.61,0,0,0,2-1.37,2.36,2.36,0,0,0,.5-2.29,15.71,15.71,0,0,0-.53-1.93,8.89,8.89,0,0,0-1-2.14,2.67,2.67,0,0,0-2.17-1.28,7,7,0,0,0-3.48.68,3.83,3.83,0,0,0-1.81,2.09A5.14,5.14,0,0,0,25,57.34a1.5,1.5,0,0,0,2.9-.8Z"/><path class="cls-1" d="M49.29,36.25l4.4,1.81A1.5,1.5,0,0,0,55.54,37a1.49,1.49,0,0,0-.15-1.15,1.76,1.76,0,0,0-.9-.69l-4.41-1.82a1.5,1.5,0,0,0-1.69,2.21,1.77,1.77,0,0,0,.9.69Z"/><path class="cls-1" d="M46.69,44.44c4.68-2.15,9.91-3.26,15-4.18a1.5,1.5,0,0,0,1-1.84,1.52,1.52,0,0,0-1.84-1.05,65.5,65.5,0,0,0-15.67,4.48,1.51,1.51,0,0,0-.54,2,1.53,1.53,0,0,0,2,.54Z"/><path class="cls-1" d="M51.26,47.72l4.91-1.15a1.5,1.5,0,0,0,1-1.84,1.54,1.54,0,0,0-1.85-1l-4.91,1.14a1.5,1.5,0,0,0,.8,2.9Z"/><path class="cls-1" d="M52.43,51.72l3.8-.8a1.5,1.5,0,0,0,1-1.84,1.54,1.54,0,0,0-1.84-1l-3.8.8a1.51,1.51,0,0,0-.9.69,1.59,1.59,0,0,0-.15,1.15,1.54,1.54,0,0,0,1.85,1Z"/><path class="cls-1" d="M66.46,54.91l.27-.13-.36.15a4.09,4.09,0,0,1,.91-.25l-.4,0a3.66,3.66,0,0,1,.81,0l-.4,0a2.73,2.73,0,0,1,.68.18l-.36-.15a2.2,2.2,0,0,1,.47.27l-.3-.23a1.82,1.82,0,0,1,.31.31l-.23-.3a1.51,1.51,0,0,1,.2.35l-.15-.36a1.6,1.6,0,0,1,.11.39l-.06-.4a1.62,1.62,0,0,1,0,.44l.06-.4a2.85,2.85,0,0,1-.14.5l.15-.36a3.55,3.55,0,0,1-.36.63,1.45,1.45,0,0,0-.15,1.15,1.49,1.49,0,0,0,.69.9,1.54,1.54,0,0,0,1.15.15l.36-.15a1.47,1.47,0,0,0,.54-.54,3.86,3.86,0,0,0,.71-2,2.91,2.91,0,0,0-.09-.93,2.79,2.79,0,0,0-.36-.83,3.78,3.78,0,0,0-3.27-1.63,5.16,5.16,0,0,0-2.31.61,1.5,1.5,0,0,0-.53,2.06,1.52,1.52,0,0,0,2,.53Z"/><path class="cls-1" d="M72.88,45.34c.42-.07-.24,0,.07,0l.33,0,.87-.1,2-.19c1.26-.11,2.52-.22,3.77-.41l-1.85-1.84c0,.08,0,.16-.07.24-.13.39.14-.31,0,0s-.32.7-.49,1.05c-.47,1-.93,2-1.33,3.07-.73,1.92-1.5,4.49-.34,6.39a4.21,4.21,0,0,0,3.7,1.78,1.5,1.5,0,0,0,0-3l-.39,0c-.38,0,.2.06-.05,0l-.35-.08a.56.56,0,0,0-.12,0c-.14,0,.3.17.09,0l-.23-.13c-.26-.13.17.21,0,0a.73.73,0,0,0-.17-.18c.09.06.15.27,0,0s0,0,0,.07-.08-.23-.09-.27a2,2,0,0,0-.05-.26c0-.13,0,.2,0,.21s0-.18,0-.2a3.74,3.74,0,0,1,0-.58c0-.1,0-.2,0-.3s-.06.33,0,0a15.59,15.59,0,0,1,.84-2.83l.26-.65c-.1.26,0,.13,0,0a3.73,3.73,0,0,1,.16-.35c.18-.4.36-.8.55-1.2a9.35,9.35,0,0,0,.84-2,1.52,1.52,0,0,0-1.84-1.84H79l-.32,0-.87.09-2,.19c-1.26.12-2.52.22-3.77.41a1.51,1.51,0,0,0-1,1.85,1.53,1.53,0,0,0,1.84,1.05Z"/><path class="cls-1" d="M87.65,41.43a7.79,7.79,0,0,1,3.67-.52L90,38.65a30.9,30.9,0,0,1-3,5.28c-.78,1.11.51,2.52,1.7,2.2a7.7,7.7,0,0,1,3-.3c-.26,0,.21,0,.3.07s.37.1.56.16.32.16,0,0l.21.11.48.29c.07.05.2.18,0,0l.16.13.32.33a1.83,1.83,0,0,1,.13.16c.14.14-.16-.24-.05-.07s.18.26.26.4.12.24.19.36c.17.33,0-.17,0,0s.16.46.22.71a1.6,1.6,0,0,1,0,.29s0-.44,0-.11a1.34,1.34,0,0,0,0,.2c0,.3.11-.28,0,0A4.13,4.13,0,0,1,93,50.87a2.19,2.19,0,0,1-2.12.33c-.12,0-.52-.22-.24-.07-.08,0-.46-.3-.3-.16s0,0,0,0,.1.25.06.09-.09-.12-.11-.18c0,.1.1.31,0,.08s-.07.34,0-.08-.11.36,0-.08-.13.12,0-.09a.82.82,0,0,0,.11-.17c.08-.22-.18.17-.07.08s.21-.22,0-.08c.2-.16.29-.15,0,0,.36-.16-.21,0,0,0s-.41-.09-.14,0-.33-.17-.07,0c1.71.89,3.23-1.7,1.52-2.59a3.11,3.11,0,0,0-4.41,2.3,3.2,3.2,0,0,0,.83,3,5.14,5.14,0,0,0,3.55,1.23,5.66,5.66,0,0,0,4-1.9,5.45,5.45,0,0,0,1.72-3.53,6.34,6.34,0,0,0-1.71-4.13c-2-2.21-5.21-2.22-7.9-1.51l1.69,2.2a30.52,30.52,0,0,0,3-5.28,1.52,1.52,0,0,0-1.29-2.25,9.89,9.89,0,0,0-4.47.63,1.54,1.54,0,0,0-1,1.84,1.51,1.51,0,0,0,1.84,1Z"/><path class="cls-1" d="M138.2,45a1.5,1.5,0,0,0,0-3,1.5,1.5,0,0,0,0,3Z"/><path class="cls-1" d="M142.57,44.07a1.5,1.5,0,0,0,0-3,1.5,1.5,0,0,0,0,3Z"/><path class="cls-1" d="M147.22,43.49a1.5,1.5,0,0,0,0-3,1.5,1.5,0,0,0,0,3Z"/><path class="cls-1" d="M153.73,34.1l.22,0,.24,0c.22,0,.44,0,.66,0l.37,0c-.16,0-.1,0,0,0l.33.1c.1,0,.08,0-.06,0l.12.07.1.07c-.12-.1-.14-.11-.06,0h0c0-.07-.06-.07,0,0s0,.08,0,0l.05.19c0-.08-.05.23,0,.17a16.48,16.48,0,0,1-.53,1.74,18.29,18.29,0,0,0-.32,8.16,1.51,1.51,0,0,0,1.84,1.05,1.54,1.54,0,0,0,1.05-1.85,15,15,0,0,1-.13-4.33,15.8,15.8,0,0,1,.39-2c.19-.72.5-1.41.63-2.14a3.26,3.26,0,0,0-2-3.8,6.42,6.42,0,0,0-3.61-.13,1.52,1.52,0,0,0-1.05,1.84,1.53,1.53,0,0,0,1.85,1.05Z"/><path class="cls-1" d="M156.82,52.8a1.5,1.5,0,0,0,0-3,1.5,1.5,0,0,0,0,3Z"/><path class="cls-1" d="M53.67,58.64a2.81,2.81,0,0,1-.08-.31l0-.13c-.06-.24,0,.13,0,.15,0-.19,0-.38,0-.58s-.07.29,0,.08,0-.13.05-.2.12-.34,0-.07,0,0,0-.09l.12-.19c.11-.2-.25.28-.06.07l.35-.35c.22-.2-.13.09-.07,0l.2-.13a4.19,4.19,0,0,1,.42-.24l.22-.1c.29-.14-.29.11-.07,0s.33-.13.5-.18a8.24,8.24,0,0,1,1-.24l.42-.08-.12,0,.25,0c.25,0,.5,0,.76-.06s.34,0,.52,0-.25,0-.26,0c.2,0-.37-.21-.17-.07,0,0-.3-.29-.12-.09a.9.9,0,0,0,.15.18c-.12-.09-.21-.31-.06-.07l.11.19a5.12,5.12,0,0,1,.27.52.69.69,0,0,0,.07.15s-.13-.31-.07-.16.07.19.11.28.15.41.21.61c.12.36.23.72.32,1.09,0,.15.07.3.1.45a1.42,1.42,0,0,0,0,.2.17.17,0,0,0,0,.07c.05.23,0-.24,0-.24s0,.07,0,.11c0,.2,0-.05,0-.3,0,.15.19-.42.11-.26.19-.37.25-.31.11-.18s.36-.24.14-.11l-.16.1-.43.23L58,59l-.12.05c-.27.12.26-.1.09,0l-.32.13c-.44.18-.88.34-1.33.5a12.46,12.46,0,0,1-1.89.57A1.5,1.5,0,0,0,53.41,62a1.56,1.56,0,0,0,1.85,1,11,11,0,0,0,1.85-.56,26.48,26.48,0,0,0,2.83-1.13c.85-.4,1.83-1,1.83-2.07a8,8,0,0,0-.43-2.15,10.23,10.23,0,0,0-1.13-2.71,2.7,2.7,0,0,0-2.32-1.41,11.12,11.12,0,0,0-4.44.9,5,5,0,0,0-2.31,1.92,4.37,4.37,0,0,0-.36,3.57,1.5,1.5,0,1,0,2.89-.8Z"/><path class="cls-1" d="M119.25,40.68c2.11-.61,4.28-1,6.39-1.61a1.5,1.5,0,0,0-.8-2.9c-2.11.61-4.28,1-6.38,1.62a1.51,1.51,0,0,0-1,1.84,1.52,1.52,0,0,0,1.84,1Z"/><path class="cls-1" d="M120.08,34.35c.57,6.34.84,12.71.79,19.07a1.5,1.5,0,0,0,3,0c0-6.36-.22-12.73-.79-19.07a1.54,1.54,0,0,0-1.5-1.5,1.52,1.52,0,0,0-1.5,1.5Z"/><path class="cls-1" d="M128.44,44.77a5.63,5.63,0,0,1,1.4-.29l-.4.05a6.61,6.61,0,0,1,1.72-.09l-.4-.06.14,0a1.54,1.54,0,0,0,1.15-.15,1.52,1.52,0,0,0,.69-.9,1.49,1.49,0,0,0-.15-1.15,1.52,1.52,0,0,0-.9-.69,5.54,5.54,0,0,0-2,0c-.45,0-.89.11-1.33.2a3.1,3.1,0,0,0-.68.18,1.05,1.05,0,0,0-.51.27,1,1,0,0,0-.39.42,1.5,1.5,0,0,0,.54,2,1.42,1.42,0,0,0,1.15.15Z"/><path class="cls-1" d="M127.86,50.45a4.22,4.22,0,0,0,3.17.62,10.41,10.41,0,0,0,3.4-.74,1.5,1.5,0,0,0-.36-2.75,1.75,1.75,0,0,0-1.15.15l-.07,0,.35-.15a7.31,7.31,0,0,1-1.86.44l.4,0a9.49,9.49,0,0,1-2.26.07l.4,0a1.67,1.67,0,0,1-.43-.1l.36.16-.12-.07.3.23h0a1.58,1.58,0,0,0-1.06-.44,1.5,1.5,0,0,0-1.06,2.56Z"/><path class="cls-1" d="M127.23,34.47l1.14,2.18a1.59,1.59,0,0,0,.9.69,1.11,1.11,0,0,0,.6,0,1,1,0,0,0,.56-.17,1.55,1.55,0,0,0,.69-.9,1.62,1.62,0,0,0-.16-1.16L129.82,33a1.51,1.51,0,0,0-.9-.68,1,1,0,0,0-.6,0,1.09,1.09,0,0,0-.55.18,1.43,1.43,0,0,0-.69.89,1.56,1.56,0,0,0,.15,1.16Z"/><path class="cls-1" d="M131.12,32.61a18.8,18.8,0,0,1,1.27,2.49l-.15-.36c0,.09.08.18.11.27a1.14,1.14,0,0,0,.27.51,1.12,1.12,0,0,0,.42.39,1.51,1.51,0,0,0,2.06-.54,1.49,1.49,0,0,0,.15-1.15,21.13,21.13,0,0,0-1.54-3.13,1.59,1.59,0,0,0-.9-.69,1.5,1.5,0,0,0-1.69,2.21Z"/><path class="cls-1" d="M104,36.08c-.81,2.56-1.52,5.15-2.2,7.74-.41,1.58-.81,3.16-1.16,4.75a20.19,20.19,0,0,0-.56,3.62,1.51,1.51,0,0,0,2.79.76,27,27,0,0,1,2.51-3.48,16.43,16.43,0,0,1,1.56-1.68l.32-.28c.08-.07-.13.07.1-.07a1.69,1.69,0,0,0,.32-.19c-.16.16-.34.12-.67,0s-.46-.22-.17,0l.43.38c.3.27.58.55.86.83.5.49,1,1,1.48,1.48,1,.88,2.14,1.72,3.51,1.38,2-.49,2.84-2.83,3.52-4.49a1.51,1.51,0,0,0-1-1.85,1.55,1.55,0,0,0-1.85,1.05c-.17.43-.37.84-.58,1.25s-.44.75-.5.82a4,4,0,0,1-.28.3c-.07.08.18-.11-.06,0,0,0,.06,0,.25,0-.31,0,0,0,0,0-.27-.13.09.07,0,0l-.28-.16s-.32-.23-.19-.13-.19-.17-.25-.23c-.49-.44-.94-.92-1.4-1.39-1-1-2.24-2.6-3.83-2.1a7.82,7.82,0,0,0-3.17,2.65,33.24,33.24,0,0,0-3.16,4.3l2.8.76c0-.21,0-.42,0-.63s0,.28,0,0c0-.16,0-.33.08-.49.11-.64.24-1.27.38-1.9.35-1.57.74-3.14,1.15-4.69.67-2.53,1.36-5.06,2.15-7.56.59-1.84-2.31-2.63-2.89-.8Z"/></g></svg>