<svg xmlns="http://www.w3.org/2000/svg" viewBox="0 0 200 227.59"><defs><style>.cls-1{fill:gray;}</style></defs><g id="w"><path class="cls-1" d="M127.67,143.31c.3-2.12.46-4.25.57-6.38,0-.83.08-1.66.16-2.48a10.12,10.12,0,0,1,.33-1.87,4.07,4.07,0,0,1,.66-1.57,5.66,5.66,0,0,1,1.25-1.37,8.28,8.28,0,0,1,.85-.57s.41-.22.23-.15l.29-.08h.06a2,2,0,0,1,.89.1,10.48,10.48,0,0,1,1.23.42c2.22.87,4.3,1.94,6.75,1.94a1.5,1.5,0,0,0,0-3c-2.12,0-4-1.08-5.95-1.84a5.53,5.53,0,0,0-5.48.32,8.78,8.78,0,0,0-3.31,4,15,15,0,0,0-.88,4.74c-.15,2.36-.21,4.72-.54,7.06a1.55,1.55,0,0,0,1,1.84,1.51,1.51,0,0,0,1.84-1.05Z"/><path class="cls-1" d="M121.72,112.61l3.28,1.87a1.57,1.57,0,0,0,1.16.16,1.59,1.59,0,0,0,.9-.69,1.54,1.54,0,0,0-.54-2.06L123.23,110a1.52,1.52,0,0,0-1.16-.15,1.49,1.49,0,0,0-.89.69,1.52,1.52,0,0,0,.54,2Z"/><path class="cls-1" d="M123.88,94.28,126,97.42a1.56,1.56,0,0,0,.89.69A1.52,1.52,0,0,0,128,98a1.5,1.5,0,0,0,.54-2l-2.11-3.14a1.55,1.55,0,0,0-.9-.69,1.5,1.5,0,0,0-1.84,1,1.45,1.45,0,0,0,.15,1.15Z"/><path class="cls-1" d="M100.56,114c1,1.32,1.9,2.71,3,4a1.5,1.5,0,0,0,1.06.44,1.5,1.5,0,0,0,1.5-1.5,1.76,1.76,0,0,0-.44-1.06,4,4,0,0,1-.26-.32l.23.3c-.85-1.1-1.62-2.25-2.46-3.36a1.66,1.66,0,0,0-.89-.69,1.5,1.5,0,0,0-1.85,1.05,1.51,1.51,0,0,0,.15,1.16Z"/><path class="cls-1" d="M115.56,75.33A20.15,20.15,0,0,1,110.27,80a16,16,0,0,1-6.65,2.54,1.54,1.54,0,0,0-1.5,1.5,1.51,1.51,0,0,0,1.5,1.5c5.68-.55,11.13-4.18,14.53-8.65a1.51,1.51,0,0,0-.53-2,1.54,1.54,0,0,0-2.06.54Z"/><path class="cls-1" d="M85.13,97.1a11.19,11.19,0,0,1-.47,1.49c0,.07-.18.41,0,.1-.05.12-.1.23-.16.35-.13.28-.27.56-.41.84-.28.54-.59,1.08-.92,1.59-.19.29-.38.58-.58.85l-.26.36c-.11.14-.12.16,0,0l-.14.18a17.17,17.17,0,0,1-1.34,1.49c-.21.21-.42.41-.64.6l-.45.37c.2-.16-.11.08-.15.11a12.41,12.41,0,0,1-1.53.92c-.16.07-.16.07,0,0l-.18.07c-.15,0-.29.11-.44.15a6.63,6.63,0,0,1-.88.21,1.51,1.51,0,0,0-1,1.84,1.54,1.54,0,0,0,1.85,1c2.81-.47,5.21-2.54,6.94-4.7A19.07,19.07,0,0,0,88,97.9a1.5,1.5,0,0,0-2.9-.8Z"/><path class="cls-1" d="M65.49,64.16l-.44-.44L65,63.66a1,1,0,0,0-.48-.31,1.15,1.15,0,0,0-.58-.13,1.17,1.17,0,0,0-.58.13,1.14,1.14,0,0,0-.48.31l-.23.3a1.48,1.48,0,0,0-.21.76l.06.4a1.47,1.47,0,0,0,.38.66l.45.44.06.06a1.11,1.11,0,0,0,.49.31,1,1,0,0,0,.57.13,1.06,1.06,0,0,0,.58-.13,1,1,0,0,0,.48-.31l.24-.3a1.54,1.54,0,0,0,.2-.76l-.05-.4a1.49,1.49,0,0,0-.39-.66Z"/><path class="cls-1" d="M82.4,52.89a1.5,1.5,0,0,0,0-3,1.5,1.5,0,0,0,0,3Z"/><path class="cls-1" d="M150,150a50.54,50.54,0,0,0,8.82-28.1,59.2,59.2,0,0,0-7-28.12,57.27,57.27,0,0,0-19.13-21.28,47,47,0,0,0-27.67-7.67c-8.78.4-18.14,3-25.09,8.52A41.25,41.25,0,0,0,68.2,89.48a58.18,58.18,0,0,0-4.51,21.62,55.23,55.23,0,0,0,4.1,22.15,45.43,45.43,0,0,0,13.89,18.44,51.64,51.64,0,0,0,24.82,10,73.55,73.55,0,0,0,7.84.65l-1.29-2.25a89.84,89.84,0,0,0-8.48,15.37,117,117,0,0,0-6.37,17.41,52.1,52.1,0,0,0-1.66,8.48c-.2,1.92,2.8,1.9,3,0,.71-6.86,3.2-13.65,5.76-20a96.43,96.43,0,0,1,10.34-19.74,1.52,1.52,0,0,0-1.3-2.26c-9.07-.27-18.2-2.19-26.11-6.8a41.91,41.91,0,0,1-15.39-15.69,49.37,49.37,0,0,1-6-20.29,56.57,56.57,0,0,1,2.25-20.85A43.72,43.72,0,0,1,78.4,78.86c5.16-5.59,11.92-8.55,19.35-10.14a43.72,43.72,0,0,1,27.56,3A51.39,51.39,0,0,1,145.7,89.35a57.19,57.19,0,0,1,9.74,25.6A49.1,49.1,0,0,1,151,142.28a47.49,47.49,0,0,1-3.63,6.15c-1.1,1.59,1.5,3.1,2.59,1.52Z"/><path class="cls-1" d="M151.61,70c.19-.2.4-.37.6-.55-.4.35,0,0,.13-.08l.41-.27a16.86,16.86,0,0,1,1.77-1L155,68l-.08,0,.2-.08c.27-.11.54-.21.81-.29a5.06,5.06,0,0,1,.67-.17c.15,0,.26,0-.23,0a.4.4,0,0,0,.11,0h.09c.19,0-.49-.1-.27,0a1.5,1.5,0,1,0,.8-2.89,3.44,3.44,0,0,0-1.85.15,15.49,15.49,0,0,0-2.08.82,11.64,11.64,0,0,0-3.66,2.41A1.5,1.5,0,0,0,151.61,70Z"/><path class="cls-1" d="M155.2,75.39a20.73,20.73,0,0,1,6.32-2.25,22.44,22.44,0,0,1,3.26-.46c.53,0,1.05-.05,1.58,0l.72,0,.31,0c-.3,0,.15,0,.17,0a1.54,1.54,0,0,0,1.85-1,1.51,1.51,0,0,0-1-1.84,20.25,20.25,0,0,0-7.44.34,23.71,23.71,0,0,0-7.23,2.6,1.5,1.5,0,0,0,1.51,2.59Z"/><path class="cls-1" d="M25.28,73.7A7.08,7.08,0,0,1,23.39,66a7.62,7.62,0,0,1,4.94-5,4.13,4.13,0,0,1,3.11.46,6.89,6.89,0,0,1,3.14,4.16,10.29,10.29,0,0,1-.21,4.9,17.86,17.86,0,0,0-.89,4.26,6.35,6.35,0,0,0,3,5c1.29.89,3.21,1.65,4.78,1.13,1.83-.6,1.05-3.5-.8-2.89-.07,0-.42.08-.08,0A2.06,2.06,0,0,1,40,78c.29,0-.24-.06-.24-.06a5,5,0,0,1-.51-.16,5.21,5.21,0,0,1-1.85-1.21,2.86,2.86,0,0,1-.89-1.66,2.74,2.74,0,0,1,0-.64c0,.36,0-.1,0-.14q.12-.56.27-1.11c1-3.75,1.72-7.76-.65-11.18-2.08-3-5.62-4.91-9.25-3.62A10.9,10.9,0,0,0,20.56,65a10.1,10.1,0,0,0,2.6,10.82c1.41,1.31,3.54-.8,2.12-2.12Z"/><path class="cls-1" d="M43.3,51.5c-1.86-2.21-2.06-5.2.46-7,2.23-1.57,6.07-1.68,8.07.35,1.51,1.54,1,4.09.41,6.1s-1.81,4.47-1.07,6.71c.94,2.83,4.33,4.59,7.17,4.73,1.93.1,1.92-2.9,0-3-.06,0-.44,0-.09,0l-.35-.07a8.11,8.11,0,0,1-.88-.24,7,7,0,0,1-1.72-.84,3.52,3.52,0,0,1-1.11-1.13,2.19,2.19,0,0,1-.26-.73,2.94,2.94,0,0,1,0-.42c0-.62-.06.21,0-.12.49-2.48,1.56-4.77,1.8-7.32a6.87,6.87,0,0,0-4.06-7.3A9.86,9.86,0,0,0,41.25,42.7a7.27,7.27,0,0,0-2.42,4.92,8.63,8.63,0,0,0,2.35,6c1.25,1.47,3.36-.66,2.12-2.12Z"/><path class="cls-1" d="M62.71,35.26c-1-2.58-1.09-5.72,1.5-7.4,2-1.31,5.58-1.58,7.62-.08,1.75,1.28,1.18,4,.66,6-.61,2.33-1.69,4.53-1.64,7,.06,3.47,2.47,7,6.29,6.28,1.89-.35,1.09-3.24-.8-2.89a1.7,1.7,0,0,1-1-.23,2.72,2.72,0,0,1-1.07-1.27,6,6,0,0,1-.09-4c.71-2.46,1.67-4.81,1.83-7.39a6.33,6.33,0,0,0-4.14-6.75,10.48,10.48,0,0,0-9.65,1.19c-3.3,2.5-3.8,6.72-2.36,10.41a1.56,1.56,0,0,0,1.85,1,1.51,1.51,0,0,0,1.05-1.85Z"/><path class="cls-1" d="M45.42,85.11a1.5,1.5,0,0,0,0-3,1.5,1.5,0,0,0,0,3Z"/></g></svg>