<svg xmlns="http://www.w3.org/2000/svg" viewBox="0 0 200 227.59"><defs><style>.cls-1{fill:gray;}</style></defs><g id="w"><path class="cls-1" d="M70.37,115.65a19.74,19.74,0,0,0,17.06-2.28c1.59-1.08.09-3.68-1.51-2.59a16.86,16.86,0,0,1-14.76,2c-1.83-.62-2.62,2.28-.79,2.89Z"/><path class="cls-1" d="M103.69,112.32a25.48,25.48,0,0,0,10.39.51,24.69,24.69,0,0,0,9.4-4.12c1.58-1.08.08-3.68-1.52-2.59a22.74,22.74,0,0,1-8.41,3.77,21.66,21.66,0,0,1-9.06-.46c-1.88-.44-2.68,2.45-.8,2.89Z"/><path class="cls-1" d="M113.41,113l0,0-.15-.35a7.34,7.34,0,0,1,.54,1.84l-.06-.4a8.72,8.72,0,0,1,.07,1.14,1.54,1.54,0,0,0,.44,1.06,1.5,1.5,0,0,0,1.06.44,1.52,1.52,0,0,0,1.5-1.5,10.1,10.1,0,0,0-.17-1.82,8.62,8.62,0,0,0-.66-2,1.45,1.45,0,0,0-.9-.69,1.5,1.5,0,0,0-1.84,1l-.05.4a1.54,1.54,0,0,0,.2.76Z"/><path class="cls-1" d="M76.89,117l0,0-.15-.36a3.5,3.5,0,0,1,.23.9l0-.4a13.71,13.71,0,0,1,0,2.31,1.5,1.5,0,0,0,2.56,1.06,1.64,1.64,0,0,0,.44-1.06c0-.58.08-1.16.06-1.74a7.89,7.89,0,0,0-.13-1.18,4.84,4.84,0,0,0-.37-1.09,1.49,1.49,0,0,0-.9-.69,1.54,1.54,0,0,0-1.15.15,1.51,1.51,0,0,0-.69.9l-.06.4a1.42,1.42,0,0,0,.21.75Z"/><path class="cls-1" d="M102.21,93a26,26,0,0,1,14.48-3.4c1.93.06,1.92-2.94,0-3a28.88,28.88,0,0,0-16,3.81c-1.65,1-.14,3.6,1.51,2.59Z"/><path class="cls-1" d="M67.6,98.57c4.6-3.46,10.91-4.47,16.52-4.2,1.93.09,1.93-2.91,0-3-6.07-.3-13.06.86-18,4.61a1.54,1.54,0,0,0-.54,2,1.51,1.51,0,0,0,2,.54Z"/><path class="cls-1" d="M97.7,119.75l.93,3.67a1.53,1.53,0,0,0,1.85,1,1.55,1.55,0,0,0,1-1.85l-.94-3.67a1.5,1.5,0,0,0-2.89.8Z"/><path class="cls-1" d="M87,146c.9,2.44,3.73,3.33,6.08,3.65a10,10,0,0,0,7.67-2.32,27.34,27.34,0,0,1,3.15-2.44,10.58,10.58,0,0,1,5-.78c3.47,0,6.87.12,9.82-2,2.17-1.57,4.15-4.3,2.75-7-1.1-2.14-3.67-2.73-5.87-2.93a22.08,22.08,0,0,0-7.5.65c-2.41.62-4.49,2.06-6.86,2.85-3.13,1-6.38,1.63-9.51,2.64-2.35.76-4.86,1.8-5.79,4.27-.69,1.81,2.21,2.59,2.89.8.45-1.2,2.54-1.81,3.69-2.18,2.3-.74,4.67-1.24,7-1.88a32.64,32.64,0,0,0,7.1-2.72,13.19,13.19,0,0,1,4.89-1.37,14,14,0,0,1,6,.33c1.89.67,1.59,2.21.29,3.47-4.35,4.19-11.1.34-15.87,3.57-2.06,1.4-3.92,3.77-6.52,4.17a7.88,7.88,0,0,1-3.2-.3c-.6-.17-2.08-.54-2.34-1.24-.66-1.79-3.56-1-2.89.8Z"/><path class="cls-1" d="M129.13,155.68c10.13-12.22,13.12-29.13,10.6-44.52C137.1,95.11,127.8,80,113,72.61A51.56,51.56,0,0,0,86.5,67.28a37.61,37.61,0,0,0-19,7.48,58.72,58.72,0,0,0-23.36,39.39A45.4,45.4,0,0,0,47.47,138c3.81,8.74,10.52,15.84,18.3,21.21A71.07,71.07,0,0,0,73,163.61l-.54-2.05a132.3,132.3,0,0,0-7.87,19.37c-2.23,6.62-4.24,13.33-5.86,20.13-.44,1.87,2.45,2.67,2.9.79,1.58-6.67,3.55-13.26,5.73-19.75a127.51,127.51,0,0,1,7.69-19,1.52,1.52,0,0,0-.53-2c-8.59-4.57-16.49-10.77-21.66-19.14a41.38,41.38,0,0,1-6.12-22.12c.11-14.88,7.51-29.51,18.5-39.36a40,40,0,0,1,17.12-9.46,35.91,35.91,0,0,1,10.95-.59,50.79,50.79,0,0,1,13.14,2.71c14.93,5.26,25.24,18.28,29.19,33.33,3.74,14.22,2.29,30.47-5.66,43.05a40.32,40.32,0,0,1-3,4.12c-1.23,1.48.88,3.61,2.12,2.12Z"/><path class="cls-1" d="M133.93,58.22,136.31,74a1.52,1.52,0,0,0,1.85,1,1.54,1.54,0,0,0,1-1.85l-2.38-15.75A1.52,1.52,0,0,0,135,56.37a1.54,1.54,0,0,0-1,1.85Z"/><path class="cls-1" d="M130.51,66.25a9.15,9.15,0,0,0,.77,5.43,1.51,1.51,0,0,0,2.59,0,23.73,23.73,0,0,1,4.1-6.53c1.5-1.66,4.18-4,6.58-2.83-.07,0,.2.16.31.3a3.28,3.28,0,0,1,.45.71,5.18,5.18,0,0,1,.54,2.15,3.24,3.24,0,0,1-.4,1.86c-.13.22,0,0,0,0a3.31,3.31,0,0,1-.27.26c.19-.17,0,0,0,0a5.58,5.58,0,0,1-.52.32,5.34,5.34,0,0,1-1.32.51l-.32.07c-.49.11.14,0-.15,0-.12,0-.82,0-.52,0-.12,0-.25-.08-.37-.1.24,0,.13.08,0,0s.36.38.16.12c.16.2,0,.14,0,0,0,.23,0-.23.08-.33a1.1,1.1,0,0,1,.41-.56,1.38,1.38,0,0,1,.5-.23,2.17,2.17,0,0,1,.82-.07,7,7,0,0,1,1.9.4,11.46,11.46,0,0,1,2,.9,8.37,8.37,0,0,1,1.38.94c1.43,1.29,3.56-.83,2.12-2.12-2.39-2.14-6.79-4.17-9.91-2.59a4,4,0,0,0-2,4.87c.7,1.68,2.61,1.89,4.19,1.6a7.11,7.11,0,0,0,4-2.07c1.44-1.68,1.42-4.35.73-6.34a5.22,5.22,0,0,0-4.26-3.85,7.91,7.91,0,0,0-5.52,1.43,22.17,22.17,0,0,0-7.35,9.58h2.59a5.45,5.45,0,0,1-.46-3.11,1.55,1.55,0,0,0-1-1.84,1.52,1.52,0,0,0-1.85,1Z"/><path class="cls-1" d="M156.18,56.73l4.33-1.28a1.5,1.5,0,1,0-.8-2.89l-4.32,1.28a1.5,1.5,0,1,0,.79,2.89Z"/><path class="cls-1" d="M157.06,53.78a39,39,0,0,1,1.57,10.77q0,.42-.06.84c0,.31.05-.22,0,.07,0,.12,0,.25-.07.37a6.23,6.23,0,0,1-.15.62l-.09.26c-.09.29,0,0,0,0s-.15.26-.22.39c-.16.31.21-.2-.09.11s.1-.09,0,0a.46.46,0,0,1-.15.09c-.27.06.37-.07.1,0-.08,0-.47.13-.15.06s-.09,0-.2,0c-.4,0,.3.1,0,0l-.4-.1a.83.83,0,0,0-.22-.08c-.07,0,.34.18.12,0a1.57,1.57,0,0,1-.63-.41,1.21,1.21,0,0,1-.13-.61c0,.14.09-.36,0-.19s.05-.06.05-.06-.11.11,0,0c-.19.15.07,0,.14-.09.22-.13-.07,0,.18-.08a3.8,3.8,0,0,1,.51-.14l.23,0c-.17,0,0,0,.06,0a7,7,0,0,1,.92,0l.43,0c-.37,0,.27.07.21,0,.49.21.73.77,1,1.37a10.83,10.83,0,0,0,1.44,2.28c2.62,2.89,8.3,1.27,9.8-2.07a1.55,1.55,0,0,0-.54-2,1.52,1.52,0,0,0-2.05.54,3.92,3.92,0,0,1-3.4,2.05,2.1,2.1,0,0,1-1.52-.42,8.4,8.4,0,0,1-1.32-2.17,4.93,4.93,0,0,0-1.95-2.12,5.75,5.75,0,0,0-2.68-.5c-1.77,0-3.73.66-4.41,2.45-1.11,2.93,1.82,5.68,4.67,5.28,2-.27,3-2.18,3.32-4a19.53,19.53,0,0,0,0-5.18A63.68,63.68,0,0,0,160,53c-.45-1.87-3.35-1.08-2.89.8Z"/><path class="cls-1" d="M167.16,56.35,169.07,58a1.21,1.21,0,0,0,.49.31,1.34,1.34,0,0,0,1.15,0,1.21,1.21,0,0,0,.49-.31,1.51,1.51,0,0,0,.43-1.06,1.47,1.47,0,0,0-.43-1.07l-1.91-1.61a1.11,1.11,0,0,0-.49-.31,1.15,1.15,0,0,0-.58-.13,1.14,1.14,0,0,0-.57.13,1.11,1.11,0,0,0-.49.31,1.56,1.56,0,0,0-.44,1.06,1.48,1.48,0,0,0,.44,1.06Z"/><path class="cls-1" d="M178.18,61.14a1.5,1.5,0,0,0,0-3,1.5,1.5,0,0,0,0,3Z"/><path class="cls-1" d="M182.82,60.75a1.5,1.5,0,0,0,0-3,1.5,1.5,0,0,0,0,3Z"/><path class="cls-1" d="M113.49,118.32l3.55-.17a1.59,1.59,0,0,0,1.06-.44,1.52,1.52,0,0,0,.44-1.06,1.54,1.54,0,0,0-.44-1.07,1.49,1.49,0,0,0-1.06-.43l-3.55.17a1.56,1.56,0,0,0-1.06.44,1.52,1.52,0,0,0-.44,1.06,1.54,1.54,0,0,0,.44,1.06,1.52,1.52,0,0,0,1.06.44Z"/><path class="cls-1" d="M75.38,122a39.41,39.41,0,0,0,5.3-1.17,1.5,1.5,0,1,0-.79-2.89,40.1,40.1,0,0,1-5.3,1.17,1.49,1.49,0,0,0-.9.69,1.5,1.5,0,0,0,.54,2,1.69,1.69,0,0,0,1.15.15Z"/><path class="cls-1" d="M188,59.32a1.5,1.5,0,0,0,0-3,1.5,1.5,0,0,0,0,3Z"/></g></svg>