<svg xmlns="http://www.w3.org/2000/svg" viewBox="0 0 200 227.59"><defs><style>.cls-1{fill:gray;}</style></defs><g id="w"><path class="cls-1" d="M127.77,150.75c12.79-7.49,15.39-23.71,13.2-37.21-2.41-14.87-10.83-30-24.3-37.46A36.25,36.25,0,0,0,94,72,37.29,37.29,0,0,0,74.81,81c-11,9.66-16.85,24.9-16.51,39.41A45.18,45.18,0,0,0,64,141.69a40.45,40.45,0,0,0,16.59,15.79,49.82,49.82,0,0,0,6,2.63l-.89-2.21c-6.36,14-6.9,29.69-11.22,44.27-.55,1.86,2.35,2.65,2.9.8,2.13-7.21,3.34-14.65,4.81-22s3-14.75,6.1-21.54a1.54,1.54,0,0,0-.9-2.21,39.37,39.37,0,0,1-18.25-13.06,39.85,39.85,0,0,1-7.5-18.89C59.92,111.69,64.15,97,73.28,86.76A36.21,36.21,0,0,1,89.54,76a33.26,33.26,0,0,1,21.14.58c13.63,5,22.6,18.63,26.21,32.19,3.22,12.09,3,27.74-7,36.75a22.25,22.25,0,0,1-3.62,2.62,1.5,1.5,0,0,0,1.51,2.59Z"/><path class="cls-1" d="M107.81,117.23a22.56,22.56,0,0,0,.6,4.47,1.5,1.5,0,0,0,2.89-.8c-.16-.7-.28-1.4-.37-2.11l0,.4a18.29,18.29,0,0,1-.17-2,1.56,1.56,0,0,0-.44-1.06,1.5,1.5,0,0,0-2.56,1.06Z"/><path class="cls-1" d="M119.89,94.83l.43-.19-.36.15a15.38,15.38,0,0,1,3.73-1l-.4.06c.3,0,.61-.08.91-.1a1.59,1.59,0,0,0,1.06-.44,1.5,1.5,0,0,0-1.06-2.56,17.09,17.09,0,0,0-5.82,1.51,1.5,1.5,0,0,0-.69.89,1.5,1.5,0,0,0,1,1.85,1.76,1.76,0,0,0,1.15-.15Z"/><path class="cls-1" d="M92.46,91a6.88,6.88,0,0,1,1.36,0l-.4,0a6.73,6.73,0,0,1,1.69.46l-.36-.16a7.3,7.3,0,0,1,1,.5c.15.09.29.19.43.29s-.25-.22,0,0l.24.21a1.53,1.53,0,0,0,2.12,0,1.51,1.51,0,0,0,0-2.12,8.21,8.21,0,0,0-6-2.13,1.61,1.61,0,0,0-1.06.44A1.5,1.5,0,0,0,92.46,91Z"/><path class="cls-1" d="M120.5,109.61a17.25,17.25,0,0,1,.06,3.52c0,.14,0,.29,0,.43s0,.17,0,0l0,.18c0,.3-.1.6-.17.89a16,16,0,0,1-.55,1.91,1.51,1.51,0,0,0,1,1.85,1.54,1.54,0,0,0,1.84-1.05,17.56,17.56,0,0,0,.84-7.71,1.53,1.53,0,0,0-1.5-1.5,1.51,1.51,0,0,0-1.5,1.5Z"/><path class="cls-1" d="M93.4,107.94a45.89,45.89,0,0,1-.08,7.13,1.5,1.5,0,0,0,3,0,45.89,45.89,0,0,0,.08-7.13,1.54,1.54,0,0,0-1.5-1.5c-.73,0-1.6.66-1.5,1.5Z"/><path class="cls-1" d="M102.51,144.41a12.88,12.88,0,0,1-2-8.89c0,.25,0-.05,0-.14s0-.25.07-.37.12-.5.19-.75a2.67,2.67,0,0,0,.09-.26c-.11.39-.06.15,0,0s.09-.12.1-.17-.28.32-.06.11c0,0-.33.19-.11.1l.17-.1c.14-.09.32-.05,0,0a2.15,2.15,0,0,0,.27-.1,9,9,0,0,1,1.25-.28c.21,0-.28,0-.06,0h.17c.11,0,.23,0,.35,0a8.12,8.12,0,0,1,.86,0c.57,0,1.13,0,1.69.09.27,0-.17,0,.2,0l.4.07c.31.06.62.13.92.21s.52.15.77.24l.43.17c-.26-.11.1,0,.18.09a7.53,7.53,0,0,1,.73.41l.31.22c-.23-.17.06,0,.13.12a4.3,4.3,0,0,1,.55.58c-.16-.2,0,0,.06.09l.25.44c.14.24,0-.16,0,.11s.08.25.12.37c.1.29,0,0,0,0a1.85,1.85,0,0,0,0,.33c0,.06,0,.45,0,.22s0,.14,0,.2a6.5,6.5,0,0,1-.25.86,4.17,4.17,0,0,1-.28.72c-.17.36-.35.71-.55,1.05a13.63,13.63,0,0,1-1.33,1.93,12.69,12.69,0,0,1-1.8,1.79,10,10,0,0,1-1.87,1.1,1.54,1.54,0,0,0-1,1.84,1.5,1.5,0,0,0,1.84,1.05,14.1,14.1,0,0,0,7.47-7.52,7,7,0,0,0,.78-4.23,6.25,6.25,0,0,0-2.52-3.59,12.36,12.36,0,0,0-8-1.92,8.68,8.68,0,0,0-3.41.79,3.58,3.58,0,0,0-1.71,2.51,15.53,15.53,0,0,0,2.13,12.06,1.54,1.54,0,0,0,2,.54,1.53,1.53,0,0,0,.54-2.06Z"/><path class="cls-1" d="M127.77,78.94c-5.62-8.59-13.31-16.08-23.2-19.42a35.94,35.94,0,0,0-24.9,1A48.11,48.11,0,0,0,59,77.16,54.65,54.65,0,0,0,49.06,104a59.28,59.28,0,0,0,6.47,32q1,2.09,2.24,4.08a1.5,1.5,0,0,0,2.59-1.51A58.43,58.43,0,0,1,51.84,108a51.73,51.73,0,0,1,7.7-26.2c8.45-13.67,24.52-24,41-20.25,10.58,2.42,18.82,10.08,24.62,18.94,1,1.61,3.65.11,2.59-1.51Z"/><path class="cls-1" d="M46.52,56.64c7.82.78,15.43,3.87,22.14,7.87,6.52,3.89,12.76,9,16.69,15.56A1.5,1.5,0,0,0,88,78.56,46.72,46.72,0,0,0,75,65.09a65.7,65.7,0,0,0-18-9.22,48.93,48.93,0,0,0-10.44-2.23c-1.92-.19-1.91,2.81,0,3Z"/><path class="cls-1" d="M59.06,50.26c7.44,1,14.29,5.32,20,10a87.21,87.21,0,0,1,15.32,16.1,38.45,38.45,0,0,1,4.32,7.07c.77,1.76,3.36.24,2.59-1.51C98.85,76.35,94.58,71.4,90.54,67c-5.54-6-11.9-11.65-19.15-15.56a35.18,35.18,0,0,0-12.33-4.17c-1.91-.25-1.89,2.75,0,3Z"/><path class="cls-1" d="M153.11,120c2.26,3.92,2.69,8.66,2.42,13.1-.2,3.2-.64,7.08-2.42,9.84-1.05,1.63,1.55,3.14,2.59,1.52,2.06-3.21,2.6-7.65,2.83-11.36.3-5-.31-10.25-2.83-14.61a1.5,1.5,0,0,0-2.59,1.51Z"/><path class="cls-1" d="M163.18,123.4a21.4,21.4,0,0,1,.17,14.3c-.83,2.5-2.15,5.4-4,7.09-1.44,1.28.68,3.4,2.12,2.12,2.35-2.09,3.86-5.5,4.83-8.41a24.18,24.18,0,0,0-.18-15.89c-.65-1.81-3.55-1-2.89.79Z"/><path class="cls-1" d="M140.46,83.12a41.85,41.85,0,0,0,2.42,9,1.5,1.5,0,0,0,2.9-.8,41.56,41.56,0,0,1-2.43-9,1.51,1.51,0,0,0-1.85-1,1.55,1.55,0,0,0-1,1.85Z"/><path class="cls-1" d="M149.48,83.49q3.27-.84,6.6-1.38a1.51,1.51,0,0,0,1-1.85,1.54,1.54,0,0,0-1.85-1c-2.21.36-4.42.82-6.59,1.38a1.5,1.5,0,1,0,.79,2.89Z"/><path class="cls-1" d="M151.19,79.25c.43,1.44.84,2.88,1.22,4.32s.77,2.73,1,4.11a3.8,3.8,0,0,1-.07,1.61c0,.1-.06.2-.1.3s-.17.42-.08.22-.1.19-.1.18-.13.21-.19.31c.19-.29-.14.12-.21.2s-.18,0,.06,0c-.06,0-.1.09-.16.11-.41.14.24,0-.17.07l-.17,0c-.25.1.34,0,0,0h-.4c.46,0,0,0-.12,0l-.17-.06c-.26-.06.19.15.08,0a1.77,1.77,0,0,0-.4-.24c-.25-.13.17.2.07.06a.86.86,0,0,0-.14-.13,1.31,1.31,0,0,0-.11-.12c-.19-.17.1.23.07.09,0-.29-.3-.14,0,0,0,0,0-.13,0-.16l0-.17c0,.17,0,.2,0,.09s0-.33,0-.5c0-.35-.06.33,0,0,0,0,.06-.13,0-.18,0,.25-.14.24,0,.12a1.64,1.64,0,0,0,.14-.22s-.23.31-.08.12.24-.09-.05,0a2.32,2.32,0,0,0,.38-.21c-.35.21,0,0,.12,0s.5-.08.14,0c.21,0,.42,0,.63,0h.55l.29,0c.08,0,.52.07.12,0,.41.06.81.14,1.21.23s.8.22,1.2.35l.54.19.18.08c.26.09-.31-.15.07,0a1.55,1.55,0,0,0,2-.54,1.51,1.51,0,0,0-.54-2,13.44,13.44,0,0,0-5.67-1.33c-2.13,0-4.17,1.1-4.28,3.44a3.91,3.91,0,0,0,3.17,4c2.48.53,4.43-1.17,5.08-3.48.54-2-.06-3.89-.54-5.79s-1-3.91-1.62-5.85-3.44-1-2.89.8Z"/><path class="cls-1" d="M161.78,82.42a9,9,0,0,0,.39,1.21,16.61,16.61,0,0,0,1,2.11,6.14,6.14,0,0,0,1.3,1.74,3,3,0,0,0,1.21.68,2.5,2.5,0,0,0,1.7-.2,3.28,3.28,0,0,0,1.19-1.15,7.7,7.7,0,0,0,.8-1.78,1.5,1.5,0,0,0-1-1.84,1.53,1.53,0,0,0-1.84,1c-.07.2-.15.41-.24.61l.16-.36a4.71,4.71,0,0,1-.53,1l.23-.31a2,2,0,0,1-.32.33l.31-.24a1.28,1.28,0,0,1-.25.15l.36-.15a.9.9,0,0,1-.22.06l.39-.06h-.19l.4.06a1.2,1.2,0,0,1-.27-.08l.36.15a1.92,1.92,0,0,1-.31-.18l.3.23a3.3,3.3,0,0,1-.55-.57l.24.31A9.42,9.42,0,0,1,165.14,83l.15.36a11,11,0,0,1-.62-1.78,1.5,1.5,0,1,0-2.89.8Z"/><path class="cls-1" d="M171.1,79.79c-.28-.37,0,0,0,0l.21.29q.21.3.39.6c.25.4.47.8.68,1.22.1.19.17.42.28.61-.09-.22-.11-.26,0-.11a1.11,1.11,0,0,1,.07.16c.05.12.09.23.13.34.16.45.3.91.42,1.37a1.5,1.5,0,1,0,2.89-.8,15.89,15.89,0,0,0-2.93-5.85,1.51,1.51,0,0,0-2.13,0,1.54,1.54,0,0,0-.44,1.06,1.76,1.76,0,0,0,.44,1.06Z"/><path class="cls-1" d="M179.05,71.67l1,7a1.5,1.5,0,0,0,1.84,1,1.55,1.55,0,0,0,1-1.85l-1-7a1.5,1.5,0,0,0-1.84-1.05,1.55,1.55,0,0,0-1,1.85Z"/><path class="cls-1" d="M182.12,85.39a1.5,1.5,0,0,0,0-3,1.5,1.5,0,0,0,0,3Z"/></g></svg>