<svg id="aiz_one_way" xmlns="http://www.w3.org/2000/svg" viewBox="0 0 725 388.71"><defs><style>.cls-1,.cls-2,.cls-3,.cls-5,.cls-6,.cls-7{fill:none;stroke-miterlimit:10;}.cls-1,.cls-3,.cls-5,.cls-6{stroke:#fff;}.cls-1,.cls-5,.cls-7{stroke-width:2px;}.cls-2{stroke:red;stroke-width:5px;}.cls-3{stroke-width:6px;}.cls-4{fill:#fff;}.cls-5,.cls-6{stroke-linecap:round;}.cls-6{stroke-width:1.5px;}.cls-7{stroke:gray;}</style></defs><polyline class="cls-1" points="37.08 225.71 44.49 213.48 152.87 213.48 160.28 225.71"/><polyline class="cls-1" points="215.67 104.04 223.07 91.81 327.45 91.81 334.86 104.04"/><polyline class="cls-1" points="93.19 206.43 152.05 60.73 394.9 60.73"/><line class="cls-1" x1="278.26" y1="85.22" x2="287.78" y2="60.73"/><polyline class="cls-1" points="375.86 70.55 397.2 60.32 375.86 50.91"/><line class="cls-2" x1="414.4" y1="47.86" x2="454.11" y2="87.57"/><line class="cls-2" x1="454.11" y1="47.86" x2="414.4" y2="87.57"/><line class="cls-3" x1="434.26" y1="203.86" x2="434.26" y2="83.53"/><line class="cls-3" x1="434.26" y1="386.04" x2="434.26" y2="221.03"/><line class="cls-3" x1="434.26" y1="52.67" x2="434.26"/><path class="cls-4" d="M590.37,73.44a26.83,26.83,0,1,1,0,53.65H557.21l-.79,1.38-3.62,6.27-3.62-6.27-.79-1.38H515.24a26.83,26.83,0,0,1,0-53.65h75.13m0-2.75H515.24a29.58,29.58,0,0,0,0,59.15H546.8l6,10.4,6-10.4h31.57a29.49,29.49,0,0,0,20.91-8.66c5.34-5.35,9.31-12.76,9.31-20.93,0-16.33-13.9-29.56-30.22-29.56Z"/><path class="cls-4" d="M519.89,103.4a2.64,2.64,0,1,1,2.64-2.63A2.63,2.63,0,0,1,519.89,103.4Z"/><path class="cls-4" d="M519.89,100.19a.58.58,0,1,1-.57.58.58.58,0,0,1,.57-.58m0-4.12a4.7,4.7,0,1,0,4.7,4.7,4.69,4.69,0,0,0-4.7-4.7Z"/><path class="cls-4" d="M552.8,103.4a2.64,2.64,0,1,1,2.64-2.63A2.63,2.63,0,0,1,552.8,103.4Z"/><path class="cls-4" d="M552.8,100.19a.58.58,0,1,1-.57.58.58.58,0,0,1,.57-.58m0-4.12a4.7,4.7,0,1,0,4.7,4.7,4.7,4.7,0,0,0-4.7-4.7Z"/><path class="cls-4" d="M585.71,103.4a2.64,2.64,0,1,1,2.64-2.63A2.64,2.64,0,0,1,585.71,103.4Z"/><path class="cls-4" d="M585.71,100.19a.58.58,0,1,1-.57.58.57.57,0,0,1,.57-.58m0-4.12a4.7,4.7,0,1,0,4.7,4.7,4.7,4.7,0,0,0-4.7-4.7Z"/><path class="cls-4" d="M246.82,342.65V345c.84.84,3.12,3.48,3.65,4.13l-1,1.32a40.55,40.55,0,0,0-2.64-3.6v11.28h-1.56V346a26.61,26.61,0,0,1-3.7,7.52,8.67,8.67,0,0,0-.88-1.47,27,27,0,0,0,4.39-9.43h-3.84v-1.54h4v-5.28l2,.15c0,.17-.15.26-.46.31v4.82h3.58v1.54Zm4.68-5.35h10.9v20.62h-1.61v-1.44h-7.73V358H251.5Zm9.29,1.56h-7.73v4.27h7.73Zm-7.73,5.76V349h7.73v-4.41Zm0,10.37h7.73v-4.47h-7.73Z"/><path class="cls-4" d="M269.74,345.7c.65.62,2.42,2.57,2.83,3.07l-.91,1.37a29.08,29.08,0,0,0-1.92-2.66v10.63h-1.51V346.83a26.83,26.83,0,0,1-2.59,6.67,6.63,6.63,0,0,0-.84-1.37,30.49,30.49,0,0,0,3.24-9.58h-2.91v-1.48h3.1v-5.24l2,.15c0,.14-.17.26-.48.31v4.78h2.86v1.48h-2.86Zm6.24.86v7.13a5,5,0,0,0,4.37,2.62c.62,0,1.44.05,2.35.05,1.66,0,3.55-.05,4.78-.15a6.83,6.83,0,0,0-.46,1.51c-1.08,0-2.66.1-4.15.1-3.43,0-5.74,0-7.58-2.78-.87,1-1.73,2-2.5,2.73a.41.41,0,0,1-.19.39l-.94-1.59a36.43,36.43,0,0,0,2.93-2.83V348h-2.28v-1.42Zm-2.18-5.18a13.87,13.87,0,0,1,2.57,2.9l-1.13.89a14.51,14.51,0,0,0-2.52-3Zm.21-5.23a14.88,14.88,0,0,1,2.55,2.9l-1.13.89a15.15,15.15,0,0,0-2.52-3.05Zm5.36,17.54v1H277.9v-16h2.62a25.26,25.26,0,0,0,.81-2.91l2,.51c-.07.14-.24.21-.5.24a22.42,22.42,0,0,1-.92,2.16h3.89v6.19h-6.45v2.21h6.88v7.54h-1.46v-1Zm5-13.58h-5v3.45h5Zm.46,8.4h-5.42v3.81h5.42Z"/><path class="cls-4" d="M310.11,346.13a.48.48,0,0,1-.14.05.54.54,0,0,1-.36-.15c-1.83.61-4.49,1.59-6.48,2.45,0,.55.07,1.18.07,1.87s0,1.64-.07,2.57l-1.76.1c.08-.86.12-2,.12-2.91,0-.35,0-.69,0-1-2.71,1.33-4.92,2.93-4.92,4.37s1.66,2.07,5,2.07a54.08,54.08,0,0,0,6-.24l0,1.61c-1.42.14-3.58.19-6.05.19-4.61,0-6.65-1.11-6.65-3.55,0-2.12,2.78-4.16,6.38-6-.14-1.51-.81-2.25-1.77-2.25-1.75,0-3.58,1-5.74,3.38-.67.75-1.61,1.68-2.64,2.62l-1.18-1.18c2.41-2.11,4.66-4.13,6.05-8.86l-1.34,0h-4v-1.56c1.46,0,3.17,0,4.15,0l1.64,0a30.89,30.89,0,0,0,.64-3.43l2.36.28c-.05.24-.24.39-.6.44-.17,1-.39,1.8-.6,2.66a32.8,32.8,0,0,0,8.25-1.39l.29,1.61a36.35,36.35,0,0,1-9,1.34,17.84,17.84,0,0,1-1.73,4.06h0a6.35,6.35,0,0,1,3.86-1.56c1.63,0,2.66,1.17,3,3.12,2-.92,4.56-1.9,6.48-2.64Z"/><path class="cls-4" d="M318.85,347.57c1.34-.34,2.73-.67,4.1-1l.17,1.39c-1.42.41-2.88.82-4.27,1.2V356c0,2-1,2.09-4.69,2.09a7.46,7.46,0,0,0-.55-1.56c1.39,0,2.69,0,3.08,0s.52-.15.52-.56v-6.45l-3.43,1a.4.4,0,0,1-.31.36l-.63-1.9c1.18-.26,2.72-.62,4.37-1v-5.55h-4.13v-1.56h4.13v-5l2.12.12c0,.19-.15.29-.48.33v4.56h3.76v1.56h-3.76ZM335.43,338v1.58h-4.56v16.3c0,1.2-.31,1.7-1.15,2a18.05,18.05,0,0,1-4.68.29,6.79,6.79,0,0,0-.6-1.64c1.1,0,2.13.05,2.93.05,1.7,0,1.84,0,1.84-.67V339.6h-7.32V338Z"/><path class="cls-4" d="M337.66,342.58c.55-.12,1.34-.34,2.47-.7,4.25-1.37,8-2.3,10.68-2.3,4,0,7.47,2,7.47,7,0,5.95-5.88,8.26-14,9.07a8.21,8.21,0,0,0-.63-1.63c7.42-.69,12.75-2.71,12.75-7.34,0-3.77-2.6-5.4-5.76-5.4-3.44,0-9.61,2-11.79,2.92a.67.67,0,0,1-.43.56Z"/><path class="cls-4" d="M533.13,343.17V341.8h9v1.37Zm8.28,8.61v7.06h-5.76V360h-1.42v-8.19Zm-.08-6.62v1.32h-7.08v-1.32Zm-7.08,4.63v-1.32h7.08v1.32Zm7.06-11.23v1.32H534.4v-1.32ZM540,353.15h-4.32v4.32H540Zm15.74-6.65h-5.9v4.11h4.63v9.24h-1.61v-1.08h-7.49V360h-1.53v-9.41h4.36V346.5h-5.88V345h5.88v-4.18c-1.63.26-3.33.48-4.92.65a5.19,5.19,0,0,0-.48-1.35,56.32,56.32,0,0,0,10.54-2l1.34,1.4a.37.37,0,0,1-.23.07.77.77,0,0,1-.25,0,34.84,34.84,0,0,1-4.36,1V345h5.9Zm-2.88,10.78v-5.19h-7.49v5.19Z"/><path class="cls-4" d="M565,338.73c0,.28-.26.45-.74.52-.19,2.79-.43,9.15-.43,12.7s1.77,5.3,4.8,5.3,5.9-1.46,8.64-4.56a9,9,0,0,0,1.08,1.42c-2.81,3.19-6.22,4.87-9.75,4.87-4.37,0-6.6-2.52-6.6-7.05,0-3,.22-10.47.39-13.42Z"/><path class="cls-4" d="M603.3,350.8v1.58H593.15v5.36c0,1.22-.36,1.7-1.22,2a19.19,19.19,0,0,1-5,.29,8.28,8.28,0,0,0-.7-1.61c1.15.05,2.26.05,3.1.05,2,0,2.2,0,2.2-.69v-5.36h-10.1V350.8h10.1v-4.06H583v-1.53h8.49v-3.89c-2.64.31-5.42.55-8,.69a4.87,4.87,0,0,0-.43-1.39c5.81-.38,12.79-1.15,16.34-2.42l1.4,1.37a.56.56,0,0,1-.29.07.7.7,0,0,1-.22,0,41.12,41.12,0,0,1-6.67,1.42c0,.17-.17.24-.48.29v3.89h8.78v1.53h-8.78v4.06Z"/><path class="cls-4" d="M509.44,168.21c-.4,12.64-.6,25.28-.82,37.92-.11,6.3-.2,12.59-.39,18.89-.06,1.95-.21,3.91-.18,5.87,0,1.79.08,3.94,1,5.54s3,1.59,4.54,1.71a42.2,42.2,0,0,0,6.26,0c1.35-.09,1.36-2.21,0-2.12a47.31,47.31,0,0,1-5.19.09c-1,0-3.27.11-3.88-.92-.86-1.46-.65-3.85-.63-5.46,0-2,.16-3.92.21-5.88.29-11.84.45-23.68.68-35.53q.19-10,.5-20.08c0-1.36-2.08-1.36-2.12,0Z"/><path class="cls-4" d="M513.79,167.83c13.94-.09,27.9-.54,41.84-.08,8.84.3,17.7.7,26.53,1.26,1.9.13,3.79.25,5.68.43l1.07.1.61.07.59.1c.22,0,.32.11.09,0l-.49-.63a28.76,28.76,0,0,1,.35,4c.14,2.43.21,4.86.29,7.3.15,5.24.24,10.47.3,15.71,0,1.61,0,3.21,0,4.82a1.07,1.07,0,0,0,2.13,0c0-5.84-.13-11.69-.27-17.53-.09-3.47-.18-6.94-.37-10.4-.07-1.38.27-4.76-1.37-5.27a26,26,0,0,0-5.57-.59c-3.45-.25-6.89-.44-10.34-.63-6.95-.36-13.91-.69-20.87-.89-13.41-.39-26.83,0-40.24.13a1.06,1.06,0,0,0,0,2.12Z"/><path class="cls-4" d="M591.32,221c-.08,4.3.68,8.72,0,13a4.51,4.51,0,0,1-.58,1.89c-.06.07-.11.11-.14.11l-.1,0-.27,0c-1.87.16-3.76.17-5.63.2q-3.5.08-7,.07a1.06,1.06,0,0,0,0,2.12c4.18,0,8.43.1,12.61-.27a2.9,2.9,0,0,0,1.8-.59,3.94,3.94,0,0,0,1.11-2,22.53,22.53,0,0,0,.48-6.56c0-2.69-.27-5.38-.22-8.07a1.06,1.06,0,0,0-2.12,0Z"/><path class="cls-4" d="M522.7,237.81h1.45a1.1,1.1,0,0,0,.75-.31.83.83,0,0,0,.22-.34.73.73,0,0,0,.09-.41,1.06,1.06,0,0,0-.31-.75,1.1,1.1,0,0,0-.75-.31H522.7a1.08,1.08,0,0,0-.75.31.74.74,0,0,0-.22.34.83.83,0,0,0-.1.41,1.11,1.11,0,0,0,.32.75,1.08,1.08,0,0,0,.75.31Z"/><path class="cls-4" d="M527.44,238c13.18.12,26.36.32,39.55.46,2.14,0,4.28,0,6.43,0a1.06,1.06,0,0,0,0-2.12c-11.56,0-23.12-.25-34.68-.38l-11.3-.12a1.06,1.06,0,0,0,0,2.12Z"/><path class="cls-4" d="M537.57,236a16.52,16.52,0,0,0-5.57,3c-1.43,1.17-3.26,2.94-3.77,4.78-.57,2,1.25,3.06,3,3.11a17.56,17.56,0,0,0,6.5-1.41,31,31,0,0,1,7.06-2.16,22.33,22.33,0,0,1,7.51.52c2.49.53,4.91,1.3,7.35,2a35.88,35.88,0,0,0,7.26,1.81c2.14.18,4.57-.74,5.1-3s-1.54-3.71-3.32-4.52c-1.23-.57-2.31,1.26-1.07,1.83s3.49,1.86,1.6,3.19c-1.54,1.09-4.06.1-5.67-.34-3.72-1-7.35-2.34-11.13-3.11a22.34,22.34,0,0,0-10.9.15c-3.31,1-6.55,2.94-10.08,2.92-.5,0-1,.08-1.07-.41s.5-1.11.77-1.46a13.92,13.92,0,0,1,7-4.85c1.3-.4.75-2.45-.56-2Z"/><path class="cls-4" d="M554.85,251.47c4.89-.26,9.8-.14,14.69-.4,1.36-.07,1.37-2.2,0-2.12-4.89.26-9.8.14-14.69.4-1.36.08-1.37,2.2,0,2.12Z"/><path class="cls-4" d="M552.38,254.08a54.59,54.59,0,0,0,4.77,4.08c1.28,1,2.52,2,3.83,3a7,7,0,0,0,3.85,1.2,32.41,32.41,0,0,0,5.12,0c1.35-.09,1.36-2.21,0-2.12a34.66,34.66,0,0,1-4.67,0,9.74,9.74,0,0,1-2.08-.29,4,4,0,0,1-1.32-.78,84.58,84.58,0,0,1-8-6.64c-1-1-2.48.55-1.5,1.5Z"/><path class="cls-4" d="M499.31,242.09c9.14-.6,18.33,0,27.47,0a1.06,1.06,0,0,0,0-2.12c-9.14,0-18.33-.6-27.47,0-1.36.09-1.37,2.22,0,2.12Z"/><path class="cls-4" d="M496.67,241.27c-.82,3.84,1.31,7.28,4.27,9.56,3.4,2.63,7.51,4.45,11.26,6.51l25.14,13.78c1.2.66,2.27-1.17,1.07-1.83L515.46,256.7c-3.66-2-7.38-3.92-11-6-3.08-1.82-6.64-4.8-5.78-8.82.29-1.34-1.76-1.91-2-.57Z"/><path class="cls-4" d="M611.86,228.27c-4-1.5-8.49-2.86-11.6-5.92-2.78-2.73-2.75-6.58-2.63-10.22a94.8,94.8,0,0,1,1.43-12.9,38.31,38.31,0,0,1,3.55-11.84c2.34-4.38,5.8-8.53,10.44-10.55a20,20,0,0,1,14-.52c9.41,3.05,13.61,12.87,14,22.11.49,12.09-5.65,23.15-13.73,31.72a1.08,1.08,0,0,0-.17,1.29c4,6.21,7.94,12.33,10.58,19.26.49,1.26,2.54.71,2-.57-2.71-7.11-6.7-13.38-10.8-19.76l-.16,1.28c7.82-8.3,14-18.87,14.37-30.52.33-9.73-3.21-21-12.48-25.6A22.65,22.65,0,0,0,616,173.69c-5.25,1.12-9.46,4.38-12.64,8.61a32.8,32.8,0,0,0-5.81,13.56,110.22,110.22,0,0,0-1.88,13.66c-.31,4.32-.74,9.55,2.08,13.18,3.24,4.16,8.84,5.83,13.57,7.62,1.28.49,1.83-1.57.56-2Z"/><path class="cls-4" d="M622.33,256.49c-.78,2-1.59,4-2.19,6a42,42,0,0,0-1.15,5.57,1.08,1.08,0,0,0,.74,1.3,1.07,1.07,0,0,0,1.31-.74,42.34,42.34,0,0,1,1.15-5.57c.6-2,1.41-4,2.19-6a1.06,1.06,0,0,0-.74-1.3,1.08,1.08,0,0,0-1.31.74Z"/><path class="cls-4" d="M626.08,255s-.17.06,0,0c.06,0,0,0,.23-.09a9.11,9.11,0,0,1,1.14-.3c1-.2,2.07-.32,3.11-.42,2.9-.28,5.82-.38,8.73-.37a53.39,53.39,0,0,1,8.1.48,11.16,11.16,0,0,1,2.39.58,2.17,2.17,0,0,1,.33.19c-.09-.07-.1-.14,0,0a6.29,6.29,0,0,1,.36,1.6,56,56,0,0,1-.56,11.34c-.14,1.36,2,1.35,2.13,0a60.45,60.45,0,0,0,.57-11.08c-.09-1.12-.18-2.58-1-3.42a5,5,0,0,0-2.29-1,39.73,39.73,0,0,0-8.36-.77,90.64,90.64,0,0,0-9.75.29,38.79,38.79,0,0,0-4.16.54,4.82,4.82,0,0,0-2.43,1c-1,.94.51,2.44,1.5,1.5Z"/><path class="cls-4" d="M622.82,231.53c-5.22,2.88-9.36,7.43-12.6,12.37a55,55,0,0,0-7.44,17.16c-.33,1.33,1.72,1.89,2,.56a53.5,53.5,0,0,1,7-16.32c3.08-4.78,7-9.17,12-11.93,1.2-.66.13-2.5-1.07-1.84Z"/><path class="cls-4" d="M599.46,255.19c1,.84,1.93,1.79,2.85,2.72l.27.27a1.07,1.07,0,0,0,1.5,0,1.09,1.09,0,0,0,0-1.5c-.75-.77-1.51-1.52-2.3-2.26l-.82-.73a1.15,1.15,0,0,0-.75-.31,1.06,1.06,0,0,0-1.06,1.06,1,1,0,0,0,.31.75Z"/><path class="cls-4" d="M587.05,259.53A5,5,0,0,0,588,262a25.12,25.12,0,0,0,2.13,2.82,32.77,32.77,0,0,0,5.25,5.08,1.06,1.06,0,0,0,1.45-.38,1.08,1.08,0,0,0-.38-1.45l-.15-.11c.09.07.09.07,0,0l-.27-.22-.57-.48c-.42-.38-.84-.77-1.24-1.16-.84-.83-1.65-1.69-2.42-2.58a19.61,19.61,0,0,1-1.85-2.42,9.49,9.49,0,0,1-.61-1.07c-.14-.27,0,.08,0-.08l-.06-.19a1.8,1.8,0,0,0-.06-.22c-.07-.17,0,.29,0,0a1.06,1.06,0,0,0-2.12,0Z"/><path class="cls-4" d="M586.16,244.33a6.54,6.54,0,0,0-3.73.36c-1.41.45-2.77,1.07-4.14,1.64-1.16.48-2.33.83-3.52,1.22a8.2,8.2,0,0,0-3.07,2,3.86,3.86,0,0,0-1.31,3.54c.3,1.19,1.06,1.45,2.16,1.49s2.16,0,3.24-.05c.5,0,1,0,1.51,0,.16,0,.33,0,.49,0s0-.09,0,0l.11,0a1.1,1.1,0,0,1-.4-.24c0,.16.6.91.68,1,.26.39.53.78.81,1.16a13.45,13.45,0,0,0,1.66,2,8.41,8.41,0,0,0,4.64,2.26,1.1,1.1,0,0,0,1.31-.74,1.07,1.07,0,0,0-.74-1.3,6.55,6.55,0,0,1-3.58-1.6,16.14,16.14,0,0,1-2.49-3.15,3.64,3.64,0,0,0-1-1.32,2.71,2.71,0,0,0-1.16-.24c-.92-.06-1.86,0-2.78,0a25.64,25.64,0,0,1-2.63,0c-.14,0-.15.06,0,0l-.11,0c-.12-.1.44.23.38.27s-.05-.15-.05-.16a2.37,2.37,0,0,1,.41-1.08c1.36-1.78,3.36-2,5.3-2.76,1.39-.56,2.75-1.19,4.16-1.7a6.34,6.34,0,0,1,3.3-.6,1.06,1.06,0,0,0,.56-2Z"/><path class="cls-4" d="M588.56,248.47a7.52,7.52,0,0,1,1.17-.06c.19,0,.38,0,.58,0l.41.06a7,7,0,0,1,2.06.73,6.59,6.59,0,0,1,1.71,1.26,6.45,6.45,0,0,1,1.29,1.82,1.06,1.06,0,0,0,1.45.38,1.08,1.08,0,0,0,.39-1.45,9.14,9.14,0,0,0-9.06-4.9,1.1,1.1,0,0,0-1.07,1.06,1.07,1.07,0,0,0,1.07,1.06Z"/><path class="cls-4" d="M572.84,262.57h8.78a1.07,1.07,0,0,0,0-2.13h-8.78a1.07,1.07,0,0,0,0,2.13Z"/><path class="cls-4" d="M598.72,251.09h6.18a1.06,1.06,0,1,0,0-2.12h-6.18a1.06,1.06,0,0,0,0,2.12Z"/><path class="cls-4" d="M523.09,169.62c-1.53,0-3.05,0-4.58,0a7.49,7.49,0,0,0-4,.67c-1.46.88-1.78,2.38-1.81,4-.06,2.81-.1,5.63-.11,8.44,0,9.79,0,19.58,0,29.37,0,3.47.06,7-.11,10.42-.07,1.37,2.05,1.37,2.12,0,.36-7.31.12-14.69.11-22,0-8.22-.11-16.46,0-24.68a8.79,8.79,0,0,1,.21-2.95c.51-1.17,2-1.08,3-1.08,1.68,0,3.37-.05,5.05,0a1.07,1.07,0,0,0,0-2.13Z"/><path class="cls-4" d="M512.52,226.46a13.86,13.86,0,0,0,.35,5.44c.5,1.65,2.29,2,3.8,2.19a72.05,72.05,0,0,0,8.94.06c7.63,0,15.26,0,22.9.09,6.32,0,12.65.12,19,.09,5.13,0,10.26.17,15.39-.18a18.45,18.45,0,0,0,3.77-.48,2.44,2.44,0,0,0,1.92-2.26c.54-3,.22-6.36.26-9.45a1.06,1.06,0,0,0-2.12,0c0,2.47,0,4.95-.07,7.41a19.68,19.68,0,0,1-.28,2.18c0,.15.13,0,0,0l-.27.08a14.84,14.84,0,0,1-2.82.39c-5,.38-10.12.21-15.18.2-12.69,0-25.39-.17-38.09-.18-3.14,0-6.29,0-9.43.06-.87,0-1.74,0-2.61,0s-2.19,0-2.85-.51c-.48-.38-.46-1.36-.51-2a14.79,14.79,0,0,1,0-3.12c.16-1.36-2-1.35-2.12,0Z"/><path class="cls-4" d="M526,172.11h1a.7.7,0,0,0,.4-.09.72.72,0,0,0,.35-.22.87.87,0,0,0,.22-.34.91.91,0,0,0,.09-.41l0-.28a1.11,1.11,0,0,0-.27-.47l-.22-.16a1,1,0,0,0-.53-.15h-1a1,1,0,0,0-.41.09.87.87,0,0,0-.34.22,1.16,1.16,0,0,0-.31.75l0,.29a1,1,0,0,0,.28.46l.21.17a1,1,0,0,0,.54.14Z"/><path class="cls-4" d="M529.6,172.12c10.43-.09,20.89.7,31.31,1.11,4.54.18,9.1.41,13.65.32a47,47,0,0,1,5.31.08,18.85,18.85,0,0,1,4,.66c1.32.43,1.44,2,1.52,3.2.51,7.59.11,15.23.49,22.83.07,1.36,2.2,1.37,2.13,0-.36-7-.27-14.14-.44-21.2-.06-2.77-.19-6.07-3.34-6.94a26.18,26.18,0,0,0-7.83-.83c-4,.18-7.92,0-11.88-.11-6.1-.21-12.19-.49-18.28-.75-5.52-.23-11.06-.54-16.59-.49a1.06,1.06,0,0,0,0,2.12Z"/><path class="cls-4" d="M550.42,169.93a1.06,1.06,0,0,0,0-2.12,1.06,1.06,0,0,0,0,2.12Z"/><path class="cls-4" d="M575.31,241.79c5.82,0,11.64.28,17.47.27,2.7,0,5.38-.24,8.08-.3a12.74,12.74,0,0,1,7,2,1.06,1.06,0,0,0,1.07-1.83,14.54,14.54,0,0,0-7-2.24c-2.82-.08-5.67.28-8.49.29-6.05,0-12.09-.25-18.13-.26a1.06,1.06,0,0,0,0,2.12Z"/><path class="cls-4" d="M605.53,196.21,604.42,200a1.06,1.06,0,0,0,2.05.57l1.11-3.83a1.06,1.06,0,1,0-2.05-.57Z"/><path class="cls-4" d="M597.39,214.09h.27c.11,0-.15,0-.14,0s.28,0,.41.09l.35.12c.18.07-.19-.09,0,0l.2.1a5.27,5.27,0,0,1,.72.43l.07.06-.09-.07.15.12c.11.1.22.19.32.3a3.07,3.07,0,0,1,.25.26l.11.13-.08-.1a.24.24,0,0,0,.06.08l.18.29a.54.54,0,0,0,.07.13c0,.08-.08-.14-.06-.14l0,.08a1.82,1.82,0,0,0,.07.25s0-.29,0-.11v.17c0,.16,0-.14,0-.13a.61.61,0,0,1,0,.13s.15-.26,0-.1.17-.21.07-.09,0,0-.05.05.19-.12.12-.09l-.15.09-.07,0,.12-.05c-.12,0-.23.08-.35.12-.29.09-.58.18-.87.3a1.18,1.18,0,0,0-.63.49,1.06,1.06,0,0,0,1.2,1.56,14,14,0,0,0,1.77-.67,1.89,1.89,0,0,0,.73-.78,2.38,2.38,0,0,0,.16-1.44,3.59,3.59,0,0,0-.91-1.68,6.38,6.38,0,0,0-1.61-1.32,5,5,0,0,0-2.4-.71,1.07,1.07,0,0,0-1.06,1.06,1.09,1.09,0,0,0,1.06,1.06Z"/><path class="cls-4" d="M606.26,189.39a4,4,0,0,1,.83-.2l-.28,0a4.7,4.7,0,0,1,1.06,0l-.28,0,.36.07a1.12,1.12,0,0,0,.82-.11,1.1,1.1,0,0,0,.49-.63,1.07,1.07,0,0,0-.74-1.31,5.2,5.2,0,0,0-2.82.14,1.16,1.16,0,0,0-.64.49,1.07,1.07,0,0,0-.1.82,1.05,1.05,0,0,0,.48.63,1.08,1.08,0,0,0,.82.11Z"/><path class="cls-5" d="M590.16,205.22s-15.45-8.91-17.33-10.82"/><path class="cls-5" d="M571.24,221a71.12,71.12,0,0,1,17.85-4.24"/><path class="cls-4" d="M318.27,151.62c0,1,.07,2,.07,3a14.81,14.81,0,0,1-.07,1.63,1.1,1.1,0,0,1,0,.18c0-.19,0,0,0,0s0,.21-.07.32-.06.17-.08.26.08-.14,0,0a1.05,1.05,0,0,0-.07.11.76.76,0,0,0,.27,1,.77.77,0,0,0,1-.27,3.51,3.51,0,0,0,.4-1.42,13.57,13.57,0,0,0,.09-1.69c0-1-.07-2.08-.07-3.12a.75.75,0,0,0-1.5,0Z"/><path class="cls-4" d="M311.74,167.09a16.19,16.19,0,0,0,3.62-.81,5.24,5.24,0,0,1,1.7-.23h.25l.22.06s.22.08.09,0a2,2,0,0,1,.32.18c-.11-.07.07.07.07.07a1.29,1.29,0,0,1,.16.17.75.75,0,0,0,1.06,0,.76.76,0,0,0,0-1.06c-1-1.13-2.52-1.06-3.83-.78-.68.14-1.34.35-2,.54-.3.08-.61.17-.93.23l-.23.05s-.24,0-.09,0l-.4,0a.75.75,0,0,0,0,1.5Z"/><path class="cls-4" d="M343.78,164.41c-2.68,4.43-3.43,10-4.87,14.9-1.22,4.16-2.54,8.3-3.79,12.46-2.14,7.1-4.39,14.16-6.61,21.24-1,3.1-1.95,6.19-2.9,9.3-.29.92,1.16,1.32,1.44.4q6.17-20.15,12.47-40.25c1-3,1.75-6.12,2.59-9.19a31.93,31.93,0,0,1,3-8.11.75.75,0,0,0-1.29-.75Z"/><path class="cls-4" d="M346.83,164.94c6.45.29,12.91,1.07,19.3,2,5.61.79,11.25,1.38,16.83,2.38,1.27.23,2.53.47,3.77.8a9.27,9.27,0,0,1,1.26.41c.62.27.27.36.36-.2-.15.94,1.3,1.35,1.44.39.25-1.6-2.41-2-3.49-2.25-2.92-.69-5.92-1.11-8.89-1.53-6.13-.87-12.27-1.72-18.42-2.4-4-.44-8.1-.89-12.16-1.07-1,0-1,1.46,0,1.5Z"/><path class="cls-4" d="M388.82,170.76c-2.74,7.17-5.2,14.45-7.75,21.69-2.38,6.79-4.68,13.65-7.52,20.26A34.47,34.47,0,0,1,372,215.9c-.15.26-.41.69-.52.84-.31.37-.27.1.14.18-.95-.19-1.35,1.26-.4,1.45,1.37.28,2.2-1.89,2.65-2.82,1.28-2.63,2.32-5.39,3.36-8.12,3-8,5.75-16,8.58-24.05,1.44-4.08,2.88-8.17,4.43-12.22.34-.9-1.11-1.29-1.45-.4Z"/><path class="cls-4" d="M284.66,220.71c-1,2.91,4.31,2.92,5.94,3.11,3.75.45,7.52.58,11.29.76,7.88.36,15.75.77,23.64.82a.75.75,0,0,0,0-1.5c-6.93-.05-13.85-.37-20.76-.69-3.17-.15-6.35-.25-9.52-.46-1.7-.12-3.39-.27-5.07-.48-.47-.06-4.35-.32-4.07-1.17s-1.15-1.31-1.45-.39Z"/><path class="cls-4" d="M327.12,224.75c12.67-.56,25.07-2.95,37.59-4.77,1-.14.55-1.58-.4-1.44-12.39,1.79-24.65,4.15-37.19,4.71-1,.05-1,1.55,0,1.5Z"/><path class="cls-4" d="M317.88,205.85a10.57,10.57,0,0,1,5.25-4.12,14.21,14.21,0,0,1,7.46-.17.75.75,0,0,0,.4-1.45,13.17,13.17,0,0,0-4.24-.42,16.72,16.72,0,0,0-4.22.65,12.44,12.44,0,0,0-5.94,4.75c-.57.79.73,1.54,1.29.76Z"/><path class="cls-4" d="M323.93,209.1c.89.4,1.8.77,2.69,1.18a8.22,8.22,0,0,1,.84.42,2.29,2.29,0,0,1,.29.18c.13.08-.15-.14,0,0a.81.81,0,0,1,.1.09.75.75,0,0,0,1.06,0,.77.77,0,0,0,0-1.06,4.42,4.42,0,0,0-1.47-.89c-.9-.42-1.82-.8-2.74-1.2a.76.76,0,0,0-1,.27.75.75,0,0,0,.27,1Z"/><path class="cls-4" d="M276.6,204.89a15.06,15.06,0,0,1,5.52-.24c2.55.21,5.07.63,7.58,1.08,2.28.41,4.54.87,6.81,1.31a23.75,23.75,0,0,0,4.18.65.75.75,0,0,0,0-1.5,24.82,24.82,0,0,1-4.35-.71c-2.37-.46-4.73-.94-7.11-1.35s-4.9-.81-7.37-1a15.61,15.61,0,0,0-5.66.31c-.92.29-.53,1.73.4,1.45Z"/><path class="cls-4" d="M303.39,208.13a36.75,36.75,0,0,1,13-.75,8.68,8.68,0,0,1,2.4.58,12.42,12.42,0,0,1,3,2.42,29.92,29.92,0,0,0,2.46,1.86,4,4,0,0,1,1.31,2c.33.89,1.78.5,1.44-.4a6.23,6.23,0,0,0-1.27-2.38c-.73-.72-1.7-1.17-2.48-1.84-1.91-1.63-3.4-3.22-6-3.66a37.05,37.05,0,0,0-14.34.67c-.93.23-.54,1.67.4,1.45Z"/><path class="cls-4" d="M320,220.66a2,2,0,0,0,1.66.69,10.87,10.87,0,0,0,1.89-.15,4.08,4.08,0,0,0,1.67-.52,2.17,2.17,0,0,0,1-2,.75.75,0,0,0-1.5,0v.22c0,.09,0,.09,0,0s0,.07,0,.1-.08.2,0,.1-.06.1-.07.12.09-.08,0,0l-.12.11c.11-.11,0,0,0,0l-.14.08c-.07,0-.15.07,0,0a.58.58,0,0,1-.17.06,2.42,2.42,0,0,1-.36.1c-.2,0-.4.08-.6.11s.17,0,0,0l-.17,0-.36,0a6.79,6.79,0,0,1-.78,0h-.34a.77.77,0,0,1-.15,0s.18,0,0,0l-.25-.07c.13.05.15.06.09,0s0,0,0,0-.11-.18.09.11a.76.76,0,0,0-1-.27.75.75,0,0,0-.27,1Z"/><path class="cls-4" d="M301.76,214a32.91,32.91,0,0,1,3,1.75c.76.52,1.35,1.26,2.1,1.77a12.18,12.18,0,0,0,2.93,1.16,31.31,31.31,0,0,0,9,1.95.75.75,0,0,0,0-1.5,30,30,0,0,1-8.64-1.9c-.57-.18-1.15-.38-1.71-.6-.18-.07-.36-.14-.54-.23s-.42-.25-.25-.12c-.79-.6-1.45-1.34-2.29-1.9a31.54,31.54,0,0,0-2.87-1.67c-.85-.46-1.61.83-.76,1.29Z"/><path class="cls-4" d="M267.91,218.65a104.21,104.21,0,0,0,15.6-.48,83.31,83.31,0,0,0,15.21-2.46.75.75,0,0,0-.4-1.45,81.15,81.15,0,0,1-15.18,2.44,102,102,0,0,1-15.23.45c-1-.05-1,1.45,0,1.5Z"/><path class="cls-4" d="M257.7,183.14a28.49,28.49,0,0,0-11,1,20.74,20.74,0,0,0-7.7,3.58c-2.29,1.9-2.32,5.55-2.46,8.28-.24,4.63-.2,9.29-.06,13.92.16,5.34.52,10.68,1.08,16,.1,1,1.6,1,1.5,0a210.42,210.42,0,0,1-1.14-25.6c0-2,0-4.11.26-6.15.14-1.39.25-3.55,1.17-4.7,1.5-1.89,4.49-2.87,6.68-3.56a27.74,27.74,0,0,1,11.69-1.24c.95.12.94-1.39,0-1.5Z"/><path class="cls-4" d="M275,105.67c-.52-1.43,1.28-2.82,2.47-3.21,1.56-.52,2.72.58,3.09,2,.42,1.69,0,3.51,0,5.22a8.78,8.78,0,0,0,1.22,4.62c.52.81,1.82.06,1.3-.76-1.11-1.73-1.09-3.81-1-5.79s.2-4.1-1.18-5.73a3.82,3.82,0,0,0-4.95-.58c-1.53.88-3.14,2.71-2.46,4.59.33.9,1.78.51,1.45-.4Z"/><path class="cls-4" d="M284,119.11a.89.89,0,0,0,.31.3l.18.08h0l.21,0h0a.92.92,0,0,0,.43-.11,1,1,0,0,0,.26-.23.59.59,0,0,0,.11-.19.94.94,0,0,1,0-.1s0-.16,0-.21a.6.6,0,0,0,0-.12.59.59,0,0,0-.09-.31v0l-.12-.15h0l-.15-.12a.78.78,0,0,0-.21-.09h0a.8.8,0,0,0-.46,0,.83.83,0,0,0-.37.22,1.06,1.06,0,0,0-.27.5,1.8,1.8,0,0,0,0,.8,1.93,1.93,0,0,0,.15.4,1.48,1.48,0,0,0,.25.35.63.63,0,0,0,.24.16.73.73,0,0,0,.58,0,.63.63,0,0,0,.24-.16.75.75,0,0,0,.22-.53l0-.2a.73.73,0,0,0-.19-.33l0,0,.12.15a1.18,1.18,0,0,1-.11-.19l.08.18a.62.62,0,0,1-.07-.23l0,.19a1,1,0,0,1,0-.24l0,.2a.79.79,0,0,1,.06-.22l-.08.18,0-.06-.12.15h0l-.15.12,0,0-.18.08h0l-.2,0h0l-.2,0h0l-.17-.07h0l-.15-.12s0,0,0,0l-.12-.15a0,0,0,0,1,0,0l-.07-.18h0l0-.19v0l0-.2v0l.07-.18a0,0,0,0,1,0,0l.12-.16,0,0,.15-.11h0l.18-.07h0l.2,0h0l.2,0h0l.18.08,0,0,.16.12h0l.12.15h0a.48.48,0,0,0-.19-.21.62.62,0,0,0-.25-.14.61.61,0,0,0-.3,0,.55.55,0,0,0-.28.09.74.74,0,0,0-.27,1Z"/><path class="cls-4" d="M330.88,220.08c3.52-9.59,6.27-19.52,9.21-29.3.59-2,1.19-3.93,1.75-5.9a.75.75,0,0,0-1.45-.4c-2.8,9.85-5.88,19.64-9,29.39-.63,1.94-1.24,3.89-1.95,5.81-.33.9,1.12,1.3,1.45.4Z"/><path class="cls-4" d="M346.19,166a21.24,21.24,0,0,0-2,5.93c-.61,2.37-1.13,4.77-1.91,7.09-.31.92,1.14,1.31,1.45.4.76-2.26,1.27-4.61,1.86-6.91.3-1.15.6-2.3,1-3.42a9.7,9.7,0,0,1,1-2.33c.52-.82-.78-1.57-1.29-.76Z"/><path class="cls-4" d="M290,222c4.86.41,9.77.48,14.64.64,6.48.22,12.95.41,19.42.62a.75.75,0,0,0,0-1.5c-6.47-.21-12.94-.4-19.42-.62-4.87-.16-9.78-.23-14.64-.64-1-.08-1,1.42,0,1.5Z"/><path class="cls-4" d="M341.54,180.94a7.47,7.47,0,0,0-.34,1.14,3.59,3.59,0,0,0-.11.8.81.81,0,0,0,.22.53.75.75,0,0,0,.53.22.76.76,0,0,0,.75-.75,2.83,2.83,0,0,1,0-.29l0,.2a7.4,7.4,0,0,1,.39-1.45.78.78,0,0,0-.07-.58.77.77,0,0,0-1-.27.81.81,0,0,0-.34.45Z"/><path class="cls-4" d="M370.4,217.45a11.67,11.67,0,0,1-2.1.5,17.75,17.75,0,0,1-2.87.32.78.78,0,0,0-.75.75.75.75,0,0,0,.75.75,22.73,22.73,0,0,0,3.19-.36,10.82,10.82,0,0,0,2.18-.52.76.76,0,0,0,.52-.92.75.75,0,0,0-.92-.52Z"/><path class="cls-4" d="M300,219.41a29.7,29.7,0,0,0,6.66-.37.76.76,0,0,0,.53-.92.77.77,0,0,0-.93-.53,27.32,27.32,0,0,1-6.26.32.76.76,0,0,0-.75.75.78.78,0,0,0,.75.75Z"/><path class="cls-4" d="M360.06,192.54c.29.53-.08,1.16-.35,1.62a13,13,0,0,0-1,1.92,8.3,8.3,0,0,0-.54,2.14c-.09.67-.14,1.61.67,1.86s1.32-.57,1.54-1.26a5.25,5.25,0,0,1,.73-1.76c.41-.51,1-.43,1.54-.6a3.71,3.71,0,0,0,1.75-1.14,2.48,2.48,0,0,0,.68-2.25,1.78,1.78,0,0,0-1.66-1.34.75.75,0,0,0,0,1.5.33.33,0,0,1,.24.33,1.25,1.25,0,0,1-.32.7,2.71,2.71,0,0,1-.79.64,4.86,4.86,0,0,1-1.14.27,2.84,2.84,0,0,0-1.78,1.4,7.52,7.52,0,0,0-.5,1.21c-.06.19-.11.38-.17.58s-.07.21-.11.31c-.15.38.08-.32.51,0l.27.27c-.09-.11,0,.06,0-.1a2.12,2.12,0,0,1,0-.44,6.81,6.81,0,0,1,.2-1,7.59,7.59,0,0,1,.73-1.77c.69-1.19,1.54-2.45.78-3.83-.46-.85-1.76-.1-1.29.75Z"/><path class="cls-4" d="M362.37,197.05a2.91,2.91,0,0,0-1.65,2,1.89,1.89,0,0,0,.28,1.33,1.73,1.73,0,0,0,.63.54,2.44,2.44,0,0,0,.84.23,2.29,2.29,0,0,0,1.55-.36.77.77,0,0,0,.27-1,.76.76,0,0,0-1-.26l-.15.09-.05,0c-.06,0,0,0,.07,0l-.16.06-.13,0h-.3l-.13,0-.08,0q-.12,0,.06,0l-.12-.07c-.06,0,0,0,.05,0l-.06-.06c-.06-.06-.06-.13,0,0l-.07-.11c-.08-.15.05.16,0,0l0-.13c0-.17,0,.18,0,0v-.12c0-.07.05-.22,0,0l0-.11s0-.1,0-.15-.08.16,0,0a2.07,2.07,0,0,0,.15-.25c-.09.18-.05.08,0,0a.69.69,0,0,1,.11-.13l.1-.08s.21-.14,0,0c.17-.11.33-.23.51-.33a.75.75,0,0,0-.76-1.29Z"/><path class="cls-4" d="M280.79,222.28c-16.88,1.49-33.51,4.86-50.2,7.66-4.85.82-9.72,1.59-14.59,2.25-.95.13-.55,1.58.4,1.45,16.76-2.3,33.33-5.8,50.09-8.19,4.75-.67,9.52-1.25,14.3-1.67,1-.08,1-1.58,0-1.5Z"/><path class="cls-4" d="M305.94,138.76a8.29,8.29,0,0,0,7.64,3.47.78.78,0,0,0,.75-.75.75.75,0,0,0-.75-.75,6.78,6.78,0,0,1-6.34-2.73.78.78,0,0,0-1-.27.77.77,0,0,0-.27,1Z"/><path class="cls-4" d="M321.82,142.75a4,4,0,0,0,3.08.59,6.63,6.63,0,0,0,2.61-1.9.78.78,0,0,0,0-1.07.76.76,0,0,0-1.06,0,12,12,0,0,1-1.1,1c-.17.14.11-.08-.06,0l-.1.07a2.2,2.2,0,0,1-.25.17l-.25.13s-.19.06,0,0l-.12,0-.26.06c-.1,0,0,.05,0,0s-.1,0-.13,0h-.4c.09,0,.09,0,0,0a5.26,5.26,0,0,1-.6-.18l-.05,0-.17-.08-.38-.21a.77.77,0,0,0-1,.27.78.78,0,0,0,.27,1Z"/><path class="cls-4" d="M305.8,173.48a22.82,22.82,0,0,0,12.48-.56,19.16,19.16,0,0,0,8.58-6.42c4.68-6.14,6-14.45,5-22-1.07-7.92-4.89-15.62-11.53-20.29a25.09,25.09,0,0,0-12.07-4.32,19.89,19.89,0,0,0-14.77,4.3c-10,8-13.34,22.81-10.54,34.87a35.93,35.93,0,0,0,1.63,5.16l.72-.95c-5.39.32-10,4.38-13.55,8.09-6.84,7.16-12.06,15.89-16.73,24.56-3.92,7.29-7.43,14.79-10.72,22.38-.38.87.91,1.64,1.29.75,5.19-12,10.89-23.84,18.05-34.76,4.05-6.19,8.74-12.74,15-16.91a13.68,13.68,0,0,1,6.67-2.61c.43,0,.91-.47.72-.95-4.61-11.57-2.93-26.16,5.47-35.65,3.53-4,8.36-6.86,13.79-6.92a24.73,24.73,0,0,1,12.1,2.89c6.73,3.69,10.93,10.59,12.54,17.95,1.53,7,.88,14.93-2.76,21.25a18.18,18.18,0,0,1-17.62,9.14,26.55,26.55,0,0,1-3.32-.48c-.94-.2-1.34,1.25-.4,1.44Z"/><path class="cls-4" d="M319.26,141.91a4.91,4.91,0,0,0,.37,1.12.55.55,0,0,0,.19.21.66.66,0,0,0,.26.14.61.61,0,0,0,.3,0,.49.49,0,0,0,.28-.09.74.74,0,0,0,.34-.45l0-.2a.79.79,0,0,0-.1-.37l0,0,.08.18a3.58,3.58,0,0,1-.29-.91.55.55,0,0,0-.13-.25.8.8,0,0,0-.21-.2.57.57,0,0,0-.28-.08.51.51,0,0,0-.3,0,.77.77,0,0,0-.45.34l-.07.18a.68.68,0,0,0,0,.4Z"/><path class="cls-4" d="M315.2,141.53l0,1.14a.77.77,0,0,0,.22.53.75.75,0,0,0,.53.22.75.75,0,0,0,.75-.75l0-1.14a.74.74,0,0,0-.21-.53.76.76,0,0,0-1.07,0,.85.85,0,0,0-.22.53Z"/><path class="cls-4" d="M309.68,146.66a9,9,0,0,1,0,1.56l0,.31c0,.1,0-.18,0-.09a.22.22,0,0,0,0,.08l0,.16c0,.19-.08.38-.13.57a.75.75,0,0,0,1.45.4,8.61,8.61,0,0,0,.21-3,.79.79,0,0,0-.22-.53.75.75,0,0,0-1.28.53Z"/><path class="cls-4" d="M323.63,148.53c-.08.67-.16,1.34-.25,2l0-.2a2.51,2.51,0,0,0,0,.27.83.83,0,0,0,.07.58.76.76,0,0,0,.45.34.74.74,0,0,0,.58-.07.75.75,0,0,0,.35-.45c.11-.83.21-1.66.31-2.48a.75.75,0,0,0-.75-.75.73.73,0,0,0-.53.22.79.79,0,0,0-.22.53Z"/><path class="cls-4" d="M306,145.92a22.42,22.42,0,0,1,5.49.26.78.78,0,0,0,.93-.52.76.76,0,0,0-.53-.92,23.72,23.72,0,0,0-5.89-.32.78.78,0,0,0-.75.75.76.76,0,0,0,.75.75Z"/><path class="cls-4" d="M308.47,150.17l2.58.36a.78.78,0,0,0,.58-.08A.75.75,0,0,0,312,150a.78.78,0,0,0-.08-.58.73.73,0,0,0-.44-.35l-2.59-.36a.81.81,0,0,0-.57.08.75.75,0,0,0-.35.45.76.76,0,0,0,.08.57.72.72,0,0,0,.45.35Z"/><path class="cls-4" d="M322,147.76l3.25.46a.83.83,0,0,0,.58-.08.75.75,0,0,0,.35-.45.76.76,0,0,0-.53-.92l-3.25-.46a.89.89,0,0,0-.58.08.74.74,0,0,0-.34.45.74.74,0,0,0,.52.92Z"/><path class="cls-4" d="M322.69,151.93l2.14.41a.82.82,0,0,0,.58-.07.75.75,0,0,0,.35-.45.76.76,0,0,0-.53-.92l-2.14-.41a.84.84,0,0,0-.58.07.77.77,0,0,0-.34.45.76.76,0,0,0,.52.92Z"/><path class="cls-4" d="M340.12,118.73c.71-1.19,2.79-.7,3.76-.17a2.27,2.27,0,0,1,1.3,1.68,3.11,3.11,0,0,1-.75,2.22c-1.05,1.33-2.68,2.12-4,3.18a8.75,8.75,0,0,0-2.92,4c-.31.91,1.14,1.31,1.44.4.65-1.93,2.36-3.22,4-4.34s3.47-2.54,3.72-4.75c.23-2-1.27-3.51-3.1-4.08-1.61-.52-3.77-.46-4.74,1.15a.75.75,0,0,0,1.3.76Z"/><path class="cls-4" d="M319.74,200.64c-2-7.94-5.91-15.34-8.53-23.08-.31-.91-1.76-.52-1.45.4,2.63,7.74,6.49,15.14,8.53,23.08a.75.75,0,0,0,1.45-.4Z"/><path class="cls-4" d="M219.11,131.3l6.14-2.65a.76.76,0,0,0,.27-1,.78.78,0,0,0-1-.27L218.36,130a.76.76,0,0,0-.27,1,.77.77,0,0,0,1,.27Z"/><path class="cls-4" d="M220.71,125.77a30.7,30.7,0,0,0-1.09,7.69c0,.52.67,1,1.13.65a1.37,1.37,0,0,1,2,.27,1.32,1.32,0,0,1-.87,1.84.75.75,0,0,0,.4,1.45,2.74,2.74,0,1,0-2.27-4.86l1.12.65a29.11,29.11,0,0,1,1-7.3.75.75,0,0,0-1.45-.39Z"/><path class="cls-4" d="M228.57,133.35a8,8,0,0,0,2.88-1.27.79.79,0,0,0,.35-.45.75.75,0,0,0-.08-.57.74.74,0,0,0-1-.27,8,8,0,0,1-1.27.72l-.09,0c.11-.05.12-.06,0,0l-.18.06-.31.11a6.05,6.05,0,0,1-.73.2.75.75,0,0,0-.52.92.76.76,0,0,0,.92.53Z"/><path class="cls-4" d="M227.35,132.38l.69,3c.06.25.11.49.17.73a3.31,3.31,0,0,1,.11.61,2.17,2.17,0,0,1,0,.26.37.37,0,0,1-.05.21s0,0,0,.05l0-.06c-.06.06-.05.05,0,0s-.06,0,0,0-.24,0-.13,0,.06,0,0,0-.07,0,0,0c-.07,0-.07,0,0,0q-.1-.06,0,0l0,.06,0,.06a.33.33,0,0,1,0,.14c0,.07,0,.07,0,0s0,.06,0,0h0a1.71,1.71,0,0,1,.23-.13c-.07,0-.06,0,0,0l.18-.06a3.58,3.58,0,0,1,2.41.17.74.74,0,0,0,.92-.52.77.77,0,0,0-.52-.92,4.94,4.94,0,0,0-3-.23c-.91.21-2.08.89-1.73,2a1.45,1.45,0,0,0,2.19.6c1-.65.73-1.91.51-2.87L228.8,132a.75.75,0,0,0-1.45.39Z"/><path class="cls-4" d="M235.14,132.36h0s.09,0,.11,0a2.58,2.58,0,0,0,.26.08c-.06,0-.13-.06,0,0l.11.06.13.08c.11.07-.09-.08,0,0l.19.18.08.09c.06.07-.08-.13,0,0a1.71,1.71,0,0,1,.13.23c0,.08-.05-.16,0,0s0,.1,0,.14l0,.12c0,.13,0,0,0,0a2.26,2.26,0,0,0,0,.26.57.57,0,0,0,0,.13c0-.12,0-.14,0-.08a.64.64,0,0,0,0,.07,2,2,0,0,1-.06.23c-.05.16.07-.15,0,0L236,134c0,.08-.1.15-.14.22s.08-.1,0,0l-.09.09s-.08.06-.1.1l.07-.06-.08,0a.76.76,0,0,0-.27,1,.77.77,0,0,0,1,.27,2.59,2.59,0,0,0-1.31-4.79.76.76,0,0,0-.75.75.78.78,0,0,0,.75.75Z"/><path class="cls-4" d="M237.82,124.45l1.4,1.73a.75.75,0,0,0,.53.22.77.77,0,0,0,.53-.22.75.75,0,0,0,.22-.53l0-.2a.69.69,0,0,0-.19-.33l-1.4-1.73a.73.73,0,0,0-.53-.22.75.75,0,0,0-.75.75l0,.2a.78.78,0,0,0,.19.33Z"/><path class="cls-4" d="M242.61,123.15a35.66,35.66,0,0,0-2.14,3.81,3.72,3.72,0,0,0-.25,2.48,2.82,2.82,0,0,0,2.16,2.13,5.39,5.39,0,0,0,3.67-1.08c.82-.5.06-1.8-.76-1.29s-2,1.27-2.94.79a1.42,1.42,0,0,1-.7-1,2.47,2.47,0,0,1,0-.61,1.5,1.5,0,0,1,0-.2c0,.08,0,.08,0,0s0-.13.05-.2l.09-.23c0-.08,0-.08,0,0l.06-.13a4.59,4.59,0,0,1,.24-.5c.21-.42.44-.84.68-1.24.37-.66.77-1.3,1.16-1.94.5-.83-.8-1.58-1.3-.76Z"/><path class="cls-4" d="M227.29,145.91l2.47,9.69c.23.93,1.68.53,1.44-.4l-2.46-9.69a.75.75,0,0,0-1.45.4Z"/><path class="cls-4" d="M225.5,151.25a16.56,16.56,0,0,0,.72,4.14c.17.56,1.09.81,1.37.18a9.87,9.87,0,0,1,4.12-4.61c.37-.21.92-.52,1.35-.32l.15.09c-.1-.08.15.18.06.06a.67.67,0,0,1,.15.39c0-.11,0,.13,0,.13s0,.23,0,.34a3.21,3.21,0,0,1-.1.53,5.58,5.58,0,0,1-.44,1.11c-.44.85.85,1.61,1.3.75.71-1.36,1.39-3.77-.35-4.69a3.21,3.21,0,0,0-3.22.52,11.19,11.19,0,0,0-2.39,2,10.81,10.81,0,0,0-1.92,2.94l1.37.18a14.84,14.84,0,0,1-.67-3.74c0-1-1.54-1-1.5,0Z"/><path class="cls-4" d="M236.56,148.16c-.12.09,0,0,.07-.06l.19-.12.45-.25.12,0s-.11,0,0,0l.21-.08a4.5,4.5,0,0,1,.49-.14l.13,0s.12,0,0,0,0,0,.06,0H239s-.13,0,0,0l.21,0,.23.07.09,0c.08,0-.11-.06,0,0l.38.22c.11.07,0,0,0,0l.07.06.13.13s.14.15.06.07,0,.05,0,.08a.86.86,0,0,1,.1.16l0,.06c.07.12,0,0,0,0a1.35,1.35,0,0,0,.11.32,1.16,1.16,0,0,1,0,.18.2.2,0,0,1,0,.07c0,.1,0-.17,0,0s0,.22,0,.33,0,.15,0,.19v-.09a.52.52,0,0,0,0,.11c0,.06,0,.12,0,.18s-.09.24,0,.12,0,.06,0,.09-.1.14-.1.17l.05-.06-.07.08-.13.12c-.09.09,0,0,0,0s-.08.06-.1.07-.25.12-.05,0a.77.77,0,0,0-.52.93.76.76,0,0,0,.92.52,2.51,2.51,0,0,0,1.45-1.52,3.14,3.14,0,0,0,0-1.94,3,3,0,0,0-1.25-1.68,3.62,3.62,0,0,0-2.36-.5,5.28,5.28,0,0,0-2.68,1.14.75.75,0,0,0,0,1.06.77.77,0,0,0,1.06,0Z"/><path class="cls-4" d="M237.74,143.79a38.39,38.39,0,0,0-1.18,7.46c-.05,1,1.45,1,1.5,0a37.36,37.36,0,0,1,1.12-7.06.75.75,0,0,0-1.44-.4Z"/><path class="cls-4" d="M242,144.91l2.46,2.75a.76.76,0,0,0,1.06,0,.77.77,0,0,0,0-1.06L243,143.85a.75.75,0,0,0-1.06,0,.76.76,0,0,0,0,1.06Z"/><path class="cls-4" d="M247.75,137.81a8.26,8.26,0,0,1,1.72,0l.23,0h.06l.41.08a6.24,6.24,0,0,1,.85.22.75.75,0,0,0,.92-.53.76.76,0,0,0-.52-.92,8.77,8.77,0,0,0-3.67-.35.77.77,0,0,0-.75.75c0,.36.34.8.75.75Z"/><path class="cls-4" d="M247.3,142a2.42,2.42,0,0,0,2.32,3.31,2.83,2.83,0,0,0,1.48-.72.67.67,0,0,1,.29-.15c-.12,0,0,0,.05.07a2,2,0,0,1,.3.54,2.33,2.33,0,0,1,0,1.43,7.09,7.09,0,0,1-2.06,2.9c-.7.66.36,1.72,1.06,1.06,1.66-1.56,3.69-4.4,2-6.67A1.71,1.71,0,0,0,251,143a2.59,2.59,0,0,0-.89.49,1.79,1.79,0,0,1-.52.33.8.8,0,0,1-.34-.05,1.28,1.28,0,0,1-.4-.27,1.07,1.07,0,0,1-.24-.4.53.53,0,0,1,0-.33.77.77,0,0,0-.27-1,.76.76,0,0,0-1,.27Z"/><path class="cls-4" d="M255.91,138.56a21.43,21.43,0,0,0,.22,8.33.75.75,0,0,0,1.37.18,3.74,3.74,0,0,1,1.13-1.48c.52-.35.81,0,1.24.35a2.66,2.66,0,0,0,3.79-.56.75.75,0,0,0-.27-1,.77.77,0,0,0-1,.27,1.17,1.17,0,0,1-1.24.33,2.64,2.64,0,0,1-.64-.45,2.44,2.44,0,0,0-1-.54c-1.52-.3-2.65,1.15-3.25,2.35l1.37.18a19.93,19.93,0,0,1-.22-7.54.76.76,0,0,0-.52-.92.75.75,0,0,0-.92.52Z"/><path class="cls-4" d="M264.38,140.57a.75.75,0,0,0,0-1.5.75.75,0,0,0,0,1.5Z"/><path class="cls-4" d="M269.58,138.49a.75.75,0,0,0,0-1.5.75.75,0,0,0,0,1.5Z"/><path class="cls-4" d="M267,139.51a.75.75,0,0,0,0-1.5.75.75,0,0,0,0,1.5Z"/><path class="cls-4" d="M337.06,133.86a.75.75,0,0,0,0-1.5.75.75,0,0,0,0,1.5Z"/><path class="cls-4" d="M123.5,257.49a10.48,10.48,0,0,0,5.86-1.49.68.68,0,0,0-.68-1.17,9.22,9.22,0,0,1-5.18,1.31.68.68,0,0,0-.67.67.69.69,0,0,0,.67.68Z"/><path class="cls-4" d="M124.88,253.4a33,33,0,0,0,.79,10.75c.2.85,1.5.49,1.3-.36a31.84,31.84,0,0,1-.74-10.39c.08-.87-1.27-.86-1.35,0Z"/><path class="cls-4" d="M127.65,260.75c-.26,2-1.53,4-3.55,4.44l.52.07-.32-.16s-.18-.12-.11-.08-.07,0-.09-.08l-.11-.1c-.08-.08,0,.08,0,0a.83.83,0,0,0-.08-.12l0-.06c0-.07,0,.15,0,0s0-.17-.07-.26c0,.1,0,.07,0,0v-.17a.61.61,0,0,1,0-.14c0-.08,0,.05,0,.05s0-.07,0-.1.05-.22.08-.33l.06-.15s.06-.17,0-.1l0-.1.11-.21a6.29,6.29,0,0,1,.41-.64c.06-.08,0,0,.07-.08l.12-.15a4.12,4.12,0,0,1,.28-.31,8,8,0,0,1,.6-.56s.15-.11.06-.05l.15-.11c.12-.08.23-.16.36-.23l.3-.18.16-.08.07,0c.09,0-.1,0,0,0a5.31,5.31,0,0,1,.65-.19s-.13,0,0,0h.3c-.15,0,.11,0,.09,0l.16,0h0l.21,0,.2.06.1,0,.06,0a3.9,3.9,0,0,1,.35.19l.16.11h0l.1.09a4.11,4.11,0,0,1,.3.29l.06.08s-.05-.07,0,0l.13.18c.07.11.13.23.19.34l0,.09c0,.1,0-.08,0,0s.05.14.08.22a3.17,3.17,0,0,1,.12.44c0,.05,0,.21,0,.18s0,.16,0,.21a3.68,3.68,0,0,1,0,.47c0,.08,0,.15,0,.23s0,.12,0,.05V264c0,.17-.07.34-.11.5s-.05.15-.08.22a.42.42,0,0,1,0,.1c0-.07,0,0,0,0a3.21,3.21,0,0,1-.24.45,1.68,1.68,0,0,1-.25.33.68.68,0,0,0,1,.95,4.81,4.81,0,0,0,.64-5.29,3.79,3.79,0,0,0-2.05-1.81,3.16,3.16,0,0,0-2.29-.08,6.72,6.72,0,0,0-3.63,3.19,3.45,3.45,0,0,0-.44,2.26,2.33,2.33,0,0,0,1.57,1.7,1.8,1.8,0,0,0,1-.2,5,5,0,0,0,.87-.43,6,6,0,0,0,1.4-1.26,7.18,7.18,0,0,0,1.55-3.49.7.7,0,0,0-.48-.83.68.68,0,0,0-.83.47Z"/><path class="cls-4" d="M135.85,261.59c.14-.51.38-1.48,1-1.63.4-.09.89.23,1.28.33a5.9,5.9,0,0,0,1.26.19,4.4,4.4,0,0,0,4.22-2.08c.41-.77-.76-1.45-1.16-.68-.73,1.37-2.52,1.64-3.91,1.28a8.18,8.18,0,0,0-1.45-.39,1.87,1.87,0,0,0-1.25.37,4.08,4.08,0,0,0-1.3,2.25.68.68,0,0,0,1.31.36Z"/><path class="cls-4" d="M148.69,251.71l.53,5.85a.69.69,0,0,0,.68.68.67.67,0,0,0,.67-.68l-.53-5.85a.7.7,0,0,0-.68-.67.67.67,0,0,0-.67.67Z"/><path class="cls-4" d="M150.31,259.26a1.66,1.66,0,0,0-.22,0H150l-.18.08h0a1.09,1.09,0,0,0-.17.13h0a1.34,1.34,0,0,0-.11.14v0h0l-.07.17v0a1.1,1.1,0,0,0,0,.18v.05a1.23,1.23,0,0,0,0,.19v0s0,0,0,0l.09.21a.66.66,0,0,0,.72.42.5.5,0,0,0,.26-.08l.13-.1a.71.71,0,0,0,.18-.3l0-.18a.69.69,0,0,0-.09-.34.67.67,0,0,1-.06-.12l.07.17a.76.76,0,0,1,0-.11l0,.18s0,0,0-.06l0,.17s0,0,0,0l-.06.16,0,0-.11.14,0,0-.14.11.05,0-.16.07a.29.29,0,0,1,.1,0l-.18,0h0a.78.78,0,0,0,.48-.2.52.52,0,0,0,.14-.22.58.58,0,0,0,.06-.26l0-.18a.75.75,0,0,0-.17-.3l-.14-.1a.67.67,0,0,0-.34-.09Z"/><path class="cls-4" d="M131.24,276.31a5.32,5.32,0,0,0,2.47-.84.68.68,0,0,0,.25-.92.69.69,0,0,0-.93-.24,4.51,4.51,0,0,1-.75.4l.16-.07a4.69,4.69,0,0,1-1.15.32l.18,0-.23,0a.68.68,0,0,0-.47.19.67.67,0,0,0-.2.48.69.69,0,0,0,.67.68Z"/><path class="cls-4" d="M132,274.37a36.57,36.57,0,0,0-1.05,6.32.68.68,0,0,0,1.35,0,34.35,34.35,0,0,1,1-6,.67.67,0,0,0-1.3-.36Z"/><path class="cls-4" d="M136.48,274.38a4.25,4.25,0,0,1,.67.43l-.13-.1a4.76,4.76,0,0,1,.62.57.66.66,0,0,0,1,0,.63.63,0,0,0,.2-.47.72.72,0,0,0-.2-.48,5.37,5.37,0,0,0-1.43-1.12.72.72,0,0,0-.52-.07.77.77,0,0,0-.4.31.68.68,0,0,0-.07.52.71.71,0,0,0,.31.41Z"/><path class="cls-4" d="M136.89,277.05c.05,1,.15,1.95.14,2.93a2.72,2.72,0,0,1,0,.28s0,.28,0,.16a2.61,2.61,0,0,1-.06.27l0,.12c0,.17,0-.07,0,.09a2.53,2.53,0,0,1-.13.22c.06-.08,0,0,0,0l-.09.09c.1-.09-.06,0-.1,0s0,0,0,0l-.16.05-.11,0h-.22c.15,0-.05,0-.1,0l-.11,0c.14.05,0,0,0,0l-.1-.06h0s-.15-.19-.08-.08c0,0-.12-.22-.06-.09a1.2,1.2,0,0,1-.08-.27c0,.15,0-.06,0-.1s0-.08,0-.12,0,.13,0,0,0-.15.07-.22-.06.1,0,0l.08-.12s.1-.12,0,0l.08-.08s.1-.09,0,0l.09-.06a1.22,1.22,0,0,1,.42-.12,5.83,5.83,0,0,1,2.92.53.71.71,0,0,0,.93-.24.69.69,0,0,0-.24-.93,7.62,7.62,0,0,0-3.57-.72,2.1,2.1,0,0,0-2.14,2.09,2,2,0,0,0,1.85,2,2.1,2.1,0,0,0,2.27-1.7,6.76,6.76,0,0,0,.09-1.74l-.12-2.19a.68.68,0,0,0-.67-.67.69.69,0,0,0-.68.67Z"/><path class="cls-4" d="M154.18,272.71a3.63,3.63,0,0,1,.64-.13c.13,0-.16,0,0,0h.11l.24,0,.47,0a10.7,10.7,0,0,1,1.6-.06.67.67,0,0,0,.67-.67.69.69,0,0,0-.67-.68,12.78,12.78,0,0,0-1.64.06c-.36,0-.71.07-1.07.12a3.16,3.16,0,0,0-.68.14.67.67,0,1,0,.36,1.3Z"/><path class="cls-4" d="M154.1,274.74c1.16-.1,2.32-.24,3.48-.37a.69.69,0,0,0,.67-.68c0-.33-.3-.72-.67-.67-1.16.13-2.32.27-3.48.37a.69.69,0,0,0-.67.68.68.68,0,0,0,.67.67Z"/><path class="cls-4" d="M150.22,272.39a19.22,19.22,0,0,0,.29,7.09c.19.85,1.49.49,1.3-.36a17.5,17.5,0,0,1-.29-6.37.7.7,0,0,0-.47-.83.68.68,0,0,0-.83.47Z"/><path class="cls-4" d="M155.78,273a20.61,20.61,0,0,1,.46,2.18c.09.66.09,1.34.19,2,0,.23.1.45.13.68a.72.72,0,0,1-.09.4.6.6,0,0,1-.26.28s-.27.13-.11.07l-.2.07-.16,0c-.17,0,.06,0-.05,0h-.55c.09,0,0,0,0,0l-.24-.07c.14.05,0,0-.07-.06s.09.09,0,0,.06.12,0,0-.07-.11,0,0a.42.42,0,0,1,0-.12c0,.1,0-.13,0-.18a1,1,0,0,1,.13-.44l.09-.1c.09-.07-.12.07.06,0,0,0,.11,0,0,0l.13,0s.27-.05.15,0h.48c-.14,0,.07,0,.08,0l.29.09c.3.11.61.26.91.4a11.44,11.44,0,0,1,2.06,1.13.67.67,0,0,0,.68-1.16,12.51,12.51,0,0,0-2.27-1.24,5.5,5.5,0,0,0-1.89-.6,2.21,2.21,0,0,0-1.64.52,2.15,2.15,0,0,0-.61,1.79,1.91,1.91,0,0,0,2.32,1.51,2.24,2.24,0,0,0,2.19-2.08,6.19,6.19,0,0,0-.16-1.05c0-.24,0,.1,0-.09s0-.24,0-.37l-.06-.73a20.4,20.4,0,0,0-.58-3.1.67.67,0,0,0-1.3.36Z"/><path class="cls-4" d="M160.86,270.9c.19.2.38.4.56.61l.27.32s.09.16.14.18-.08-.1,0,0l.07.09a14.43,14.43,0,0,1,.93,1.42.67.67,0,0,0,.92.24.68.68,0,0,0,.24-.92,14.41,14.41,0,0,0-2.15-2.88.68.68,0,1,0-1,1Z"/><path class="cls-4" d="M165.59,269.65a19.32,19.32,0,0,0-1.89,3.07,12.41,12.41,0,0,0-1.29,3.5,2.26,2.26,0,0,0,1.33,2.57,5.3,5.3,0,0,0,2.85.17.68.68,0,0,0,.47-.83.69.69,0,0,0-.83-.47,3.8,3.8,0,0,1-2-.11c-.82-.36-.5-1.29-.28-2a18.34,18.34,0,0,1,2.79-5.26.69.69,0,0,0-.24-.93.7.7,0,0,0-.93.25Z"/><path class="cls-4" d="M167.22,269.47l.3.61a.52.52,0,0,0,.17.19.57.57,0,0,0,.23.12.5.5,0,0,0,.27,0,.44.44,0,0,0,.25-.08l.14-.11a.66.66,0,0,0,.17-.29l0-.18a.64.64,0,0,0-.09-.34l-.3-.61a.52.52,0,0,0-.17-.19.57.57,0,0,0-.23-.12.62.62,0,0,0-.27,0,.53.53,0,0,0-.25.08l-.14.11a.66.66,0,0,0-.17.29l0,.18a.64.64,0,0,0,.09.34Z"/><path class="cls-4" d="M168.82,268.53l.51.75a.52.52,0,0,0,.17.19.51.51,0,0,0,.23.12.5.5,0,0,0,.27,0,.73.73,0,0,0,.25-.08.74.74,0,0,0,.31-.41l0-.18a.69.69,0,0,0-.09-.34l-.51-.75a.45.45,0,0,0-.17-.19.51.51,0,0,0-.23-.12.5.5,0,0,0-.27,0,.57.57,0,0,0-.25.08.74.74,0,0,0-.31.41l0,.18a.69.69,0,0,0,.09.34Z"/><path class="cls-4" d="M173.35,273.65c-.07-.55.44-.86.93-.93a21.77,21.77,0,0,1,2.42.11,6.57,6.57,0,0,0,4.07-1.61c.65-.57-.3-1.52-1-1a5.1,5.1,0,0,1-1.93,1,6.25,6.25,0,0,1-2.4.11,3.71,3.71,0,0,0-2.43.34,2,2,0,0,0-1.05,1.9.69.69,0,0,0,.67.67c.33,0,.73-.31.68-.67Z"/><path class="cls-4" d="M141.6,273.24l1.18-.16.69-.09.28,0c.05,0,.3,0,.17,0l-.3-.18s0,0,0,.08l-.09-.34v.05l.09-.34c-.73,1.45-1.36,2.95-2.09,4.39-.33.65.53,1.44,1.06.82a2.71,2.71,0,0,1,2.7-.78,1.56,1.56,0,0,1,1.1,1.8,2.12,2.12,0,0,1-1.24,1.87,2,2,0,0,1-1,.21c-.14,0-.16-.07-.27-.13s-.08-.22,0,0l0-.06a.58.58,0,0,1,0-.14c0,.18,0,0,0-.09s0-.25,0-.12a2.25,2.25,0,0,1,0-.22c0-.13,0,0,.06-.13s.06-.15.21-.2a1.45,1.45,0,0,1,.47,0,.7.7,0,0,0,.83-.47.68.68,0,0,0-.47-.83,2.11,2.11,0,0,0-1.88.4,2.07,2.07,0,0,0-.61,1.39,1.75,1.75,0,0,0,2.06,1.9,3.46,3.46,0,0,0,3-2.38,3.17,3.17,0,0,0-1-3.69,3.25,3.25,0,0,0-2.47-.55,4.31,4.31,0,0,0-2.45,1.24l1.06.81c.39-.76.75-1.54,1.11-2.32.18-.4.37-.81.56-1.21a3.45,3.45,0,0,0,.52-1.2,1,1,0,0,0-.7-.93,2.73,2.73,0,0,0-.9.05c-.69.08-1.39.17-2.08.28a.68.68,0,0,0-.47.83.69.69,0,0,0,.83.47Z"/><path class="cls-4" d="M83.18,264.93l-.53,3.64-.07.51a.75.75,0,0,0,1.45.4l.52-3.64.07-.51a.77.77,0,0,0-.52-.93.75.75,0,0,0-.92.53Z"/><path class="cls-4" d="M100,268.14l-.71,2.77-.1.4a.77.77,0,0,0,.53.92.76.76,0,0,0,.92-.53l.71-2.77.1-.4a.77.77,0,0,0-.53-.92.76.76,0,0,0-.92.53Z"/><path class="cls-4" d="M100.48,257.18l.29-.08.14,0c.17,0,0,0,0,0,.24,0,.47,0,.7,0a7.34,7.34,0,0,1,.81.05l.18,0c.05,0,.16,0,.05,0l.43.07a8.06,8.06,0,0,1,1.46.39l.17.06c.18.07-.14-.07,0,0l.24.12.24.15c.12.07-.11-.12,0,0l.08.07a.75.75,0,0,0,1.06,0,.76.76,0,0,0,0-1.06,3.56,3.56,0,0,0-1.26-.74,8,8,0,0,0-1.6-.43,7,7,0,0,0-3.43,0,.76.76,0,0,0-.52.92.74.74,0,0,0,.92.52Z"/><path class="cls-4" d="M81.38,254.53c.12-.1-.11.06,0,0l.15-.08.15-.09c.14-.07-.11,0,0,0a5.83,5.83,0,0,1,.72-.18s.22,0,.09,0l.22,0,.45,0c.3,0,.61,0,.91,0a8.86,8.86,0,0,1,1.58.23c.23.06.47.12.69.2l.16.06c.14,0-.13-.07,0,0l.23.12a.75.75,0,0,0,.75-1.3,8,8,0,0,0-3.5-.81,5.28,5.28,0,0,0-3.74.87.75.75,0,0,0,1.06,1.06Z"/><path class="cls-4" d="M85.59,286.32a6.4,6.4,0,0,0,1.8.88,12.75,12.75,0,0,0,2.73.64c1.85.23,3.95,0,5.32-1.36.67-.69-.39-1.75-1.06-1.06-1.08,1.1-2.84,1.12-4.27.92a11.61,11.61,0,0,1-2.32-.59,5.25,5.25,0,0,1-1.44-.72.76.76,0,0,0-1,.27.77.77,0,0,0,.27,1Z"/><path class="cls-4" d="M94.14,274.44l0,2.83a.77.77,0,0,0,.75.75.76.76,0,0,0,.75-.75l0-2.83a.76.76,0,0,0-.75-.75.77.77,0,0,0-.75.75Z"/><path class="cls-4" d="M93.07,297.23c7.7-4,12.22-13,14.11-21.12,2.24-9.56,1.15-20.24-5-28.18a30.57,30.57,0,0,0-13.38-9.58c-5.11-1.95-10.26-2.55-15.55-1-10.69,3.2-18.94,12.78-22.67,23a35.56,35.56,0,0,0-1.8,17.67,34.8,34.8,0,0,0,8.56,17.52,43.72,43.72,0,0,0,4.24,4.15v-1.06a90,90,0,0,0-13.09,20.63,162.33,162.33,0,0,0-12,38.15,271.45,271.45,0,0,0-4.15,31c-.08,1,1.42,1,1.5,0,1.34-16.75,3.9-33.5,8.81-49.6a123.47,123.47,0,0,1,13-29.56,78.67,78.67,0,0,1,7-9.54.75.75,0,0,0,0-1.06A36.41,36.41,0,0,1,51.22,282a32.59,32.59,0,0,1-.42-17.17c2.5-10.38,9.68-20.19,19.49-24.74a21.06,21.06,0,0,1,13.85-1.66,31.55,31.55,0,0,1,14.79,8.06c6.81,6.86,8.85,16.92,7.39,26.26-1.27,8-5,16.89-11.77,21.8a18.83,18.83,0,0,1-2.23,1.38c-.86.44-.1,1.74.75,1.29Z"/><path class="cls-4" d="M133.7,307.25c-1.39.22-2.22,1.44-3,2.52s-1.31,2-2,2.94q-2.55,3.85-5,7.73c-.51.8-1.07,1.59-1.51,2.43-.36.69.68,1.29,1,.61,1-1.85,2.23-3.58,3.37-5.33q2.31-3.57,4.67-7.11c.68-1,1.41-2.43,2.69-2.63.76-.12.44-1.28-.32-1.16Z"/><path class="cls-4" d="M136.94,307.9c2.15-.2,4.29-.06,6.44-.12a.6.6,0,0,0,0-1.2c-2.15.06-4.29-.08-6.44.12a.62.62,0,0,0-.6.6.61.61,0,0,0,.6.6Z"/><path class="cls-4" d="M132.43,310.38a6.78,6.78,0,0,0-.7.9,3.29,3.29,0,0,0-.47,1,1,1,0,0,0,.16,1,1.14,1.14,0,0,0,.85.28,1.36,1.36,0,0,0,1.09-.64.44.44,0,0,0-.16-.61.47.47,0,0,0-.62.16s-.07.1,0,.05,0,0,0,0l0,0c0,.05.08,0,0,0l-.07.05s-.11.05,0,0,0,0,0,0l-.08,0h-.17c.09,0,0,0,0,0l-.06,0h0l.06,0,0,0c-.07,0,.08.07,0,0s.05.07,0,0,0,.07,0,0a.14.14,0,0,0,0-.06c0-.06,0,.12,0,0v-.07c0-.09,0,.09,0,0a1,1,0,0,1,0-.17l0-.08a.08.08,0,0,1,0-.05c0-.05,0,0,0,0a1.76,1.76,0,0,0,.09-.2c.07-.13.15-.26.23-.38l.14-.21.08-.11,0-.05c0-.05-.05.06,0,0s.21-.26.32-.38a.45.45,0,1,0-.63-.64Z"/><path class="cls-4" d="M134,310.08c-.14.07-.07,0,0,0s-.13,0,0,0H134c.07,0-.13,0,0,0a.55.55,0,0,1,.17.05l-.07,0,0,0,.08.05c.09.06-.06-.06,0,0l0,0s0,0,0,0l0,0,0-.07a.11.11,0,0,0,0,.06c0,.07,0-.12,0-.05v.07c0,.11,0-.1,0,0s0,.05,0,.08,0,.1-.05.15,0,0,0,0l0,.07a1.92,1.92,0,0,1-.18.31,2.33,2.33,0,0,1-.17.26l-.08.12,0,.05,0,0a.48.48,0,0,0-.13.32.44.44,0,0,0,.13.31.46.46,0,0,0,.64,0,4.82,4.82,0,0,0,.69-1.13,1.23,1.23,0,0,0,.08-.71.91.91,0,0,0-.53-.6,1.2,1.2,0,0,0-1-.05.45.45,0,0,0,.46.78Z"/><path class="cls-6" d="M120.33,322.75s9.6-17.78,13.45-17.89,13.95-.95,12.45,1.31"/><path class="cls-6" d="M145.6,308.32s-5.95,10.18-10.44,16.52"/><path class="cls-6" d="M137.79,328.82s3.91-5.79,2.49-7.54"/><path class="cls-6" d="M124.05,344.36s-3.43,17.85-15.49,24.76"/><path class="cls-6" d="M111.42,342.22s-5.61,5.38-9.48,9.31"/><path class="cls-6" d="M133,324.57s-2.17-3.31-3.34-3.29c-2.62,0-6.24,6.39-9.5,4.36s-5.94,6.13-5.94,6.13.21,9.3,10.08,9c14-.39,13.18-9,13.18-9"/><path class="cls-6" d="M85.85,318.43c6.15-4.39,7.27-7.68,7.09-9.92-.29-3.54-3.83-4.23-7.67-11.55-1.71-3.27-2.35-5.68-3.39-5.6-1.21.1-1.89,3.53-2.26,5.67-1.65,9.32-2.47,14-1.85,20.27.71,7.09,2.06,8-13.47,33.51"/><path class="cls-6" d="M75.24,367.74S88.21,342,86,323.1"/><path class="cls-6" d="M43.69,363.43c-1.53-.91,15.72,19.89,26.59,10.73"/><path class="cls-6" d="M97.54,303.35s9.29,16.29,11.78,30.83"/><polyline class="cls-7" points="487.63 152.74 475.4 160.14 475.4 264.52 487.63 271.93"/><line class="cls-7" x1="468.42" y1="212.33" x2="391.36" y2="212.33"/><polyline class="cls-7" points="410.89 222.23 389.54 212 410.89 202.59"/><path class="cls-7" d="M171,309.19H392.12c2.63-7.39,34.52-96.78,34.52-96.78"/><polyline class="cls-7" points="190.96 319.01 169.62 308.78 190.96 299.37"/></svg>