<svg xmlns="http://www.w3.org/2000/svg" xmlns:xlink="http://www.w3.org/1999/xlink" viewBox="0 0 605.5 147.24"><defs><style>.cls-1{fill:#231815;}.cls-2{fill:#f14838;}.cls-3{fill:url(#名称未設定グラデーション_3);}.cls-4{fill:#ffc45c;}.cls-5{fill:#fff;}</style><linearGradient id="名称未設定グラデーション_3" x1="486" y1="59.75" x2="605.5" y2="59.75" gradientTransform="translate(605.5 -486) rotate(90)" gradientUnits="userSpaceOnUse"><stop offset="0.02" stop-color="#ff9f7f"/><stop offset="0.02" stop-color="#ff9e7e"/><stop offset="0.17" stop-color="#fa7f65"/><stop offset="0.33" stop-color="#f66751"/><stop offset="0.5" stop-color="#f35643"/><stop offset="0.68" stop-color="#f24b3b"/><stop offset="0.89" stop-color="#f14838"/></linearGradient></defs><g id="レイヤー_2" data-name="レイヤー 2"><g id="レイヤー_1-2" data-name="レイヤー 1"><path class="cls-1" d="M238,35.22V46.16a22.49,22.49,0,0,0-5.81-3.86,16.58,16.58,0,0,0-6.34-1.25,12.12,12.12,0,0,0-9.19,3.88A13.59,13.59,0,0,0,213,54.64a13.9,13.9,0,0,0,3.52,9.8,11.89,11.89,0,0,0,9.1,3.84,14.63,14.63,0,0,0,6-1.11c1.78-.72,3.05-1.72,6.37-4.12V73.94A25.77,25.77,0,0,1,226.1,77a22.82,22.82,0,0,1-16.46-6.36A21.24,21.24,0,0,1,203,54.77a21.49,21.49,0,0,1,6.71-16,22.65,22.65,0,0,1,16.45-6.54A24.56,24.56,0,0,1,238,35.22Z"/><path class="cls-1" d="M246.45,2.24h9.8V36.92a16.85,16.85,0,0,1,11.53-4.71,15,15,0,0,1,11.5,4.66q3.66,4.05,3.66,12.94v26h-9.8V50.72q0-5.09-1.81-7.38c-1.2-1.52-3.14-2.29-5.81-2.29q-5.13,0-7.23,3.18t-2,11.07V75.81h-9.8Z"/><path class="cls-1" d="M322.56,33.39h9.84V75.81h-9.84V71.37q-6,5.66-13,5.66A18.77,18.77,0,0,1,295,70.67q-5.7-6.48-5.7-16.2,0-9.54,5.7-15.9a18.41,18.41,0,0,1,14.29-6.36q7.4,0,13.27,6.1ZM299.32,54.47a14.74,14.74,0,0,0,3.26,9.93A10.69,10.69,0,0,0,311,68.28a11.21,11.21,0,0,0,8.79-3.75,14.46,14.46,0,0,0,3.35-9.84,14.51,14.51,0,0,0-3.35-9.85,11.1,11.1,0,0,0-8.71-3.79,10.81,10.81,0,0,0-8.44,3.84A14.1,14.1,0,0,0,299.32,54.47Z"/><path class="cls-1" d="M352,2.24V38.31q5.88-6.11,13.32-6.1a18.32,18.32,0,0,1,14.28,6.41q5.72,6.35,5.71,15.85,0,9.8-5.75,16.2a18.82,18.82,0,0,1-27.56.7v4.44h-9.79V2.24ZM375.3,54.91A14.71,14.71,0,0,0,372,45a10.63,10.63,0,0,0-8.41-3.92,11.27,11.27,0,0,0-8.79,3.79,14.06,14.06,0,0,0-3.35,9.76q0,6.18,3.3,9.89a11,11,0,0,0,8.71,3.79,10.83,10.83,0,0,0,8.45-3.79A13.94,13.94,0,0,0,375.3,54.91Z"/><path class="cls-1" d="M401.44,2.24V75.81h-9.8V2.24Z"/><path class="cls-1" d="M437.74,66.53a9.94,9.94,0,0,1-6.05,1.75,10.39,10.39,0,0,1-7.71-3,12.9,12.9,0,0,1-3.39-8.32H451l0-2.31q0-10.5-5.4-16.42t-14.8-6q-9.27,0-14.89,6.14t-5.57,16.29q0,10.15,5.74,16.29T431.34,77a25.88,25.88,0,0,0,6.14-.69,19.51,19.51,0,0,0,9.95-6.14,14,14,0,0,0,3.25-6.87h-9.84A17,17,0,0,1,437.74,66.53Zm-15.11-20.9a10,10,0,0,1,2.2-2.46,9.46,9.46,0,0,1,2.85-1.57,10.29,10.29,0,0,1,3.36-.55q7.83,0,9.88,7.84H421.24A11.41,11.41,0,0,1,422.63,45.63Z"/><polygon class="cls-1" points="418.57 100.31 409.16 118.13 393.45 85.12 373.44 125.28 353.54 85.12 337.64 120.4 321.49 85.12 310.25 104.16 297.95 85.12 286.53 104.16 276.2 85.12 265.55 100.33 120.15 100.33 168.15 10.27 107.47 10.27 100.45 20.32 150.52 20.32 100.94 110.6 269.04 110.6 276.2 102.4 286.53 119.21 297.95 102.4 310.25 119.21 320.94 102.86 337.64 140.56 353.54 106.37 373.44 147.25 393.45 105.09 409.16 134.96 423.08 110.57 451.26 110.57 460 100.31 418.57 100.31"/><path class="cls-2" d="M149.94,85a1.74,1.74,0,0,0-.43.72,9.35,9.35,0,0,1-3.85,4.57,7.1,7.1,0,0,0-1.54-1.51,7.8,7.8,0,0,1-.8,3.36,6.86,6.86,0,0,1-2.15,2.33,12.78,12.78,0,0,1-1.95,1.06,6.85,6.85,0,0,0-1.57-2.23,6.2,6.2,0,0,0,3.16-1.92c.66-.86.89-1.84.89-3.67a3.78,3.78,0,0,0-.08-1h2.59a7.65,7.65,0,0,0-.06,1.19s0,.35,0,.48l.32-.16a5.22,5.22,0,0,0,2.32-2.35h-6.58a18.14,18.14,0,0,0-2.2.1V83.56a12.77,12.77,0,0,0,2.24.13h7.23a2.37,2.37,0,0,0,1.18-.15Z"/><path class="cls-2" d="M165,84.43a4.57,4.57,0,0,0-.54.51,22.89,22.89,0,0,1-3.19,2.78V93c0,1.13,0,1.49.08,2.24h-2.67a18.67,18.67,0,0,0,.08-2.22V89.24a23.29,23.29,0,0,1-4.51,2A7.21,7.21,0,0,0,153,89.06a20.1,20.1,0,0,0,7.33-3.59,10.11,10.11,0,0,0,2.51-2.53Z"/><path class="cls-2" d="M177.77,84c-.22-.35-.33-.53-.56-.85l1.36-.44a10.3,10.3,0,0,1,1.22,2.19l-.9.32.13.29a3.26,3.26,0,0,0-.31.68,15.09,15.09,0,0,1-1.89,3.43,34.64,34.64,0,0,1,4.39,3.74l-1.93,2.06a22.63,22.63,0,0,0-4-3.93,15.41,15.41,0,0,1-5.08,3.79,7.38,7.38,0,0,0-1.54-2.18,12.48,12.48,0,0,0,7.24-6.86l-3.59.07a18.21,18.21,0,0,0-2.19.12L170.09,84a11.75,11.75,0,0,0,1.45.08h.77l4.4-.07Zm2.79-1.76a9.64,9.64,0,0,1,1.23,2.12l-1.33.47a9.23,9.23,0,0,0-1.2-2.16Z"/><path class="cls-2" d="M187.67,86.1A17.75,17.75,0,0,1,189,89.6l-2.16.64a17.26,17.26,0,0,0-1.22-3.57Zm8,.24a5.69,5.69,0,0,0-.21.84,12.44,12.44,0,0,1-1.72,4.5,10.2,10.2,0,0,1-2.9,2.8c-.48.3-.86.51-1.67.93a6.84,6.84,0,0,0-1.52-2c2.78-1.08,4.28-2.46,5.14-4.75a9.75,9.75,0,0,0,.6-2.91Zm-5-.82A13.89,13.89,0,0,1,192,88.89l-2.11.65a15.78,15.78,0,0,0-1.24-3.46Z"/><path class="cls-2" d="M211.58,84.82a5.17,5.17,0,0,0-.77.23,19.71,19.71,0,0,1-2.68.67c0,.69,0,1.57,0,1.87h2.26a17.23,17.23,0,0,0,2.18-.09v2.26a19.86,19.86,0,0,0-2.14-.07h-2.45a7,7,0,0,1-.93,2.93,7.47,7.47,0,0,1-2.29,2.21,7.86,7.86,0,0,1-1.33.7,6.46,6.46,0,0,0-1.72-2.07,6,6,0,0,0,3.12-2,3.6,3.6,0,0,0,.68-1.8h-2.72a20.34,20.34,0,0,0-2.15.07V87.5a13.92,13.92,0,0,0,2.19.09h2.9c0-.41,0-.67,0-1.16v-.38c-1.31.14-1.42.14-3.65.23a6.92,6.92,0,0,0-.7-2.1c.47,0,.72,0,.93,0a28.88,28.88,0,0,0,6-.72,8.58,8.58,0,0,0,1.74-.63Z"/><path class="cls-2" d="M219.12,86.48a7,7,0,0,0-.29-1.18l2.26-.33a6.57,6.57,0,0,0,.12,1.19l.17.83,4.07-.68a1.65,1.65,0,0,0,.81-.26l1.3,1.18a1.85,1.85,0,0,0-.34.75,8.72,8.72,0,0,1-2.76,3.92,6,6,0,0,0-1.76-1.32,6.11,6.11,0,0,0,2.07-2.19l-3,.53.81,4.25a11.79,11.79,0,0,0,.46,1.92l-2.4.41a15.3,15.3,0,0,0-.25-1.92l-.75-4.3-.89.15a10.68,10.68,0,0,0-1.37.32L217,87.63a10.48,10.48,0,0,0,1.46-.15l.83-.13Z"/><path class="cls-2" d="M243.11,85.79a1.55,1.55,0,0,0-.09.29,3.22,3.22,0,0,0-.1.35c-1.16,4.39-3.53,7.13-7.89,9.07a7.44,7.44,0,0,0-1.76-2.32c3.69-1.16,6.21-3.63,6.94-6.8h-5.93a13.5,13.5,0,0,0-2.1.08V84a12.46,12.46,0,0,0,2.14.11h5.94a9,9,0,0,0,1.06,0l0,0,0-.1a6.36,6.36,0,0,0-.57-.91l1.26-.37a8.14,8.14,0,0,1,1.17,2.21l-.58.19Zm.71-3.52a6.22,6.22,0,0,1,1.07,2.08l-1.14.4a8.51,8.51,0,0,0-1.08-2.13Z"/><path class="cls-2" d="M252.18,83.49c-.06.47-.06.47-.15,3.21a14.93,14.93,0,0,1-1,5.92,9.34,9.34,0,0,1-1.92,2.76,7.39,7.39,0,0,0-2-1.93,6.25,6.25,0,0,0,1.65-2.2c.64-1.35.87-3.06.87-6.64a10.2,10.2,0,0,0-.06-1.27Zm3.9-.22a11.11,11.11,0,0,0-.11,1.6l-.07,7.24a5.3,5.3,0,0,0,1.66-1.52,7,7,0,0,0,1.08-2.36,9.26,9.26,0,0,0,1.83,1.82,8.45,8.45,0,0,1-2.39,3.51,8.22,8.22,0,0,1-2.89,1.57,3.19,3.19,0,0,0-.68.29l-1.19-1.24a2.92,2.92,0,0,0,.16-1.16l.06-8.17v-.5a8.61,8.61,0,0,0,0-1.08Z"/><path class="cls-1" d="M103.11,31.42A6,6,0,0,1,105,27a6.37,6.37,0,0,1,4.61-1.88A6.45,6.45,0,0,1,114.29,27a6,6,0,0,1,1.92,4.48A6.07,6.07,0,0,1,114.29,36a6.29,6.29,0,0,1-4.61,1.88A6.42,6.42,0,0,1,105,36,6.12,6.12,0,0,1,103.11,31.42Z"/><path class="cls-1" d="M114.56,44.77V70.15h-9.8V44.77a3.83,3.83,0,0,1,3.84-3.84h2.12A3.83,3.83,0,0,1,114.56,44.77Z"/><path class="cls-1" d="M.55,110.15l-.55.61H15.4l23-25.57H81.84v25.57H94.61V5.64ZM51.87,71.54,81,39.21V71.54Z"/><path class="cls-1" d="M170.27,33.39V57.74q0,10.53,8.32,10.54t8.31-10.54V33.39h9.8V58a27.4,27.4,0,0,1-1.26,8.8,14.78,14.78,0,0,1-4.23,6,20.59,20.59,0,0,1-25.21,0,15.09,15.09,0,0,1-4.31-6q-1.22-3-1.21-8.8V33.39Z"/><g id="aiz_app" data-name="aiz app"><path class="cls-3" d="M582.68,119.5H508.83A22.83,22.83,0,0,1,486,96.67V22.83A22.83,22.83,0,0,1,508.83,0h73.85A22.83,22.83,0,0,1,605.5,22.83V96.67A22.83,22.83,0,0,1,582.68,119.5Z"/><g id="shadow"><path class="cls-4" d="M602.44,40.7l-7.88,18.2a.19.19,0,0,1-.14.11h0a.18.18,0,0,1-.13-.06L583.92,48.63a.16.16,0,0,1,0-.17.19.19,0,0,1,.11-.14l18.21-7.87a.19.19,0,0,1,.25.25Z"/><path class="cls-4" d="M507.67,61.43a.16.16,0,0,1-.11.13l-18.21,7.87-.08,0a.16.16,0,0,1-.13-.06.17.17,0,0,1,0-.2L497,51a.2.2,0,0,1,.14-.11.19.19,0,0,1,.17.06l10.33,10.33A.2.2,0,0,1,507.67,61.43Z"/><polygon class="cls-4" points="560.65 0 538.72 21.92 537.31 23.33 537.05 23.6 536.24 24.41 535.64 25.01 535.13 25.52 534.55 26.09 533.45 27.2 527 33.64 525.6 35.04 525.33 35.32 524.64 36 523.93 36.72 523.49 37.15 521.81 38.83 504.78 55.86 503.5 57.14 497.94 62.7 496.28 61.03 497.55 59.76 501.84 55.48 503.12 54.2 520.3 37.01 521.46 35.85 521.98 35.33 522.1 35.21 523.14 34.17 523.78 33.53 525.17 32.14 532 25.31 533.11 24.2 533.68 23.63 533.79 23.52 534.79 22.52 535.21 22.1 535.47 21.84 536.88 20.43 557.31 0 560.65 0"/><path class="cls-4" d="M594.31,50.33l-3.07,3.06L590,54.67l-7.2,7.2a1.18,1.18,0,0,1-1.57.08L538.42,27.26,535.64,25l-1.42-1.14-.43-.35-.51-.42.4.53.34.44,1.11,1.45L570.32,71.6l.55.72a1.17,1.17,0,0,1-.11,1.56,1.18,1.18,0,0,1-1.57.07L528,40.08l-4.09-3.36-1.4-1.16-.43-.35-.67-.55.55.67.35.43,1.16,1.39,36.75,44.47.57.69A1.18,1.18,0,0,1,559.25,84L532.83,66.41,530,64.55l18.34,29,.53.85a1.18,1.18,0,0,1-1.67,1.6L529.87,84.1l-3.5-2.4,14.07,20,.48.69a1.18,1.18,0,0,1-.13,1.51L536,108.69,524.61,119.5H521.2L534.3,107l4.12-4.11-1.06-1.5L520.65,77.68a1.17,1.17,0,0,1,.13-1.51,1.17,1.17,0,0,1,1.5-.14l21.57,14.82L541,86.33,525.09,61.12a1.2,1.2,0,0,1,.17-1.48,1.41,1.41,0,0,1,.36-.24,1.18,1.18,0,0,1,1.12.11l27.14,18.11-4.72-5.71L521.81,38.83l-1.15-1.4L520.3,37l-1.15-1.4-7.35-8.89a1.19,1.19,0,0,1,.08-1.59,1.09,1.09,0,0,1,.48-.29,1.16,1.16,0,0,1,1.1.21l8.91,7.33,1.41,1.15.42.36L525.6,35l37.21,30.6-5.24-6.86L533.45,27.2l-1.11-1.45-.34-.44-1.1-1.45-5.5-7.2a1.17,1.17,0,0,1,.11-1.56,1.34,1.34,0,0,1,.44-.27,1.2,1.2,0,0,1,1.13.2l7,5.66,1.41,1.15.43.35,1.41,1.14,44.54,36.12L588.3,53l4.35-4.35.38.39Z"/></g><g id="white"><path class="cls-5" d="M594.31,47.77,593,49.05,590,52.11l-1.28,1.28-5.92,5.92a1.17,1.17,0,0,1-1.57.08L537.05,23.6l-1.41-1.15-.43-.35L533.8,21l-.52-.42.4.53,1.11,1.45.34.44,1.11,1.45,2.18,2.85,32.45,42.5a1.18,1.18,0,0,1-.11,1.57,1.34,1.34,0,0,1-.44.27,1.17,1.17,0,0,1-1.13-.21L525.33,35.32l-1.4-1.16-.43-.35-1.4-1.15-.67-.55.55.67,1.16,1.39.35.43,1.15,1.4L528,40.08l32.79,39.67a1.17,1.17,0,0,1,0,1.54,1.06,1.06,0,0,1-.54.33,1.13,1.13,0,0,1-1-.13L530,62l2.79,4.42,16.08,25.47a1.18,1.18,0,0,1-.18,1.48,1,1,0,0,1-.35.22,1.19,1.19,0,0,1-1.14-.1L526.37,79.14l3.5,5,11,15.68a1.2,1.2,0,0,1-.13,1.52l-.35.35L536,106.13l-14,13.37h-3.42l15.79-15,4.12-4.12L521.19,75.9l-.54-.77a1.17,1.17,0,0,1,.13-1.51,1.16,1.16,0,0,1,1.5-.14L541,86.33l2.85,2L525.62,59.4l-.53-.84A1.18,1.18,0,0,1,526.74,57l22.42,15,4.72,3.15L523,37.67l-1.15-1.4-.36-.42-1.15-1.4-7.95-9.61-.56-.68a1.18,1.18,0,0,1,1.66-1.66L523.77,31l1.4,1.16.43.35,1.4,1.15,30.57,25.14,5.24,4.31-28.26-37-1.1-1.45-.34-.44L532,22.75l-6-7.92-.55-.72a1.17,1.17,0,0,1,.11-1.56,1.18,1.18,0,0,1,1.57-.07l8.39,6.8,1.41,1.15.43.35,1.41,1.14,43.13,35L587,51.73l1.28-1.28,4.35-4.35Z"/><polygon class="cls-5" points="558.09 0 537.31 20.78 535.9 22.19 535.64 22.45 534.22 23.87 534.02 24.07 533.45 24.64 532.34 25.75 525.6 32.49 523.49 34.6 522.53 35.56 522.33 35.76 521.82 36.27 520.66 37.43 503.51 54.59 502.23 55.87 497.94 60.15 497.55 59.76 496.28 58.48 500.56 54.2 501.84 52.92 519.15 35.61 520.31 34.45 522.1 32.66 522.37 32.38 523.77 30.98 530.9 23.86 532 22.75 533.68 21.07 533.8 20.96 534.06 20.69 535.47 19.28 554.75 0 558.09 0"/><path class="cls-5" d="M602.44,38.14l-7.88,18.21a.22.22,0,0,1-.14.11h0a.18.18,0,0,1-.13-.06L583.92,46.07a.15.15,0,0,1,0-.17.16.16,0,0,1,.11-.13l18.21-7.87a.19.19,0,0,1,.25.24Z"/><path class="cls-5" d="M507.67,58.87a.19.19,0,0,1-.11.14l-18.21,7.87h-.08a.15.15,0,0,1-.13,0,.19.19,0,0,1,0-.21L497,48.43a.18.18,0,0,1,.14-.11.22.22,0,0,1,.17,0L507.62,58.7A.22.22,0,0,1,507.67,58.87Z"/></g></g></g></g></svg>