<svg xmlns="http://www.w3.org/2000/svg" viewBox="0 0 200 227.59"><defs><style>.cls-1{fill:gray;}</style></defs><g id="w"><path class="cls-1" d="M81.8,106.42v5.63a1.5,1.5,0,0,0,3,0v-5.63a1.5,1.5,0,0,0-3,0Z"/><path class="cls-1" d="M112.18,107.05l0,3.83v.55a1.5,1.5,0,0,0,3,0l0-3.83v-.55a1.5,1.5,0,0,0-3,0Z"/><path class="cls-1" d="M110.81,92.92a3.74,3.74,0,0,1,.69-.42l.21-.1c.16-.09-.33.13-.09,0s.32-.13.49-.18a13.5,13.5,0,0,1,2.09-.49c.14,0,.37,0,0,0a1.79,1.79,0,0,0,.23,0l.51,0c.34,0,.69,0,1,0l.43,0,.18,0c-.46,0-.26,0-.13,0l.36.08.16.06s-.4-.19-.18-.07a1.5,1.5,0,0,0,1.51-2.59c-1.4-.75-3.18-.55-4.69-.34a12.76,12.76,0,0,0-2.28.52,6.83,6.83,0,0,0-2,1,1.7,1.7,0,0,0-.69.89,1.57,1.57,0,0,0,.16,1.16,1.51,1.51,0,0,0,2,.54Z"/><path class="cls-1" d="M80.11,90.48c-.39.32,0,0,.13,0s0,0-.07,0,.2-.07.23-.08l.47-.13.27,0c.25,0,0,0-.07,0a3,3,0,0,0,.59-.06h.61q.6,0,1.2.06l.27,0,.21,0-.2,0a1.86,1.86,0,0,1,.61.1,10.08,10.08,0,0,1,1.09.24c.32.08.62.18.93.29s.19.16-.09,0l.18.08.3.17a1.51,1.51,0,0,0,2-.54,1.53,1.53,0,0,0-.54-2,11.31,11.31,0,0,0-4.91-1.29A7.41,7.41,0,0,0,78,88.36a1.51,1.51,0,0,0,0,2.12,1.54,1.54,0,0,0,2.12,0Z"/><path class="cls-1" d="M97.39,158.63a35.51,35.51,0,0,0,20.68-9.73,41.27,41.27,0,0,0,10.74-19.39,52.51,52.51,0,0,0-9.92-45.3,48.58,48.58,0,0,0-21.52-15c-6.93-2.46-14.5-1.88-21.39.42C60.11,75,46.67,88.24,40.4,103.64a43.39,43.39,0,0,0-2.68,24.76c1.9,9.64,7.59,18.06,14.83,24.55a73,73,0,0,0,6.94,5.45L59,156.35c-2.81,5.32-5.18,10.88-7.48,16.44-2.65,6.4-5.15,12.87-7.35,19.44-1,2.91-1.91,5.84-2.62,8.82-.45,1.88,2.45,2.68,2.89.8a145.47,145.47,0,0,1,5.45-16.79c2.4-6.42,5-12.78,7.78-19,1.24-2.76,2.51-5.5,3.92-8.17a1.53,1.53,0,0,0-.53-2.05c-8.11-5.64-15.37-13.13-18.82-22.55a38.45,38.45,0,0,1-.74-23.46c4.22-15.25,16.17-28.51,30.36-35.25,6.1-2.9,13.14-4.68,19.92-3.66a35.2,35.2,0,0,1,11,3.94A44.86,44.86,0,0,1,112.78,82c11,10.5,16.09,26.34,14.16,41.34-1.78,13.92-10.18,27.05-24.13,31.14a34.58,34.58,0,0,1-5.42,1.14c-1.89.23-1.91,3.23,0,3Z"/><path class="cls-1" d="M90.29,142a9.27,9.27,0,0,0,2.53,1.23,17.61,17.61,0,0,0,3.8.87c2.6.33,5.55,0,7.47-2,1.35-1.39-.77-3.51-2.12-2.13a3.83,3.83,0,0,1-.29.28c-.23.23.15-.08-.1.08s-.45.27-.68.4.25-.07-.13.05l-.38.13c-.27.08-.54.13-.8.19s.2,0-.16,0l-.42,0c-.27,0-.53,0-.79,0s-.59,0-.88,0l-.43,0-.22,0c.14,0,.15,0,0,0a15.94,15.94,0,0,1-3.11-.79l-.34-.12c-.08,0-.41-.18-.07,0-.19-.09-.38-.17-.56-.27a5.08,5.08,0,0,1-.84-.51,1.51,1.51,0,0,0-2,.54,1.53,1.53,0,0,0,.53,2.05Z"/><path class="cls-1" d="M140.69,119.59c1.2.25,2.4.47,3.59.76.73.17,1.46.36,2.17.6l.49.17c.1,0,.57.25.2.07a7.54,7.54,0,0,1,.75.38.62.62,0,0,0,.17.11c.15.08-.21-.23-.13-.09s.34.46,0,0c.18.26-.1-.31,0-.11s0-.4,0-.06a1,1,0,0,0,0,.17c0,.16.09-.36,0-.2s-.05.23-.08.33l-.06.16c-.06.23.06-.11.06-.12a1.45,1.45,0,0,1-.21.41,8.24,8.24,0,0,1-.5.8l-.13.18c.18-.26.07-.09,0,0s-.25.31-.39.46a12.62,12.62,0,0,1-1.73,1.62c.19-.15,0,0,0,0l-.34.25-.6.39a12,12,0,0,1-1.28.68s-.4.18-.22.11l-.3.11-.69.23q-.36.1-.72.18l-.28.06-.22,0c.15,0,.14,0,0,0a1.54,1.54,0,0,0-1.5,1.5,1.51,1.51,0,0,0,1.5,1.5A13.77,13.77,0,0,0,150,124c.72-1.16,1.3-2.74.49-4s-2.77-1.81-4.18-2.21c-1.59-.44-3.21-.73-4.83-1.07a1.52,1.52,0,0,0-1.84,1,1.51,1.51,0,0,0,1.05,1.84Z"/><path class="cls-1" d="M157.9,123.35a21.93,21.93,0,0,0-4,3.73,48.42,48.42,0,0,0-3.55,4.4,5.93,5.93,0,0,0-.85,1.49,1.72,1.72,0,0,0,.93,2.08,7.39,7.39,0,0,0,2.27.5c.81.1,1.63.15,2.45.18a26.89,26.89,0,0,0,5.38-.18,1.51,1.51,0,0,0,1-1.85,1.55,1.55,0,0,0-1.84-1c-.4.07.38,0,0,0l-.4,0-1,.05c-.77,0-1.54,0-2.31,0s-1.59,0-2.39-.1l-1-.1c-.27,0-.1-.11.07,0a.56.56,0,0,0-.23,0l-.4-.08-.33-.08c-.34-.09.19.1.11,0l-.1,0a1.08,1.08,0,0,1,.45.45,1.29,1.29,0,0,1,.15.86c0,.29,0,.21,0,.12s-.22.42,0,.14l.12-.2c.13-.22.28-.44.43-.65s.36-.5.54-.75c.07-.09.45-.59.18-.24l.42-.53c.56-.7,1.13-1.39,1.72-2.06s1.35-1.48,2.06-2.17c.31-.3.63-.59.95-.87l.18-.15c.09-.08.37-.37,0,0a3.06,3.06,0,0,1,.47-.33,1.5,1.5,0,1,0-1.52-2.59Z"/><path class="cls-1" d="M160.47,131.25a48.3,48.3,0,0,0,.16,6.91,1.5,1.5,0,0,0,3,0,48.3,48.3,0,0,1-.16-6.91,1.51,1.51,0,0,0-1.5-1.5,1.54,1.54,0,0,0-1.5,1.5Z"/><path class="cls-1" d="M156.09,150.34a16.71,16.71,0,0,1,2.23.15h.06l.3.05.63.11c.44.09.87.19,1.31.3s.78.22,1.17.35l.55.21c.23.08-.18-.09,0,0l.25.11a8.29,8.29,0,0,1,.88.49c.29.19-.09-.12.14.11.08.08.39.43.13.09l-.2-.75c0-.36,0,0,0,.09s-.06.25-.09.37l-.12.37c-.11.3.1-.18-.06.12s-.23.44-.36.66l-.23.34c-.05.08-.19.26-.06.1a12.74,12.74,0,0,1-2.43,2.29,19.19,19.19,0,0,1-3.13,1.82l-.35.16c-.31.14.1,0-.19.08l-.81.31a15.39,15.39,0,0,1-1.51.44,1.5,1.5,0,1,0,.8,2.89,18.45,18.45,0,0,0,9.31-5.37,9.4,9.4,0,0,0,1.55-2.2,4.65,4.65,0,0,0,.65-2.87c-.23-.84-1.2-1.49-1.91-1.89a12.74,12.74,0,0,0-2.51-1,20.69,20.69,0,0,0-6-.92,1.5,1.5,0,0,0,0,3Z"/><path class="cls-1" d="M172.82,154.64a15.53,15.53,0,0,0-3.49,2.36,30.22,30.22,0,0,0-3.1,2.89c-.79.85-2,2.12-1.31,3.38a2.28,2.28,0,0,0,1.61.95,19.53,19.53,0,0,0,2.15.31,23.09,23.09,0,0,0,4.7.16,1.5,1.5,0,0,0,0-3,22,22,0,0,1-3.81-.07l-1-.1-.41-.05c-.31,0,.38.06.09,0l-.3,0-.68-.13-.24-.06-.13,0c-.26-.07.36.18.21.09l-.05,0a2.15,2.15,0,0,1,.47.48,1.71,1.71,0,0,1,.19.69c0,.53-.08.46,0,.32s-.22.4-.09.21l.14-.22c0-.07.09-.12.13-.19s-.26.33-.11.14l.11-.12c.16-.2.33-.39.51-.58a30.81,30.81,0,0,1,2.82-2.66l.42-.34.21-.17c.08-.06.43-.3,0,0,.3-.2.58-.44.89-.65a9,9,0,0,1,1.59-.92,1.52,1.52,0,0,0,.54-2.06,1.54,1.54,0,0,0-2.05-.53Z"/><path class="cls-1" d="M174.4,161a21,21,0,0,0-.32,6.23,1.63,1.63,0,0,0,.44,1.06,1.5,1.5,0,0,0,2.56-1.06,19.71,19.71,0,0,1-.09-2.87c0-.47.06-.94.11-1.41,0-.07,0-.45,0,0a1.86,1.86,0,0,1,0-.34c0-.26.08-.52.13-.77a1.5,1.5,0,1,0-2.89-.8Z"/><path class="cls-1" d="M123.2,68a13.82,13.82,0,0,1,4.45,7.32,17,17,0,0,1,.52,3.82,12.25,12.25,0,0,1-.31,3.26c-.45,1.88,2.44,2.68,2.89.8,1.45-6-.64-13.31-5.42-17.32a1.55,1.55,0,0,0-2.13,0,1.52,1.52,0,0,0,0,2.12Z"/><path class="cls-1" d="M135.53,74.3c0,.18.08.36.11.54s0,.19,0,.28q0-.24,0,0c0,.38.06.76.06,1.15s0,.78-.05,1.16c0,.19,0,.39-.07.58,0-.31,0,.26-.05.32a14.42,14.42,0,0,1-.55,2.15c-.05.17-.11.33-.17.5a2.44,2.44,0,0,0-.1.24c.07-.17.07-.17,0,0s-.27.57-.42.84a1.5,1.5,0,0,0,2.59,1.52,14.76,14.76,0,0,0,1.49-10.09,1.51,1.51,0,0,0-1.85-1,1.53,1.53,0,0,0-1,1.85Z"/><path class="cls-1" d="M99.7,118.14l.13,3.79a1.56,1.56,0,0,0,.44,1.06,1.54,1.54,0,0,0,1.06.44,1.52,1.52,0,0,0,1.5-1.5l-.13-3.79a1.63,1.63,0,0,0-.44-1.06,1.56,1.56,0,0,0-1.06-.44,1.52,1.52,0,0,0-1.5,1.5Z"/></g></svg>