<svg xmlns="http://www.w3.org/2000/svg" viewBox="0 0 460 145"><defs><style>.cls-1{fill:#231815;}.cls-2{fill:#f15a24;}</style></defs><g id="レイヤー_2" data-name="レイヤー 2"><g id="レイヤー_1-2" data-name="レイヤー 1"><path class="cls-1" d="M238,33v11a22.49,22.49,0,0,0-5.81-3.86,16.58,16.58,0,0,0-6.34-1.25,12.09,12.09,0,0,0-9.19,3.88A13.57,13.57,0,0,0,213,52.4a13.91,13.91,0,0,0,3.52,9.8,11.92,11.92,0,0,0,9.1,3.83,14.79,14.79,0,0,0,6-1.1c1.78-.72,3.05-1.73,6.37-4.13V71.69a25.66,25.66,0,0,1-11.93,3.1,22.82,22.82,0,0,1-16.46-6.36A21.24,21.24,0,0,1,203,52.53a21.53,21.53,0,0,1,6.71-16A22.64,22.64,0,0,1,226.18,30,24.66,24.66,0,0,1,238,33Z"/><path class="cls-1" d="M246.45,0h9.8V34.67A16.88,16.88,0,0,1,267.78,30q7.19,0,11.5,4.66,3.66,4,3.66,12.93v26h-9.8V48.48q0-5.1-1.81-7.38t-5.81-2.29q-5.13,0-7.23,3.18t-2,11.06V73.57h-9.8Z"/><path class="cls-1" d="M322.56,31.14h9.84V73.57h-9.84V69.12q-6,5.67-13,5.67A18.77,18.77,0,0,1,295,68.43q-5.7-6.5-5.7-16.21,0-9.53,5.7-15.89A18.41,18.41,0,0,1,309.29,30q7.4,0,13.27,6.1ZM299.32,52.22a14.79,14.79,0,0,0,3.26,9.94A10.71,10.71,0,0,0,311,66a11.24,11.24,0,0,0,8.79-3.74,14.51,14.51,0,0,0,3.35-9.85,14.46,14.46,0,0,0-3.35-9.84,11.07,11.07,0,0,0-8.71-3.79,10.83,10.83,0,0,0-8.44,3.83A14.12,14.12,0,0,0,299.32,52.22Z"/><path class="cls-1" d="M352,0V36.07q5.88-6.1,13.32-6.1a18.31,18.31,0,0,1,14.28,6.4,22.83,22.83,0,0,1,5.71,15.85q0,9.81-5.75,16.21a18.51,18.51,0,0,1-14.41,6.36A18.3,18.3,0,0,1,352,69.12v4.45h-9.79V0ZM375.3,52.66a14.66,14.66,0,0,0-3.3-9.93,10.63,10.63,0,0,0-8.41-3.92,11.23,11.23,0,0,0-8.79,3.79,14.06,14.06,0,0,0-3.35,9.76q0,6.18,3.3,9.88A11,11,0,0,0,363.46,66a10.79,10.79,0,0,0,8.45-3.79A13.92,13.92,0,0,0,375.3,52.66Z"/><path class="cls-1" d="M401.44,0V73.57h-9.8V0Z"/><path class="cls-1" d="M437.74,64.29A10,10,0,0,1,431.69,66,10.35,10.35,0,0,1,424,63a12.88,12.88,0,0,1-3.39-8.32H451l0-2.3q0-10.5-5.4-16.43t-14.8-6q-9.27,0-14.89,6.14T410.36,52.4q0,10.14,5.74,16.29t15.24,6.1a25.87,25.87,0,0,0,6.14-.7A19.51,19.51,0,0,0,447.43,68a14,14,0,0,0,3.25-6.87h-9.84A17.12,17.12,0,0,1,437.74,64.29ZM422.63,43.38a9.75,9.75,0,0,1,5.05-4,10.29,10.29,0,0,1,3.36-.54q7.83,0,9.88,7.84H421.24A11.48,11.48,0,0,1,422.63,43.38Z"/><polygon class="cls-1" points="418.57 98.06 409.16 115.88 393.45 82.87 373.44 123.03 353.54 82.87 337.64 118.15 321.49 82.87 310.25 101.91 297.95 82.87 286.53 101.91 276.2 82.87 265.55 98.09 120.15 98.09 168.15 8.02 107.47 8.02 100.45 18.08 150.52 18.08 100.94 108.35 269.04 108.35 276.2 100.16 286.53 116.97 297.95 100.16 310.25 116.97 320.94 100.61 337.64 138.32 353.54 104.12 373.44 145 393.45 102.84 409.16 132.71 423.08 108.33 451.26 108.33 460 98.06 418.57 98.06"/><path class="cls-2" d="M149.94,82.73a1.77,1.77,0,0,0-.43.71A9.31,9.31,0,0,1,145.66,88a7.05,7.05,0,0,0-1.54-1.5,7.79,7.79,0,0,1-.8,3.35,6.88,6.88,0,0,1-2.15,2.34,13.72,13.72,0,0,1-1.95,1.06A7,7,0,0,0,137.65,91a6.13,6.13,0,0,0,3.16-1.92c.66-.85.89-1.83.89-3.67a3.69,3.69,0,0,0-.08-1h2.59a7.55,7.55,0,0,0-.06,1.19s0,.34,0,.48a1.26,1.26,0,0,1,.32-.17,5.25,5.25,0,0,0,2.32-2.34h-6.58a18.51,18.51,0,0,0-2.2.09V81.32a14.09,14.09,0,0,0,2.24.12h7.23a2.26,2.26,0,0,0,1.18-.15Z"/><path class="cls-2" d="M165,82.19a3.88,3.88,0,0,0-.54.51,22.79,22.79,0,0,1-3.19,2.77v5.32a22.08,22.08,0,0,0,.08,2.23h-2.67a18.58,18.58,0,0,0,.08-2.22V87a23.29,23.29,0,0,1-4.51,2A7.32,7.32,0,0,0,153,86.81a19.94,19.94,0,0,0,7.33-3.59,9.94,9.94,0,0,0,2.51-2.52Z"/><path class="cls-2" d="M177.77,81.76c-.22-.36-.33-.54-.56-.86l1.36-.44a10.38,10.38,0,0,1,1.22,2.2l-.9.31.13.29a3.88,3.88,0,0,0-.31.68,15.18,15.18,0,0,1-1.89,3.44,33.06,33.06,0,0,1,4.39,3.74l-1.93,2a23.34,23.34,0,0,0-4-3.93,15.3,15.3,0,0,1-5.08,3.8,7.38,7.38,0,0,0-1.54-2.18A12.48,12.48,0,0,0,175.94,84l-3.59.06a17.48,17.48,0,0,0-2.19.13l-.07-2.44a14.09,14.09,0,0,0,1.45.08h.77l4.4-.07ZM180.56,80a9.5,9.5,0,0,1,1.23,2.13l-1.33.47a9.52,9.52,0,0,0-1.2-2.17Z"/><path class="cls-2" d="M187.67,83.86A17.65,17.65,0,0,1,189,87.35l-2.16.65a17.35,17.35,0,0,0-1.22-3.58Zm8,.23a6.07,6.07,0,0,0-.21.84,12.37,12.37,0,0,1-1.72,4.5,10.1,10.1,0,0,1-2.9,2.81,18.93,18.93,0,0,1-1.67.92,7,7,0,0,0-1.52-2c2.78-1.07,4.28-2.45,5.14-4.74a9.81,9.81,0,0,0,.6-2.92Zm-5-.81A13.74,13.74,0,0,1,192,86.65l-2.11.64a16,16,0,0,0-1.24-3.46Z"/><path class="cls-2" d="M211.58,82.57a7,7,0,0,0-.77.24,21.45,21.45,0,0,1-2.68.66c0,.69,0,1.57,0,1.88h2.26a16.83,16.83,0,0,0,2.18-.1v2.27a17.46,17.46,0,0,0-2.14-.07h-2.45a6.93,6.93,0,0,1-.93,2.92,7.47,7.47,0,0,1-2.29,2.21,7.8,7.8,0,0,1-1.33.71,6.5,6.5,0,0,0-1.72-2.08,5.89,5.89,0,0,0,3.12-2,3.6,3.6,0,0,0,.68-1.79h-2.72a17.86,17.86,0,0,0-2.15.07V85.25a13.54,13.54,0,0,0,2.19.1h2.9c0-.42,0-.68,0-1.16V83.8c-1.31.14-1.42.14-3.65.24a6.83,6.83,0,0,0-.7-2.1c.47,0,.72,0,.93,0a28.88,28.88,0,0,0,6-.72,8,8,0,0,0,1.74-.64Z"/><path class="cls-2" d="M219.12,84.23a6.83,6.83,0,0,0-.29-1.17l2.26-.33a6.47,6.47,0,0,0,.12,1.18l.17.83,4.07-.68a1.56,1.56,0,0,0,.81-.26l1.3,1.19a1.78,1.78,0,0,0-.34.74,8.75,8.75,0,0,1-2.76,3.93,6.24,6.24,0,0,0-1.76-1.33,6.09,6.09,0,0,0,2.07-2.18l-3,.52.81,4.25a11.79,11.79,0,0,0,.46,1.92l-2.4.42a15.08,15.08,0,0,0-.25-1.92L219.61,87l-.89.15a10.68,10.68,0,0,0-1.37.32L217,85.39c.51,0,.84-.06,1.46-.15l.83-.14Z"/><path class="cls-2" d="M243.11,83.54a1.81,1.81,0,0,0-.09.29s-.05.17-.1.36c-1.16,4.39-3.53,7.12-7.89,9.07a7.32,7.32,0,0,0-1.76-2.32c3.69-1.16,6.21-3.63,6.94-6.81h-5.93a13,13,0,0,0-2.1.09V81.75a12.46,12.46,0,0,0,2.14.11h5.94a8.49,8.49,0,0,0,1.06,0l0,0,0-.09a5.85,5.85,0,0,0-.57-.91l1.26-.38a8.29,8.29,0,0,1,1.17,2.21l-.58.19Zm.71-3.52a6.32,6.32,0,0,1,1.07,2.08l-1.14.4a8.44,8.44,0,0,0-1.08-2.12Z"/><path class="cls-2" d="M252.18,81.25c-.06.47-.06.47-.15,3.2a14.86,14.86,0,0,1-1,5.92,9.21,9.21,0,0,1-1.92,2.76,7.55,7.55,0,0,0-2-1.93A6.13,6.13,0,0,0,248.76,89c.64-1.36.87-3.07.87-6.64a10.2,10.2,0,0,0-.06-1.27Zm3.9-.22a10.89,10.89,0,0,0-.11,1.6l-.07,7.23a5.3,5.3,0,0,0,1.66-1.52A6.92,6.92,0,0,0,258.64,86a9.06,9.06,0,0,0,1.83,1.83,8.48,8.48,0,0,1-2.39,3.5,8.23,8.23,0,0,1-2.89,1.58,2.82,2.82,0,0,0-.68.28l-1.19-1.24a2.89,2.89,0,0,0,.16-1.16l.06-8.17v-.5a8.44,8.44,0,0,0,0-1.07Z"/><path class="cls-1" d="M103.11,29.18A6,6,0,0,1,105,24.73a6.36,6.36,0,0,1,4.61-1.87,6.44,6.44,0,0,1,4.65,1.87,6,6,0,0,1,1.92,4.49,6.1,6.1,0,0,1-1.92,4.53,6.28,6.28,0,0,1-4.61,1.87A6.41,6.41,0,0,1,105,33.75,6.14,6.14,0,0,1,103.11,29.18Z"/><path class="cls-1" d="M114.56,42.52V67.9h-9.8V42.52a3.84,3.84,0,0,1,3.84-3.84h2.12A3.84,3.84,0,0,1,114.56,42.52Z"/><path class="cls-1" d="M.55,107.9l-.55.61H15.4l23-25.57H81.84v25.57H94.61V3.4ZM51.87,69.3,81,37V69.3Z"/><path class="cls-1" d="M170.27,31.14V55.49q0,10.54,8.32,10.54t8.31-10.54V31.14h9.8V55.71a27.4,27.4,0,0,1-1.26,8.8,14.91,14.91,0,0,1-4.23,6,20.59,20.59,0,0,1-25.21,0,15.23,15.23,0,0,1-4.31-6q-1.22-3-1.21-8.8V31.14Z"/></g></g></svg>