<svg xmlns="http://www.w3.org/2000/svg" viewBox="0 0 725 388.71"><defs><style>.cls-1,.cls-10,.cls-2,.cls-3,.cls-4,.cls-5,.cls-6,.cls-7,.cls-8,.cls-9{fill:none;stroke-miterlimit:10;}.cls-1,.cls-10,.cls-2,.cls-3,.cls-4,.cls-9{stroke:#000;}.cls-1,.cls-3,.cls-5{stroke-width:2px;}.cls-2{stroke-width:6px;}.cls-3,.cls-4{stroke-linecap:round;}.cls-4,.cls-7{stroke-width:1.5px;}.cls-5{stroke:gray;}.cls-6,.cls-7{stroke:#040000;}.cls-6{stroke-width:1.54px;}.cls-8{stroke:red;stroke-width:7.68px;}.cls-9{stroke-width:1.38px;}.cls-10{stroke-width:1.31px;}</style></defs><g id="aiz_one_way"><path d="M561.54,77.91l.22,1.61-3.6,1.13V89c0,2-.85,2.3-4.39,2.24a8.44,8.44,0,0,0-.58-1.74c.77,0,1.44.06,2,.06,1.14,0,1.27,0,1.27-.56V81.2l-2.84.89a.58.58,0,0,1-.39.44l-.66-2.16,3.89-1V73.08H552.8V71.34h3.62V65.56l2.27.14c0,.22-.17.33-.53.39v5.25h3.38v1.74h-3.38v5.77Zm10.33.56A23.38,23.38,0,0,0,573,82.94a39.49,39.49,0,0,0,3.59-3.34L578.12,81a.67.67,0,0,1-.58.11,36.28,36.28,0,0,1-4,3.2,10,10,0,0,0,5.14,5.39,7.15,7.15,0,0,0-1.22,1.52c-4.25-2.1-6.27-6.63-7.21-12.76h-2.32v9.92l4.56-.81.11,1.47c-2.76.58-5.53,1.13-7.38,1.46a.41.41,0,0,1-.36.39l-.69-2c.64-.08,1.33-.17,2.07-.31V78.47H564.3c-.31,4.28-1.13,9.11-3.32,12.76a4.9,4.9,0,0,0-1.43-1c2.9-4.86,3.15-11.63,3.15-16.39v-7h15.17v1.66H564.44v5.36c0,.92,0,1.94-.06,3h14v1.66Zm4.89-5.12h-11v-1.6h11Z"/><path d="M604.65,72.16l1,.06a4,4,0,0,0,0,.61c-.33,12.16-.64,16-1.52,17.24-.75,1-1.63,1-2.88,1-.66,0-1.46,0-2.23,0a5,5,0,0,0-.53-1.77c1.41.11,2.63.11,3.23.11a.87.87,0,0,0,.83-.41c.67-.83,1-4.59,1.3-15.06h-4.12c0,5.69-.6,12.51-5.94,17.41a9.16,9.16,0,0,0-1.43-1.16,14.43,14.43,0,0,0,1.43-1.5c-4.56.61-9.34,1.16-12.35,1.52a.59.59,0,0,1-.39.39l-.66-2c1.66-.14,3.81-.36,6.16-.61V85.35h-5.36V83.88h5.36V82H581.3V73.82h5.19v-2h-6.16V70.4h6.16v-2c-1.79.2-3.67.34-5.39.42a9,9,0,0,0-.47-1.38,73.11,73.11,0,0,0,11.86-1.55l1.38,1.41s-.14,0-.25,0a1.37,1.37,0,0,1-.27,0,38.89,38.89,0,0,1-4.7.83.76.76,0,0,1-.44.16V70.4h6.19v1.46h-6.19v2h5.47V82h-5.47v1.88h5.66v1.47h-5.66v2.43c1.88-.2,3.84-.39,5.74-.61l0,1.19c3.54-4.42,3.93-9.92,3.93-14.45h-3.49V72.16h3.49V65.78l2.29.17c0,.19-.17.3-.53.36v5.85Zm-21.75,3v2h3.59v-2Zm0,5.47h3.59v-2.1H582.9ZM592,75.18h-3.81v2H592Zm0,5.47v-2.1h-3.81v2.1Z"/></g><g id="aizuchi_able"><polyline class="cls-1" points="40.73 225.41 48.13 213.18 156.52 213.18 163.92 225.41"/><polyline class="cls-1" points="219.31 103.75 226.72 91.51 331.1 91.51 338.5 103.75"/><line class="cls-1" x1="471.14" y1="60.43" x2="499.55" y2="60.43"/><line class="cls-1" x1="416.5" y1="60.43" x2="459.59" y2="60.43"/><polyline class="cls-1" points="99.05 200.66 155.69 60.43 404.52 60.43"/><line class="cls-1" x1="281.91" y1="84.93" x2="291.42" y2="60.43"/><polyline class="cls-1" points="480.5 70.25 501.85 60.02 480.5 50.61"/><line class="cls-2" x1="437.9" y1="83.18" x2="437.9" y2="67.94"/><line class="cls-2" x1="437.9" y1="203.56" x2="437.9" y2="94.56"/><line class="cls-2" x1="437.9" y1="385.75" x2="437.9" y2="220.73"/><line class="cls-2" x1="437.9" y1="28.2" x2="437.9"/><line class="cls-2" x1="437.9" y1="52.37" x2="437.9" y2="39.3"/><path d="M169.72,29.27V31.6c.84.84,3.12,3.48,3.65,4.13l-1,1.32a40.55,40.55,0,0,0-2.64-3.6V44.73h-1.56V32.65a26.61,26.61,0,0,1-3.69,7.52,8.1,8.1,0,0,0-.89-1.47A26.81,26.81,0,0,0,168,29.27h-3.84V27.74h4V22.45l2,.15c0,.17-.14.26-.46.31v4.83h3.58v1.53Zm4.68-5.35h10.9V44.54h-1.61V43.1H176v1.51H174.4Zm9.29,1.56H176v4.27h7.73ZM176,31.24v4.41h7.73V31.24Zm0,10.37h7.73V37.14H176Z"/><path d="M192.64,32.32c.65.62,2.43,2.57,2.84,3.07l-.92,1.37a29.08,29.08,0,0,0-1.92-2.66V44.73h-1.51V33.45a26.44,26.44,0,0,1-2.59,6.67,6.22,6.22,0,0,0-.84-1.37,30.24,30.24,0,0,0,3.24-9.58H188V27.69h3.09V22.45l2,.15c0,.14-.16.26-.48.31v4.78h2.86v1.48h-2.86Zm6.24.86v7.13a5,5,0,0,0,4.37,2.62c.63,0,1.44,0,2.36,0,1.65,0,3.55,0,4.77-.15a6.83,6.83,0,0,0-.45,1.51c-1.08,0-2.67.1-4.16.1-3.43,0-5.73,0-7.58-2.78-.87,1-1.73,2-2.5,2.73a.41.41,0,0,1-.19.39l-.94-1.59a33.38,33.38,0,0,0,2.93-2.83V34.6h-2.28V33.18ZM196.7,28a13.87,13.87,0,0,1,2.57,2.9l-1.13.89a14.51,14.51,0,0,0-2.52-3Zm.22-5.23a14.8,14.8,0,0,1,2.54,2.9l-1.13.89a15.15,15.15,0,0,0-2.52-3Zm5.35,17.54v1H200.8v-16h2.62a27.61,27.61,0,0,0,.82-2.91l2,.51c-.07.14-.24.21-.5.24a22.17,22.17,0,0,1-.91,2.16h3.89v6.19h-6.46v2.21h6.89V41.3h-1.47v-1Zm5-13.58h-5v3.45h5Zm.45,8.4h-5.42v3.81h5.42Z"/><path d="M233,32.75a.24.24,0,0,1-.14,0,.58.58,0,0,1-.36-.15c-1.82.61-4.49,1.59-6.48,2.45.05.55.07,1.18.07,1.88s0,1.63-.07,2.56l-1.75.1c.07-.86.12-2,.12-2.9a9.24,9.24,0,0,0,0-1c-2.71,1.32-4.92,2.92-4.92,4.36s1.66,2.07,5,2.07a54.39,54.39,0,0,0,6-.24l0,1.61c-1.42.14-3.58.19-6.05.19-4.61,0-6.65-1.11-6.65-3.55,0-2.12,2.79-4.16,6.39-6-.15-1.51-.82-2.25-1.78-2.25-1.75,0-3.58,1-5.74,3.38A36.45,36.45,0,0,1,214,38l-1.17-1.18c2.4-2.11,4.65-4.13,6-8.86l-1.35,0h-4V26.44c1.47,0,3.17,0,4.16,0l1.63,0A33.3,33.3,0,0,0,220,23l2.35.28c-.05.24-.24.39-.6.44-.17,1-.39,1.8-.6,2.66A32.93,32.93,0,0,0,229.37,25l.28,1.61a36.35,36.35,0,0,1-9,1.34A17,17,0,0,1,218.92,32h0a6.35,6.35,0,0,1,3.86-1.56c1.63,0,2.67,1.17,3,3.12,2-.92,4.56-1.9,6.48-2.64Z"/><path d="M241.75,34.19c1.34-.33,2.73-.67,4.1-1l.17,1.39c-1.42.41-2.88.82-4.27,1.2v6.91c0,2-1,2.09-4.68,2.09a8.81,8.81,0,0,0-.55-1.56c1.39,0,2.68,0,3.07,0s.53-.15.53-.56V36.21l-3.44,1a.4.4,0,0,1-.31.36l-.62-1.9c1.17-.26,2.71-.62,4.37-1V29.05H236V27.49h4.13v-5l2.11.12c0,.19-.15.29-.48.33v4.56h3.77v1.56h-3.77Zm16.58-9.55v1.58h-4.56v16.3c0,1.2-.31,1.7-1.15,2a18,18,0,0,1-4.68.29,6.79,6.79,0,0,0-.6-1.64c1.1,0,2.14,0,2.93,0,1.7,0,1.85,0,1.85-.67V26.22H244.8V24.64Z"/><path d="M260.56,29.2c.56-.12,1.35-.34,2.48-.7,4.24-1.37,8-2.3,10.68-2.3,4,0,7.46,2,7.46,7,0,6-5.88,8.26-14,9.07a7.64,7.64,0,0,0-.63-1.63C274,40,279.31,38,279.31,33.33c0-3.77-2.59-5.4-5.76-5.4-3.43,0-9.6,2-11.79,2.93a.65.65,0,0,1-.43.55Z"/><path d="M536.77,342.87V341.5h9v1.37Zm8.28,8.61v7.06h-5.76v1.13h-1.42v-8.19Zm-.07-6.62v1.32H537.9v-1.32Zm-7.08,4.63v-1.32H545v1.32ZM545,338.26v1.32H538v-1.32Zm-1.34,14.59h-4.32v4.32h4.32Zm15.75-6.65h-5.91v4.11h4.63v9.24h-1.6v-1.08H549v1.25h-1.54v-9.41h4.37V346.2h-5.88v-1.53h5.88v-4.18c-1.63.27-3.34.48-4.92.65a5.66,5.66,0,0,0-.48-1.34,58.16,58.16,0,0,0,10.54-2l1.34,1.39a.34.34,0,0,1-.24.07,1.1,1.1,0,0,1-.24,0,35.21,35.21,0,0,1-4.37,1v4.44h5.91ZM556.48,357V351.8H549V357Z"/><path d="M568.67,338.43c0,.29-.27.45-.75.53-.19,2.78-.43,9.14-.43,12.69s1.78,5.31,4.8,5.31,5.91-1.47,8.64-4.56a9.35,9.35,0,0,0,1.08,1.41c-2.81,3.2-6.21,4.88-9.74,4.88-4.37,0-6.6-2.52-6.6-7.06,0-3,.21-10.47.38-13.42Z"/><path d="M607,350.5v1.59H596.8v5.35c0,1.22-.36,1.7-1.23,2a19.81,19.81,0,0,1-5,.28,7.42,7.42,0,0,0-.7-1.6c1.16,0,2.26,0,3.1,0,2,0,2.21,0,2.21-.69v-5.35H585V350.5h10.11v-4.06h-8.5v-1.53h8.5V341c-2.64.31-5.43.55-8,.7a4.57,4.57,0,0,0-.44-1.4c5.81-.38,12.8-1.15,16.35-2.42l1.39,1.37a.44.44,0,0,1-.29.07,1,1,0,0,1-.21,0,42.33,42.33,0,0,1-6.67,1.41c0,.17-.17.24-.48.29v3.89h8.78v1.53H596.8v4.06Z"/><path d="M513.08,192.92c-.4,12.63-.59,25.27-.82,37.91-.11,6.3-.2,12.6-.39,18.89-.06,2-.21,3.91-.17,5.87,0,1.8.08,3.94,1,5.54s3,1.6,4.53,1.72a43.59,43.59,0,0,0,6.26,0c1.36-.09,1.37-2.21,0-2.12a49.7,49.7,0,0,1-5.18.1c-1.05-.05-3.28.1-3.89-.93-.85-1.45-.64-3.85-.62-5.46,0-2,.16-3.92.2-5.88.3-11.84.46-23.68.69-35.52.13-6.7.28-13.39.49-20.08,0-1.37-2.08-1.37-2.12,0Z"/><path d="M517.44,192.53c13.93-.09,27.9-.54,41.83-.08,8.85.3,17.7.7,26.54,1.27,1.89.12,3.79.24,5.68.42l1.06.1.61.07.59.1c.22,0,.33.11.1,0l-.49-.63a28.91,28.91,0,0,1,.35,4c.13,2.43.21,4.87.28,7.3.15,5.24.24,10.48.31,15.72,0,1.6,0,3.21,0,4.81a1.06,1.06,0,0,0,2.12,0c0-5.84-.13-11.69-.27-17.53-.08-3.46-.17-6.94-.36-10.4-.08-1.38.27-4.76-1.38-5.27a26,26,0,0,0-5.57-.59c-3.44-.25-6.89-.44-10.33-.62-7-.37-13.92-.7-20.88-.9-13.4-.39-26.83.05-40.23.13a1.06,1.06,0,0,0,0,2.12Z"/><path d="M595,245.73c-.07,4.3.69,8.72,0,13a4.42,4.42,0,0,1-.58,1.89c0,.08-.1.11-.14.11s-.28.06-.1,0-.2,0-.27,0c-1.87.16-3.75.17-5.63.2q-3.48.07-7,.07a1.07,1.07,0,0,0,0,2.13c4.19,0,8.44.09,12.61-.28a2.84,2.84,0,0,0,1.8-.59,3.85,3.85,0,0,0,1.12-1.94,22.63,22.63,0,0,0,.48-6.57c-.06-2.69-.27-5.38-.22-8.07a1.07,1.07,0,0,0-2.13,0Z"/><path d="M526.34,262.51h1.46a1.08,1.08,0,0,0,.75-.31.87.87,0,0,0,.22-.34.91.91,0,0,0,.09-.41,1.1,1.1,0,0,0-.31-.75,1.12,1.12,0,0,0-.75-.31h-1.46a1.1,1.1,0,0,0-.75.31.83.83,0,0,0-.22.34.75.75,0,0,0-.09.41,1,1,0,0,0,.31.75,1.1,1.1,0,0,0,.75.31Z"/><path d="M531.08,262.67c13.19.12,26.37.32,39.55.46,2.14,0,4.29.05,6.43.05a1.07,1.07,0,0,0,0-2.13c-11.56,0-23.12-.25-34.68-.38-3.76,0-7.53-.09-11.3-.12a1.06,1.06,0,0,0,0,2.12Z"/><path d="M541.22,260.73a16.5,16.5,0,0,0-5.57,3c-1.43,1.17-3.27,2.94-3.77,4.78-.57,2.06,1.25,3.06,3,3.11a17.56,17.56,0,0,0,6.5-1.41,30.89,30.89,0,0,1,7.07-2.16,22.61,22.61,0,0,1,7.51.52c2.48.54,4.91,1.31,7.34,2a36,36,0,0,0,7.27,1.81c2.14.18,4.57-.74,5.09-3s-1.53-3.71-3.32-4.52c-1.23-.56-2.31,1.27-1.07,1.83s3.49,1.87,1.6,3.19c-1.54,1.09-4,.1-5.67-.34-3.71-1-7.34-2.34-11.12-3.11a22.5,22.5,0,0,0-10.91.15c-3.31,1-6.54,2.94-10.08,2.92-.49,0-1,.08-1.06-.41s.5-1.11.76-1.46a13.45,13.45,0,0,1,1.9-2,13.78,13.78,0,0,1,5.07-2.82c1.3-.41.74-2.46-.56-2Z"/><path d="M558.49,276.18c4.9-.27,9.8-.15,14.7-.41,1.35-.07,1.36-2.2,0-2.12-4.9.26-9.8.14-14.7.4-1.35.08-1.36,2.2,0,2.13Z"/><path d="M556,278.79a55.85,55.85,0,0,0,4.76,4.07c1.29,1,2.53,2.06,3.84,3a7,7,0,0,0,3.84,1.2,33.66,33.66,0,0,0,5.12,0c1.36-.09,1.37-2.22,0-2.13a33.09,33.09,0,0,1-4.67,0,10.31,10.31,0,0,1-2.07-.28,4,4,0,0,1-1.32-.79,84.74,84.74,0,0,1-8-6.63c-1-1-2.48.54-1.5,1.5Z"/><path d="M503,266.8c9.14-.61,18.33,0,27.48,0a1.07,1.07,0,0,0,0-2.13c-9.15,0-18.34-.6-27.48,0-1.35.09-1.36,2.22,0,2.13Z"/><path d="M500.31,266c-.82,3.84,1.32,7.29,4.27,9.57,3.4,2.62,7.51,4.44,11.26,6.5L541,295.82c1.19.66,2.27-1.17,1.07-1.83l-23-12.59c-3.65-2-7.38-3.92-11-6-3.07-1.82-6.63-4.79-5.77-8.82.28-1.33-1.76-1.9-2.05-.57Z"/><path d="M615.51,253c-4-1.51-8.5-2.87-11.61-5.93-2.78-2.73-2.74-6.57-2.62-10.22a94.78,94.78,0,0,1,1.42-12.9,38.6,38.6,0,0,1,3.56-11.84c2.34-4.38,5.8-8.52,10.44-10.55a20.06,20.06,0,0,1,14-.51c9.41,3,13.62,12.87,14,22.1.49,12.09-5.66,23.15-13.74,31.73a1.09,1.09,0,0,0-.17,1.28c4,6.21,7.94,12.34,10.59,19.26.48,1.26,2.53.71,2-.57-2.72-7.1-6.7-13.38-10.8-19.76l-.17,1.29c7.83-8.31,14-18.87,14.37-30.52.34-9.74-3.21-21-12.48-25.6a22.61,22.61,0,0,0-14.72-1.85c-5.25,1.12-9.47,4.38-12.65,8.61a32.94,32.94,0,0,0-5.81,13.56,112.41,112.41,0,0,0-1.88,13.66c-.31,4.32-.74,9.55,2.09,13.18,3.24,4.16,8.83,5.83,13.56,7.62,1.28.49,1.83-1.56.57-2Z"/><path d="M626,281.19c-.78,2-1.59,4-2.19,6a42.34,42.34,0,0,0-1.15,5.57,1.1,1.1,0,0,0,.74,1.31,1.08,1.08,0,0,0,1.3-.75,42.68,42.68,0,0,1,1.15-5.57c.61-2,1.42-4,2.2-6a1.06,1.06,0,0,0-2-.56Z"/><path d="M629.72,279.68s-.17.07.06,0a1.56,1.56,0,0,1,.22-.09,8.79,8.79,0,0,1,1.15-.29,29.44,29.44,0,0,1,3.11-.43c2.9-.28,5.82-.37,8.73-.37a53.55,53.55,0,0,1,8.1.48,10.36,10.36,0,0,1,2.38.59,1.35,1.35,0,0,1,.33.19c-.09-.07-.09-.15,0,0a6.2,6.2,0,0,1,.35,1.59c.38,3.75-.15,7.63-.55,11.35-.15,1.35,2,1.34,2.12,0a61.47,61.47,0,0,0,.58-11.09c-.09-1.12-.19-2.58-1-3.42a4.76,4.76,0,0,0-2.29-1,39.58,39.58,0,0,0-8.35-.78,90.65,90.65,0,0,0-9.75.3,36.41,36.41,0,0,0-4.16.54,4.87,4.87,0,0,0-2.44,1c-1,.95.51,2.44,1.5,1.5Z"/><path d="M626.47,256.24c-5.22,2.87-9.36,7.42-12.6,12.36a55.34,55.34,0,0,0-7.45,17.16c-.32,1.33,1.73,1.9,2.05.57a53.21,53.21,0,0,1,7-16.33c3.08-4.77,7-9.16,12-11.93,1.19-.66.12-2.5-1.07-1.83Z"/><path d="M603.1,279.89c1,.84,1.93,1.79,2.85,2.72l.27.27a1.06,1.06,0,0,0,1.5-1.5c-.75-.77-1.51-1.52-2.29-2.25-.27-.25-.54-.5-.82-.74a1.17,1.17,0,0,0-.75-.31,1.13,1.13,0,0,0-.76.31,1.1,1.1,0,0,0-.31.75,1.08,1.08,0,0,0,.31.75Z"/><path d="M590.7,284.23a5.08,5.08,0,0,0,.93,2.44,25.41,25.41,0,0,0,2.13,2.82,32.83,32.83,0,0,0,5.25,5.09,1.09,1.09,0,0,0,1.46-.38,1.11,1.11,0,0,0-.39-1.46l-.14-.11c.09.07.09.07,0,0l-.27-.22-.57-.48c-.43-.38-.84-.76-1.25-1.16-.84-.83-1.65-1.69-2.42-2.58a21.8,21.8,0,0,1-1.85-2.42c-.22-.34-.42-.7-.61-1.07s0,.08,0-.08l-.07-.18a1.89,1.89,0,0,0-.05-.23c-.07-.17,0,.29,0,0a1.06,1.06,0,0,0-2.12,0Z"/><path d="M589.81,269a6.58,6.58,0,0,0-3.74.36c-1.41.46-2.77,1.07-4.14,1.64-1.16.48-2.33.83-3.51,1.22a8.11,8.11,0,0,0-3.07,2,3.85,3.85,0,0,0-1.32,3.54c.31,1.18,1.06,1.44,2.16,1.49s2.17,0,3.25-.06c.5,0,1,0,1.5,0l.5,0c.17,0,0-.09,0,0l.1,0a1,1,0,0,1-.39-.24c0,.16.59.91.68,1.05.26.39.52.77.8,1.15a14.83,14.83,0,0,0,1.66,2,8.38,8.38,0,0,0,4.65,2.27,1.09,1.09,0,0,0,1.3-.74,1.07,1.07,0,0,0-.74-1.31,6.42,6.42,0,0,1-3.57-1.6,15.78,15.78,0,0,1-2.49-3.15c-.3-.45-.55-1.05-1-1.32a2.79,2.79,0,0,0-1.15-.24c-.93-.05-1.86,0-2.79,0a25.44,25.44,0,0,1-2.62,0c-.15,0-.15.06,0,0l-.12,0c-.11-.1.45.23.39.27s0-.15,0-.16a2.23,2.23,0,0,1,.41-1.07c1.35-1.79,3.35-2,5.3-2.77,1.39-.56,2.75-1.18,4.15-1.69,1-.36,2.37-.87,3.3-.6a1.06,1.06,0,0,0,.57-2.05Z"/><path d="M592.2,273.17a7.65,7.65,0,0,1,1.17-.06l.58,0a2.54,2.54,0,0,1,.42.07,6.73,6.73,0,0,1,2,.72,6.59,6.59,0,0,1,1.71,1.26,6.39,6.39,0,0,1,1.3,1.83,1.08,1.08,0,0,0,1.45.38,1.09,1.09,0,0,0,.38-1.46,9.13,9.13,0,0,0-9.06-4.9,1.09,1.09,0,0,0-1.06,1.06,1.07,1.07,0,0,0,1.06,1.06Z"/><path d="M576.49,287.27h8.78a1.06,1.06,0,0,0,0-2.12h-8.78a1.06,1.06,0,0,0,0,2.12Z"/><path d="M602.36,275.79h6.19a1.07,1.07,0,0,0,1.06-1.06,1.09,1.09,0,0,0-1.06-1.06h-6.19a1.06,1.06,0,0,0,0,2.12Z"/><path d="M526.73,194.33c-1.52,0-3.05,0-4.57,0a7.54,7.54,0,0,0-4,.66c-1.45.88-1.78,2.38-1.81,3.95,0,2.82-.09,5.63-.1,8.45,0,9.79,0,19.57,0,29.36,0,3.47.05,7-.12,10.43-.07,1.36,2.06,1.36,2.12,0,.37-7.32.13-14.7.12-22,0-8.22-.12-16.45.05-24.68a8.3,8.3,0,0,1,.21-2.95c.51-1.17,2-1.08,3-1.08,1.68,0,3.36,0,5,0a1.06,1.06,0,0,0,0-2.12Z"/><path d="M516.16,251.16a14.1,14.1,0,0,0,.36,5.45c.5,1.64,2.29,2,3.8,2.19a71.9,71.9,0,0,0,8.93.05c7.64,0,15.27,0,22.9.09,6.33.05,12.65.13,19,.09,5.13,0,10.26.17,15.38-.18a18.36,18.36,0,0,0,3.77-.48,2.43,2.43,0,0,0,1.92-2.26c.54-3.05.22-6.36.27-9.45a1.06,1.06,0,0,0-2.12,0c0,2.47,0,5-.07,7.41,0,.76-.18,1.45-.29,2.18,0,.15.13,0,0,0,.24-.06-.21.07-.26.08a15,15,0,0,1-2.82.39c-5.05.39-10.12.22-15.18.2-12.7,0-25.4-.17-38.1-.18-3.14,0-6.28,0-9.42.06-.88,0-1.75,0-2.62,0s-2.19,0-2.84-.51c-.48-.38-.46-1.35-.51-2a14.89,14.89,0,0,1,0-3.13c.16-1.36-2-1.34-2.12,0Z"/><path d="M529.6,196.82h1a1.16,1.16,0,0,0,.75-.31.8.8,0,0,0,.22-.35.7.7,0,0,0,.09-.4l0-.29a1,1,0,0,0-.27-.46l-.21-.17a1,1,0,0,0-.54-.15h-1a.86.86,0,0,0-.41.1.74.74,0,0,0-.34.22.87.87,0,0,0-.22.34.91.91,0,0,0-.09.41l0,.28a1.11,1.11,0,0,0,.27.47l.22.16a1,1,0,0,0,.53.15Z"/><path d="M533.25,196.83c10.43-.1,20.89.7,31.31,1.11,4.54.17,9.1.41,13.64.32a43,43,0,0,1,5.32.08,18.12,18.12,0,0,1,3.94.65c1.32.43,1.45,2,1.53,3.2.51,7.6.1,15.23.49,22.84.07,1.36,2.19,1.36,2.12,0-.36-7.06-.26-14.15-.43-21.21-.07-2.76-.2-6.06-3.35-6.93a25.76,25.76,0,0,0-7.82-.84c-4,.18-7.93,0-11.89-.1-6.09-.22-12.18-.5-18.28-.76-5.52-.23-11.05-.54-16.58-.49a1.07,1.07,0,0,0,0,2.13Z"/><path d="M554.07,194.63a1.06,1.06,0,0,0,0-2.12,1.06,1.06,0,0,0,0,2.12Z"/><path d="M579,266.5c5.83,0,11.65.27,17.47.26,2.7,0,5.38-.23,8.08-.3a12.69,12.69,0,0,1,7,2,1.06,1.06,0,0,0,1.07-1.83,14.51,14.51,0,0,0-7-2.24c-2.82-.08-5.66.28-8.49.3-6,0-12.08-.26-18.13-.27a1.07,1.07,0,0,0,0,2.13Z"/><path d="M609.18,220.92l-1.11,3.82a1.06,1.06,0,1,0,2,.57l1.11-3.83a1.06,1.06,0,0,0-.74-1.3,1.07,1.07,0,0,0-1.3.74Z"/><path d="M601,238.79h.26c.11,0-.14,0-.14,0s.28.05.42.09l.35.11c.18.07-.2-.09,0,0l.2.1a4.68,4.68,0,0,1,.71.44l.08,0s-.18-.14-.09-.07l.15.12.32.3.24.26.11.13c.07.09-.08-.11-.08-.1l.06.09a1.75,1.75,0,0,1,.18.29.83.83,0,0,1,.07.13c0,.08-.07-.15-.06-.15l0,.09c0,.07,0,.17.07.24s0-.29,0-.11,0,.06,0,.09V241c0,.16,0-.14,0-.13s0,.13,0,.13.15-.26,0-.1.16-.21.06-.08l0,0c0,.06.18-.12.11-.09l-.15.09-.06,0,.12,0c-.12,0-.24.09-.35.12-.29.1-.59.19-.87.3a1.16,1.16,0,0,0-.64.49,1.07,1.07,0,0,0,1.2,1.56,12.16,12.16,0,0,0,1.77-.67,1.92,1.92,0,0,0,.74-.78,2.29,2.29,0,0,0,.15-1.44,3.6,3.6,0,0,0-.91-1.68,6.17,6.17,0,0,0-1.61-1.31,4.84,4.84,0,0,0-2.39-.72,1.06,1.06,0,1,0,0,2.12Z"/><path d="M609.91,214.09a4.57,4.57,0,0,1,.83-.2l-.28,0a4.17,4.17,0,0,1,1.06,0l-.29,0a2.2,2.2,0,0,1,.37.06,1.1,1.1,0,0,0,.81-.11,1.06,1.06,0,0,0-.25-1.94,5.11,5.11,0,0,0-2.82.15,1.06,1.06,0,0,0-.74,1.3,1.05,1.05,0,0,0,.49.64,1.07,1.07,0,0,0,.82.1Z"/><path class="cls-3" d="M593.81,229.92S578.35,221,576.48,219.1"/><path class="cls-3" d="M574.89,245.73a71,71,0,0,1,17.85-4.24"/><path d="M321.92,151.32c0,1,.07,2,.07,3a14.71,14.71,0,0,1-.07,1.63c0,.06,0,.12,0,.18,0-.19,0,0,0,0l-.06.32-.09.27s.08-.15,0,0l-.06.11a.75.75,0,1,0,1.29.76,3.32,3.32,0,0,0,.4-1.41,13.85,13.85,0,0,0,.1-1.7c0-1-.07-2.08-.07-3.12a.75.75,0,0,0-1.5,0Z"/><path d="M315.38,166.8A16.09,16.09,0,0,0,319,166a5.57,5.57,0,0,1,1.7-.23l.2,0c.08,0-.07,0,.06,0l.22.05s.22.08.09,0a1.57,1.57,0,0,1,.31.18c-.1-.07.07.07.08.07l.15.17a.75.75,0,1,0,1.07-1.06c-1-1.13-2.52-1.06-3.84-.78-.67.15-1.34.35-2,.54l-.93.24-.23,0s-.24,0-.09,0l-.41,0a.75.75,0,0,0,0,1.5Z"/><path d="M347.42,164.11c-2.68,4.43-3.43,10-4.87,14.9-1.22,4.17-2.54,8.31-3.79,12.46-2.13,7.1-4.39,14.17-6.6,21.24-1,3.1-2,6.2-2.91,9.3-.28.93,1.17,1.32,1.45.4q6.15-20.15,12.46-40.25c1-3,1.75-6.12,2.59-9.19a31.37,31.37,0,0,1,3-8.1.75.75,0,0,0-1.3-.76Z"/><path d="M350.48,164.64c6.45.3,12.91,1.08,19.3,2,5.61.79,11.25,1.38,16.83,2.38,1.26.23,2.53.47,3.77.81a8,8,0,0,1,1.26.4c.62.28.27.36.35-.2-.14.94,1.3,1.35,1.45.4.24-1.61-2.41-2-3.49-2.26-2.93-.69-5.92-1.11-8.89-1.53-6.13-.87-12.28-1.72-18.43-2.4-4-.44-8.09-.88-12.15-1.07-1,0-1,1.46,0,1.5Z"/><path d="M392.46,170.46c-2.73,7.18-5.2,14.45-7.74,21.69-2.39,6.79-4.68,13.65-7.53,20.26a34.39,34.39,0,0,1-1.51,3.19,9.81,9.81,0,0,1-.53.84c-.3.38-.27.1.14.19-.94-.2-1.34,1.25-.4,1.44,1.37.28,2.2-1.89,2.65-2.82,1.28-2.63,2.33-5.39,3.36-8.12,3-8,5.76-16,8.58-24,1.44-4.08,2.89-8.17,4.43-12.22.34-.9-1.11-1.29-1.45-.4Z"/><path d="M288.31,220.41c-.95,2.91,4.3,2.92,5.93,3.11,3.75.45,7.53.58,11.3.76,7.87.36,15.75.77,23.63.83a.75.75,0,0,0,0-1.5c-6.92-.05-13.84-.38-20.76-.7-3.17-.15-6.35-.25-9.52-.46-1.69-.11-3.38-.26-5.07-.48-.47-.06-4.34-.32-4.07-1.16s-1.15-1.32-1.44-.4Z"/><path d="M330.77,224.46c12.67-.57,25.06-3,37.59-4.78.95-.13.54-1.58-.4-1.44C355.57,220,343.3,222.4,330.77,223c-1,0-1,1.54,0,1.5Z"/><path d="M321.53,205.55a10.59,10.59,0,0,1,5.24-4.12,14.35,14.35,0,0,1,7.47-.17.75.75,0,0,0,.4-1.44,12.92,12.92,0,0,0-4.24-.43,16.81,16.81,0,0,0-4.23.66,12.41,12.41,0,0,0-5.94,4.75c-.56.78.74,1.53,1.3.75Z"/><path d="M327.57,208.81c.9.39,1.81.77,2.7,1.17.28.13.56.27.83.42a2.82,2.82,0,0,1,.29.18c.13.09-.14-.14,0,0l.09.09a.75.75,0,0,0,1.06,0,.76.76,0,0,0,0-1.06,4.38,4.38,0,0,0-1.46-.89c-.91-.42-1.83-.8-2.74-1.2a.75.75,0,0,0-.76,1.3Z"/><path d="M280.24,204.59a14.9,14.9,0,0,1,5.53-.23c2.54.2,5.07.62,7.58,1.07,2.27.41,4.54.87,6.81,1.31a23.62,23.62,0,0,0,4.18.66.75.75,0,0,0,0-1.5,25.62,25.62,0,0,1-4.35-.71c-2.37-.47-4.73-.95-7.11-1.36a73.07,73.07,0,0,0-7.38-1,15.34,15.34,0,0,0-5.65.31c-.92.28-.53,1.73.39,1.44Z"/><path d="M307,207.83a36.75,36.75,0,0,1,13-.74,8.18,8.18,0,0,1,2.39.57,12.47,12.47,0,0,1,3.05,2.42,29.23,29.23,0,0,0,2.45,1.86,3.92,3.92,0,0,1,1.31,2.05c.34.9,1.79.51,1.45-.4a6.19,6.19,0,0,0-1.28-2.38c-.73-.71-1.7-1.17-2.47-1.84-1.92-1.63-3.4-3.22-6-3.65a36.81,36.81,0,0,0-14.33.66c-.94.23-.54,1.68.4,1.45Z"/><path d="M323.68,220.37a1.92,1.92,0,0,0,1.65.68,11,11,0,0,0,1.9-.15,4,4,0,0,0,1.66-.51,2.2,2.2,0,0,0,1-2,.75.75,0,0,0-1.5,0v.21h0a.29.29,0,0,1,0,.09s-.07.2,0,.11-.06.09-.07.11.1-.08,0,0l-.12.11c.11-.11,0,0,0,0l-.15.09c-.07,0-.14.06,0,0l-.16.06-.37.1-.6.1c-.18,0,.17,0,0,0l-.17,0-.35,0c-.26,0-.52,0-.79,0h-.33l-.16,0s.18,0,0,0a1.37,1.37,0,0,1-.24-.07c.12.06.15.07.08,0s0,0,0,0-.11-.18.09.11a.75.75,0,1,0-1.29.76Z"/><path d="M305.41,213.7a34.33,34.33,0,0,1,3,1.75c.76.52,1.34,1.26,2.1,1.77a12,12,0,0,0,2.93,1.16,31.17,31.17,0,0,0,9,2,.75.75,0,0,0,0-1.5,30.31,30.31,0,0,1-8.65-1.89c-.57-.19-1.14-.38-1.7-.61a4.38,4.38,0,0,1-.54-.23c-.07,0-.43-.25-.25-.12-.79-.6-1.45-1.34-2.29-1.9a33,33,0,0,0-2.87-1.67c-.85-.46-1.61.84-.76,1.29Z"/><path d="M271.56,218.36a104.08,104.08,0,0,0,15.59-.49,83.17,83.17,0,0,0,15.21-2.46A.75.75,0,0,0,302,214a82,82,0,0,1-15.18,2.43,103.15,103.15,0,0,1-15.22.46c-1-.06-1,1.44,0,1.5Z"/><path d="M261.34,182.84a28.52,28.52,0,0,0-11,1,20.89,20.89,0,0,0-7.7,3.58c-2.29,1.9-2.31,5.55-2.45,8.29-.24,4.62-.2,9.28-.07,13.92q.24,8,1.09,16c.1.95,1.6,1,1.5,0a210.43,210.43,0,0,1-1.15-25.6c0-2.05.06-4.1.26-6.14.14-1.39.26-3.56,1.17-4.71,1.5-1.88,4.5-2.86,6.69-3.56a27.87,27.87,0,0,1,11.68-1.24c1,.12,1-1.38,0-1.5Z"/><path d="M278.62,105.38c-.52-1.44,1.28-2.83,2.47-3.22,1.56-.52,2.73.58,3.1,2,.42,1.69,0,3.51,0,5.22a8.69,8.69,0,0,0,1.22,4.62c.52.81,1.81.06,1.29-.75-1.11-1.73-1.08-3.82-1-5.8s.21-4.1-1.17-5.72a3.84,3.84,0,0,0-5-.59c-1.52.88-3.14,2.71-2.45,4.59.32.9,1.77.52,1.44-.39Z"/><path d="M287.67,118.81a1.11,1.11,0,0,0,.31.3l.18.08h0a.76.76,0,0,0,.21,0h0a1,1,0,0,0,.43-.11.78.78,0,0,0,.25-.23.45.45,0,0,0,.11-.19.41.41,0,0,0,0-.09.76.76,0,0,0,0-.21.62.62,0,0,0,0-.13.63.63,0,0,0-.1-.31h0l-.12-.16h0a1,1,0,0,0-.16-.12.72.72,0,0,0-.2-.09h0a.86.86,0,0,0-.45,0,.91.91,0,0,0-.38.22,1.14,1.14,0,0,0-.26.5,1.8,1.8,0,0,0,0,.8,1.14,1.14,0,0,0,.15.4,1.45,1.45,0,0,0,.24.35.51.51,0,0,0,.25.16.45.45,0,0,0,.28.06.48.48,0,0,0,.29-.06.45.45,0,0,0,.24-.16.71.71,0,0,0,.22-.53l0-.2a.82.82,0,0,0-.2-.33l0,0,.12.15a.72.72,0,0,1-.11-.19l.07.18a.86.86,0,0,1-.06-.23l0,.2a1,1,0,0,1,0-.25l0,.2a.9.9,0,0,1,.06-.22l-.07.18s0,0,0-.06l-.12.15h0l-.15.12h0l-.17.07h0l-.2,0h0l-.2,0,0,0-.18-.08h0l-.16-.11a0,0,0,0,1,0,0l-.11-.16s0,0,0,0l-.08-.18v0l0-.2v0l0-.2h0l.08-.17,0,0,.12-.15,0,0,.15-.12h0l.18-.07h0l.2,0h0l.2,0h0l.18.08,0,0,.15.12h0l.12.15h0a.55.55,0,0,0-.19-.21.53.53,0,0,0-.26-.13.61.61,0,0,0-.3,0,.71.71,0,0,0-.28.09.76.76,0,0,0-.34.45.78.78,0,0,0,.07.58Z"/><path d="M334.52,219.78c3.52-9.59,6.28-19.52,9.22-29.3.59-2,1.18-3.92,1.74-5.89a.75.75,0,0,0-1.44-.4c-2.8,9.85-5.88,19.63-9,29.38-.62,1.94-1.24,3.89-1.94,5.81-.34.91,1.11,1.3,1.44.4Z"/><path d="M349.83,165.67a20.8,20.8,0,0,0-2,5.93c-.61,2.36-1.14,4.76-1.91,7.08-.31.92,1.14,1.31,1.44.4.76-2.26,1.27-4.6,1.87-6.91.3-1.15.6-2.29,1-3.42a9.7,9.7,0,0,1,1-2.33c.51-.82-.79-1.57-1.3-.75Z"/><path d="M293.6,221.72c4.87.41,9.77.48,14.65.65l19.42.61c1,0,1-1.47,0-1.5l-19.42-.61c-4.88-.17-9.78-.24-14.65-.65-1-.08-1,1.42,0,1.5Z"/><path d="M345.18,180.64c-.13.38-.25.76-.34,1.14a3.58,3.58,0,0,0-.1.8.77.77,0,0,0,.22.53.75.75,0,0,0,.53.22.77.77,0,0,0,.75-.75,2.46,2.46,0,0,1,0-.28l0,.2a7.34,7.34,0,0,1,.4-1.46.79.79,0,0,0-.08-.58.77.77,0,0,0-.45-.34.71.71,0,0,0-.57.07.82.82,0,0,0-.35.45Z"/><path d="M374.05,217.15a11.69,11.69,0,0,1-2.1.51,20.48,20.48,0,0,1-2.87.32.75.75,0,0,0,0,1.5,24.52,24.52,0,0,0,3.19-.36,12.25,12.25,0,0,0,2.17-.52.79.79,0,0,0,.53-.93.76.76,0,0,0-.92-.52Z"/><path d="M303.61,219.11a29.13,29.13,0,0,0,6.66-.37.75.75,0,0,0,.52-.92.77.77,0,0,0-.92-.52,27.92,27.92,0,0,1-6.26.31.75.75,0,0,0-.75.75.76.76,0,0,0,.75.75Z"/><path d="M363.7,192.25c.29.53-.08,1.16-.35,1.61a14,14,0,0,0-1,1.92,8.86,8.86,0,0,0-.55,2.14c-.08.67-.14,1.61.68,1.86s1.31-.57,1.54-1.26a5.32,5.32,0,0,1,.72-1.76c.41-.51,1-.43,1.55-.59A3.73,3.73,0,0,0,368,195a2.49,2.49,0,0,0,.69-2.25,1.77,1.77,0,0,0-1.66-1.33.75.75,0,0,0,0,1.5.33.33,0,0,1,.23.32,1.13,1.13,0,0,1-.32.7,2.52,2.52,0,0,1-.78.64,5,5,0,0,1-1.14.27,2.8,2.8,0,0,0-1.78,1.41,5.74,5.74,0,0,0-.5,1.2l-.18.58a2.44,2.44,0,0,1-.11.32c-.14.37.09-.33.51,0l.27.26c-.09-.11,0,.06,0-.1a3.27,3.27,0,0,1,0-.44,6.84,6.84,0,0,1,.21-1,7.59,7.59,0,0,1,.73-1.77c.68-1.19,1.53-2.44.78-3.83-.46-.85-1.76-.09-1.3.76Z"/><path d="M366,196.75a3,3,0,0,0-1.65,2,1.83,1.83,0,0,0,.29,1.33,1.69,1.69,0,0,0,.62.54,2.5,2.5,0,0,0,.84.23,2.33,2.33,0,0,0,1.56-.36.76.76,0,0,0,.26-1,.74.74,0,0,0-1-.27l-.15.09-.06,0,.08,0a1.09,1.09,0,0,0-.17.05l-.12,0h-.31c-.06,0,0,0,.09,0l-.09,0-.12,0-.09,0,.06,0a.6.6,0,0,0-.11-.06c-.07-.05-.05,0,0,0l-.06-.06c-.06-.05-.06-.12,0,0,0,0,0-.07-.06-.11s0,.16,0,0,0-.08,0-.12,0,.17,0,0V199c0-.07.05-.22,0,0,0,0,0-.07,0-.11a.58.58,0,0,1,0-.14c0-.13-.09.15,0,0s.11-.17.16-.25c-.09.17-.05.07,0,0l.12-.12.09-.09c.05,0,.21-.14,0,0,.17-.11.33-.22.51-.32a.75.75,0,1,0-.76-1.3Z"/><path d="M284.44,222c-16.88,1.49-33.51,4.86-50.2,7.67-4.86.81-9.72,1.58-14.6,2.25-.95.13-.54,1.57.4,1.44,16.77-2.3,33.34-5.8,50.09-8.19,4.76-.67,9.52-1.24,14.31-1.67.95-.08,1-1.58,0-1.5Z"/><path d="M309.59,138.46a8.26,8.26,0,0,0,7.64,3.47.78.78,0,0,0,.75-.75.76.76,0,0,0-.75-.75,6.81,6.81,0,0,1-6.35-2.73.76.76,0,0,0-1-.26.74.74,0,0,0-.27,1Z"/><path d="M325.47,142.45a3.94,3.94,0,0,0,3.07.59,6.66,6.66,0,0,0,2.62-1.9.75.75,0,0,0-1.07-1.06,13.4,13.4,0,0,1-1.1,1c-.16.14.12-.08-.05,0l-.1.08-.25.16-.25.13s-.2.07,0,0l-.13.05-.25.07c-.11,0,0,0,0,0a.3.3,0,0,1-.13,0h-.27l-.14,0h0q-.3-.07-.6-.18l0,0-.17-.08-.38-.21a.75.75,0,1,0-.76,1.3Z"/><path d="M309.45,173.19a22.79,22.79,0,0,0,12.47-.57,19,19,0,0,0,8.58-6.42c4.68-6.14,6-14.44,5-22-1.06-7.91-4.89-15.62-11.53-20.28a25.06,25.06,0,0,0-12.07-4.33,19.88,19.88,0,0,0-14.76,4.3c-10,8-13.35,22.81-10.55,34.87A35.93,35.93,0,0,0,288.2,164l.72-1c-5.38.33-10,4.38-13.54,8.09-6.85,7.16-12.06,15.89-16.73,24.57-3.92,7.28-7.44,14.78-10.73,22.37-.38.87.92,1.64,1.3.75,5.19-12,10.88-23.83,18-34.76,4.06-6.19,8.75-12.74,15-16.91a13.85,13.85,0,0,1,6.67-2.61c.44,0,.92-.47.73-.95-4.62-11.57-2.94-26.16,5.46-35.64,3.53-4,8.36-6.87,13.8-6.93a24.7,24.7,0,0,1,12.09,2.9c6.73,3.68,10.94,10.58,12.54,17.94,1.54,7,.89,14.94-2.76,21.25a18.17,18.17,0,0,1-17.62,9.14,24.67,24.67,0,0,1-3.31-.48c-1-.19-1.35,1.25-.4,1.45Z"/><path d="M322.9,141.61a4.56,4.56,0,0,0,.38,1.13.63.63,0,0,0,.19.21.6.6,0,0,0,.25.13.51.51,0,0,0,.3,0,.47.47,0,0,0,.28-.09.77.77,0,0,0,.35-.44l0-.2a.72.72,0,0,0-.1-.38v0l.07.18a4.08,4.08,0,0,1-.28-.9.6.6,0,0,0-.14-.26.48.48,0,0,0-.21-.19.47.47,0,0,0-.28-.09.61.61,0,0,0-.3,0,.73.73,0,0,0-.44.35l-.08.18a.86.86,0,0,0,0,.39Z"/><path d="M318.85,141.23l-.05,1.14a.75.75,0,0,0,.22.53.77.77,0,0,0,.53.22.73.73,0,0,0,.53-.22.79.79,0,0,0,.22-.53l.05-1.14a.75.75,0,0,0-1.28-.53.81.81,0,0,0-.22.53Z"/><path d="M313.33,146.36a8.23,8.23,0,0,1,0,1.57l0,.31c0,.09,0-.18,0-.09a.17.17,0,0,1,0,.07l0,.16a5.78,5.78,0,0,1-.12.57.75.75,0,0,0,.52.92.76.76,0,0,0,.92-.52,8.6,8.6,0,0,0,.22-3,.81.81,0,0,0-.22-.53.75.75,0,0,0-1.28.53Z"/><path d="M327.27,148.23c-.08.67-.16,1.34-.25,2l0-.19a2.34,2.34,0,0,1,0,.26.83.83,0,0,0,.08.58.75.75,0,0,0,.45.35.78.78,0,0,0,.58-.08.74.74,0,0,0,.34-.45c.12-.82.21-1.65.31-2.48a.71.71,0,0,0-.22-.53.75.75,0,0,0-.53-.22.77.77,0,0,0-.53.22.93.93,0,0,0-.22.53Z"/><path d="M309.65,145.63a22,22,0,0,1,5.49.26.78.78,0,0,0,.92-.53.75.75,0,0,0-.52-.92,23.74,23.74,0,0,0-5.89-.31.75.75,0,0,0,0,1.5Z"/><path d="M312.11,149.87l2.58.36a.83.83,0,0,0,.58-.07.74.74,0,0,0,.27-1,.7.7,0,0,0-.45-.34l-2.58-.36a.83.83,0,0,0-.58.07.77.77,0,0,0-.34.45.74.74,0,0,0,.07.58.7.7,0,0,0,.45.34Z"/><path d="M325.67,147.46l3.26.46a.83.83,0,0,0,.58-.08.77.77,0,0,0,.34-.45.76.76,0,0,0-.52-.92l-3.26-.45a.8.8,0,0,0-.57.07.75.75,0,0,0-.35.45c-.08.35.11.87.52.92Z"/><path d="M326.34,151.64l2.14.41a.83.83,0,0,0,.58-.08.77.77,0,0,0,.34-.45.75.75,0,0,0-.52-.92l-2.14-.41a.78.78,0,0,0-.58.08.8.8,0,0,0-.35.44.78.78,0,0,0,.53.93Z"/><path d="M343.76,118.43c.72-1.19,2.79-.7,3.77-.16a2.29,2.29,0,0,1,1.3,1.68,3.16,3.16,0,0,1-.76,2.21c-1.05,1.33-2.67,2.12-4,3.18a8.82,8.82,0,0,0-2.92,3.95c-.31.92,1.14,1.31,1.45.4.65-1.93,2.35-3.22,4-4.34s3.47-2.54,3.72-4.74c.23-2-1.28-3.51-3.1-4.09-1.62-.51-3.77-.46-4.74,1.15a.75.75,0,0,0,1.29.76Z"/><path d="M323.38,200.34c-2-7.94-5.9-15.33-8.53-23.08-.31-.91-1.76-.52-1.45.4,2.63,7.75,6.49,15.14,8.54,23.08a.75.75,0,0,0,1.44-.4Z"/><path d="M222.76,131l6.14-2.65a.77.77,0,0,0,.27-1,.78.78,0,0,0-1-.27L222,129.71a.76.76,0,0,0-.27,1,.77.77,0,0,0,1,.27Z"/><path d="M224.35,125.47a31.22,31.22,0,0,0-1.08,7.69c0,.52.66,1,1.13.65a1.36,1.36,0,0,1,2,.27,1.33,1.33,0,0,1-.86,1.84.75.75,0,0,0,.4,1.45,2.74,2.74,0,1,0-2.28-4.85l1.13.64a29,29,0,0,1,1-7.29.75.75,0,0,0-1.45-.4Z"/><path d="M232.22,133.05a7.92,7.92,0,0,0,2.88-1.27.75.75,0,0,0,.27-1,.77.77,0,0,0-1-.27,7.56,7.56,0,0,1-1.27.72l-.08,0c.1-.05.12-.05,0,0l-.17.07-.31.11c-.24.07-.49.14-.73.19a.76.76,0,0,0-.53.92.77.77,0,0,0,.93.53Z"/><path d="M231,132.09l.69,3c.05.24.11.48.16.72a4.63,4.63,0,0,1,.12.61,2.26,2.26,0,0,1,0,.26.34.34,0,0,1-.05.22c0-.06,0,0,0,.05l.05-.07c-.06.06-.05.05,0,0s-.07,0,0,0-.23.05-.12,0,.06,0,0,0-.08,0,0,0c-.08,0-.07,0,0,0q-.1-.06,0,0c0,.09.07.11,0,.06s0,0,0,.06a.23.23,0,0,1,0,.14c0,.07,0,.07,0,0s0,.05,0,0-.05,0,0,0l.23-.13c-.07,0-.05,0,.05,0l.17-.05a3.49,3.49,0,0,1,2.42.17.76.76,0,0,0,.92-.53.77.77,0,0,0-.53-.92,4.9,4.9,0,0,0-3-.23c-.92.21-2.08.89-1.74,2a1.45,1.45,0,0,0,2.19.6c1-.65.74-1.9.51-2.87l-.82-3.58a.76.76,0,0,0-.92-.53.78.78,0,0,0-.52.93Z"/><path d="M238.79,132.06h0s.1,0,.12,0a2.41,2.41,0,0,0,.25.08c-.06,0-.13-.06,0,0l.11.06.12.08c.11.07-.08-.08,0,0l.2.18.08.1c.06.06-.09-.13,0,0s.09.15.14.23-.06-.15,0,0l0,.13,0,.12c0,.13,0,0,0,0a2.43,2.43,0,0,0,0,.27.45.45,0,0,0,0,.12c0-.11,0-.14,0-.08s0,.05,0,.07,0,.16-.07.23.08-.14,0,0a1.17,1.17,0,0,1-.05.11c0,.08-.11.15-.15.23,0-.07.09-.11,0,0l-.08.09a1.09,1.09,0,0,0-.11.1l.08-.06-.08.06a.75.75,0,0,0,.75,1.29,2.59,2.59,0,0,0-1.3-4.79.75.75,0,0,0-.75.75.77.77,0,0,0,.75.75Z"/><path d="M241.47,124.16l1.39,1.72a.77.77,0,0,0,.53.22.73.73,0,0,0,.53-.22.75.75,0,0,0,.22-.53l0-.2a.7.7,0,0,0-.2-.33l-1.39-1.72a.75.75,0,0,0-.53-.22.77.77,0,0,0-.53.22.75.75,0,0,0-.22.53l0,.2a.79.79,0,0,0,.19.33Z"/><path d="M246.26,122.86a32.32,32.32,0,0,0-2.14,3.81,3.71,3.71,0,0,0-.25,2.48,2.79,2.79,0,0,0,2.16,2.12,5.34,5.34,0,0,0,3.66-1.07c.82-.51.07-1.81-.75-1.3s-2,1.27-2.95.8a1.49,1.49,0,0,1-.7-1,2.43,2.43,0,0,1,0-.6c0-.07,0-.14,0-.2s0,.07,0,0l.06-.2a2.09,2.09,0,0,1,.08-.23c0-.08,0-.08,0,0l.06-.13.24-.5c.22-.42.45-.83.68-1.24.38-.65.78-1.29,1.16-1.94a.75.75,0,0,0-1.29-.75Z"/><path d="M230.94,145.61l2.46,9.69a.75.75,0,0,0,1.45-.4l-2.46-9.69a.75.75,0,0,0-1.45.4Z"/><path d="M229.15,151a16.12,16.12,0,0,0,.72,4.13c.17.56,1.09.81,1.37.18a9.87,9.87,0,0,1,4.12-4.61c.37-.21.92-.51,1.35-.32l.15.09c-.11-.08.14.18,0,.06a.7.7,0,0,1,.15.39c0-.11,0,.13,0,.13a2.08,2.08,0,0,1,0,.35,3.12,3.12,0,0,1-.1.52,4.82,4.82,0,0,1-.43,1.11c-.45.85.85,1.61,1.29.76.72-1.37,1.39-3.78-.35-4.7a3.24,3.24,0,0,0-3.21.52,11.15,11.15,0,0,0-4.32,5l1.37.17a14.75,14.75,0,0,1-.66-3.73c-.05-1-1.55-1-1.5,0Z"/><path d="M240.2,147.86c-.11.09,0,0,.08-.05l.19-.13a3.21,3.21,0,0,1,.45-.24l.11-.06s-.11.05,0,0l.21-.08a4.6,4.6,0,0,1,.5-.13l.12,0s.12,0,0,0h.77s-.13,0,0,0l.21,0,.24.07.08,0c.09,0-.1-.06,0,0s.26.14.38.21,0,0,0,0l.07.06.14.13.06.07c-.08-.09,0,0,0,.08a1.29,1.29,0,0,1,.09.16.16.16,0,0,1,0,.07c.06.12,0,0,0,0s.09.24.11.31,0,.12,0,.19a.2.2,0,0,0,0,.07c0,.09,0-.18,0,0a1.82,1.82,0,0,1,0,.33,1.21,1.21,0,0,0,0,.19s0-.17,0-.09,0,.08,0,.12,0,.11,0,.17-.09.24,0,.12l-.05.1a.57.57,0,0,0-.11.16s.11-.12.06-.06l-.08.08-.12.12c-.1.09,0,0,0,0s-.08.05-.09.06-.25.12-.05,0a.76.76,0,0,0-.52.92.75.75,0,0,0,.92.52,2.48,2.48,0,0,0,1.45-1.52,3.21,3.21,0,0,0,0-1.94,3,3,0,0,0-1.25-1.67,3.65,3.65,0,0,0-2.37-.51,5.32,5.32,0,0,0-2.68,1.14.75.75,0,0,0,0,1.06.77.77,0,0,0,1.06,0Z"/><path d="M241.38,143.5a38.93,38.93,0,0,0-1.17,7.45c-.06,1,1.44,1,1.5,0a36.69,36.69,0,0,1,1.12-7.06.75.75,0,0,0-1.45-.39Z"/><path d="M245.61,144.61l2.45,2.75a.75.75,0,0,0,1.06,0,.76.76,0,0,0,0-1.06l-2.45-2.75a.75.75,0,1,0-1.06,1.06Z"/><path d="M251.4,137.51a8.24,8.24,0,0,1,1.72,0l.22,0c.17,0-.12,0,.06,0l.42.08c.28.06.57.13.85.22a.76.76,0,0,0,.92-.52.78.78,0,0,0-.52-.93,8.79,8.79,0,0,0-3.67-.35.77.77,0,0,0-.75.75c0,.37.33.8.75.75Z"/><path d="M250.94,141.67a2.31,2.31,0,0,0,.91,2.89,2.22,2.22,0,0,0,1.41.41,2.84,2.84,0,0,0,1.49-.71.78.78,0,0,1,.28-.16c-.11,0,0,0,.05.07a1.81,1.81,0,0,1,.31.54,2.26,2.26,0,0,1,0,1.43,7.07,7.07,0,0,1-2,2.9c-.71.66.35,1.72,1.06,1.06,1.66-1.56,3.68-4.4,2.05-6.67a1.7,1.7,0,0,0-1.78-.77,2.37,2.37,0,0,0-.88.48,1.54,1.54,0,0,1-.52.33.67.67,0,0,1-.35,0,1.7,1.7,0,0,1-.39-.28,1,1,0,0,1-.25-.4.47.47,0,0,1,0-.33.77.77,0,0,0-.27-1,.75.75,0,0,0-1,.27Z"/><path d="M259.55,138.26a21.88,21.88,0,0,0,.22,8.34.76.76,0,0,0,1.37.18,3.89,3.89,0,0,1,1.13-1.49c.52-.35.81,0,1.25.36a2.67,2.67,0,0,0,3.78-.56.75.75,0,0,0-.27-1,.76.76,0,0,0-1,.27,1.18,1.18,0,0,1-1.25.33,2.84,2.84,0,0,1-.64-.45,2.34,2.34,0,0,0-1-.54c-1.52-.29-2.65,1.15-3.25,2.35l1.37.18a19.73,19.73,0,0,1-.22-7.54.75.75,0,0,0-1.45-.4Z"/><path d="M268,140.27a.75.75,0,0,0,0-1.5.75.75,0,0,0,0,1.5Z"/><path d="M273.22,138.19a.75.75,0,0,0,0-1.5.75.75,0,0,0,0,1.5Z"/><path d="M270.63,139.21a.75.75,0,0,0,0-1.5.75.75,0,0,0,0,1.5Z"/><path d="M340.7,133.57a.75.75,0,0,0,0-1.5.75.75,0,0,0,0,1.5Z"/><path d="M127.15,257.19A10.44,10.44,0,0,0,133,255.7a.67.67,0,0,0-.68-1.16,9.25,9.25,0,0,1-5.18,1.3.68.68,0,1,0,0,1.35Z"/><path d="M128.53,253.1a32.94,32.94,0,0,0,.78,10.75c.2.85,1.51.49,1.3-.36a31.57,31.57,0,0,1-.73-10.39c.08-.86-1.28-.86-1.35,0Z"/><path d="M131.3,260.45c-.27,2-1.54,4-3.56,4.44l.52.07-.32-.16s-.17-.12-.11-.07-.07-.06-.09-.08a.52.52,0,0,0-.1-.11c-.08-.08,0,.08,0,0l-.07-.12,0-.06c0-.07,0,.15,0,0s-.05-.17-.07-.26c0,.11,0,.08,0,0v-.17s0-.09,0-.14,0,.05,0,.05,0-.06,0-.1.05-.22.09-.33a.88.88,0,0,1,0-.15l0-.1,0-.1.1-.21c.13-.22.27-.43.41-.64l.07-.08.12-.15.28-.3a6.63,6.63,0,0,1,.61-.57l.06,0,.15-.11.35-.23.31-.18.15-.07.08,0c.09,0-.1,0,0,0a3.46,3.46,0,0,1,.65-.18h.39l.17,0h0l.21.05.2.05.1,0,.06,0a2.91,2.91,0,0,1,.35.18l.16.11c.06.05,0,0,0,0l.1.08a2.76,2.76,0,0,1,.29.3l.06.07s0-.07,0,0l.12.19a2.27,2.27,0,0,1,.19.34l.05.08c0,.1,0-.08,0,0a2,2,0,0,1,.08.22,3.74,3.74,0,0,1,.12.45,1.5,1.5,0,0,1,0,.17,1.8,1.8,0,0,1,0,.21,3.69,3.69,0,0,1,0,.47,1.64,1.64,0,0,1,0,.23s0,.12,0,.05,0,.06,0,.08a4.37,4.37,0,0,1-.12.49c0,.08,0,.15-.07.22a.69.69,0,0,0,0,.1c0-.07,0,0,0,0a3.25,3.25,0,0,1-.25.45,1.65,1.65,0,0,1-.24.33.69.69,0,0,0,0,1,.67.67,0,0,0,.95,0,4.76,4.76,0,0,0,.64-5.28,3.79,3.79,0,0,0-2-1.82,3.24,3.24,0,0,0-2.3-.08,6.74,6.74,0,0,0-3.62,3.19,3.39,3.39,0,0,0-.44,2.26,2.32,2.32,0,0,0,1.56,1.7,1.85,1.85,0,0,0,1-.2,5.86,5.86,0,0,0,.87-.43,5.93,5.93,0,0,0,1.39-1.25,7.12,7.12,0,0,0,1.55-3.5.7.7,0,0,0-.47-.83.68.68,0,0,0-.83.47Z"/><path d="M139.49,261.29c.14-.51.39-1.48,1-1.62.4-.1.89.22,1.28.32a6,6,0,0,0,1.26.19,4.42,4.42,0,0,0,4.23-2.08c.4-.77-.76-1.45-1.17-.68-.73,1.38-2.52,1.64-3.91,1.28a9.31,9.31,0,0,0-1.44-.39,1.85,1.85,0,0,0-1.25.37,4.06,4.06,0,0,0-1.3,2.25.67.67,0,0,0,1.3.36Z"/><path d="M152.33,251.42l.54,5.85a.68.68,0,0,0,1.35,0l-.54-5.85a.68.68,0,1,0-1.35,0Z"/><path d="M154,259a1.6,1.6,0,0,0-.23,0l0,0-.18.07h0a1.09,1.09,0,0,0-.17.13h0l-.1.14,0,0h0a.61.61,0,0,0-.07.17v0h0l0,.19v0h0l0,.19v0s0,0,0,0a1.67,1.67,0,0,0,.08.2l.06.1a.45.45,0,0,0,.17.19.65.65,0,0,0,.23.13.62.62,0,0,0,.27,0,.57.57,0,0,0,.25-.08l.14-.11a.64.64,0,0,0,.17-.3l0-.18a.83.83,0,0,0-.1-.34l-.06-.11.07.16a.45.45,0,0,1,0-.11l0,.18v-.06l0,.18s0,0,0,0l-.07.16s0,0,0,0l-.1.14,0,0-.13.11,0,0-.17.07.1,0-.18,0h0a.58.58,0,0,0,.26-.06.49.49,0,0,0,.21-.14.4.4,0,0,0,.14-.22.39.39,0,0,0,.06-.26l0-.18a.59.59,0,0,0-.18-.29l-.13-.11A.69.69,0,0,0,154,259Z"/><path d="M134.89,276a5.42,5.42,0,0,0,2.47-.83.69.69,0,0,0,.24-.93.68.68,0,0,0-.92-.24,5,5,0,0,1-.76.41l.16-.07a5,5,0,0,1-1.15.31l.18,0-.22,0a.68.68,0,0,0-.68.67.69.69,0,0,0,.68.68Z"/><path d="M135.66,274.07a36.55,36.55,0,0,0-1,6.32.68.68,0,0,0,.67.68.69.69,0,0,0,.68-.68,34.49,34.49,0,0,1,1-6,.67.67,0,0,0-1.3-.36Z"/><path d="M140.13,274.08a4.83,4.83,0,0,1,.67.44l-.14-.11a4.26,4.26,0,0,1,.62.58.73.73,0,0,0,.48.19.71.71,0,0,0,.48-.19.72.72,0,0,0,.2-.48.79.79,0,0,0-.2-.48,5.54,5.54,0,0,0-1.43-1.12.73.73,0,0,0-.52-.06.66.66,0,0,0-.47.83.65.65,0,0,0,.31.4Z"/><path d="M140.54,276.76c.05,1,.14,1.95.13,2.92V280s0,.28,0,.16a2.56,2.56,0,0,1-.05.27s0,.08,0,.13.05-.07,0,.08a1.59,1.59,0,0,1-.13.22c.06-.08,0,0,0,0l-.09.09c.1-.09-.05,0-.09.05s0,0,0,0l-.16,0-.11,0s.13,0,0,0h-.23c.15,0,0,0-.1,0l-.11,0c.14,0,0,0,0,0l-.1-.06s.09.09,0,0-.16-.18-.08-.07c0,0-.12-.23-.07-.09a1.28,1.28,0,0,1-.07-.28c0,.15,0-.05,0-.1a.37.37,0,0,1,0-.11s0,.12,0,0a1.87,1.87,0,0,1,.07-.22s-.06.11,0,0l.07-.13s.1-.11,0,0l.08-.08s.1-.08,0,0l.1-.07a1.44,1.44,0,0,1,.41-.12,5.89,5.89,0,0,1,2.93.53.69.69,0,0,0,.92-.24.68.68,0,0,0-.24-.92,7.34,7.34,0,0,0-3.57-.72,2.1,2.1,0,0,0-2.13,2.08,2,2,0,0,0,1.85,2,2.13,2.13,0,0,0,2.27-1.71,6.34,6.34,0,0,0,.08-1.74l-.11-2.18a.69.69,0,0,0-.68-.68.68.68,0,0,0-.67.68Z"/><path d="M157.82,272.41a3.56,3.56,0,0,1,.65-.13c.13,0-.16,0,0,0h.12l.23,0,.48,0a14,14,0,0,1,1.59-.06.69.69,0,0,0,.68-.67.7.7,0,0,0-.68-.68,15,15,0,0,0-1.64.06c-.35,0-.71.07-1.06.12a4,4,0,0,0-.69.14.69.69,0,0,0-.47.83.69.69,0,0,0,.83.47Z"/><path d="M157.75,274.44c1.16-.1,2.32-.24,3.47-.37a.69.69,0,0,0,.68-.68.69.69,0,0,0-.68-.67c-1.15.13-2.31.27-3.47.37a.7.7,0,0,0-.68.68.68.68,0,0,0,.68.67Z"/><path d="M153.86,272.09a19.71,19.71,0,0,0,.29,7.1c.2.84,1.5.48,1.3-.36a18,18,0,0,1-.29-6.38.67.67,0,1,0-1.3-.36Z"/><path d="M159.43,272.74a19.88,19.88,0,0,1,.45,2.17c.1.66.1,1.34.2,2,0,.23.1.46.12.69a.65.65,0,0,1-.09.4.7.7,0,0,1-.25.28s-.28.12-.12.07l-.2.06-.16,0c-.16,0,.07,0,0,0s-.32,0-.48,0h-.12l-.23-.07c.13.06,0,0-.08-.06s.09.09,0,0,.05.11,0,0h0a.35.35,0,0,1,0-.12c0,.11,0-.13,0-.17a1,1,0,0,1,.13-.45.43.43,0,0,1,.1-.09c.09-.08-.12.06,0,0s.12-.06,0,0l.13,0s.26-.05.15,0h.47c-.13,0,.07,0,.08,0a2.46,2.46,0,0,1,.29.09c.3.11.61.26.92.4a11.76,11.76,0,0,1,2.05,1.14.68.68,0,1,0,.68-1.17,12.14,12.14,0,0,0-2.27-1.23,5.53,5.53,0,0,0-1.88-.61,2.25,2.25,0,0,0-1.65.52,2.14,2.14,0,0,0-.6,1.79,1.91,1.91,0,0,0,2.31,1.52,2.24,2.24,0,0,0,2.19-2.08,5.42,5.42,0,0,0-.15-1.06c0-.24,0,.11,0-.08s0-.25,0-.37,0-.5-.07-.74a20,20,0,0,0-.57-3.09.67.67,0,0,0-1.3.36Z"/><path d="M164.51,270.6c.19.2.38.4.56.61l.26.33s.1.15.14.17-.07-.1,0,0l.08.1a13.12,13.12,0,0,1,.92,1.41.68.68,0,1,0,1.17-.68,15.16,15.16,0,0,0-2.16-2.88.68.68,0,0,0-1,1Z"/><path d="M169.24,269.35a18.35,18.35,0,0,0-1.9,3.08,12.81,12.81,0,0,0-1.29,3.5,2.26,2.26,0,0,0,1.33,2.56,5.31,5.31,0,0,0,2.85.17.68.68,0,0,0,.47-.83.68.68,0,0,0-.83-.47,3.76,3.76,0,0,1-2-.11c-.83-.36-.51-1.29-.29-2A18.6,18.6,0,0,1,170.4,270a.67.67,0,0,0-.24-.92.68.68,0,0,0-.92.24Z"/><path d="M170.87,269.18l.3.6a.52.52,0,0,0,.17.19.46.46,0,0,0,.23.12.5.5,0,0,0,.27,0,.46.46,0,0,0,.25-.08l.14-.1a.75.75,0,0,0,.17-.3l0-.18a.67.67,0,0,0-.09-.34l-.3-.6a.45.45,0,0,0-.17-.19.46.46,0,0,0-.23-.12.5.5,0,0,0-.27,0,.57.57,0,0,0-.25.08l-.14.11a.64.64,0,0,0-.17.3l0,.18a.69.69,0,0,0,.09.34Z"/><path d="M172.46,268.23l.51.76a.45.45,0,0,0,.18.18.53.53,0,0,0,.49.14.53.53,0,0,0,.25-.08.64.64,0,0,0,.31-.41l0-.18a.69.69,0,0,0-.09-.34l-.51-.75a.47.47,0,0,0-.18-.19.46.46,0,0,0-.23-.12.46.46,0,0,0-.26,0,.5.5,0,0,0-.26.08.69.69,0,0,0-.31.4l0,.18a.67.67,0,0,0,.09.34Z"/><path d="M177,273.35c-.07-.55.45-.86.94-.93.8-.11,1.62.14,2.42.11a6.54,6.54,0,0,0,4.06-1.61c.66-.57-.3-1.52-.95-1a5,5,0,0,1-1.94,1,6.2,6.2,0,0,1-2.39.11,3.87,3.87,0,0,0-2.44.34,2,2,0,0,0-1.05,1.9.71.71,0,0,0,.68.68.68.68,0,0,0,.67-.68Z"/><path d="M145.25,273c.39-.07.78-.12,1.18-.17l.69-.08.27,0c.06,0,.3,0,.17,0l-.29-.17s0,0,0,.07l-.1-.34v.05l.1-.34c-.74,1.45-1.36,3-2.1,4.39-.32.65.54,1.44,1.06.82a2.73,2.73,0,0,1,2.71-.78,1.55,1.55,0,0,1,1.09,1.81,2.11,2.11,0,0,1-1.24,1.87,1.85,1.85,0,0,1-1,.2c-.14,0-.15-.06-.26-.12s-.09-.23,0,0l0-.05a.66.66,0,0,1,0-.15c0,.18,0,0,0-.09s0-.25,0-.12a1.6,1.6,0,0,1,0-.21c0-.14,0,0,.05-.14a.31.31,0,0,1,.22-.19,1.66,1.66,0,0,1,.46,0,.67.67,0,0,0,.36-1.3,2.12,2.12,0,0,0-1.87.4,2.09,2.09,0,0,0-.61,1.4,1.75,1.75,0,0,0,2.06,1.9,3.47,3.47,0,0,0,3-2.39,3.18,3.18,0,0,0-1-3.69,3.28,3.28,0,0,0-2.46-.55,4.34,4.34,0,0,0-2.45,1.24l1.06.82c.39-.77.74-1.55,1.1-2.32l.57-1.22a3.43,3.43,0,0,0,.51-1.2,1,1,0,0,0-.7-.93,2.75,2.75,0,0,0-.9.05c-.69.09-1.38.17-2.07.28a.68.68,0,0,0,.36,1.31Z"/><path d="M86.82,264.63l-.52,3.64-.08.51a.79.79,0,0,0,.53.93.76.76,0,0,0,.92-.53l.52-3.64.08-.51a.77.77,0,0,0-.53-.92.74.74,0,0,0-.92.52Z"/><path d="M103.62,267.84l-.71,2.78-.1.39a.75.75,0,0,0,.52.92.76.76,0,0,0,.92-.52l.71-2.78.1-.39a.75.75,0,1,0-1.44-.4Z"/><path d="M104.12,256.89l.3-.09.14,0c.16,0,0,0,0,0,.23,0,.46,0,.7,0a7,7,0,0,1,.8,0l.18,0s.17,0,.06,0l.43.07a9.13,9.13,0,0,1,1.45.39l.17.06c.19.07-.13-.07,0,0a1.67,1.67,0,0,1,.23.12c.09,0,.16.1.25.14s-.11-.11,0,0a.6.6,0,0,1,.08.08.76.76,0,0,0,1.06,0,.75.75,0,0,0,0-1.06,3.28,3.28,0,0,0-1.26-.74,8,8,0,0,0-1.59-.44,7,7,0,0,0-3.44,0,.77.77,0,0,0-.52.92.76.76,0,0,0,.92.53Z"/><path d="M85,254.23c.12-.1-.11.06,0,0l.14-.09.16-.08c.14-.07-.12,0,.05,0a6.15,6.15,0,0,1,.71-.18s.22,0,.09,0l.22,0,.46,0c.3,0,.6,0,.9,0a7.85,7.85,0,0,1,1.58.24,5.56,5.56,0,0,1,.7.19l.15.06c.15,0-.13-.07,0,0a1.67,1.67,0,0,1,.23.12.75.75,0,0,0,.76-1.3,8,8,0,0,0-3.51-.81,5.25,5.25,0,0,0-3.73.87A.75.75,0,0,0,85,254.23Z"/><path d="M89.24,286a6.6,6.6,0,0,0,1.79.87,13,13,0,0,0,2.74.65c1.84.23,4,0,5.31-1.37.68-.69-.38-1.75-1.06-1.06-1.07,1.11-2.84,1.13-4.27.92a11.59,11.59,0,0,1-2.32-.58,5.43,5.43,0,0,1-1.44-.73.74.74,0,0,0-1,.27.76.76,0,0,0,.27,1Z"/><path d="M97.79,274.14l0,2.83a.75.75,0,0,0,1.5,0l0-2.83a.78.78,0,0,0-.75-.75.76.76,0,0,0-.75.75Z"/><path d="M96.72,296.93c7.7-4,12.22-13,14.11-21.11,2.23-9.57,1.15-20.25-5-28.19a30.53,30.53,0,0,0-13.38-9.58,23.48,23.48,0,0,0-15.55-1c-10.68,3.19-18.93,12.77-22.66,23a35.56,35.56,0,0,0-1.81,17.67A34.76,34.76,0,0,0,61,295.29a45,45,0,0,0,4.25,4.15v-1.06A90.57,90.57,0,0,0,52.12,319a162.92,162.92,0,0,0-12,38.15,271.32,271.32,0,0,0-4.15,31c-.08,1,1.42,1,1.5,0,1.33-16.76,3.89-33.51,8.81-49.61a123,123,0,0,1,13-29.55,77,77,0,0,1,7-9.55.76.76,0,0,0,0-1.06,36.35,36.35,0,0,1-11.42-16.67,32.66,32.66,0,0,1-.42-17.16c2.51-10.39,9.69-20.2,19.49-24.75a21.13,21.13,0,0,1,13.85-1.66,31.73,31.73,0,0,1,14.79,8.06c6.82,6.86,8.86,16.93,7.39,26.26-1.26,8-5,16.89-11.76,21.8A19,19,0,0,1,96,295.64c-.86.44-.1,1.74.76,1.29Z"/><path d="M137.35,307c-1.39.22-2.22,1.44-3,2.52s-1.31,2-2,2.95q-2.53,3.84-5,7.72c-.51.8-1.06,1.59-1.5,2.44-.36.68.67,1.29,1,.6,1-1.85,2.24-3.58,3.37-5.33,1.55-2.38,3.1-4.75,4.68-7.11.67-1,1.4-2.43,2.69-2.63.76-.12.43-1.27-.32-1.16Z"/><path d="M140.59,307.6c2.14-.2,4.29-.06,6.43-.11a.6.6,0,0,0,0-1.2c-2.14,0-4.29-.09-6.43.11a.62.62,0,0,0-.6.6.6.6,0,0,0,.6.6Z"/><path d="M136.07,310.09a8.56,8.56,0,0,0-.7.89,3.89,3.89,0,0,0-.47,1,1,1,0,0,0,.16,1,1.13,1.13,0,0,0,.86.28,1.35,1.35,0,0,0,1.09-.63.46.46,0,0,0-.16-.62.47.47,0,0,0-.62.16l0,.05c0-.06,0,0,0,0l0,0s.08-.05,0,0l-.07.05,0,0h0l-.08,0h0c-.08,0,.09,0,0,0h-.17c.09,0,0,0,0,0l-.06,0h0l.07,0-.05,0c-.08,0,.07.06,0,0s.05.07,0,.05,0,.07,0,0a.19.19,0,0,1,0-.07c0-.06,0,.13,0,0v-.07c0-.09,0,.1,0,0s0-.11,0-.16l0-.09,0-.05c0-.05,0,0,0,0a.93.93,0,0,0,.1-.2l.22-.38.15-.21a.76.76,0,0,1,.08-.11l0-.05s0,.07,0,0,.21-.26.33-.39a.45.45,0,1,0-.64-.63Z"/><path d="M137.62,309.78c-.14.07-.06,0,0,0s-.14,0,0,0h.08c.08,0-.12,0,0,0a.48.48,0,0,1,.17.05l-.06,0,0,0,.07,0c.1.06-.06-.06,0,0l0,0,0-.05,0,0s0,0,0-.06,0,0,0,.06,0-.13,0-.06,0,.05,0,.07,0-.1,0,0,0,.05,0,.08a1.42,1.42,0,0,1-.05.16v0l0,.07-.18.32-.18.26a.76.76,0,0,1-.08.11l0,0,0,0a.54.54,0,0,0-.13.32.48.48,0,0,0,.13.32.46.46,0,0,0,.64,0,4.69,4.69,0,0,0,.69-1.13,1.27,1.27,0,0,0,.08-.72.93.93,0,0,0-.53-.6,1.18,1.18,0,0,0-1,0,.44.44,0,0,0-.16.61.45.45,0,0,0,.61.16Z"/><path class="cls-4" d="M124,322.46s9.61-17.79,13.45-17.9,14-.95,12.46,1.31"/><path class="cls-4" d="M149.25,308s-6,10.18-10.44,16.52"/><path class="cls-4" d="M141.44,328.52s3.91-5.78,2.49-7.54"/><path class="cls-4" d="M127.7,344.06s-3.44,17.85-15.49,24.76"/><path class="cls-4" d="M115.06,341.93s-5.61,5.37-9.47,9.3"/><path class="cls-4" d="M136.62,324.27s-2.17-3.3-3.35-3.29c-2.61,0-6.23,6.39-9.49,4.36s-5.94,6.14-5.94,6.14.2,9.3,10.07,9c14.05-.38,13.18-9,13.18-9"/><path class="cls-4" d="M89.5,318.13c6.14-4.38,7.27-7.67,7.08-9.92-.29-3.54-3.83-4.22-7.67-11.55-1.71-3.26-2.34-5.68-3.38-5.6-1.22.1-1.89,3.53-2.27,5.67-1.64,9.32-2.47,14-1.84,20.27.7,7.09,2.06,8-13.47,33.51"/><path class="cls-4" d="M78.89,367.44s13-25.72,10.76-44.64"/><path class="cls-4" d="M47.34,363.13c-1.53-.9,15.72,19.89,26.59,10.73"/><path class="cls-4" d="M101.19,303.05s9.28,16.29,11.78,30.83"/><polyline class="cls-5" points="491.28 173.44 479.05 180.84 479.05 285.23 491.28 292.63"/><line class="cls-5" x1="472.07" y1="212.04" x2="395" y2="212.04"/><polyline class="cls-5" points="414.53 221.93 393.19 211.7 414.53 202.29"/><path class="cls-5" d="M174.66,308.89h221.1l34.53-96.78"/><polyline class="cls-5" points="194.61 318.71 173.26 308.48 194.61 299.07"/><polyline class="cls-1" points="520.74 95.55 528.14 107.78 632.52 107.78 639.93 95.55"/><line class="cls-1" x1="578.95" y1="117.73" x2="578.95" y2="154.35"/><polyline class="cls-1" points="568.85 134.13 579.08 155.47 588.49 134.13"/><polyline class="cls-6" points="547.62 53.5 543.1 51.39 542.48 55.55 537.63 53.94 537.71 58.35 532.01 56.49 532.79 60.98 527.55 60.49 529.48 64.9 524.79 65.41 527.72 68.92 523.66 70.27 527.17 72.88 522.79 75.89 527.12 78.22"/><polyline class="cls-6" points="519.44 76.84 516.14 74.15 520.75 72.09 517.25 69.02 521.82 66.69 518.9 62.94 524.27 61.34 521.76 56.61 527.1 57.37 526.62 51.26 533.57 53.81 534.02 48.03 538.98 50.68 540.13 45.93 544.33 48.78"/><polyline class="cls-7" points="603.08 44.43 608.8 41.76 609.59 47.02 615.72 44.98 615.62 50.56 622.83 48.21 621.84 53.89 628.47 53.27 626.03 58.84 631.97 59.49 628.25 63.93 633.38 65.63 628.95 68.94 634.49 72.74 629.01 75.7"/><polyline class="cls-7" points="638.73 73.94 642.9 70.55 637.07 67.94 641.5 64.05 635.72 61.11 639.41 56.36 632.62 54.35 635.79 48.36 629.04 49.32 629.65 41.59 620.86 44.82 620.29 37.51 614.02 40.86 612.55 34.86 607.25 38.45"/><path d="M654.88,136.72a4.64,4.64,0,0,0,1.74.15c.54,0,1.08-.11,1.62-.13A.76.76,0,0,0,659,136a.77.77,0,0,0-.75-.75c-.52,0-1,.09-1.57.13-.27,0-.55,0-.82,0h-.19s-.17,0,0,0,0,0,0,0a2.21,2.21,0,0,1-.35-.08.74.74,0,0,0-.92.52.77.77,0,0,0,.52.92Z"/><path d="M653.88,140.17a9.91,9.91,0,0,0,2.61.29,6.46,6.46,0,0,0,2.69-.37.76.76,0,0,0,.27-1,.78.78,0,0,0-1-.26c.26-.12,0,0-.06,0l-.21.05-.28,0s.19,0,0,0l-.13,0a11.82,11.82,0,0,1-1.33,0c-.44,0-.88,0-1.31-.08l-.14,0h0l-.26,0a3.13,3.13,0,0,1-.44-.1.75.75,0,1,0-.4,1.45Z"/><path d="M656.18,134.57c-.67,2.45-1.77,5.15-1.11,7.72a3,3,0,0,0,2.15,2.35A3.16,3.16,0,0,0,660,144c.72-.65-.35-1.71-1.06-1.06a2,2,0,0,0-.19.12,1.61,1.61,0,0,1-.52.14,1.67,1.67,0,0,1-.87-.1c-.73-.29-.94-1.21-1-1.91-.16-2.13.68-4.22,1.22-6.24a.75.75,0,0,0-1.44-.4Z"/><path d="M663.7,135.44l1.18,1.18a.75.75,0,0,0,1.06,0,.75.75,0,0,0,.22-.53.81.81,0,0,0-.22-.53l-1.18-1.18a.81.81,0,0,0-.53-.22.75.75,0,0,0-.75.75.79.79,0,0,0,.22.53Z"/><path d="M662.63,139.7l.28-.07h.52l.48.13c.16.05,0,0,.08,0l.26.14a2.05,2.05,0,0,1,.66.57c-.09-.1.08.11.09.14l.11.18.06.13c0-.07,0-.07,0,0a2.17,2.17,0,0,1,.07.24,1.8,1.8,0,0,1,0,.8,2.09,2.09,0,0,1-.39.81c-.05.08-.06.08,0,0a.27.27,0,0,1-.07.08l-.18.19a1.26,1.26,0,0,1-.31.25l-.25.14c-.15.08,0,0-.09,0l-.28.08-.15,0h0a.78.78,0,0,0-.75.75.75.75,0,0,0,.75.75,3.68,3.68,0,0,0,3.24-2.9,3.46,3.46,0,0,0-2-3.76,3.55,3.55,0,0,0-2.52-.24.75.75,0,0,0,.4,1.44Z"/><path d="M672.9,134.37a23.64,23.64,0,0,0-1.08,5.26.75.75,0,0,0,1.5,0,21.49,21.49,0,0,1,1-4.86.75.75,0,0,0-1.45-.4Z"/><path d="M670.48,136.26l-1.4,2.31a.74.74,0,0,0,.27,1,.75.75,0,0,0,1-.27l1.41-2.3a.75.75,0,1,0-1.3-.76Z"/><path d="M675.59,137.51l.87,1.32a.78.78,0,0,0,.45.35.74.74,0,0,0,.58-.08.74.74,0,0,0,.27-1l-.88-1.33a.74.74,0,0,0-.45-.34.76.76,0,0,0-.57.07.74.74,0,0,0-.27,1Z"/><path d="M674.73,139.91a18.86,18.86,0,0,1-5.22,3.62.75.75,0,0,0-.27,1,.76.76,0,0,0,1,.27,19.94,19.94,0,0,0,5.52-3.85c.69-.68-.37-1.74-1.06-1.06Z"/><path d="M642,151.42l.66.64a.61.61,0,0,0,.24.15.64.64,0,0,0,.58,0,.61.61,0,0,0,.24-.15l.12-.16a.69.69,0,0,0,.1-.37l0-.2a.69.69,0,0,0-.19-.33l-.66-.64a.54.54,0,0,0-.24-.16.49.49,0,0,0-.29-.06.48.48,0,0,0-.29.06.45.45,0,0,0-.24.16l-.12.15a.72.72,0,0,0-.1.38l0,.2a.82.82,0,0,0,.2.33Z"/><path d="M641,154.84a17.74,17.74,0,0,0,3.27-1,.81.81,0,0,0,.45-.34.83.83,0,0,0,.08-.58.76.76,0,0,0-.93-.52,19.44,19.44,0,0,1-3.27,1,.75.75,0,0,0-.52.92.77.77,0,0,0,.92.52Z"/><path d="M641.66,157.25a3,3,0,0,0,.8-.13,3.2,3.2,0,0,0,.72-.35.55.55,0,0,0,.21-.19.66.66,0,0,0,.14-.26.61.61,0,0,0,0-.3.71.71,0,0,0-.09-.28.75.75,0,0,0-1-.26,2.42,2.42,0,0,1-.39.21l.18-.07a2,2,0,0,1-.53.14l.2,0-.22,0a.75.75,0,0,0-.75.75.77.77,0,0,0,.22.53.73.73,0,0,0,.53.22Z"/><path d="M641.77,158.64l1-.3a.79.79,0,0,0,.45-.35.49.49,0,0,0,.09-.28.61.61,0,0,0,0-.3.75.75,0,0,0-.93-.52l-1,.3a.77.77,0,0,0-.44.35.47.47,0,0,0-.09.28.48.48,0,0,0,0,.29.75.75,0,0,0,.92.53Z"/><path d="M640,162.93a3,3,0,0,0,1.08.61,2,2,0,0,0,1.2,0,1.9,1.9,0,0,0,1-.91,2.35,2.35,0,0,0,.26-1.19,2.28,2.28,0,0,0-.36-1.13,2.16,2.16,0,0,0-1-.81A2,2,0,0,0,640,160a2.09,2.09,0,0,0-.49,1.27,1.83,1.83,0,0,0,.47,1.28.75.75,0,0,0,.53.22.77.77,0,0,0,.53-.22.75.75,0,0,0,.22-.53.87.87,0,0,0-.22-.53l0-.05.12.16a1.13,1.13,0,0,1-.12-.21l.07.18a1.38,1.38,0,0,1-.08-.29l0,.2a1.82,1.82,0,0,1,0-.33l0,.2a1.68,1.68,0,0,1,.09-.32l-.08.17a1.35,1.35,0,0,1,.15-.26l-.11.15a1.14,1.14,0,0,1,.19-.19l-.15.12a1.2,1.2,0,0,1,.24-.15l-.17.08a1.33,1.33,0,0,1,.34-.1l-.2,0h.35l-.2,0a1.4,1.4,0,0,1,.35.1l-.18-.08a1.92,1.92,0,0,1,.31.18l-.15-.12a1.31,1.31,0,0,1,.23.24l-.12-.15a1.05,1.05,0,0,1,.17.29l-.07-.18a1.85,1.85,0,0,1,.11.42l0-.2a1.34,1.34,0,0,1,0,.4l0-.2a1.6,1.6,0,0,1-.11.39l.08-.17a1.92,1.92,0,0,1-.18.31l.12-.15a1.34,1.34,0,0,1-.21.2L642,162a.82.82,0,0,1-.2.12l.17-.08a.9.9,0,0,1-.28.08l.2,0a1.28,1.28,0,0,1-.34,0l.2,0a2.11,2.11,0,0,1-.43-.12l.17.07a2.07,2.07,0,0,1-.45-.27l.15.12-.08-.07a.79.79,0,0,0-.53-.22.77.77,0,0,0-.53.22.75.75,0,0,0,0,1.06Z"/><path d="M645.89,151.72l0,0-.12-.15a1.81,1.81,0,0,1,.22.44,2.26,2.26,0,0,0,.34.56.61.61,0,0,0,.24.15.59.59,0,0,0,.29.07.57.57,0,0,0,.29-.07.61.61,0,0,0,.24-.15.75.75,0,0,0,.22-.53l0-.2a.7.7,0,0,0-.2-.33l0,0,.12.15a2.3,2.3,0,0,1-.23-.44,1.91,1.91,0,0,0-.34-.56.49.49,0,0,0-.24-.15.57.57,0,0,0-.29-.07.59.59,0,0,0-.29.07.61.61,0,0,0-.24.15.77.77,0,0,0-.22.53l0,.2a.78.78,0,0,0,.19.33Z"/><path d="M649.4,150.58a2.84,2.84,0,0,0-.32.5l-.27.51a1,1,0,0,1-.11.17l.12-.15h0a.61.61,0,0,0-.15.24.64.64,0,0,0,0,.58.61.61,0,0,0,.15.24.77.77,0,0,0,.53.22.75.75,0,0,0,.53-.22,2.58,2.58,0,0,0,.32-.49c.09-.17.18-.35.28-.52l.1-.17-.12.15h0a.51.51,0,0,0,.16-.24.68.68,0,0,0,.06-.29.72.72,0,0,0-.06-.29.63.63,0,0,0-.16-.24.75.75,0,0,0-1.06,0Z"/><path d="M647.58,156.58A2.52,2.52,0,0,0,650,156a1.69,1.69,0,0,0,.47-1.19,1.83,1.83,0,0,0-.48-1.15,2.09,2.09,0,0,0-2.14-.6,3.34,3.34,0,0,0-1.78,1.38,2,2,0,0,0-.4,1.3,1.54,1.54,0,0,0,.78,1.27.75.75,0,0,0,.75-1.3l-.07,0s.1.1.06.05,0,.1,0,0,0,.14,0,0,0-.06,0-.09,0,0,0,.06,0-.22,0-.09,0,0,0-.08,0-.13,0,0,0,0,0,0l.1-.19.09-.13c.08-.11,0,0,0,0s0-.05,0-.06a2.44,2.44,0,0,1,.27-.29l.12-.1c.07-.06,0,0,0,0l.06,0a3.14,3.14,0,0,1,.31-.18c.09,0-.14.05,0,0l.07,0,.17-.05h.07s-.16,0-.07,0h.2c.09,0-.16,0-.06,0l.06,0,.16,0-.07,0s.05,0,.06,0l.08.05s.11.07,0,0,0,0,.07.07l0,0c.06.05,0-.06,0-.06l.08.13c.08.15,0-.13,0,0s0,0,0,.06,0,0,0-.07a.33.33,0,0,0,0,.14s0-.19,0-.07,0,0,0,.07,0-.07,0-.07a.53.53,0,0,1-.06.1c0,.07,0-.05.05-.05s0,.05-.06.07l-.07.06c-.09.09,0,0,0,0l-.17.09h0c.11-.05,0,0-.06,0l-.08,0h0s-.17,0-.21,0h-.25c-.08,0,0,0,0,0l-.18,0a.75.75,0,1,0-.4,1.44Z"/><path d="M646.34,157.69,644.68,162a.76.76,0,0,0,.52.92.78.78,0,0,0,.93-.52l1.66-4.32a.75.75,0,0,0-.53-.92.77.77,0,0,0-.92.52Z"/><path d="M648.2,157.25a3.41,3.41,0,0,0-.28,1.73,6.24,6.24,0,0,0,.35,1.8,3.44,3.44,0,0,0,3.2,2.31.75.75,0,0,0,0-1.5h-.22c-.21,0,.13,0-.08,0l-.37-.1-.1,0c.06,0,.07,0,0,0a.8.8,0,0,1-.16-.08l-.18-.11s-.18-.14-.08-.05l-.3-.3c-.09-.09,0,0,0,0a1.63,1.63,0,0,1-.11-.17c-.05-.08-.08-.16-.12-.23.09.17,0,0,0,0a1,1,0,0,1-.05-.16,5.39,5.39,0,0,1-.18-.66c0-.13,0-.25-.06-.38,0,.18,0,0,0-.06s0-.13,0-.19a5,5,0,0,1,0-.67c0-.19,0,.16,0,0l0-.15s0-.1,0-.14-.07.14,0,0a.78.78,0,0,0-.27-1,.77.77,0,0,0-1,.27Z"/><path d="M654.64,159.42a2.69,2.69,0,0,0,2.49-2.06,7.31,7.31,0,0,0,.25-1.74,6.49,6.49,0,0,0-.15-1.76c-.28-1.14-1.2-2.39-2.54-2a3.34,3.34,0,0,0-2.14,2.5,3.6,3.6,0,0,0,1.2,3.5.78.78,0,0,0,1.06,0,.75.75,0,0,0,0-1.06,2.12,2.12,0,0,1-.75-2.27,2.05,2.05,0,0,1,.66-1,1.55,1.55,0,0,1,.4-.23c.11,0,.2.05.3.18a3.82,3.82,0,0,1,.42,2.67,2.83,2.83,0,0,1-.37,1.3,1,1,0,0,1-.83.49.75.75,0,0,0,0,1.5Z"/><path d="M654.51,156.36l1-.25a.82.82,0,0,0,.45-.35.71.71,0,0,0,.09-.28.51.51,0,0,0,0-.3.76.76,0,0,0-.34-.45.83.83,0,0,0-.58-.07l-1,.26a.74.74,0,0,0-.45.34.71.71,0,0,0-.09.28.61.61,0,0,0,0,.3.79.79,0,0,0,.35.45.83.83,0,0,0,.58.07Z"/><path d="M658.43,162.2A17.14,17.14,0,0,0,659.8,157c.11-.87.18-1.75.27-2.62,0-.44.09-.88.15-1.31,0-.26,0-.91.25-1.08.59-.46,1,.89,1,1.2a18,18,0,0,1,.3,2.83,53.09,53.09,0,0,1-.18,6.05c-.06,1,1.44,1,1.5,0,.12-1.84.24-3.68.2-5.53a26.83,26.83,0,0,0-.21-2.69,6,6,0,0,0-.6-2.27c-.74-1.25-2.71-1.67-3.46-.18a6.73,6.73,0,0,0-.42,2.23c-.09.81-.16,1.62-.25,2.44a16.45,16.45,0,0,1-1.27,5.39c-.41.87.89,1.63,1.3.76Z"/><path d="M660.16,155.86a3.92,3.92,0,0,1,.66-.15l-.2,0a4.17,4.17,0,0,1,.79,0,.75.75,0,0,0,.75-.75.73.73,0,0,0-.22-.53.79.79,0,0,0-.53-.22,4.41,4.41,0,0,0-1.65.2.82.82,0,0,0-.45.35.77.77,0,0,0-.07.58.75.75,0,0,0,.34.44.74.74,0,0,0,.58.08Z"/><path d="M659.87,158.86l1.63-.15a.81.81,0,0,0,.53-.22.75.75,0,0,0,.22-.53.77.77,0,0,0-.22-.53.71.71,0,0,0-.53-.22l-1.63.15a.81.81,0,0,0-.53.22.77.77,0,0,0-.22.53.75.75,0,0,0,.75.75Z"/><path d="M666,153.92l.06,2.47a5,5,0,0,0,.48,2.42,2.37,2.37,0,0,0,1.91,1.23,3.87,3.87,0,0,0,2.22-.75.77.77,0,0,0,.27-1,.75.75,0,0,0-1-.27,2.75,2.75,0,0,1-1.43.55h-.09l-.14-.05-.12-.07c-.19-.11,0,0-.06,0a1.37,1.37,0,0,1-.33-.49,6.23,6.23,0,0,1-.2-1.83l-.05-2.12a.75.75,0,1,0-1.5,0Z"/><path d="M673.27,154.23a3.08,3.08,0,0,0,1.21,0,3.09,3.09,0,0,0,1-.37.75.75,0,1,0-.75-1.29l-.28.13.18-.07a2.88,2.88,0,0,1-.64.17l.2,0a2.51,2.51,0,0,1-.67,0l.2,0h0a.51.51,0,0,0-.3,0,.44.44,0,0,0-.27.09.73.73,0,0,0-.35.44.78.78,0,0,0,.08.58.72.72,0,0,0,.45.35Z"/><path d="M674,152.65a15.28,15.28,0,0,0-1,6.86.78.78,0,0,0,.75.75.76.76,0,0,0,.75-.75,14.21,14.21,0,0,1,.9-6.46.75.75,0,1,0-1.44-.4Z"/><path d="M676.88,157l1.5-.41a.72.72,0,0,0,.45-.35.72.72,0,0,0,.08-.57.72.72,0,0,0-.35-.45.76.76,0,0,0-.57-.08l-1.51.42a.81.81,0,0,0-.45.34.75.75,0,0,0,.85,1.1Z"/><path d="M676.38,158.84a3.34,3.34,0,0,0,3.5.76.81.81,0,0,0,.45-.34.83.83,0,0,0,.08-.58.79.79,0,0,0-.35-.45.7.7,0,0,0-.58-.07,1.7,1.7,0,0,1-.32.1l-.18,0h-.45s-.16,0,0,0,0,0,0,0l-.1,0-.33-.09c-.06,0-.24-.11,0,0l-.14-.07a3.28,3.28,0,0,1-.31-.2c-.09,0,0,.05,0,.05s0,0-.06-.05l-.15-.14a.75.75,0,0,0-1.06,0,.77.77,0,0,0,0,1.06Z"/><path d="M684,150.27a5.39,5.39,0,0,0-.14,1.7.87.87,0,0,0,.22.53.77.77,0,0,0,.53.22.82.82,0,0,0,.54-.22.76.76,0,0,0,.21-.53,4.6,4.6,0,0,1,0-1.05l0,.19a3.12,3.12,0,0,1,.09-.44.83.83,0,0,0-.08-.58.75.75,0,0,0-.45-.35.78.78,0,0,0-.58.08.74.74,0,0,0-.34.45Z"/><path d="M681.32,154.18a23.58,23.58,0,0,1,3.11-.78c.61-.12,1.22-.24,1.83-.34q.39-.08.78-.12l.16,0,.28,0a.77.77,0,0,0,.75-.75.75.75,0,0,0-.75-.75,23.75,23.75,0,0,0-3.36.54,24.92,24.92,0,0,0-3.2.79.75.75,0,0,0,.4,1.45Z"/><path d="M683.37,154q-1,2-2.27,4a.76.76,0,0,0,.27,1,.78.78,0,0,0,1-.27q1.23-1.92,2.27-3.95a.78.78,0,0,0-.27-1,.77.77,0,0,0-1,.27Z"/><path d="M685.07,157.19l.24-.14c.11-.06-.16.06,0,0l.16-.05.31-.08a.76.76,0,0,0,.16,0h.58s-.17,0-.06,0l.29.07s.2.07.07,0,0,0,.07,0a.75.75,0,0,0,.12.07s-.14-.12-.06,0l0,0,0,0-.06-.07a.91.91,0,0,0,.08.13c.06.11,0-.15,0,0l0,.15c0,.12,0-.18,0,0s0,.13,0,.19a1,1,0,0,0,0,.17.17.17,0,0,0,0,.07c0,.11,0-.15,0,0s-.05.25-.08.38a2.06,2.06,0,0,1-.12.35.88.88,0,0,1,0,.15c-.05.13,0,0,0,0a.3.3,0,0,0,0,.1,7.14,7.14,0,0,1-.4.71s-.13.18-.06.09,0,0,0,0l-.1.1c0,.06,0,0,0,0l.05,0h0a.41.41,0,0,1,.41.2.74.74,0,0,0-1-.27.76.76,0,0,0-.27,1,1.11,1.11,0,0,0,1.49.4,2.16,2.16,0,0,0,.79-.85,5.47,5.47,0,0,0,.75-1.86,2.44,2.44,0,0,0-.43-2.08,2.53,2.53,0,0,0-1.78-.7,3.64,3.64,0,0,0-2,.51.75.75,0,0,0,.76,1.3Z"/><path d="M690.86,155.67l.2,0c.06,0-.14,0-.13,0h.49l.14,0h.09c.13,0-.15,0,0,0A9,9,0,0,1,693,156l.15.06h0l.3.15a1.64,1.64,0,0,1,.22.14c.08,0,.13.14,0,0l.09.08.08.08c-.06,0-.11-.17,0-.05l0,.06c.06.1,0-.05,0-.07s0,.14,0,.19,0-.14,0,0V157s0,.06,0,.1,0-.12,0,0-.06.28-.1.42-.05.13-.07.19,0,0,0,0,0,.09,0,.12-.13.23-.2.35,0,0,0-.05a.18.18,0,0,0,0,.07l-.15.14a.75.75,0,0,0,0,1.06.76.76,0,0,0,1.06,0,3.21,3.21,0,0,0,.91-1.66,2.17,2.17,0,0,0-1.37-2.87,7.25,7.25,0,0,0-1.64-.51,3.38,3.38,0,0,0-1.73,0,.76.76,0,0,0-.52.92.75.75,0,0,0,.92.52Z"/><path d="M692.63,152.24a9.45,9.45,0,0,0-1.47,3.43c-.32,1.16-.56,2.34-.78,3.53a.76.76,0,0,0,.52.92.75.75,0,0,0,.92-.52c.21-1.13.44-2.25.73-3.36a18.18,18.18,0,0,1,.56-1.77l.09-.23c0-.11,0,0,0-.08s.11-.24.17-.37.11-.2.17-.29.07-.11.1-.16.14-.18,0,0a.76.76,0,0,0,0-1.06.75.75,0,0,0-1.06,0Z"/><path d="M694.78,153.69a10.23,10.23,0,0,1,2,2.52c.31.51.6,1,.86,1.55a8.61,8.61,0,0,1,.57,1.37.75.75,0,0,0,1.45-.4,15.66,15.66,0,0,0-1.58-3.27,12.14,12.14,0,0,0-2.26-2.83.77.77,0,0,0-1.06,0,.75.75,0,0,0,0,1.06Z"/><path d="M697.44,153.3l.18.18-.12-.15a.92.92,0,0,1,.16.27l-.08-.18a1.11,1.11,0,0,1,.08.3.56.56,0,0,0,.14.25.58.58,0,0,0,.21.2.66.66,0,0,0,.28.09.61.61,0,0,0,.3,0l.18-.07a.75.75,0,0,0,.26-.27l.08-.18a.68.68,0,0,0,0-.4,1.42,1.42,0,0,0-.05-.22c0-.09-.07-.18-.11-.27a.54.54,0,0,1-.05-.11,3.81,3.81,0,0,0-.24-.32,1.21,1.21,0,0,0-.16-.16.54.54,0,0,0-.24-.16A.49.49,0,0,0,698,152a.48.48,0,0,0-.29.06.45.45,0,0,0-.24.16.71.71,0,0,0-.22.53l0,.2a.82.82,0,0,0,.2.33Z"/><path d="M699.13,152.59l.12.75a.53.53,0,0,0,.13.26.55.55,0,0,0,.21.19.58.58,0,0,0,.28.09.61.61,0,0,0,.3,0l.18-.08a.87.87,0,0,0,.27-.27l.07-.18a.68.68,0,0,0,0-.4l-.11-.75a.6.6,0,0,0-.13-.25.63.63,0,0,0-.21-.19.49.49,0,0,0-.28-.09.51.51,0,0,0-.3,0l-.18.08a.7.7,0,0,0-.27.27l-.08.17a.9.9,0,0,0,0,.4Z"/><path d="M680.58,173.53l2.25-.54a.75.75,0,0,0-.4-1.45l-2.25.55a.75.75,0,0,0-.52.92.77.77,0,0,0,.92.52Z"/><path d="M681.46,172.06a24.65,24.65,0,0,0-1.38,6.73.75.75,0,0,0,1.5,0,22.91,22.91,0,0,1,1.33-6.33.75.75,0,1,0-1.45-.4Z"/><path d="M684.19,175.59l.16-.07-.18.08a4.74,4.74,0,0,1,1.17-.33l-.2,0a4,4,0,0,1,.59,0,.75.75,0,0,0,0-1.5,5.58,5.58,0,0,0-2.3.54.71.71,0,0,0-.34.45.75.75,0,0,0,.07.57.79.79,0,0,0,.45.35.84.84,0,0,0,.58-.08Z"/><path d="M683.65,177.27a2.93,2.93,0,0,0,1.23,1.26,2.76,2.76,0,0,0,.83.3,3.26,3.26,0,0,0,1.08,0,.73.73,0,0,0,.44-.35.72.72,0,0,0,.08-.57.74.74,0,0,0-.34-.45l-.18-.08a.9.9,0,0,0-.4,0h0l.19,0a2.53,2.53,0,0,1-.55,0l.2,0a2.23,2.23,0,0,1-.56-.16l.18.08a2.36,2.36,0,0,1-.51-.3l.15.12a2.4,2.4,0,0,1-.39-.39l.12.15a1.58,1.58,0,0,1-.24-.39.74.74,0,0,0-.45-.34.78.78,0,0,0-.58.07.74.74,0,0,0-.34.45.83.83,0,0,0,.07.58Z"/><path d="M685.83,171.3a4.34,4.34,0,0,0,.15.8,4.85,4.85,0,0,0,.29.75.75.75,0,0,0,.45.35.74.74,0,0,0,.58-.08.71.71,0,0,0,.34-.45l0-.19a.8.8,0,0,0-.1-.38,1.42,1.42,0,0,1-.08-.18l.07.18a3.76,3.76,0,0,1-.25-.93l0,.2v-.07a.59.59,0,0,0-.07-.29.61.61,0,0,0-.15-.24.77.77,0,0,0-.53-.22.73.73,0,0,0-.53.22.69.69,0,0,0-.22.53Z"/><path d="M687.46,171.46l.44.63a.48.48,0,0,0,.19.21.51.51,0,0,0,.26.14.57.57,0,0,0,.29,0,.47.47,0,0,0,.28-.09l.16-.11a.92.92,0,0,0,.19-.33l0-.2a.8.8,0,0,0-.11-.38l-.43-.64a.51.51,0,0,0-.2-.21.56.56,0,0,0-.25-.14.61.61,0,0,0-.3,0,.71.71,0,0,0-.28.09l-.15.12a.69.69,0,0,0-.19.33l0,.2a.75.75,0,0,0,.1.38Z"/><path d="M691,172.24a3.65,3.65,0,0,0,1.38.39,2.79,2.79,0,0,0,.58,0,1.71,1.71,0,0,0,.79-.22.75.75,0,0,0,.27-1,.76.76,0,0,0-1-.27l-.07,0,.18-.08a1.17,1.17,0,0,1-.25.07l.2,0a2.73,2.73,0,0,1-.7,0l.2,0a3.49,3.49,0,0,1-.83-.21l.18.08-.15-.07a.75.75,0,0,0-1,.26.76.76,0,0,0,.27,1Z"/><path d="M692.7,170.06a12.31,12.31,0,0,0-1.91,4.24.75.75,0,0,0,1.45.4c.09-.37.19-.73.31-1.09.06-.16.11-.32.18-.47s.11-.29,0-.15l.12-.26a11.09,11.09,0,0,1,1.1-1.92.74.74,0,0,0-.27-1,.76.76,0,0,0-1,.27Z"/><path d="M696,172.8l.64.53a.51.51,0,0,0,.25.16.45.45,0,0,0,.28.06.48.48,0,0,0,.29-.06.45.45,0,0,0,.24-.16l.12-.15a.72.72,0,0,0,.1-.38l0-.2a.82.82,0,0,0-.2-.33l-.64-.53a.63.63,0,0,0-.24-.16.73.73,0,0,0-.58,0,.63.63,0,0,0-.24.16l-.12.15a.72.72,0,0,0-.1.38l0,.2a.69.69,0,0,0,.19.33Z"/><path d="M695.37,175a18.69,18.69,0,0,1-.14,2.11s0,.17,0,.06,0,.08,0,.09a1.57,1.57,0,0,0,0,.23c0,.14-.06.29-.1.43l0,.09s.06-.1,0,0-.1.17-.16.26c.06-.09,0,0,0,0l-.13.14c-.1.08.13-.08-.06,0l-.16.09c-.11.05.15,0-.06,0,0,0-.14,0,0,0a.78.78,0,0,1-.27,0,.66.66,0,0,1-.27-.1,1,1,0,0,1-.27-.18l-.1-.12s.06.09,0,0-.05-.07,0,0a.48.48,0,0,1-.05-.17c0-.12,0,.1,0,0s0-.18,0,0a.57.57,0,0,1,0-.14c0,.11,0,0,0-.08s-.07.05,0,0c-.11.06,0,0,0,0l0,0c.22-.06,0,0,.09,0a2,2,0,0,1,.67.18c.22.08.44.18.65.27l.3.12.18.08a6.3,6.3,0,0,1,1,.56l.07,0,.07.05.27.24c.2.19.39.39.58.6a.75.75,0,0,0,1.06-1.07,7.21,7.21,0,0,0-2.42-1.78c-1.11-.48-2.76-1.4-3.76-.22a1.89,1.89,0,0,0-.22,2.06,2.49,2.49,0,0,0,1.68,1.28,2.42,2.42,0,0,0,2.8-2,14.77,14.77,0,0,0,.28-3,.75.75,0,1,0-1.5,0Z"/><path d="M679.38,135.94a21.42,21.42,0,0,0-.58,3.48,5.86,5.86,0,0,0,.41,2.93,2.66,2.66,0,0,0,2.49,1.56,3.79,3.79,0,0,0,2.45-1.46.75.75,0,0,0-1.07-1.06,2.74,2.74,0,0,1-1.43,1,1.07,1.07,0,0,1-.86-.39,1.68,1.68,0,0,1-.35-.63,5.82,5.82,0,0,1-.12-2.25,20.84,20.84,0,0,1,.51-2.82c.22-.93-1.22-1.33-1.45-.39Z"/><path d="M653.44,168a.5.5,0,0,0,0,.12c0,.1,0,.2,0,.3a2,2,0,0,0,0,.42,2,2,0,0,0,.06.23,2.69,2.69,0,0,0,.19.38.76.76,0,0,0,.19.21.58.58,0,0,0,.26.13.51.51,0,0,0,.3,0,.44.44,0,0,0,.27-.09.73.73,0,0,0,.27-1,1.14,1.14,0,0,1-.1-.19l.08.18a1.38,1.38,0,0,1-.08-.27l0,.2a1.41,1.41,0,0,1,0-.29l0,.2,0-.12a.61.61,0,0,0,0-.3.49.49,0,0,0-.09-.28.55.55,0,0,0-.19-.21.5.5,0,0,0-.26-.13.71.71,0,0,0-.57.07.78.78,0,0,0-.35.45Z"/><path d="M652.48,172.41a8.83,8.83,0,0,1,1.07-.63,3.12,3.12,0,0,1,.44-.17l.3-.07H655l.15,0,.11,0s.16.07.06,0l.2.11,0,0,.09.07a1.37,1.37,0,0,1,.16.18c-.08-.11,0,.05.05.09s.07.14,0,0,0,0,0,0,0,.15.07.22a.36.36,0,0,0,0,.1s0-.13,0,0,0,.18,0,.26,0,.16,0,.24c0-.15,0,.05,0,.1l0,.2s0,.09-.05.13.05-.1,0,0a3.11,3.11,0,0,1-.22.4l-.08.11s.07-.08,0,0a1.71,1.71,0,0,1-.18.2,1.58,1.58,0,0,1-.3.25,3.81,3.81,0,0,1-.52.29,7.92,7.92,0,0,1-2.26.53.78.78,0,0,0-.75.75.76.76,0,0,0,.75.75c1.81-.19,4-.65,4.83-2.47a3.17,3.17,0,0,0,.17-2.52,2.68,2.68,0,0,0-2.32-1.63,5,5,0,0,0-3.22,1.08.75.75,0,1,0,.76,1.3Z"/><path d="M652.44,174.27l1.56-.5a.79.79,0,0,0,.45-.35.78.78,0,0,0,.07-.58.72.72,0,0,0-.34-.44.74.74,0,0,0-.58-.08l-1.56.51a.81.81,0,0,0-.45.34.77.77,0,0,0,.27,1,.74.74,0,0,0,.58.07Z"/><path d="M649.87,173c-.14,1.06-.24,2.11-.29,3.17a15.23,15.23,0,0,0,0,3,1.9,1.9,0,0,0,1.71,1.68,3.83,3.83,0,0,0,2.43-.87,5.24,5.24,0,0,0,1.78-2,1.64,1.64,0,0,0-.61-2.19,1.8,1.8,0,0,0-2.07.36,1.89,1.89,0,0,0-.11,2.31,3.07,3.07,0,0,0,2.63,1.13c1.2.06,2.41.06,3.61,0,1,0,1-1.54,0-1.5s-1.83.06-2.75,0c-.44,0-.88,0-1.31-.07a1.39,1.39,0,0,1-.82-.27c-.18-.18-.33-.6,0-.67s.17,0,.15.12a1.53,1.53,0,0,1-.48.73,4.86,4.86,0,0,1-1.72,1.25c-.18.07-.54.2-.74.08s-.2-.43-.22-.62a24.4,24.4,0,0,1,.24-5.33.78.78,0,0,0-.52-.92.76.76,0,0,0-.93.52Z"/><path d="M660.06,174l3.47-.82a.75.75,0,1,0-.39-1.44l-3.47.82a.75.75,0,1,0,.39,1.44Z"/><path d="M661,171.71l.89,2.93a.75.75,0,0,0,1.45-.4l-.9-2.93a.75.75,0,1,0-1.44.4Z"/><path d="M660.14,177.39a4.75,4.75,0,0,0,3,.87.75.75,0,0,0,0-1.5,3.76,3.76,0,0,1-.75,0l.19,0a4,4,0,0,1-1-.24c-.11-.05,0,0,0,0l-.12-.05-.22-.11-.43-.28a.78.78,0,0,0-.58-.07.81.81,0,0,0-.45.34.78.78,0,0,0,.27,1Z"/><path d="M666.86,172a3.24,3.24,0,0,0,3.41.14l-.73-1.25a32.85,32.85,0,0,0-3.12,3.65.74.74,0,0,0,.64,1.12l2.48-.17-.38-1.4a6.72,6.72,0,0,0-1.8,1.64,2.94,2.94,0,0,0,3.47,4.39.75.75,0,0,0-.4-1.45,1.45,1.45,0,0,1-2-1c-.19-1,.79-1.73,1.54-2.25a.76.76,0,0,0,.34-.84.74.74,0,0,0-.72-.55l-2.48.17.65,1.13a31.6,31.6,0,0,1,2.89-3.34c.49-.49,0-1.54-.73-1.25-.49.19-1.45.64-2,.24a.75.75,0,0,0-1.06,1.06Z"/><path d="M674.28,171.18a4.66,4.66,0,0,0,.39.49,2.71,2.71,0,0,0,.41.35,3.49,3.49,0,0,0,1,.56.71.71,0,0,0,.57-.07.75.75,0,0,0,.35-.45.78.78,0,0,0-.08-.58l-.11-.15a.77.77,0,0,0-.34-.19l-.12,0,.18.07a2.73,2.73,0,0,1-.64-.37l.15.12a3.13,3.13,0,0,1-.54-.55l.12.16-.07-.09a.82.82,0,0,0-.45-.35.78.78,0,0,0-.58.08.74.74,0,0,0-.26,1Z"/><path d="M674.25,175.68s.18-.14.08-.07a1.22,1.22,0,0,1,.19-.12l.19-.11c.09,0,.1,0,0,0l.11,0a3,3,0,0,1,.43-.11c.05,0,.05,0,0,0h.56s0,0,0,0l.15,0,.21.06c.14,0,0-.05.09,0l.18.11-.05,0c.06.07.07.07,0,0l0,0c0-.08,0-.08,0,0s0-.2,0,0a4.67,4.67,0,0,1-.37.85c-.16.31-.32.62-.5.92a14.08,14.08,0,0,1-1.18,1.69.76.76,0,0,0,0,1.06.75.75,0,0,0,1.06,0,15.94,15.94,0,0,0,1.59-2.3c.21-.38.41-.77.59-1.16a2.19,2.19,0,0,0,.26-1.52,2.24,2.24,0,0,0-2.23-1.3,3.57,3.57,0,0,0-2.45.93.75.75,0,0,0,0,1.06.76.76,0,0,0,1.06,0Z"/><circle class="cls-8" cx="437.9" cy="61.38" r="27.59"/><path class="cls-4" d="M636.5,187.77c-4.09-.91-8.16-3.31-6.54-11.08-8.32-.79-16.82-15.19-2-21.81a14.82,14.82,0,0,1,.65-9.44"/><path class="cls-4" d="M718.17,171.29a6.92,6.92,0,0,1-2.54,1.68s6.91,17.51-13.7,15.24c0,0-7.3,8.12-14.44,1.26,0,0-12.73,9.32-23.35.16,0,0-16.06,8.19-22-1.12a4.24,4.24,0,0,1-2.66.05"/><path class="cls-4" d="M630.18,142.31c1.44-3.36,4.55-5.21,9-4.81,0,0,0-14.09,16.15-9.72,2.59-7.17,24.35-21.14,37,0,0,0,11.38-3,10.15,8.41,0,0,17.18.5,9.13,16.63,6.27-.33,14.23,8.11,8.77,15.38"/><ellipse class="cls-9" cx="673.39" cy="206.93" rx="5.51" ry="4.63"/><ellipse class="cls-10" cx="661.89" cy="216.81" rx="4.19" ry="3.22"/></g></svg>