<svg xmlns="http://www.w3.org/2000/svg" xmlns:xlink="http://www.w3.org/1999/xlink" viewBox="0 0 434.45 389.39"><defs><style>.cls-1{fill:#424242;}.cls-2{fill:#ff7484;}.cls-3{fill:url(#名称未設定グラデーション_3);}.cls-4{fill:#fff;}</style><linearGradient id="名称未設定グラデーション_3" x1="221.52" y1="195.09" x2="222.73" y2="15.08" gradientUnits="userSpaceOnUse"><stop offset="0" stop-color="#fff" stop-opacity="0.5"/><stop offset="0.01" stop-color="#fff8f9" stop-opacity="0.52"/><stop offset="0.1" stop-color="#ffc9cf" stop-opacity="0.69"/><stop offset="0.18" stop-color="#ffa4af" stop-opacity="0.83"/><stop offset="0.26" stop-color="#ff8a97" stop-opacity="0.92"/><stop offset="0.34" stop-color="#ff7a89" stop-opacity="0.98"/><stop offset="0.4" stop-color="#ff7484"/></linearGradient></defs><path class="cls-1" d="M75.5,308.91A34,34,0,0,0,62,294.13a30.16,30.16,0,0,0-10.13-3.68,88.16,88.16,0,0,0-15.4-1H18.83L8.07,376.85H30.21q6,0,10.47-.29a68.65,68.65,0,0,0,7.7-.85A38.05,38.05,0,0,0,60,371.36a37.15,37.15,0,0,0,8.43-7,44,44,0,0,0,6.46-9.54,52.19,52.19,0,0,0,5.55-23.89A48.58,48.58,0,0,0,75.5,308.91ZM59.7,354.82a22.46,22.46,0,0,1-10.36,7.82q-6.11,2.14-17,2.15H22.51l7.75-63.3h7.25q11.2,0,16.93,2.89A22,22,0,0,1,64,314.46a35,35,0,0,1,3.45,16Q67.4,345.09,59.7,354.82Z"/><path class="cls-1" d="M138.47,329.57q-8-7.81-20.66-7.81-12.91,0-21.52,8.26a27.4,27.4,0,0,0-8.55,20.61q0,12.12,8.27,20.05t21.18,7.87A28.5,28.5,0,0,0,138,370.22a27.64,27.64,0,0,0,8.49-20.55Q146.51,337.27,138.47,329.57Zm-9.39,33.18A15.45,15.45,0,0,1,117,368.13a15.71,15.71,0,0,1-12-4.93q-4.65-4.81-4.65-12.74a18.33,18.33,0,0,1,4.93-13.08,16.52,16.52,0,0,1,12.46-5.15,15.54,15.54,0,0,1,11.72,4.65q4.47,4.47,4.47,12.17Q133.89,357.42,129.08,362.75Z"/><path class="cls-1" d="M204.52,329.57q-8-7.81-20.67-7.81-12.91,0-21.51,8.26a27.4,27.4,0,0,0-8.55,20.61q0,12.12,8.26,20.05t21.18,7.87a28.5,28.5,0,0,0,20.83-8.33,27.61,27.61,0,0,0,8.5-20.55Q212.56,337.27,204.52,329.57Zm-9.4,33.18A15.45,15.45,0,0,1,183,368.13a15.71,15.71,0,0,1-12-4.93q-4.65-4.81-4.64-12.74a18.32,18.32,0,0,1,4.92-13.08,16.53,16.53,0,0,1,12.46-5.15,15.52,15.52,0,0,1,11.72,4.65q4.47,4.47,4.47,12.17Q199.93,357.42,195.12,362.75Z"/><path class="cls-1" d="M258.05,329.4,251,336.48q-5-4.47-9.23-4.47a7.14,7.14,0,0,0-4.78,1.61,5,5,0,0,0-1.9,4,5.31,5.31,0,0,0,1.59,3.91,30.9,30.9,0,0,0,6.62,4.42c4.8,2.68,8,5.13,9.63,7.36a13.39,13.39,0,0,1,2.6,8.55A15.35,15.35,0,0,1,250.24,374q-5.38,4.53-14,4.53-11.72,0-19.42-10.59l8.21-5.72q5,6.06,10.76,6.06a7.62,7.62,0,0,0,5.18-1.7,5.57,5.57,0,0,0,2-4.41,4.9,4.9,0,0,0-1.64-3.85,23.45,23.45,0,0,0-2.77-2c-1.32-.87-3.12-1.91-5.38-3.12q-6-3.33-8.32-6.51a13.89,13.89,0,0,1-2.33-8.15,15.4,15.4,0,0,1,5.33-12q5.31-4.75,13.53-4.76Q250.41,321.76,258.05,329.4Z"/><path class="cls-1" d="M319,323.52l-3.8,31a60.82,60.82,0,0,1-1.13,6.91,34.17,34.17,0,0,1-1.47,4.93,17,17,0,0,1-5.32,6.73q-6.35,5-16.7,5-9.86,0-15.74-5T269,359.41c0-.87,0-1.89.14-3.06s.23-2.51.42-4l3.51-28.81h12.52l-3.68,30c-.16,1.28-.27,2.4-.34,3.37s-.12,1.76-.12,2.4q0,8.44,9.91,8.44,5.39,0,7.93-2.78t3.39-9.74l3.91-31.64Z"/><path class="cls-1" d="M349.09,323.52l-.56,4.58q6.33-6,12.79-6a15.19,15.19,0,0,1,10.31,4.13l-8,10.31a10.7,10.7,0,0,0-6.9-3,9,9,0,0,0-4.19.94,8.43,8.43,0,0,0-3.15,2.94,18.58,18.58,0,0,0-2.21,5.18,51.61,51.61,0,0,0-1.38,7.59l-3.29,26.61H330l6.57-53.33Z"/><path class="cls-1" d="M426.83,323.52l-3.8,31a60.82,60.82,0,0,1-1.13,6.91,34.17,34.17,0,0,1-1.47,4.93,17,17,0,0,1-5.32,6.73q-6.35,5-16.7,5-9.86,0-15.74-5t-5.89-13.65c0-.87,0-1.89.14-3.06s.23-2.51.42-4l3.51-28.81h12.52l-3.68,30c-.15,1.28-.27,2.4-.34,3.37s-.12,1.76-.12,2.4q0,8.44,9.91,8.44,5.39,0,7.93-2.78t3.4-9.74l3.9-31.64Z"/><rect class="cls-2" x="132.13" y="14.34" width="180" height="180" rx="30.87"/><rect class="cls-3" x="132.13" y="14.34" width="180" height="180" rx="30.87"/><path class="cls-4" d="M187.93,14.34l-55.8,54,45-14v141h57.15v-42.4s-2.25-56.7,43.65-35.1l-24.3,26.1,58.5-24.75L264,14.79l21.15,81S233.47,61,209.53,126.84V54.39l102.6,14Z"/></svg>