<svg xmlns="http://www.w3.org/2000/svg" xmlns:xlink="http://www.w3.org/1999/xlink" viewBox="0 0 434.45 389.39"><defs><style>.cls-1{fill:#424242;}.cls-2{fill:#ff7484;}.cls-3{fill:url(#名称未設定グラデーション_3);}.cls-4{fill:#fff;}</style><linearGradient id="名称未設定グラデーション_3" x1="221.52" y1="198.09" x2="222.73" y2="18.08" gradientUnits="userSpaceOnUse"><stop offset="0" stop-color="#fff" stop-opacity="0.5"/><stop offset="0.01" stop-color="#fff8f9" stop-opacity="0.52"/><stop offset="0.1" stop-color="#ffc9cf" stop-opacity="0.69"/><stop offset="0.18" stop-color="#ffa4af" stop-opacity="0.83"/><stop offset="0.26" stop-color="#ff8a97" stop-opacity="0.92"/><stop offset="0.34" stop-color="#ff7a89" stop-opacity="0.98"/><stop offset="0.4" stop-color="#ff7484"/></linearGradient></defs><path class="cls-1" d="M18.83,290.43H36.49a88.08,88.08,0,0,1,15.4,1A30.29,30.29,0,0,1,62,295.13,34.06,34.06,0,0,1,75.5,309.91a48.49,48.49,0,0,1,4.93,22,52.26,52.26,0,0,1-5.55,23.9,44.81,44.81,0,0,1-6.45,9.54,37.65,37.65,0,0,1-8.44,7,38.34,38.34,0,0,1-11.61,4.36,73.69,73.69,0,0,1-7.7.85q-4.47.29-10.47.28H8.07Zm11.44,12.06-7.76,63.3h9.85q10.88,0,17-2.15a22.6,22.6,0,0,0,10.36-7.81q7.7-9.75,7.7-24.41a34.9,34.9,0,0,0-3.46-16,22.07,22.07,0,0,0-9.51-10.08q-5.71-2.89-16.93-2.89Z"/><path class="cls-1" d="M146.52,350.67A27.65,27.65,0,0,1,138,371.23a28.55,28.55,0,0,1-20.84,8.32q-13,0-21.18-7.87t-8.26-20A27.37,27.37,0,0,1,96.3,331q8.61-8.26,21.51-8.27,12.69,0,20.67,7.81T146.52,350.67Zm-12.63-.62q0-7.69-4.47-12.17a15.52,15.52,0,0,0-11.72-4.65,16.5,16.5,0,0,0-12.46,5.16,18.29,18.29,0,0,0-4.92,13.08q0,7.92,4.64,12.73a15.74,15.74,0,0,0,12,4.93,15.45,15.45,0,0,0,12.12-5.38Q133.89,358.42,133.89,350.05Z"/><path class="cls-1" d="M212.56,350.67a27.65,27.65,0,0,1-8.49,20.56,28.55,28.55,0,0,1-20.84,8.32q-13,0-21.17-7.87t-8.27-20A27.37,27.37,0,0,1,162.34,331q8.61-8.26,21.52-8.27,12.67,0,20.66,7.81T212.56,350.67Zm-12.63-.62q0-7.69-4.47-12.17a15.52,15.52,0,0,0-11.72-4.65,16.47,16.47,0,0,0-12.45,5.16,18.26,18.26,0,0,0-4.93,13.08q0,7.92,4.64,12.73a15.75,15.75,0,0,0,12,4.93,15.44,15.44,0,0,0,12.11-5.38Q199.94,358.42,199.93,350.05Z"/><path class="cls-1" d="M258.05,330.4,251,337.48q-5-4.47-9.23-4.47a7.14,7.14,0,0,0-4.78,1.61,5,5,0,0,0-1.9,4,5.31,5.31,0,0,0,1.59,3.91,30.9,30.9,0,0,0,6.62,4.42c4.8,2.68,8,5.13,9.63,7.36a13.39,13.39,0,0,1,2.6,8.55A15.35,15.35,0,0,1,250.24,375q-5.38,4.53-14,4.53-11.72,0-19.42-10.59l8.21-5.72q5,6.06,10.76,6.06a7.62,7.62,0,0,0,5.18-1.7,5.57,5.57,0,0,0,2-4.41,4.9,4.9,0,0,0-1.64-3.85,23.45,23.45,0,0,0-2.77-2c-1.32-.87-3.12-1.91-5.38-3.12q-6-3.33-8.32-6.51a13.89,13.89,0,0,1-2.33-8.15,15.4,15.4,0,0,1,5.33-12q5.31-4.75,13.53-4.76Q250.41,322.76,258.05,330.4Z"/><path class="cls-1" d="M319,324.52l-3.8,31a60.82,60.82,0,0,1-1.13,6.91,34.17,34.17,0,0,1-1.47,4.93,17,17,0,0,1-5.32,6.73q-6.35,5-16.7,5-9.86,0-15.74-5T269,360.41c0-.87,0-1.89.14-3.06s.23-2.51.42-4l3.51-28.81h12.52l-3.68,30c-.16,1.28-.27,2.4-.34,3.37s-.12,1.76-.12,2.4q0,8.44,9.91,8.44,5.39,0,7.93-2.78t3.39-9.74l3.91-31.64Z"/><path class="cls-1" d="M349.09,324.52l-.56,4.58q6.33-6,12.79-6a15.19,15.19,0,0,1,10.31,4.13l-8,10.31a10.7,10.7,0,0,0-6.9-3,9,9,0,0,0-4.19.94,8.43,8.43,0,0,0-3.15,2.94,18.58,18.58,0,0,0-2.21,5.18,51.61,51.61,0,0,0-1.38,7.59l-3.29,26.61H330l6.57-53.33Z"/><path class="cls-1" d="M426.83,324.52l-3.8,31a60.82,60.82,0,0,1-1.13,6.91,34.17,34.17,0,0,1-1.47,4.93,17,17,0,0,1-5.32,6.73q-6.35,5-16.7,5-9.86,0-15.74-5t-5.89-13.65c0-.87,0-1.89.14-3.06s.23-2.51.42-4l3.51-28.81h12.52l-3.68,30c-.15,1.28-.27,2.4-.34,3.37s-.12,1.76-.12,2.4q0,8.44,9.91,8.44,5.39,0,7.93-2.78t3.4-9.74l3.9-31.64Z"/><rect class="cls-2" x="132.13" y="17.34" width="180" height="180" rx="30.87"/><rect class="cls-3" x="132.13" y="17.34" width="180" height="180" rx="30.87"/><path class="cls-4" d="M187.93,17.34l-55.8,54,45-14v140h57.15v-41.4s-2.25-56.7,43.65-35.1l-24.3,26.1,58.5-24.75L264,17.79l21.15,81S233.47,64,209.53,129.84V57.39l102.6,14Z"/></svg>