<svg xmlns="http://www.w3.org/2000/svg" viewBox="0 0 643.37 238.59"><defs><style>.cls-1,.cls-2,.cls-3,.cls-4{fill:none;stroke-linecap:round;stroke-linejoin:round;}.cls-1{stroke:#e6e6e6;stroke-width:2px;}.cls-2{stroke:#b3b3b3;}.cls-2,.cls-4{stroke-width:2.34px;}.cls-3,.cls-4{stroke:#8de6ff;}.cls-3{stroke-width:3px;}.cls-5{fill:#e6e6e6;}</style></defs><g id="レイヤー_2" data-name="レイヤー 2"><g id="internet"><polyline class="cls-1" points="74.24 227.65 1 227.65 1 72.73 124.43 72.73 124.43 218.14 95.89 204.02 83.78 227.85 116.82 222.37"/><line class="cls-1" x1="10.53" y1="86.07" x2="114.95" y2="86.07"/><circle class="cls-1" cx="12.46" cy="79.88" r="0.69"/><circle class="cls-1" cx="22.82" cy="79.88" r="0.69"/><circle class="cls-1" cx="17.57" cy="79.88" r="0.69"/><polyline class="cls-1" points="106.13 122.58 17.57 122.58 17.57 100.44 106.13 100.44 106.13 117.84"/><polyline class="cls-1" points="106.13 157.56 80.94 157.56 80.94 133.41 106.13 133.41 106.13 152.99"/><polyline class="cls-1" points="107.32 181.21 79.75 181.21 79.75 168.39 107.32 168.39 107.32 177.24"/><polyline class="cls-1" points="69.18 181.21 17.57 181.21 17.57 168.39 69.18 168.39 69.18 177.03"/><line class="cls-1" x1="22.82" y1="135.68" x2="62.77" y2="135.68"/><line class="cls-1" x1="22.82" y1="141.74" x2="62.77" y2="141.74"/><line class="cls-1" x1="22.71" y1="147.79" x2="62.66" y2="147.79"/><line class="cls-1" x1="22.76" y1="154.13" x2="62.71" y2="154.13"/><line class="cls-1" x1="22.66" y1="160.18" x2="46.8" y2="160.18"/><polyline class="cls-1" points="51.83 213.56 17.64 213.56 17.64 189.42 51.83 189.42 51.83 208.99"/><polyline class="cls-1" points="84.95 213.56 59.76 213.56 59.76 189.42 84.95 189.42 84.95 208.99"/><line class="cls-1" x1="128.98" y1="210.44" x2="140.77" y2="208.23"/><polyline class="cls-1" points="21.69 69.41 21.69 59.65 145.12 59.65 145.12 205.06 128.52 196.48"/><circle class="cls-1" cx="33.16" cy="66.8" r="0.69"/><circle class="cls-1" cx="43.51" cy="66.8" r="0.69"/><circle class="cls-1" cx="38.26" cy="66.8" r="0.69"/><line class="cls-1" x1="148.99" y1="197.06" x2="161.77" y2="195.23"/><polyline class="cls-1" points="39.69 56.41 39.69 46.65 163.12 46.65 163.12 192.06 149.07 184.8"/><circle class="cls-1" cx="51.16" cy="53.8" r="0.69"/><circle class="cls-1" cx="61.51" cy="53.8" r="0.69"/><circle class="cls-1" cx="56.26" cy="53.8" r="0.69"/><line class="cls-1" x1="166.99" y1="184.06" x2="179.77" y2="182.23"/><polyline class="cls-1" points="57.69 43.41 57.69 33.65 181.12 33.65 181.12 179.06 167.07 171.8"/><circle class="cls-1" cx="69.16" cy="40.8" r="0.69"/><circle class="cls-1" cx="79.51" cy="40.8" r="0.69"/><circle class="cls-1" cx="74.26" cy="40.8" r="0.69"/><path class="cls-2" d="M435.31,203.85c0,5.75,10.52,8.82,12.47,11.42,4,5.27,19.41,8.58,27.15,9,2,.11,6.53-3.75,12-1.72l5.22-4.7"/><path class="cls-2" d="M440.79,156.78a15.86,15.86,0,0,1-7.76-.53s-8.64,6.28-7.73,14.35c.63,5.58-1.42,10.61,3.36,13.74,2.13,1.4,2.45,4.4,4.84,5.31,1.74.66,7.29,4.81,5.65,9.32"/><path class="cls-2" d="M497.13,211.06c2.64-1.35,8.5-7.94,8-10-1.32-5.88.31-13.57,7.32-19.89,0,0,1.42-29.61-6.34-28.64-9.44,1.18-15.68-12.06-27.47-14.45-2.54-.52-11.47,4.06-15.88,3.71-5-.39-6.55,10.16-16.22,13.39"/><path class="cls-2" d="M447.29,196.88s5.35-2.24,5.68-4.27-2-9.82-.05-11.76,10.68-10.08,13.2-8.94"/><path class="cls-2" d="M473.49,155.51s.59,6.05,3.52,6.94c1.44.43,11,.51,13.15,2.36s4.29,10.52,4.29,10.52"/><path class="cls-2" d="M475.18,197.57S478,203,479.76,203s7-6.13,10.2-3.86c1.05.74,5.91-1.58,5.91-1.58"/><path class="cls-2" d="M471.78,174.54c.81,3.52,8.84,1.75,9.05,1.12"/><path class="cls-2" d="M546,234s-15.59,1.17-16.75-10.09c-1.38-13.47,4.79-5.75,3.19-11.73s-9.17-13.16-8.37-18.34,7-11,11.35-11.64c4.74-.71,4.92-3.35,7.32-5.35s6.62-2.3,6.62-2.3"/><path class="cls-2" d="M554.27,174.23c5.35,0,11.55,6.72,14.44,6.06s11.78-1.53,11.78-1.53,2.89-.09,3.55,2.57,2.66,14,5.55,14.86-4,18.64-4,18.64"/><path class="cls-2" d="M580.94,219.7s-9.1,4.22-9.76,7.32a35.57,35.57,0,0,1-2.89,7.28s-5.1,4.52-8.47,2.68c-2.86-1.55-7.47-1.4-7.9-3.65-.24-1.2.07-2.14-2.82-3.69a5,5,0,0,0-3.66-.69"/><path class="cls-2" d="M544.11,199.85s-1.67,4.61.13,6.25c.44.4,1,3.34,2.9,4.52s4.64,2.3,5.09,3.34c.91,2.07.07,7.43.07,7.43"/><path class="cls-2" d="M563.78,193.87s4.23,1.85,4.47,3.49-1.65,7.88-.15,9.47,3.9-1.86,5.53,3"/><path class="cls-2" d="M546.2,187.66c1,4.18,7.67,1.56,9,.9"/><path class="cls-3" d="M477.1,95.66a57.41,57.41,0,0,1,104.35,33.05c0,16.29-9.34,34.48-19.84,43.48"/><path class="cls-3" d="M467.18,136.67a58,58,0,0,1-.55-8,57.19,57.19,0,0,1,6.1-25.77"/><path class="cls-3" d="M524,186.12a57.7,57.7,0,0,1-9.17-.73"/><line class="cls-4" x1="504.36" y1="128.72" x2="544.12" y2="128.71"/><line class="cls-4" x1="551.62" y1="128.72" x2="577.47" y2="128.71"/><line class="cls-4" x1="470.61" y1="128.72" x2="494.56" y2="128.72"/><line class="cls-4" x1="524.04" y1="99.84" x2="524.04" y2="77.97"/><line class="cls-4" x1="524.06" y1="125.63" x2="524.06" y2="107.76"/><line class="cls-4" x1="524.06" y1="148.9" x2="524.06" y2="132.15"/><line class="cls-4" x1="524.06" y1="181.92" x2="524.06" y2="158.36"/><line class="cls-4" x1="508.36" y1="103.89" x2="539.76" y2="103.89"/><line class="cls-4" x1="526.3" y1="151.76" x2="540.21" y2="151.76"/><line class="cls-4" x1="512.07" y1="151.76" x2="516.8" y2="151.76"/><line class="cls-4" x1="547.73" y1="103.89" x2="571.51" y2="103.89"/><line class="cls-4" x1="482.46" y1="103.89" x2="498.84" y2="103.89"/><line class="cls-4" x1="548.25" y1="151.76" x2="572.11" y2="151.76"/><path class="cls-4" d="M536.61,169.66a81,81,0,0,1-8.65,12"/><path class="cls-4" d="M526.65,74.27a80.91,80.91,0,0,1,13.51,88.64"/><path class="cls-4" d="M500.4,126A80.62,80.62,0,0,1,521.21,74.5"/><path class="cls-4" d="M502.65,147.94a80.2,80.2,0,0,1-2.1-13.52"/><path class="cls-2" d="M609.28,157.51c0-3.41-6.24-5.23-7.4-6.78-2.35-3.13-11.52-5.09-16.11-5.33-1-.06-1.12,1.21-3.47,1.22"/><path class="cls-2" d="M606,185.45a9.38,9.38,0,0,1,4.6.31s5.13-3.72,4.59-8.51c-.37-3.32.85-6.3-2-8.16-1.27-.83-1.46-2.61-2.87-3.15-1-.39-4.33-2.86-3.36-5.53"/><path class="cls-2" d="M590.27,193.39a5.33,5.33,0,0,1,2.31-.54c3,.24,4.28-4.52,10-6.43"/><path class="cls-2" d="M566.66,172.44a6.47,6.47,0,0,0,1.46,4.65"/><path class="cls-2" d="M602.17,161.64S599,163,598.8,164.18s1.17,5.83,0,7-6.34,6-7.84,5.3"/><path class="cls-2" d="M587.27,159.12s-1.65-3.22-2.72-3.22-4.13,3.63-6,2.29"/><path class="cls-2" d="M590.56,171.86c-.48-2.09-5.25-1-5.37-.66"/><path class="cls-5" d="M219.14,127.42q28.43-2.4,57-2.64t57,1.71q16,1.1,32,2.88c1.92.21,1.9-2.79,0-3q-28.36-3.16-56.9-4.16t-57.05.19q-16,.66-32.05,2c-1.91.16-1.93,3.16,0,3Z"/><path class="cls-5" d="M335.15,99.42c13.29,7.14,26.77,14.06,38.84,23.2,3.56,2.69,7,5.56,10.34,8.51l.3-2.36L347,150.38l-10.33,5.94a1.5,1.5,0,0,0,1.51,2.59L374,138.36l12.19-7a1.5,1.5,0,0,0,.31-2.35,173.92,173.92,0,0,0-18.13-14.1c-6-4-12.28-7.6-18.61-11.06-4.34-2.36-8.7-4.68-13-7-1.7-.91-3.21,1.67-1.51,2.59Z"/><path class="cls-5" d="M643.08,18.56c-8-9.41-19-16.25-31.35-18a49.41,49.41,0,0,0-17.19.54c-4.49.94-10.62,2.39-12.78,7-1.63,3.46-.12,7.29,1.87,10.25A38.2,38.2,0,0,0,592,26.91c4.86,3.8,9.79,7.85,15.31,10.68a30,30,0,0,0,8.11,2.86c2.72.52,6.08,1.07,8.69-.13A6.48,6.48,0,0,0,627.81,35c.25-3-1.6-5.45-3.71-7.35a30.79,30.79,0,0,0-15.82-7.41,45.52,45.52,0,0,0-17.7.87c-4.55,1.08-9.48,2.76-12.73,6.3-7.7,8.4,2.87,18.41,9.77,23a37,37,0,0,0,16.49,6.23c2.69.28,6.17.66,8.16-1.58a5.7,5.7,0,0,0,.43-6.88c-2.92-4.46-8.77-6.3-13.74-7.15a27.31,27.31,0,0,0-11.7.07,16,16,0,0,0-8.42,5.24c-2.68,3.38-3.31,7.71-2.71,11.9a33.25,33.25,0,0,0,2.62,8.54c.58,1.33,2.52.18,2-1.13-1.84-4.21-3.33-9.16-2.15-13.76a11.41,11.41,0,0,1,5.45-7,17,17,0,0,1,7.94-2.19,32.22,32.22,0,0,1,13.22,2.45,12.92,12.92,0,0,1,5.43,4c1.3,1.81,1,4.89-1.55,5.37a21.32,21.32,0,0,1-8.44-.66A34.44,34.44,0,0,1,593.07,51a41.41,41.41,0,0,1-10.64-7.69c-2.92-3-6.28-7.45-4.58-11.82,1.44-3.69,5.64-5.8,9.16-7A45.86,45.86,0,0,1,602.15,22a32.27,32.27,0,0,1,15.24,3.65c3.39,1.84,10.92,6.78,7.34,11.43-1.54,2-4.13,1.78-6.38,1.58a26.15,26.15,0,0,1-8-2c-5.06-2.17-9.46-5.65-13.81-9a60.65,60.65,0,0,1-8.8-7.67c-2.09-2.35-4.47-5.45-4.47-8.76,0-4.17,4.65-6,8-7A46.29,46.29,0,0,1,635.46,14a60.17,60.17,0,0,1,6,6.13c.94,1.1,2.53-.5,1.59-1.59Z"/><path class="cls-5" d="M394.08,32.31a62.12,62.12,0,0,1,14.49-9.8A27.21,27.21,0,0,1,417.51,20c2.79-.24,6.29,0,8.68,1.6,4.78,3.26,2.64,11.38.6,15.55-2.59,5.31-7.21,10-13,11.55-1.61.44-4.11.93-5.56-.22s-.3-2.86.47-3.9a21.57,21.57,0,0,1,6.72-5.42c2.69-1.57,5.78-2.89,9-2.83,5.21.08,11.16,5.21,10.29,10.78a21.76,21.76,0,0,1-3.45,7.8,15.17,15.17,0,0,1-2.61,3.2A3.3,3.3,0,0,1,427,59a1.19,1.19,0,0,1-1.18-1.53A7.68,7.68,0,0,1,428.35,54a9.48,9.48,0,0,1,4.06-2.34c3-.71,5.32,2.08,6.27,4.63,2.69,7.13-.58,14.85-4,21.13-.69,1.27,1.25,2.41,1.94,1.14,3.67-6.78,7-15,4.27-22.72-1-2.86-3.08-5.7-6.21-6.41s-6.45,1.38-8.54,3.57c-1.92,2-4.21,5.94-.85,7.86,3.13,1.79,6.15-2.31,7.62-4.54,1.78-2.68,3.67-6.15,4-9.41a11.32,11.32,0,0,0-3.54-8.81A13.14,13.14,0,0,0,424,34a21,21,0,0,0-10.3,3.47c-2.82,1.72-5.92,3.81-7.55,6.79-1,1.85-1.26,4.2.46,5.73s4.73,1.48,7,1a20.67,20.67,0,0,0,9.16-4.86c5.2-4.61,9.13-12.19,8.41-19.28-.32-3.16-1.7-6.31-4.71-7.75A18.41,18.41,0,0,0,416,17.88c-7.39,1.08-14.09,5.33-19.86,9.85q-1.85,1.44-3.61,3c-1.09,1,.5,2.54,1.59,1.59Z"/><path class="cls-3" d="M544.75,171.6a393.44,393.44,0,0,1-33.6-30c-33.3-33.29-54.5-66.06-47.37-73.2,3.61-3.6,13.76,0,27.21,8.8"/><path class="cls-3" d="M575.46,161.64a95.91,95.91,0,0,1,8,14.41"/></g></g></svg>