<svg xmlns="http://www.w3.org/2000/svg" viewBox="0 0 57.94 57.2"><defs><style>.cls-1,.cls-4{fill:#fff;}.cls-2{fill:#8857ff;}.cls-3{fill:none;stroke-miterlimit:10;stroke-width:1.5px;}.cls-3,.cls-4{stroke:#000;stroke-linecap:round;}.cls-4{stroke-linejoin:round;stroke-width:1.4px;}</style></defs><g id="レイヤー_2" data-name="レイヤー 2"><g id="icon"><rect class="cls-1" x="0.33" y="0.48" width="53.84" height="53.84" rx="5.87"/><rect class="cls-2" x="4.09" y="3.36" width="53.84" height="53.84" rx="5.87"/><path class="cls-3" d="M53.75,53.75h-47a6,6,0,0,1-6-6v-41a6,6,0,0,1,6-6h41a6,6,0,0,1,6,6V49.48"/><path class="cls-4" d="M23.48,16.14l7,26.45H24.93L23.7,37h-7l-1.22,5.6H9.89l7-26.45Zm-.7,16.48L20.22,20.74h-.07L17.59,32.62Z"/><path class="cls-4" d="M36.56,35a10.83,10.83,0,0,0,.13,1.73,5.34,5.34,0,0,0,.42,1.48,2.84,2.84,0,0,0,.78,1,1.8,1.8,0,0,0,1.18.39A2.08,2.08,0,0,0,41,38.7a6.81,6.81,0,0,0,.82-2.82h4.59a8,8,0,0,1-1.85,5.3Q42.81,43,39.15,43a8.55,8.55,0,0,1-4.33-.92,5.7,5.7,0,0,1-2.3-2.45,9.7,9.7,0,0,1-.91-3.4c-.11-1.26-.17-2.52-.17-3.78a26.52,26.52,0,0,1,.28-3.85,9.46,9.46,0,0,1,1.11-3.3A6.16,6.16,0,0,1,35.22,23a8.75,8.75,0,0,1,4.15-.85,8.09,8.09,0,0,1,3.65.72,5.6,5.6,0,0,1,2.24,2,8.65,8.65,0,0,1,1.11,3.19,26.29,26.29,0,0,1,.3,4.16V33.4H36.56Zm5.07-6.64a5,5,0,0,0-.39-1.49,2,2,0,0,0-.78-.92,2.34,2.34,0,0,0-1.27-.32,2.13,2.13,0,0,0-1.28.36,2.47,2.47,0,0,0-.8.92,4.28,4.28,0,0,0-.42,1.28,7.47,7.47,0,0,0-.13,1.41v.77h5.22Q41.74,29.22,41.63,28.35Z"/></g></g></svg>