<svg xmlns="http://www.w3.org/2000/svg" viewBox="0 0 58.01 57.69"><defs><style>.cls-1,.cls-4{fill:#fff;}.cls-2{fill:#8857ff;}.cls-3{fill:none;stroke-miterlimit:10;stroke-width:1.5px;}.cls-3,.cls-4{stroke:#000;stroke-linecap:round;}.cls-4{stroke-linejoin:round;stroke-width:1.4px;}</style></defs><g id="icon"><path class="cls-1" d="M53.83,54h-47a6,6,0,0,1-6-6V7a6,6,0,0,1,6-6h41a6,6,0,0,1,6,6V49.7"/><rect class="cls-2" x="4.17" y="3.84" width="53.84" height="53.84" rx="5.87"/><path class="cls-3" d="M53.83,53.8h-47a6,6,0,0,1-6-6v-41a6,6,0,0,1,6-6h41a6,6,0,0,1,6,6V49.53"/></g><g id="レイヤー_1" data-name="レイヤー 1"><path class="cls-4" d="M23.21,15.42l7,26.44H24.65l-1.22-5.59h-7l-1.23,5.59H9.62l7-26.44Zm-.7,16.48L20,20h-.07L17.32,31.9Z"/><path class="cls-4" d="M36.28,34.27A12,12,0,0,0,36.41,36a5.59,5.59,0,0,0,.43,1.48,2.69,2.69,0,0,0,.78,1,1.8,1.8,0,0,0,1.18.39A2.09,2.09,0,0,0,40.69,38a6.73,6.73,0,0,0,.81-2.81h4.6a7.94,7.94,0,0,1-1.86,5.29q-1.7,1.81-5.37,1.82a8.47,8.47,0,0,1-4.33-.93,5.66,5.66,0,0,1-2.29-2.44,9.48,9.48,0,0,1-.91-3.41c-.11-1.26-.17-2.52-.17-3.78a25.37,25.37,0,0,1,.28-3.85,9.08,9.08,0,0,1,1.11-3.29A6,6,0,0,1,35,22.27a8.63,8.63,0,0,1,4.15-.85,8.12,8.12,0,0,1,3.65.72,5.52,5.52,0,0,1,2.24,2,8.66,8.66,0,0,1,1.11,3.18,27.85,27.85,0,0,1,.29,4.17v1.15H36.28Zm5.08-6.65A5.58,5.58,0,0,0,41,26.14a2.1,2.1,0,0,0-.78-.92,2.36,2.36,0,0,0-1.28-.32,2.22,2.22,0,0,0-1.28.35,2.65,2.65,0,0,0-.79.93,4.59,4.59,0,0,0-.43,1.28,8.29,8.29,0,0,0-.13,1.4v.78H41.5C41.48,28.88,41.43,28.2,41.36,27.62Z"/></g></svg>