<svg xmlns="http://www.w3.org/2000/svg" viewBox="0 0 57.94 57.2"><defs><style>.cls-1,.cls-4{fill:#fff;}.cls-2{fill:#f17a3d;}.cls-3{fill:none;stroke-miterlimit:10;stroke-width:1.5px;}.cls-3,.cls-4{stroke:#000;stroke-linecap:round;}.cls-4{stroke-linejoin:round;stroke-width:1.4px;}</style></defs><g id="レイヤー_2" data-name="レイヤー 2"><g id="icon"><rect class="cls-1" x="0.35" y="0.05" width="53.84" height="53.84" rx="5.87"/><rect class="cls-2" x="4.09" y="3.36" width="53.84" height="53.84" rx="5.87"/><path class="cls-3" d="M53.75,53.75h-47a6,6,0,0,1-6-6v-41a6,6,0,0,1,6-6h41a6,6,0,0,1,6,6V49.48"/><path class="cls-4" d="M27.05,15.9l7,26.44H28.49l-1.22-5.59h-7L19,42.34H13.46l7-26.44Zm-.71,16.48L23.79,20.49h-.08L21.16,32.38Z"/><path class="cls-4" d="M41,15.61V20H35.93V15.61Zm0,6.81V42.34H35.93V22.42Z"/></g></g></svg>