<svg xmlns="http://www.w3.org/2000/svg" viewBox="0 0 58.01 57.69"><defs><style>.cls-1,.cls-4{fill:#fff;}.cls-2{fill:#f17a3d;}.cls-3{fill:none;stroke-miterlimit:10;stroke-width:1.5px;}.cls-3,.cls-4{stroke:#000;stroke-linecap:round;}.cls-4{stroke-linejoin:round;stroke-width:1.4px;}</style></defs><g id="icon"><path class="cls-1" d="M53.83,54h-47a6,6,0,0,1-6-6V7a6,6,0,0,1,6-6h41a6,6,0,0,1,6,6V49.7"/><rect class="cls-2" x="4.17" y="3.84" width="53.84" height="53.84" rx="5.87"/><path class="cls-3" d="M53.83,53.8h-47a6,6,0,0,1-6-6v-41a6,6,0,0,1,6-6h41a6,6,0,0,1,6,6V49.53"/></g><g id="レイヤー_1" data-name="レイヤー 1"><path class="cls-4" d="M27.8,15.77l7,26.44H29.25L28,36.62H21l-1.22,5.59H14.21l7-26.44Zm-.7,16.48L24.54,20.36h-.07L21.91,32.25Z"/><path class="cls-4" d="M41.8,15.48v4.37H36.69V15.48Zm0,6.81V42.21H36.69V22.29Z"/></g></svg>