<svg xmlns="http://www.w3.org/2000/svg" viewBox="0 0 58.01 57.69"><defs><style>.cls-1,.cls-4{fill:#fff;}.cls-2{fill:#00a99d;}.cls-3{fill:none;stroke-linecap:round;stroke-miterlimit:10;stroke-width:1.5px;}.cls-3,.cls-4{stroke:#000;}.cls-4{stroke-linejoin:round;stroke-width:1.4px;}</style></defs><g id="icon"><path class="cls-1" d="M53.83,54h-47a6,6,0,0,1-6-6V7a6,6,0,0,1,6-6h41a6,6,0,0,1,6,6V49.7"/><rect class="cls-2" x="4.17" y="3.84" width="53.84" height="53.84" rx="5.87"/><path class="cls-3" d="M53.83,53.8h-47a6,6,0,0,1-6-6v-41a6,6,0,0,1,6-6h41a6,6,0,0,1,6,6V49.53"/></g><g id="レイヤー_1" data-name="レイヤー 1"><path class="cls-4" d="M38.76,18.69c-4.06,0-7.31,2-10.79,6.74-3.86-5-6.69-6.74-10.67-6.74-5.76,0-9.63,4.09-9.63,10.18S11.54,39,17.3,39c4.05,0,7.08-1.87,10.67-6.63C31.61,37.19,34.55,39,38.71,39c5.76,0,9.63-4.07,9.63-10.13S44.49,18.69,38.76,18.69ZM17.3,35c-3.24,0-5.42-2.46-5.42-6.11s2.15-6.16,5.37-6.16c2.44,0,4.4,1,8.19,6.21C22.45,33.22,20.08,35,17.3,35ZM38.76,22.71c3.21,0,5.37,2.47,5.37,6.16S42,35,38.71,35c-2.5,0-4.39-.92-8.19-6.12C33.43,24.56,35.9,22.71,38.76,22.71Z"/><path class="cls-1" d="M37.82,32.24a.37.37,0,0,1-.37-.37V30H35.56a.38.38,0,0,1-.37-.37V28.39a.38.38,0,0,1,.37-.37h1.89V26.14a.37.37,0,0,1,.37-.38H39a.38.38,0,0,1,.37.38V28h1.88a.38.38,0,0,1,.38.37v1.22a.38.38,0,0,1-.38.37H39.41v1.89a.38.38,0,0,1-.37.37Z"/><path d="M39,26.14v2.25h2.25v1.22H39v2.26H37.82V29.61H35.56V28.39h2.26V26.14H39m0-.75H37.82a.75.75,0,0,0-.75.75v1.5H35.56a.76.76,0,0,0-.75.75v1.22a.76.76,0,0,0,.75.75h1.51v1.51a.76.76,0,0,0,.75.75H39a.76.76,0,0,0,.75-.75V30.36h1.5a.75.75,0,0,0,.75-.75V28.39a.75.75,0,0,0-.75-.75h-1.5v-1.5a.75.75,0,0,0-.75-.75Z"/><rect class="cls-1" x="14.95" y="28.02" width="6.48" height="1.96" rx="0.38"/><path d="M21.06,28.39v1.22H15.33V28.39h5.73m0-.75H15.33a.75.75,0,0,0-.75.75v1.22a.75.75,0,0,0,.75.75h5.73a.76.76,0,0,0,.75-.75V28.39a.76.76,0,0,0-.75-.75Z"/></g></svg>