<svg xmlns="http://www.w3.org/2000/svg" viewBox="0 0 57.94 57.2"><defs><style>.cls-1,.cls-4{fill:#fff;}.cls-2{fill:#00a99d;}.cls-3{fill:none;stroke-linecap:round;stroke-miterlimit:10;stroke-width:1.5px;}.cls-3,.cls-4{stroke:#000;}.cls-4{stroke-linejoin:round;stroke-width:1.4px;}</style></defs><g id="レイヤー_2" data-name="レイヤー 2"><g id="icon"><rect class="cls-1" x="0.33" y="0.48" width="53.84" height="53.84" rx="5.87"/><rect class="cls-2" x="4.09" y="3.36" width="53.84" height="53.84" rx="5.87"/><path class="cls-3" d="M53.75,53.75h-47a6,6,0,0,1-6-6v-41a6,6,0,0,1,6-6h41a6,6,0,0,1,6,6V49.48"/><path class="cls-4" d="M39.19,17.1c-4.06,0-7.3,2-10.78,6.73-3.86-5-6.69-6.73-10.67-6.73-5.76,0-9.63,4.09-9.63,10.18S12,37.4,17.74,37.4c4.05,0,7.07-1.86,10.67-6.63C32.05,35.6,35,37.4,39.14,37.4c5.76,0,9.64-4.07,9.64-10.12S44.92,17.1,39.19,17.1ZM17.74,33.38c-3.25,0-5.42-2.46-5.42-6.1s2.15-6.16,5.37-6.16c2.44,0,4.4,1,8.19,6.21C22.89,31.62,20.52,33.38,17.74,33.38ZM39.19,21.12c3.21,0,5.37,2.47,5.37,6.16s-2.18,6.1-5.42,6.1c-2.5,0-4.38-.92-8.19-6.11C33.86,23,36.33,21.12,39.19,21.12Z"/><path class="cls-1" d="M38.26,30.65a.38.38,0,0,1-.38-.38V28.39H36a.38.38,0,0,1-.38-.38V26.8a.38.38,0,0,1,.38-.38h1.88V24.54a.37.37,0,0,1,.38-.37h1.21a.37.37,0,0,1,.38.37v1.88h1.88a.38.38,0,0,1,.38.38V28a.38.38,0,0,1-.38.38H39.85v1.88a.38.38,0,0,1-.38.38Z"/><path d="M39.47,24.54V26.8h2.26V28H39.47v2.26H38.26V28H36V26.8h2.26V24.54h1.21m0-.75H38.26a.75.75,0,0,0-.75.75v1.51H36a.75.75,0,0,0-.75.75V28a.75.75,0,0,0,.75.75h1.51v1.51a.74.74,0,0,0,.75.75h1.21a.74.74,0,0,0,.75-.75V28.76h1.51a.75.75,0,0,0,.75-.75V26.8a.75.75,0,0,0-.75-.75H40.22V24.54a.75.75,0,0,0-.75-.75Z"/><rect class="cls-1" x="15.39" y="26.42" width="6.48" height="1.96" rx="0.38"/><path d="M21.5,26.8V28H15.76V26.8H21.5m0-.75H15.76a.75.75,0,0,0-.75.75V28a.75.75,0,0,0,.75.75H21.5a.75.75,0,0,0,.75-.75V26.8a.75.75,0,0,0-.75-.75Z"/></g></g></svg>