<svg xmlns="http://www.w3.org/2000/svg" viewBox="0 0 57.94 57.2"><defs><style>.cls-1,.cls-4{fill:#fff;}.cls-2,.cls-5{fill:#f7931e;}.cls-3{fill:none;stroke-linecap:round;stroke-width:1.5px;}.cls-3,.cls-4,.cls-5{stroke:#000;}.cls-3,.cls-5{stroke-miterlimit:10;}.cls-4{stroke-linejoin:round;}.cls-4,.cls-5{stroke-width:1.4px;}</style></defs><g id="レイヤー_2" data-name="レイヤー 2"><g id="icon"><rect class="cls-1" x="0.33" y="0.48" width="53.84" height="53.84" rx="5.87"/><rect class="cls-2" x="4.09" y="3.36" width="53.84" height="53.84" rx="5.87"/><path class="cls-3" d="M53.75,53.75h-47a6,6,0,0,1-6-6v-41a6,6,0,0,1,6-6h41a6,6,0,0,1,6,6V49.48"/><path class="cls-4" d="M47.36,30.74a12.79,12.79,0,1,1-25-3.77L10,34.47a1.91,1.91,0,0,1-1,.26,1.86,1.86,0,0,1-1-3.46L23.44,22h-8a1.87,1.87,0,0,1,0-3.73H31l-6.34-3.78a1.86,1.86,0,1,1,1.92-3.19L40,19.18A13.24,13.24,0,0,1,47.36,30.74Z"/><circle class="cls-1" cx="34.57" cy="29.67" r="5.33"/><path class="cls-5" d="M34.57,24.35a5.33,5.33,0,1,1-5.32,5.32,5.32,5.32,0,0,1,5.32-5.32m0-2.91a8.24,8.24,0,1,0,8.24,8.23,8.25,8.25,0,0,0-8.24-8.23Z"/></g></g></svg>