<svg xmlns="http://www.w3.org/2000/svg" viewBox="0 0 58.01 57.69"><defs><style>.cls-1,.cls-4{fill:#fff;}.cls-2,.cls-5{fill:#f7931e;}.cls-3{fill:none;stroke-linecap:round;stroke-width:1.5px;}.cls-3,.cls-4,.cls-5{stroke:#000;}.cls-3,.cls-5{stroke-miterlimit:10;}.cls-4{stroke-linejoin:round;}.cls-4,.cls-5{stroke-width:1.4px;}</style></defs><g id="icon"><path class="cls-1" d="M53.83,54h-47a6,6,0,0,1-6-6V7a6,6,0,0,1,6-6h41a6,6,0,0,1,6,6V49.7"/><rect class="cls-2" x="4.17" y="3.84" width="53.84" height="53.84" rx="5.87"/><path class="cls-3" d="M53.83,53.8h-47a6,6,0,0,1-6-6v-41a6,6,0,0,1,6-6h41a6,6,0,0,1,6,6V49.53"/></g><g id="レイヤー_1" data-name="レイヤー 1"><path class="cls-4" d="M48.11,32.33a12.78,12.78,0,1,1-25.56,0,13.08,13.08,0,0,1,.56-3.77l-12.38,7.5a1.92,1.92,0,0,1-1,.27,1.87,1.87,0,0,1-1-3.46L24.2,23.55h-8a1.87,1.87,0,1,1,0-3.73H31.77L25.43,16a1.87,1.87,0,0,1,1.92-3.2l13.44,7.94A13.21,13.21,0,0,1,48.11,32.33Z"/><circle class="cls-1" cx="35.33" cy="31.27" r="5.33"/><path class="cls-5" d="M35.33,25.94A5.33,5.33,0,1,1,30,31.27a5.33,5.33,0,0,1,5.33-5.33m0-2.9a8.23,8.23,0,1,0,8.23,8.23A8.24,8.24,0,0,0,35.33,23Z"/></g></svg>