<svg xmlns="http://www.w3.org/2000/svg" viewBox="0 0 58.01 57.69"><defs><style>.cls-1,.cls-4{fill:#fff;}.cls-2{fill:#d8324a;}.cls-3{fill:none;stroke-miterlimit:10;stroke-width:1.5px;}.cls-3,.cls-4{stroke:#000;stroke-linecap:round;}.cls-4{stroke-linejoin:round;stroke-width:1.3px;}</style></defs><g id="icon"><path class="cls-1" d="M53.83,54h-47a6,6,0,0,1-6-6V7a6,6,0,0,1,6-6h41a6,6,0,0,1,6,6V49.7"/><rect class="cls-2" x="4.17" y="3.84" width="53.84" height="53.84" rx="5.87"/><path class="cls-3" d="M53.83,53.8h-47a6,6,0,0,1-6-6v-41a6,6,0,0,1,6-6h41a6,6,0,0,1,6,6V49.53"/></g><g id="レイヤー_1" data-name="レイヤー 1"><path class="cls-4" d="M17.16,15.43h5.33V41.85H17.16Z"/><path class="cls-4" d="M36.44,39.74a5.07,5.07,0,0,1-1.91,2,5.54,5.54,0,0,1-2.61.56,5,5,0,0,1-4.62-2.41q-1.49-2.4-1.48-8t1.48-8a5,5,0,0,1,4.62-2.46,4.72,4.72,0,0,1,2.46.59,5.91,5.91,0,0,1,1.84,1.77h.07V15.43H41.4V41.85H36.51V39.74Zm-5-2.94a2.27,2.27,0,0,0,4.37,0,18.14,18.14,0,0,0,.5-4.9,18.22,18.22,0,0,0-.5-4.91,2.28,2.28,0,0,0-4.37,0,18.3,18.3,0,0,0-.49,4.91A18.22,18.22,0,0,0,31.42,36.8Z"/></g></svg>