<svg xmlns="http://www.w3.org/2000/svg" viewBox="0 0 600 100"><defs><style>.cls-1,.cls-2{fill:none;}.cls-1,.cls-2,.cls-3,.cls-4,.cls-5,.cls-6,.cls-7,.cls-8,.cls-9{stroke:#000;}.cls-1,.cls-2,.cls-3,.cls-4,.cls-6,.cls-7,.cls-8,.cls-9{stroke-miterlimit:10;}.cls-1,.cls-8,.cls-9{stroke-width:1.15px;}.cls-2,.cls-3,.cls-4,.cls-6,.cls-7{stroke-width:1.09px;}.cls-3{fill:#fff;}.cls-4{fill:#00e1ff;}.cls-5,.cls-6,.cls-8{fill:#ff003d;}.cls-5{stroke-linejoin:bevel;stroke-width:1.09px;}.cls-7,.cls-9{fill:#92eadf;}</style></defs><g id="SawadaHaruka"><line class="cls-1" x1="5.82" y1="41.44" x2="5.82" y2="41.45"/><line class="cls-1" x1="41.5" y1="5.78" x2="41.5" y2="5.77"/><line class="cls-1" x1="28.46" y1="18.8" x2="28.46" y2="18.75"/><line class="cls-1" x1="61.45" y1="6.81" x2="61.44" y2="6.81"/><line class="cls-1" x1="41.49" y1="5.78" x2="41.49" y2="5.77"/><line class="cls-1" x1="70.37" y1="21.26" x2="70.25" y2="21.38"/><line class="cls-1" x1="47.21" y1="21.38" x2="47.09" y2="21.26"/><line class="cls-1" x1="90.68" y1="64.85" x2="90.54" y2="64.7"/><path class="cls-2" d="M73.51,60.44A3.51,3.51,0,1,0,77,63.94,3.5,3.5,0,0,0,73.51,60.44ZM58.66,60a6.48,6.48,0,1,0,6.48,6.47A6.47,6.47,0,0,0,58.66,60Z"/><polygon class="cls-3" points="41.5 5.78 41.5 26.76 28.47 39.79 28.47 18.8 41.49 5.78 41.5 5.78"/><path class="cls-3" d="M83.45,21.37H46.88L61.44,6.82A44,44,0,0,1,83.45,21.37Z"/><path class="cls-3" d="M58.73,32.9,41.5,50.14V67.66c0,12.6,22.49,30.48,44.26,6.27a0,0,0,0,1,0,0,43.82,43.82,0,0,0,4.76-9.2ZM58.66,73a6.48,6.48,0,1,1,6.48-6.48A6.48,6.48,0,0,1,58.66,73Zm14.85-5.52A3.51,3.51,0,1,1,77,63.94,3.49,3.49,0,0,1,73.51,67.45Z"/><path class="cls-4" d="M61.44,6.82,41.5,26.76v-21a44.23,44.23,0,0,1,19.94,1Z"/><path class="cls-4" d="M93.34,49.19a43.88,43.88,0,0,1-2.81,15.52L58.73,32.9,70.25,21.37H83.46A44,44,0,0,1,93.34,49.19Z"/><path class="cls-4" d="M85.76,73.93A44.13,44.13,0,0,1,28.47,88.1V39.79l13-13v40.9C41.5,80.26,64,98.14,85.76,73.93Z"/><polygon class="cls-5" points="70.25 21.38 58.73 32.9 47.21 21.38 70.25 21.38"/><path class="cls-6" d="M28.47,18.8V88.1A44.08,44.08,0,0,1,5.15,49.19a45,45,0,0,1,.67-7.75Z"/><path class="cls-7" d="M41.49,5.78l-13,13L5.82,41.44A44.16,44.16,0,0,1,41.49,5.78Z"/><polygon class="cls-7" points="58.73 32.9 41.5 50.14 41.5 26.76 46.88 21.38 47.21 21.38 58.73 32.9"/><path class="cls-8" d="M65.14,66.49A6.48,6.48,0,1,1,58.66,60,6.48,6.48,0,0,1,65.14,66.49Z"/><path class="cls-9" d="M77,63.94a3.51,3.51,0,1,1-3.51-3.5A3.5,3.5,0,0,1,77,63.94Z"/><path d="M347.87,21.42c-1.09-.14-1.51-2.83-2.81-4.1s-3.63-1.35-3.49-2.52,2.22-1.71,3.55-3,1.93-3.31,3.07-3.29,1.65,2.4,2.92,3.7,3.42,1.74,3.39,2.92-2.88.92-4.14,2.2C349,18.76,349.07,21.58,347.87,21.42Z"/><path d="M358.8,26c-1.09-.14-1.51-2.83-2.81-4.1s-3.63-1.35-3.49-2.52,2.22-1.71,3.55-3S358,13,359.12,13s1.65,2.41,2.92,3.7,3.41,1.74,3.38,2.93-2.87.91-4.13,2.2C359.88,23.3,360,26.13,358.8,26Z"/><path d="M376.68,31.39S371.16,77.48,360,83.1a28.32,28.32,0,0,0,1.53,2.6S390,63.2,390,33.28C390,30.62,381,35.08,376.68,31.39Z"/><path d="M451.71,21.52s7.27,46.41-8.68,58l1,2.07c20.13-5.94,28.08-46.81,24.42-63.93C467.58,13.63,459.25,23,451.71,21.52Z"/><path d="M352.84,26.56v3.07c-.18,8.46-3.34,22.17-10.52,34.13a28.76,28.76,0,0,1,2.17,7.2l-.66.23a51.09,51.09,0,0,0-4.19-3.32,58.42,58.42,0,0,1-4.56,5.63c-11.37,12.3-27.74,17.43-35.21,18l-.49-3.06c9.39-1.54,17.48-7.78,24.83-19.41a73.6,73.6,0,0,0,4.44-8.15l-2.38-1.32c-9-4.87-7-19.16-7-19.16l1.12-.41c1.36,4.7,6,6.58,12.18,10.54a80.51,80.51,0,0,0,3.56-20.9H313.05c-7.34,11.75-20.71,23.82-32.76,23.74l-.46-3.1c15.15-5.11,21-35.93,21-35.93,6.63,1.69,17-4.45,17.61-1.93.8,3.52-.64,8.68-3.58,14.15Z"/><path d="M473.62,17.72c5.84.93,12.64-6.7,14.76-4.61.69.68,3.77,4.82,3.88,8.21.25,7.49,1.1,43.62,1.1,43.62s15.17-3.26,23.89-19.82l1.45,1.52s-8.1,35.25-41.56,37.76c0,0,.94-56,.75-61.07C477.8,21.05,473.62,17.72,473.62,17.72Z"/><path d="M397.68,16.22s4.55,8.8,8.52,34.21c3,19.37,26.52,32.72,26.52,32.72l1.58-1.65c-7.62-6.4-10.87-19.57-13.54-34.9-2.51-14.4-18.41-29.7-22.16-31.36Z"/><path d="M196,31.05v3.07h-9.89c-.32,10.11-2.73,22-8.4,30.56-9.23,14-25.37,23.25-32.91,22.61l-.44-2.73c9.4-1.52,17.2-11.65,22.47-24.35,2.61-6.3,3.29-17,3.32-26.09H148.47c-.11,13.1.59,20.88.59,20.88H134.41c1-5.2,1.05-13.56.88-20.88H122.56V31.05h12.65c-.23-6.64-.6-11.77-.6-11.77,3,.95,14.4-2.18,14.32-.55-.23,4.45-.36,8.57-.43,12.32h21.64c-.09-7.54-.56-13.31-.56-13.31,5.18,3,14.54-1.19,15.34,2a50.61,50.61,0,0,1,1.22,11.28Z"/><path d="M273,25V28c0,11-2.55,31.55-11.55,43.87-9.91,13.55-21.3,16.51-28.3,18l-.49-3.06c8.76-3.21,14.08-10.41,18.55-18.64,7.27-13.43,5.9-34.37,5.34-40.16H222.22c-.47,16,.35,20.93.35,20.93H207.92c1.57-10.87.21-26.49.21-26.49,3,.95,14.37-2.18,14.3-.55,0,1.05-.08,2.06-.12,3Z"/><path d="M586,72c-9.23,14-18.46,14.8-26,14.16l-.49-3.07c8.63-1.62,12.84-6.38,15.61-15.56,3.31-11,2.44-32.7,2.09-39.11L559,28.71C556.42,49.65,543.49,66,529,72.42l-1.35-3.21c11.18-7.78,14-26.63,14.41-40.2l-17.27.3-.05-3.07,17.38-.31a119.32,119.32,0,0,0-.44-12.22c7.54,3.45,17.25-1.52,17.5,1a63.9,63.9,0,0,1,.13,10.87L593.65,25l0,1.53C593.94,37,594.81,58.62,586,72Z"/></g></svg>