<svg xmlns="http://www.w3.org/2000/svg" viewBox="0 0 57.94 57.2"><defs><style>.cls-1,.cls-4{fill:#fff;}.cls-2{fill:#5b78ff;}.cls-3{fill:none;stroke-linecap:round;stroke-miterlimit:10;stroke-width:1.5px;}.cls-3,.cls-4{stroke:#000;}.cls-4{stroke-linejoin:round;stroke-width:1.4px;}</style></defs><g id="レイヤー_2" data-name="レイヤー 2"><g id="icon"><rect class="cls-1" x="0.33" y="0.48" width="53.84" height="53.84" rx="5.87"/><rect class="cls-2" x="4.09" y="3.36" width="53.84" height="53.84" rx="5.87"/><path class="cls-3" d="M53.75,53.75h-47a6,6,0,0,1-6-6v-41a6,6,0,0,1,6-6h41a6,6,0,0,1,6,6V49.48"/><path class="cls-4" d="M23.35,16.31c11.32.58,9.48,18.38-4,15.89V42.76H14V16.31Zm-1.63,12c3.64.32,4.43-4.75,2.7-7-.81-1.26-3.57-1-5.07-1v8Z"/><path class="cls-4" d="M38,22.83V25.5h.07a7.34,7.34,0,0,1,1.89-2.32,4.24,4.24,0,0,1,2.7-.87l.47,0c.16,0,.31,0,.46.06v4.89l-.8-.06-.79,0a4.77,4.77,0,0,0-1.34.19,3.59,3.59,0,0,0-1.22.61,3,3,0,0,0-.89,1.11,3.87,3.87,0,0,0-.33,1.68v12H33.09V22.83Z"/></g></g></svg>