<svg xmlns="http://www.w3.org/2000/svg" viewBox="0 0 58.01 57.69"><defs><style>.cls-1,.cls-4{fill:#fff;}.cls-2{fill:#5b78ff;}.cls-3{fill:none;stroke-linecap:round;stroke-miterlimit:10;stroke-width:1.5px;}.cls-3,.cls-4{stroke:#000;}.cls-4{stroke-linejoin:round;stroke-width:1.4px;}</style></defs><g id="icon"><path class="cls-1" d="M53.83,54h-47a6,6,0,0,1-6-6V7a6,6,0,0,1,6-6h41a6,6,0,0,1,6,6V49.7"/><rect class="cls-2" x="4.17" y="3.84" width="53.84" height="53.84" rx="5.87"/><path class="cls-3" d="M53.83,53.8h-47a6,6,0,0,1-6-6v-41a6,6,0,0,1,6-6h41a6,6,0,0,1,6,6V49.53"/></g><g id="レイヤー_1" data-name="レイヤー 1"><path class="cls-4" d="M23.48,15.62C34.8,16.2,33,34,19.48,31.51V42.07H14.15V15.62Zm-1.63,12c3.64.33,4.43-4.74,2.7-7-.81-1.26-3.57-1-5.07-1v8Z"/><path class="cls-4" d="M38.27,22.14v2.67h.07a7.23,7.23,0,0,1,1.89-2.32,4.25,4.25,0,0,1,2.71-.87l.46,0a3.4,3.4,0,0,1,.46.06v4.89l-.79-.06-.8,0a4.7,4.7,0,0,0-1.33.19,3.38,3.38,0,0,0-1.23.61,3,3,0,0,0-.88,1.11,3.73,3.73,0,0,0-.34,1.68v12H33.38V22.14Z"/></g></svg>