<svg xmlns="http://www.w3.org/2000/svg" viewBox="0 0 57.94 57.2"><defs><style>.cls-1,.cls-4{fill:#fff;}.cls-2{fill:#0094d6;}.cls-3{fill:none;stroke-linecap:round;stroke-miterlimit:10;stroke-width:1.5px;}.cls-3,.cls-4{stroke:#000;}.cls-4{stroke-linejoin:round;stroke-width:1.4px;}</style></defs><g id="レイヤー_2" data-name="レイヤー 2"><g id="icon"><rect class="cls-1" x="0.84" y="0.31" width="53.84" height="53.84" rx="5.87"/><rect class="cls-2" x="4.09" y="3.36" width="53.84" height="53.84" rx="5.87"/><path class="cls-3" d="M53.75,53.75h-47a6,6,0,0,1-6-6v-41a6,6,0,0,1,6-6h41a6,6,0,0,1,6,6V49.48"/><path class="cls-4" d="M21.35,16.08c11.33.41,9.74,18.24-3.78,15.94l.15,10.55-5.33.08L12,16.21Zm-1.46,12c3.65-.06,4.36-4.81,2.6-7-.83-1.24-3.59-1-5.09-1l.12,8Z"/><path class="cls-4" d="M35.12,36.47a3.12,3.12,0,0,0,.71,2.09,2.47,2.47,0,0,0,2,.76,2.8,2.8,0,0,0,1.88-.62,2.19,2.19,0,0,0,.67-1.78,1.89,1.89,0,0,0-.57-1.46,4.51,4.51,0,0,0-1.31-.78l-3.61-1.24a6.8,6.8,0,0,1-3.22-2,5.45,5.45,0,0,1-1.12-3.45,6.68,6.68,0,0,1,.38-2.32A4.79,4.79,0,0,1,32.2,23.7a6.44,6.44,0,0,1,2.26-1.33,10.39,10.39,0,0,1,3.34-.53q3.48,0,5.17,1.41a5.3,5.3,0,0,1,1.72,4.16v.82l-4.59.06A4.06,4.06,0,0,0,39.58,26a2,2,0,0,0-1.77-.7,2.75,2.75,0,0,0-1.68.57,1.85,1.85,0,0,0-.69,1.62,2,2,0,0,0,.48,1.32,3.53,3.53,0,0,0,1.77,1l3.09,1a7,7,0,0,1,3.43,2.08,5.75,5.75,0,0,1,1,3.56,6.32,6.32,0,0,1-.51,2.77,5.33,5.33,0,0,1-1.51,2,6.09,6.09,0,0,1-2.32,1.15,12.44,12.44,0,0,1-3,.37,13.57,13.57,0,0,1-3.58-.35,5.25,5.25,0,0,1-2.28-1.19,4.42,4.42,0,0,1-1.19-2,9.08,9.08,0,0,1-.37-2.61v-.7l4.59-.06Z"/></g></g></svg>