<svg xmlns="http://www.w3.org/2000/svg" viewBox="0 0 58.01 57.69"><defs><style>.cls-1,.cls-4{fill:#fff;}.cls-2{fill:#0094d6;}.cls-3{fill:none;stroke-linecap:round;stroke-miterlimit:10;stroke-width:1.5px;}.cls-3,.cls-4{stroke:#000;}.cls-4{stroke-linejoin:round;stroke-width:1.4px;}</style></defs><g id="icon"><path class="cls-1" d="M53.83,54h-47a6,6,0,0,1-6-6V7a6,6,0,0,1,6-6h41a6,6,0,0,1,6,6V49.7"/><rect class="cls-2" x="4.17" y="3.84" width="53.84" height="53.84" rx="5.87"/><path class="cls-3" d="M53.83,53.8h-47a6,6,0,0,1-6-6v-41a6,6,0,0,1,6-6h41a6,6,0,0,1,6,6V49.53"/></g><g id="レイヤー_1" data-name="レイヤー 1"><path class="cls-4" d="M21.71,15.54C33,16,31.45,33.78,17.94,31.48L18.09,42l-5.33.08-.38-26.44Zm-1.46,12c3.66-.06,4.36-4.81,2.61-7-.84-1.24-3.59-1-5.09-1l.11,8Z"/><path class="cls-4" d="M35.48,35.93A3.08,3.08,0,0,0,36.2,38a2.45,2.45,0,0,0,2,.76,2.78,2.78,0,0,0,1.88-.62,2.19,2.19,0,0,0,.68-1.78,1.86,1.86,0,0,0-.58-1.46,4.18,4.18,0,0,0-1.31-.78L35.25,32.9a6.9,6.9,0,0,1-3.21-2,5.39,5.39,0,0,1-1.12-3.45,6.45,6.45,0,0,1,.37-2.32,4.89,4.89,0,0,1,1.27-1.92,6.53,6.53,0,0,1,2.26-1.33,10.39,10.39,0,0,1,3.34-.53c2.32,0,4.05.44,5.17,1.41a5.31,5.31,0,0,1,1.73,4.16v.82l-4.59.06A4.12,4.12,0,0,0,40,25.48a2,2,0,0,0-1.77-.7,2.78,2.78,0,0,0-1.68.56A1.88,1.88,0,0,0,35.8,27a2.15,2.15,0,0,0,.48,1.33,3.63,3.63,0,0,0,1.77,1l3.09,1a7,7,0,0,1,3.44,2.08,5.75,5.75,0,0,1,1.05,3.56,6.46,6.46,0,0,1-.52,2.77,5.41,5.41,0,0,1-1.51,2,6,6,0,0,1-2.31,1.15,12.46,12.46,0,0,1-3,.37,13.2,13.2,0,0,1-3.58-.36,5.15,5.15,0,0,1-2.27-1.18,4.4,4.4,0,0,1-1.2-2A9.45,9.45,0,0,1,30.89,36v-.7l4.59-.06Z"/></g></svg>