<svg id="レイヤー_2" data-name="レイヤー 2" xmlns="http://www.w3.org/2000/svg" viewBox="0 0 1920 1080"><defs><style>.cls-1{fill:none;}.cls-1,.cls-2,.cls-3,.cls-4,.cls-5{stroke:#000;stroke-width:2px;}.cls-1,.cls-2,.cls-3,.cls-4{stroke-miterlimit:10;}.cls-2{fill:#27ffc6;}.cls-3{fill:#00e1ff;}.cls-4,.cls-5{fill:#ff0043;}.cls-5{stroke-linejoin:bevel;}</style></defs><path d="M656.75,662.21s14-3.36,46.17,5.72c24.55,6.93,52-10.87,52-10.87l-1.1-2.77c-11.7,5.55-29,2.25-48.6-2.9-18.4-4.84-45.11,5.67-49.11,9.21Z"/><path d="M767.09,640.24s4.33,23.28,1.73,37.46c0,0,11.92,3.9,19.06,0,0,0,1-14.51,0-21.22,0,0,22.45-7.93,38.33-2.82,7.6,2.45,7.26,11.7-3.79,31.73s-27.17,27.82-32.81,30.75-10.13-3.22-12.12-2.52a2.2,2.2,0,0,0-1.59,2.52s5.67,8.32,15.22,7.43,43-14.77,54.53-46.41c7.39-20.34,9-46.64-22.59-41-29.13,5.16-35,10.67-36,10.39a60,60,0,0,0-1.34-7C785.08,637.5,771,641.47,767.09,640.24Z"/><path d="M890.22,658.21s22.44-7.93,38.33-2.82c7.6,2.45,7.25,11.7-3.79,31.73S897.58,714.94,892,717.87s-12.13-2.52-12.13-2.52a4.55,4.55,0,0,1-1.59,2.52s5.67,8.32,15.23,7.43,43-14.77,54.52-46.41c7.4-20.34,9-46.64-22.59-41-29.13,5.16-34.95,10.68-36,10.39Z"/><path d="M952,639.43c-1.42-.18-2-3.68-3.65-5.33s-4.73-1.75-4.55-3.28,2.89-2.23,4.62-3.91,2.51-4.31,4-4.29,2.14,3.13,3.79,4.81,4.45,2.27,4.41,3.81-3.74,1.19-5.38,2.86C953.37,636,953.52,639.64,952,639.43Z"/><path d="M966.18,645.35c-1.42-.18-2-3.68-3.66-5.33s-4.73-1.75-4.54-3.28,2.88-2.23,4.62-3.91,2.5-4.32,4-4.29,2.15,3.12,3.8,4.81,4.44,2.26,4.4,3.8-3.74,1.2-5.38,2.87C967.59,641.88,967.73,645.56,966.18,645.35Z"/><path d="M987.43,645.4s-3.18,61-17.71,68.27a36,36,0,0,0,2,3.38s33-30.27,33-69.18C1004.73,644.4,993,650.21,987.43,645.4Z"/><path d="M1087,639.56s8.11,60-10.58,73.87c-7,5.19-8.43,1.85-8.43,1.85l-2.24,3.23s4,2.07,11.63,0c23.61-6.38,32.1-68.47,31.37-84C1108.54,629.19,1096.85,641.44,1087,639.56Z"/><path d="M890.73,630.22S885.89,670.33,866,676.3c-8.33,2.5-10.11-.92-10.11-.92l-3,2.51S856.12,681,864,681c24.45.15,53.06-38.11,49.61-53.29C912.9,624.43,899.36,632.42,890.73,630.22Z"/><path d="M677.07,636.65s4.33,36.28,1.74,50.46c0,0,11.91,3.9,19.05,0a267,267,0,0,1-2.17-51.18C695.8,633.82,681,637.89,677.07,636.65Z"/><path d="M716.55,634.65s7.77,36,1,52.25c-6.86,16.53-12.08,22.15-28.91,29.24-.82.34.14,5.71,2.17,5.88,9.81.84,29.28-10.13,41.29-28.32,11.46-17.36,7.69-43,4.38-56.41C735.46,633.1,723.29,638.49,716.55,634.65Z"/><path d="M1122.37,635.29c7.67.54,15.83-10.12,17.72-4.26,1.26,3.9,3.79,24.22-1.25,65.61,0,0,19.92-3.71,29.46-20.37l1.88,2s-6.53,39.85-50,43.12c0,0,3.79-23.12,4.55-42.8C1125.93,646.13,1122.37,635.29,1122.37,635.29Z"/><path d="M1177.18,660.28s42.25-4.5,58.14.61c7.6,2.44,11.08,14,8.66,33-2.13,16.67-6.72,25.68-10.58,28.12-5.38,3.38-14.38-.48-14.38-.48a4.62,4.62,0,0,1-1.59,2.52s9.94,6.36,19.49,5.46,21.6-4.87,26-38.24c2.83-21.34.49-47.26-22.37-47.25-30.91,0-59.86,14.1-65.59,8.86Z"/><path d="M1201.79,636.66s6.38,52.41-11.23,63.49c-7.36,4.63-10,1.81-10,1.81l-2.24,3.23s4,2.06,11.63,0c23.61-6.38,41-59.9,33.58-73.6C1222,628.63,1211.6,638.54,1201.79,636.66Z"/><path d="M1016.76,625.67s8.88,11.3,14,44.36c3.93,25.2,31.53,42.71,31.53,42.71l2.06-2.15c-9.91-8.33-14.14-25.46-17.61-45.39-3.27-18.75-23.95-38.65-28.83-40.8Z"/><circle cx="910.76" cy="678.36" r="11.2"/><line class="cls-1" x1="953.13" y1="371.05" x2="952.98" y2="371.2"/><line class="cls-1" x1="923.9" y1="515.83" x2="923.9" y2="515.13"/><line class="cls-1" x1="982.37" y1="373.72" x2="982" y2="374.09"/><path class="cls-1" d="M1023.48,490.47l0,0h0v0"/><line class="cls-1" x1="946.51" y1="455.77" x2="946.5" y2="455.78"/><path class="cls-1" d="M980,422.26l-33.5,33.5,0,23.86c.52,22,39.08,53,76.9,10.91,0,0,0,0,0,0h0a0,0,0,0,1,0,0,76.06,76.06,0,0,0,8.42-16.34Zm-4.49,61.56a7.89,7.89,0,1,1,7.91-7.89A7.89,7.89,0,0,1,975.53,483.82Zm22.27-6.91a4.44,4.44,0,1,1,4.44-4.43A4.42,4.42,0,0,1,997.8,476.91ZM982,374.09l-25.08,25.08h62.53A76.65,76.65,0,0,0,982,374.09Zm-35.6,3.7-22.5,22.5v31.9l22.54-22.54Z"/><path class="cls-2" d="M953,371.2l-6.57,6.59-22.5,22.5-40.22,40.22a76.67,76.67,0,0,1,62.84-68.45C948.66,371.68,950.8,371.38,953,371.2Z"/><polygon class="cls-2" points="980.02 422.26 946.51 455.76 946.45 409.64 956.92 399.17 980.02 422.26"/><path class="cls-3" d="M982,374.09l-35.56,35.56,0-31.86L953,371.2c2.31-.21,4.66-.32,7-.32A76.51,76.51,0,0,1,982,374.09Z"/><path class="cls-3" d="M1036.64,447.51a76.51,76.51,0,0,1-4.75,26.62L980,422.26l23.1-23.09h16.34A76.27,76.27,0,0,1,1036.64,447.51Z"/><path class="cls-3" d="M1023.44,490.53a76.68,76.68,0,0,1-99.53,24.6V432.19l22.54-22.54.07,46.11,0,23.86C947.06,501.66,985.62,532.57,1023.44,490.53Z"/><path class="cls-4" d="M923.91,400.29V515.13a76.62,76.62,0,0,1-40.55-67.62c0-2.36.11-4.7.33-7Z"/><polygon class="cls-5" points="1003.13 399.17 980.02 422.26 956.92 399.17 1003.13 399.17"/><path class="cls-3" d="M984.92,476.9a11.25,11.25,0,1,1-11.25-11.24A11.25,11.25,0,0,1,984.92,476.9Z"/><path class="cls-4" d="M1005.57,472.48a6.1,6.1,0,1,1-6.1-6.11A6.08,6.08,0,0,1,1005.57,472.48Z"/></svg>