<svg xmlns="http://www.w3.org/2000/svg" viewBox="0 0 57.94 57.2"><defs><style>.cls-1,.cls-3{fill:#fff;}.cls-2{fill:#de42ce;}.cls-3,.cls-4{stroke:#000;}.cls-3{stroke-linejoin:round;stroke-width:1.4px;}.cls-4{fill:none;stroke-linecap:round;stroke-miterlimit:10;stroke-width:1.5px;}</style></defs><g id="レイヤー_2" data-name="レイヤー 2"><g id="icon"><rect class="cls-1" x="0.4" y="0.42" width="53.84" height="53.84" rx="5.87"/><rect class="cls-2" x="4.09" y="3.36" width="53.84" height="53.84" rx="5.87"/><path class="cls-3" d="M16.76,16.28l3.41,8.56,3.37-8.56h5.81L23.21,29.36,29.8,42.73h-6l-3.82-9-3.77,9H10.36L17,29.36,10.87,16.28Z"/><path class="cls-3" d="M41.87,40.61a5.1,5.1,0,0,1-1.91,2,5.54,5.54,0,0,1-2.61.55,5.05,5.05,0,0,1-4.63-2.4c-1-1.61-1.48-4.26-1.48-8s.5-6.37,1.48-8a5,5,0,0,1,4.63-2.47,4.78,4.78,0,0,1,2.47.6,5.77,5.77,0,0,1,1.83,1.77h.07V16.28h5.11V42.73H41.94V40.61Zm-5-2.94a2.27,2.27,0,0,0,4.37,0,17.77,17.77,0,0,0,.5-4.91,17.69,17.69,0,0,0-.5-4.9,2.27,2.27,0,0,0-4.37,0,18.09,18.09,0,0,0-.5,4.9A18.17,18.17,0,0,0,36.85,37.67Z"/><path class="cls-4" d="M53.75,53.75h-47a6,6,0,0,1-6-6v-41a6,6,0,0,1,6-6h41a6,6,0,0,1,6,6V49.48"/></g></g></svg>