<svg xmlns="http://www.w3.org/2000/svg" viewBox="0 0 58.01 57.69"><defs><style>.cls-1,.cls-4{fill:#fff;}.cls-2{fill:#de42ce;}.cls-3{fill:none;stroke-linecap:round;stroke-miterlimit:10;stroke-width:1.5px;}.cls-3,.cls-4{stroke:#000;}.cls-4{stroke-linejoin:round;stroke-width:1.4px;}</style></defs><g id="icon"><path class="cls-1" d="M53.83,54h-47a6,6,0,0,1-6-6V7a6,6,0,0,1,6-6h41a6,6,0,0,1,6,6V49.7"/><rect class="cls-2" x="4.17" y="3.84" width="53.84" height="53.84" rx="5.87"/><path class="cls-3" d="M53.83,53.8h-47a6,6,0,0,1-6-6v-41a6,6,0,0,1,6-6h41a6,6,0,0,1,6,6V49.53"/></g><g id="レイヤー_1" data-name="レイヤー 1"><path class="cls-4" d="M16.17,15.42,19.58,24,23,15.42h5.81L22.62,28.49l6.59,13.37h-6l-3.82-9-3.77,9H9.77l6.59-13.37L10.28,15.42Z"/><path class="cls-4" d="M41.28,39.75a5.07,5.07,0,0,1-1.91,2,5.54,5.54,0,0,1-2.61.56,5,5,0,0,1-4.63-2.41c-1-1.6-1.48-4.26-1.48-8s.5-6.38,1.48-8a5,5,0,0,1,4.63-2.46,4.88,4.88,0,0,1,2.47.59,5.92,5.92,0,0,1,1.83,1.78h.07V15.42h5.11V41.86H41.36V39.75Zm-5-2.94a2.28,2.28,0,0,0,4.37,0,17.82,17.82,0,0,0,.5-4.91,17.82,17.82,0,0,0-.5-4.91,2.28,2.28,0,0,0-4.37,0,18.22,18.22,0,0,0-.5,4.91A18.22,18.22,0,0,0,36.26,36.81Z"/></g></svg>